G04 #@! TF.GenerationSoftware,KiCad,Pcbnew,(5.1.5)-3*
G04 #@! TF.CreationDate,2020-01-26T13:19:22+01:00*
G04 #@! TF.ProjectId,12bitbadge,31326269-7462-4616-9467-652e6b696361,rev?*
G04 #@! TF.SameCoordinates,Original*
G04 #@! TF.FileFunction,Legend,Top*
G04 #@! TF.FilePolarity,Positive*
%FSLAX46Y46*%
G04 Gerber Fmt 4.6, Leading zero omitted, Abs format (unit mm)*
G04 Created by KiCad (PCBNEW (5.1.5)-3) date 2020-01-26 13:19:22*
%MOMM*%
%LPD*%
G04 APERTURE LIST*
%ADD10C,0.120000*%
%ADD11C,0.150000*%
%ADD12C,0.100000*%
G04 APERTURE END LIST*
D10*
X145802229Y-53263725D02*
G75*
G03X145802229Y-53263725I-1878829J0D01*
G01*
X148377515Y-54175035D02*
G75*
G03X148377515Y-54175035I-1878829J0D01*
G01*
X150629186Y-55721825D02*
G75*
G03X150629186Y-55721825I-1878829J0D01*
G01*
X152403794Y-57798686D02*
G75*
G03X152403794Y-57798686I-1878829J0D01*
G01*
X153580404Y-60264082D02*
G75*
G03X153580404Y-60264082I-1878830J0D01*
G01*
X154078829Y-62950000D02*
G75*
G03X154078829Y-62950000I-1878829J0D01*
G01*
X153865104Y-65673400D02*
G75*
G03X153865104Y-65673400I-1878829J0D01*
G01*
X152953794Y-68248686D02*
G75*
G03X152953794Y-68248686I-1878829J0D01*
G01*
X151407004Y-70500357D02*
G75*
G03X151407004Y-70500357I-1878829J0D01*
G01*
X149330143Y-72274965D02*
G75*
G03X149330143Y-72274965I-1878829J0D01*
G01*
X146864748Y-73451574D02*
G75*
G03X146864748Y-73451574I-1878830J0D01*
G01*
X144178829Y-73950000D02*
G75*
G03X144178829Y-73950000I-1878829J0D01*
G01*
X141455429Y-73736275D02*
G75*
G03X141455429Y-73736275I-1878829J0D01*
G01*
X138880143Y-72824965D02*
G75*
G03X138880143Y-72824965I-1878829J0D01*
G01*
X136628472Y-71278175D02*
G75*
G03X136628472Y-71278175I-1878829J0D01*
G01*
X134853864Y-69201314D02*
G75*
G03X134853864Y-69201314I-1878829J0D01*
G01*
X133677256Y-66735918D02*
G75*
G03X133677256Y-66735918I-1878830J0D01*
G01*
X133178829Y-64050000D02*
G75*
G03X133178829Y-64050000I-1878829J0D01*
G01*
X133392554Y-61326600D02*
G75*
G03X133392554Y-61326600I-1878829J0D01*
G01*
X134303864Y-58751314D02*
G75*
G03X134303864Y-58751314I-1878829J0D01*
G01*
X135850654Y-56499643D02*
G75*
G03X135850654Y-56499643I-1878829J0D01*
G01*
X137927515Y-54725035D02*
G75*
G03X137927515Y-54725035I-1878829J0D01*
G01*
X140392912Y-53548426D02*
G75*
G03X140392912Y-53548426I-1878830J0D01*
G01*
X142963822Y-55018551D02*
G75*
G03X142963822Y-55018551I-2150581J0D01*
G01*
X145190902Y-55065098D02*
G75*
G03X145190902Y-55065098I-2150581J0D01*
G01*
X147330049Y-55686470D02*
G75*
G03X147330049Y-55686470I-2150581J0D01*
G01*
X149235483Y-56840321D02*
G75*
G03X149235483Y-56840321I-2150581J0D01*
G01*
X150777352Y-58448019D02*
G75*
G03X150777352Y-58448019I-2150581J0D01*
G01*
X151850581Y-60400000D02*
G75*
G03X151850581Y-60400000I-2150581J0D01*
G01*
X152382030Y-62563241D02*
G75*
G03X152382030Y-62563241I-2150581J0D01*
G01*
X152335483Y-64790321D02*
G75*
G03X152335483Y-64790321I-2150581J0D01*
G01*
X151714111Y-66929468D02*
G75*
G03X151714111Y-66929468I-2150581J0D01*
G01*
X150560260Y-68834902D02*
G75*
G03X150560260Y-68834902I-2150581J0D01*
G01*
X148952562Y-70376771D02*
G75*
G03X148952562Y-70376771I-2150581J0D01*
G01*
X147000581Y-71450000D02*
G75*
G03X147000581Y-71450000I-2150581J0D01*
G01*
X144837340Y-71981449D02*
G75*
G03X144837340Y-71981449I-2150581J0D01*
G01*
X142610260Y-71934902D02*
G75*
G03X142610260Y-71934902I-2150581J0D01*
G01*
X140471113Y-71313530D02*
G75*
G03X140471113Y-71313530I-2150581J0D01*
G01*
X138565679Y-70159679D02*
G75*
G03X138565679Y-70159679I-2150581J0D01*
G01*
X137023810Y-68551981D02*
G75*
G03X137023810Y-68551981I-2150581J0D01*
G01*
X135950581Y-66600000D02*
G75*
G03X135950581Y-66600000I-2150581J0D01*
G01*
X135419132Y-64436759D02*
G75*
G03X135419132Y-64436759I-2150581J0D01*
G01*
X135465679Y-62209679D02*
G75*
G03X135465679Y-62209679I-2150581J0D01*
G01*
X136087051Y-60070532D02*
G75*
G03X136087051Y-60070532I-2150581J0D01*
G01*
X137240902Y-58165098D02*
G75*
G03X137240902Y-58165098I-2150581J0D01*
G01*
X138848600Y-56623229D02*
G75*
G03X138848600Y-56623229I-2150581J0D01*
G01*
X140800581Y-55550000D02*
G75*
G03X140800581Y-55550000I-2150581J0D01*
G01*
X143078829Y-53050000D02*
G75*
G03X143078829Y-53050000I-1878829J0D01*
G01*
D11*
X179061904Y-86002380D02*
X178728571Y-85526190D01*
X178490476Y-86002380D02*
X178490476Y-85002380D01*
X178871428Y-85002380D01*
X178966666Y-85050000D01*
X179014285Y-85097619D01*
X179061904Y-85192857D01*
X179061904Y-85335714D01*
X179014285Y-85430952D01*
X178966666Y-85478571D01*
X178871428Y-85526190D01*
X178490476Y-85526190D01*
X180014285Y-85050000D02*
X179919047Y-85002380D01*
X179776190Y-85002380D01*
X179633333Y-85050000D01*
X179538095Y-85145238D01*
X179490476Y-85240476D01*
X179442857Y-85430952D01*
X179442857Y-85573809D01*
X179490476Y-85764285D01*
X179538095Y-85859523D01*
X179633333Y-85954761D01*
X179776190Y-86002380D01*
X179871428Y-86002380D01*
X180014285Y-85954761D01*
X180061904Y-85907142D01*
X180061904Y-85573809D01*
X179871428Y-85573809D01*
X180823809Y-85478571D02*
X180966666Y-85526190D01*
X181014285Y-85573809D01*
X181061904Y-85669047D01*
X181061904Y-85811904D01*
X181014285Y-85907142D01*
X180966666Y-85954761D01*
X180871428Y-86002380D01*
X180490476Y-86002380D01*
X180490476Y-85002380D01*
X180823809Y-85002380D01*
X180919047Y-85050000D01*
X180966666Y-85097619D01*
X181014285Y-85192857D01*
X181014285Y-85288095D01*
X180966666Y-85383333D01*
X180919047Y-85430952D01*
X180823809Y-85478571D01*
X180490476Y-85478571D01*
X182728571Y-86002380D02*
X182252380Y-86002380D01*
X182252380Y-85002380D01*
X183061904Y-85478571D02*
X183395238Y-85478571D01*
X183538095Y-86002380D02*
X183061904Y-86002380D01*
X183061904Y-85002380D01*
X183538095Y-85002380D01*
X183966666Y-86002380D02*
X183966666Y-85002380D01*
X184204761Y-85002380D01*
X184347619Y-85050000D01*
X184442857Y-85145238D01*
X184490476Y-85240476D01*
X184538095Y-85430952D01*
X184538095Y-85573809D01*
X184490476Y-85764285D01*
X184442857Y-85859523D01*
X184347619Y-85954761D01*
X184204761Y-86002380D01*
X183966666Y-86002380D01*
X185680952Y-85954761D02*
X185823809Y-86002380D01*
X186061904Y-86002380D01*
X186157142Y-85954761D01*
X186204761Y-85907142D01*
X186252380Y-85811904D01*
X186252380Y-85716666D01*
X186204761Y-85621428D01*
X186157142Y-85573809D01*
X186061904Y-85526190D01*
X185871428Y-85478571D01*
X185776190Y-85430952D01*
X185728571Y-85383333D01*
X185680952Y-85288095D01*
X185680952Y-85192857D01*
X185728571Y-85097619D01*
X185776190Y-85050000D01*
X185871428Y-85002380D01*
X186109523Y-85002380D01*
X186252380Y-85050000D01*
X186633333Y-85716666D02*
X187109523Y-85716666D01*
X186538095Y-86002380D02*
X186871428Y-85002380D01*
X187204761Y-86002380D01*
X187728571Y-85002380D02*
X187919047Y-85002380D01*
X188014285Y-85050000D01*
X188109523Y-85145238D01*
X188157142Y-85335714D01*
X188157142Y-85669047D01*
X188109523Y-85859523D01*
X188014285Y-85954761D01*
X187919047Y-86002380D01*
X187728571Y-86002380D01*
X187633333Y-85954761D01*
X187538095Y-85859523D01*
X187490476Y-85669047D01*
X187490476Y-85335714D01*
X187538095Y-85145238D01*
X187633333Y-85050000D01*
X187728571Y-85002380D01*
X178609523Y-87604761D02*
X178752380Y-87652380D01*
X178990476Y-87652380D01*
X179085714Y-87604761D01*
X179133333Y-87557142D01*
X179180952Y-87461904D01*
X179180952Y-87366666D01*
X179133333Y-87271428D01*
X179085714Y-87223809D01*
X178990476Y-87176190D01*
X178800000Y-87128571D01*
X178704761Y-87080952D01*
X178657142Y-87033333D01*
X178609523Y-86938095D01*
X178609523Y-86842857D01*
X178657142Y-86747619D01*
X178704761Y-86700000D01*
X178800000Y-86652380D01*
X179038095Y-86652380D01*
X179180952Y-86700000D01*
X180038095Y-87652380D02*
X180038095Y-87128571D01*
X179990476Y-87033333D01*
X179895238Y-86985714D01*
X179704761Y-86985714D01*
X179609523Y-87033333D01*
X180038095Y-87604761D02*
X179942857Y-87652380D01*
X179704761Y-87652380D01*
X179609523Y-87604761D01*
X179561904Y-87509523D01*
X179561904Y-87414285D01*
X179609523Y-87319047D01*
X179704761Y-87271428D01*
X179942857Y-87271428D01*
X180038095Y-87223809D01*
X180514285Y-87652380D02*
X180514285Y-86985714D01*
X180514285Y-87080952D02*
X180561904Y-87033333D01*
X180657142Y-86985714D01*
X180800000Y-86985714D01*
X180895238Y-87033333D01*
X180942857Y-87128571D01*
X180942857Y-87652380D01*
X180942857Y-87128571D02*
X180990476Y-87033333D01*
X181085714Y-86985714D01*
X181228571Y-86985714D01*
X181323809Y-87033333D01*
X181371428Y-87128571D01*
X181371428Y-87652380D01*
X182609523Y-87128571D02*
X182942857Y-87128571D01*
X183085714Y-87652380D02*
X182609523Y-87652380D01*
X182609523Y-86652380D01*
X183085714Y-86652380D01*
X183371428Y-86985714D02*
X183752380Y-86985714D01*
X183514285Y-86652380D02*
X183514285Y-87509523D01*
X183561904Y-87604761D01*
X183657142Y-87652380D01*
X183752380Y-87652380D01*
X183942857Y-86985714D02*
X184323809Y-86985714D01*
X184085714Y-86652380D02*
X184085714Y-87509523D01*
X184133333Y-87604761D01*
X184228571Y-87652380D01*
X184323809Y-87652380D01*
X184657142Y-87652380D02*
X184657142Y-86985714D01*
X184657142Y-86652380D02*
X184609523Y-86700000D01*
X184657142Y-86747619D01*
X184704761Y-86700000D01*
X184657142Y-86652380D01*
X184657142Y-86747619D01*
X185133333Y-86985714D02*
X185133333Y-87652380D01*
X185133333Y-87080952D02*
X185180952Y-87033333D01*
X185276190Y-86985714D01*
X185419047Y-86985714D01*
X185514285Y-87033333D01*
X185561904Y-87128571D01*
X185561904Y-87652380D01*
X186466666Y-86985714D02*
X186466666Y-87795238D01*
X186419047Y-87890476D01*
X186371428Y-87938095D01*
X186276190Y-87985714D01*
X186133333Y-87985714D01*
X186038095Y-87938095D01*
X186466666Y-87604761D02*
X186371428Y-87652380D01*
X186180952Y-87652380D01*
X186085714Y-87604761D01*
X186038095Y-87557142D01*
X185990476Y-87461904D01*
X185990476Y-87176190D01*
X186038095Y-87080952D01*
X186085714Y-87033333D01*
X186180952Y-86985714D01*
X186371428Y-86985714D01*
X186466666Y-87033333D01*
X187323809Y-87604761D02*
X187228571Y-87652380D01*
X187038095Y-87652380D01*
X186942857Y-87604761D01*
X186895238Y-87509523D01*
X186895238Y-87128571D01*
X186942857Y-87033333D01*
X187038095Y-86985714D01*
X187228571Y-86985714D01*
X187323809Y-87033333D01*
X187371428Y-87128571D01*
X187371428Y-87223809D01*
X186895238Y-87319047D01*
X187800000Y-87652380D02*
X187800000Y-86985714D01*
X187800000Y-87176190D02*
X187847619Y-87080952D01*
X187895238Y-87033333D01*
X187990476Y-86985714D01*
X188085714Y-86985714D01*
X180038095Y-88778571D02*
X179704761Y-88778571D01*
X179704761Y-89302380D02*
X179704761Y-88302380D01*
X180180952Y-88302380D01*
X180942857Y-89254761D02*
X180847619Y-89302380D01*
X180657142Y-89302380D01*
X180561904Y-89254761D01*
X180514285Y-89159523D01*
X180514285Y-88778571D01*
X180561904Y-88683333D01*
X180657142Y-88635714D01*
X180847619Y-88635714D01*
X180942857Y-88683333D01*
X180990476Y-88778571D01*
X180990476Y-88873809D01*
X180514285Y-88969047D01*
X181419047Y-89302380D02*
X181419047Y-88302380D01*
X181419047Y-88683333D02*
X181514285Y-88635714D01*
X181704761Y-88635714D01*
X181800000Y-88683333D01*
X181847619Y-88730952D01*
X181895238Y-88826190D01*
X181895238Y-89111904D01*
X181847619Y-89207142D01*
X181800000Y-89254761D01*
X181704761Y-89302380D01*
X181514285Y-89302380D01*
X181419047Y-89254761D01*
X182323809Y-89207142D02*
X182371428Y-89254761D01*
X182323809Y-89302380D01*
X182276190Y-89254761D01*
X182323809Y-89207142D01*
X182323809Y-89302380D01*
X183514285Y-88397619D02*
X183561904Y-88350000D01*
X183657142Y-88302380D01*
X183895238Y-88302380D01*
X183990476Y-88350000D01*
X184038095Y-88397619D01*
X184085714Y-88492857D01*
X184085714Y-88588095D01*
X184038095Y-88730952D01*
X183466666Y-89302380D01*
X184085714Y-89302380D01*
X184704761Y-88302380D02*
X184800000Y-88302380D01*
X184895238Y-88350000D01*
X184942857Y-88397619D01*
X184990476Y-88492857D01*
X185038095Y-88683333D01*
X185038095Y-88921428D01*
X184990476Y-89111904D01*
X184942857Y-89207142D01*
X184895238Y-89254761D01*
X184800000Y-89302380D01*
X184704761Y-89302380D01*
X184609523Y-89254761D01*
X184561904Y-89207142D01*
X184514285Y-89111904D01*
X184466666Y-88921428D01*
X184466666Y-88683333D01*
X184514285Y-88492857D01*
X184561904Y-88397619D01*
X184609523Y-88350000D01*
X184704761Y-88302380D01*
X185419047Y-88397619D02*
X185466666Y-88350000D01*
X185561904Y-88302380D01*
X185800000Y-88302380D01*
X185895238Y-88350000D01*
X185942857Y-88397619D01*
X185990476Y-88492857D01*
X185990476Y-88588095D01*
X185942857Y-88730952D01*
X185371428Y-89302380D01*
X185990476Y-89302380D01*
X186609523Y-88302380D02*
X186704761Y-88302380D01*
X186800000Y-88350000D01*
X186847619Y-88397619D01*
X186895238Y-88492857D01*
X186942857Y-88683333D01*
X186942857Y-88921428D01*
X186895238Y-89111904D01*
X186847619Y-89207142D01*
X186800000Y-89254761D01*
X186704761Y-89302380D01*
X186609523Y-89302380D01*
X186514285Y-89254761D01*
X186466666Y-89207142D01*
X186419047Y-89111904D01*
X186371428Y-88921428D01*
X186371428Y-88683333D01*
X186419047Y-88492857D01*
X186466666Y-88397619D01*
X186514285Y-88350000D01*
X186609523Y-88302380D01*
D10*
X184520000Y-79210000D02*
X184520000Y-77750000D01*
X187680000Y-79210000D02*
X187680000Y-76050000D01*
X187680000Y-79210000D02*
X186750000Y-79210000D01*
X184520000Y-79210000D02*
X185450000Y-79210000D01*
X185270000Y-66110000D02*
X185270000Y-64650000D01*
X188430000Y-66110000D02*
X188430000Y-62950000D01*
X188430000Y-66110000D02*
X187500000Y-66110000D01*
X185270000Y-66110000D02*
X186200000Y-66110000D01*
X185220000Y-53460000D02*
X185220000Y-52000000D01*
X188380000Y-53460000D02*
X188380000Y-50300000D01*
X188380000Y-53460000D02*
X187450000Y-53460000D01*
X185220000Y-53460000D02*
X186150000Y-53460000D01*
X185913748Y-75360000D02*
X186436252Y-75360000D01*
X185913748Y-73940000D02*
X186436252Y-73940000D01*
X186588748Y-62360000D02*
X187111252Y-62360000D01*
X186588748Y-60940000D02*
X187111252Y-60940000D01*
X186488748Y-49510000D02*
X187011252Y-49510000D01*
X186488748Y-48090000D02*
X187011252Y-48090000D01*
X181950000Y-75352000D02*
X179000000Y-75352000D01*
X180150000Y-78572000D02*
X181950000Y-78572000D01*
X182200000Y-62890000D02*
X179250000Y-62890000D01*
X180400000Y-66110000D02*
X182200000Y-66110000D01*
X182350000Y-49952000D02*
X179400000Y-49952000D01*
X180550000Y-53172000D02*
X182350000Y-53172000D01*
X148929752Y-65838000D02*
X148407248Y-65838000D01*
X148929752Y-67258000D02*
X148407248Y-67258000D01*
X148851252Y-62663000D02*
X148328748Y-62663000D01*
X148851252Y-64083000D02*
X148328748Y-64083000D01*
X148851252Y-59615000D02*
X148328748Y-59615000D01*
X148851252Y-61035000D02*
X148328748Y-61035000D01*
X179760000Y-82048752D02*
X179760000Y-81526248D01*
X178340000Y-82048752D02*
X178340000Y-81526248D01*
X174744748Y-73354000D02*
X175267252Y-73354000D01*
X174744748Y-71934000D02*
X175267252Y-71934000D01*
X168394748Y-73354000D02*
X168917252Y-73354000D01*
X168394748Y-71934000D02*
X168917252Y-71934000D01*
X162044748Y-73354000D02*
X162567252Y-73354000D01*
X162044748Y-71934000D02*
X162567252Y-71934000D01*
X155694748Y-73354000D02*
X156217252Y-73354000D01*
X155694748Y-71934000D02*
X156217252Y-71934000D01*
X179710000Y-69361252D02*
X179710000Y-68838748D01*
X178290000Y-69361252D02*
X178290000Y-68838748D01*
X174744748Y-60654000D02*
X175267252Y-60654000D01*
X174744748Y-59234000D02*
X175267252Y-59234000D01*
X168394748Y-60654000D02*
X168917252Y-60654000D01*
X168394748Y-59234000D02*
X168917252Y-59234000D01*
X162044748Y-60654000D02*
X162567252Y-60654000D01*
X162044748Y-59234000D02*
X162567252Y-59234000D01*
X155694748Y-60654000D02*
X156217252Y-60654000D01*
X155694748Y-59234000D02*
X156217252Y-59234000D01*
X179760000Y-56649252D02*
X179760000Y-56126748D01*
X178340000Y-56649252D02*
X178340000Y-56126748D01*
X174744748Y-47954000D02*
X175267252Y-47954000D01*
X174744748Y-46534000D02*
X175267252Y-46534000D01*
X168394748Y-47954000D02*
X168917252Y-47954000D01*
X168394748Y-46534000D02*
X168917252Y-46534000D01*
X162044748Y-47954000D02*
X162567252Y-47954000D01*
X162044748Y-46534000D02*
X162567252Y-46534000D01*
X155694748Y-47954000D02*
X156217252Y-47954000D01*
X155694748Y-46534000D02*
X156217252Y-46534000D01*
X176980000Y-75300000D02*
X176980000Y-74100000D01*
X176980000Y-74100000D02*
X172780000Y-74100000D01*
X172780000Y-74100000D02*
X172780000Y-75300000D01*
X176980000Y-82100000D02*
X176980000Y-83300000D01*
X176980000Y-83300000D02*
X172780000Y-83300000D01*
X172780000Y-83300000D02*
X172780000Y-82100000D01*
X177280000Y-75000000D02*
X177280000Y-73800000D01*
X177280000Y-73800000D02*
X176080000Y-73800000D01*
X170630000Y-75300000D02*
X170630000Y-74100000D01*
X170630000Y-74100000D02*
X166430000Y-74100000D01*
X166430000Y-74100000D02*
X166430000Y-75300000D01*
X170630000Y-82100000D02*
X170630000Y-83300000D01*
X170630000Y-83300000D02*
X166430000Y-83300000D01*
X166430000Y-83300000D02*
X166430000Y-82100000D01*
X170930000Y-75000000D02*
X170930000Y-73800000D01*
X170930000Y-73800000D02*
X169730000Y-73800000D01*
X164280000Y-75300000D02*
X164280000Y-74100000D01*
X164280000Y-74100000D02*
X160080000Y-74100000D01*
X160080000Y-74100000D02*
X160080000Y-75300000D01*
X164280000Y-82100000D02*
X164280000Y-83300000D01*
X164280000Y-83300000D02*
X160080000Y-83300000D01*
X160080000Y-83300000D02*
X160080000Y-82100000D01*
X164580000Y-75000000D02*
X164580000Y-73800000D01*
X164580000Y-73800000D02*
X163380000Y-73800000D01*
X157930000Y-75300000D02*
X157930000Y-74100000D01*
X157930000Y-74100000D02*
X153730000Y-74100000D01*
X153730000Y-74100000D02*
X153730000Y-75300000D01*
X157930000Y-82100000D02*
X157930000Y-83300000D01*
X157930000Y-83300000D02*
X153730000Y-83300000D01*
X153730000Y-83300000D02*
X153730000Y-82100000D01*
X158230000Y-75000000D02*
X158230000Y-73800000D01*
X158230000Y-73800000D02*
X157030000Y-73800000D01*
X176980000Y-62600000D02*
X176980000Y-61400000D01*
X176980000Y-61400000D02*
X172780000Y-61400000D01*
X172780000Y-61400000D02*
X172780000Y-62600000D01*
X176980000Y-69400000D02*
X176980000Y-70600000D01*
X176980000Y-70600000D02*
X172780000Y-70600000D01*
X172780000Y-70600000D02*
X172780000Y-69400000D01*
X177280000Y-62300000D02*
X177280000Y-61100000D01*
X177280000Y-61100000D02*
X176080000Y-61100000D01*
X170630000Y-62600000D02*
X170630000Y-61400000D01*
X170630000Y-61400000D02*
X166430000Y-61400000D01*
X166430000Y-61400000D02*
X166430000Y-62600000D01*
X170630000Y-69400000D02*
X170630000Y-70600000D01*
X170630000Y-70600000D02*
X166430000Y-70600000D01*
X166430000Y-70600000D02*
X166430000Y-69400000D01*
X170930000Y-62300000D02*
X170930000Y-61100000D01*
X170930000Y-61100000D02*
X169730000Y-61100000D01*
X164280000Y-62600000D02*
X164280000Y-61400000D01*
X164280000Y-61400000D02*
X160080000Y-61400000D01*
X160080000Y-61400000D02*
X160080000Y-62600000D01*
X164280000Y-69400000D02*
X164280000Y-70600000D01*
X164280000Y-70600000D02*
X160080000Y-70600000D01*
X160080000Y-70600000D02*
X160080000Y-69400000D01*
X164580000Y-62300000D02*
X164580000Y-61100000D01*
X164580000Y-61100000D02*
X163380000Y-61100000D01*
X157930000Y-62600000D02*
X157930000Y-61400000D01*
X157930000Y-61400000D02*
X153730000Y-61400000D01*
X153730000Y-61400000D02*
X153730000Y-62600000D01*
X157930000Y-69400000D02*
X157930000Y-70600000D01*
X157930000Y-70600000D02*
X153730000Y-70600000D01*
X153730000Y-70600000D02*
X153730000Y-69400000D01*
X158230000Y-62300000D02*
X158230000Y-61100000D01*
X158230000Y-61100000D02*
X157030000Y-61100000D01*
X176980000Y-49900000D02*
X176980000Y-48700000D01*
X176980000Y-48700000D02*
X172780000Y-48700000D01*
X172780000Y-48700000D02*
X172780000Y-49900000D01*
X176980000Y-56700000D02*
X176980000Y-57900000D01*
X176980000Y-57900000D02*
X172780000Y-57900000D01*
X172780000Y-57900000D02*
X172780000Y-56700000D01*
X177280000Y-49600000D02*
X177280000Y-48400000D01*
X177280000Y-48400000D02*
X176080000Y-48400000D01*
X170630000Y-49900000D02*
X170630000Y-48700000D01*
X170630000Y-48700000D02*
X166430000Y-48700000D01*
X166430000Y-48700000D02*
X166430000Y-49900000D01*
X170630000Y-56700000D02*
X170630000Y-57900000D01*
X170630000Y-57900000D02*
X166430000Y-57900000D01*
X166430000Y-57900000D02*
X166430000Y-56700000D01*
X170930000Y-49600000D02*
X170930000Y-48400000D01*
X170930000Y-48400000D02*
X169730000Y-48400000D01*
X164280000Y-49900000D02*
X164280000Y-48700000D01*
X164280000Y-48700000D02*
X160080000Y-48700000D01*
X160080000Y-48700000D02*
X160080000Y-49900000D01*
X164280000Y-56700000D02*
X164280000Y-57900000D01*
X164280000Y-57900000D02*
X160080000Y-57900000D01*
X160080000Y-57900000D02*
X160080000Y-56700000D01*
X164580000Y-49600000D02*
X164580000Y-48400000D01*
X164580000Y-48400000D02*
X163380000Y-48400000D01*
X157930000Y-49900000D02*
X157930000Y-48700000D01*
X157930000Y-48700000D02*
X153730000Y-48700000D01*
X153730000Y-48700000D02*
X153730000Y-49900000D01*
X157930000Y-56700000D02*
X157930000Y-57900000D01*
X157930000Y-57900000D02*
X153730000Y-57900000D01*
X153730000Y-57900000D02*
X153730000Y-56700000D01*
X158230000Y-49600000D02*
X158230000Y-48400000D01*
X158230000Y-48400000D02*
X157030000Y-48400000D01*
X184064240Y-37591031D02*
X184573209Y-36362271D01*
X184573209Y-36362271D02*
X185801969Y-36871240D01*
X183578232Y-38764358D02*
X185980319Y-39759335D01*
X185980319Y-39759335D02*
X186975296Y-37357248D01*
X186975296Y-37357248D02*
X191724037Y-39324241D01*
X189734083Y-44128415D02*
X191724037Y-39324241D01*
X182583255Y-41166445D02*
X189734083Y-44128415D01*
X182583255Y-41166445D02*
X183578232Y-38764358D01*
X166945000Y-38100000D02*
X166945000Y-36770000D01*
X166945000Y-36770000D02*
X168275000Y-36770000D01*
X166945000Y-39370000D02*
X169545000Y-39370000D01*
X169545000Y-39370000D02*
X169545000Y-36770000D01*
X169545000Y-36770000D02*
X174685000Y-36770000D01*
X174685000Y-41970000D02*
X174685000Y-36770000D01*
X166945000Y-41970000D02*
X174685000Y-41970000D01*
X166945000Y-41970000D02*
X166945000Y-39370000D01*
X151027570Y-40155331D02*
X150518601Y-38926571D01*
X150518601Y-38926571D02*
X151747361Y-38417602D01*
X151513578Y-41328658D02*
X153915665Y-40333681D01*
X153915665Y-40333681D02*
X152920688Y-37931594D01*
X152920688Y-37931594D02*
X157669429Y-35964601D01*
X159659383Y-40768775D02*
X157669429Y-35964601D01*
X152508555Y-43730745D02*
X159659383Y-40768775D01*
X152508555Y-43730745D02*
X151513578Y-41328658D01*
D12*
X191135000Y-75946000D02*
G75*
G03X191135000Y-74676000I0J635000D01*
G01*
X191135000Y-74676000D02*
X190246000Y-74676000D01*
X191135000Y-75946000D02*
X190246000Y-75946000D01*
X191135000Y-63246000D02*
G75*
G03X191135000Y-61976000I0J635000D01*
G01*
X191135000Y-61976000D02*
X190246000Y-61976000D01*
X191135000Y-63246000D02*
X190246000Y-63246000D01*
X191135000Y-50292000D02*
G75*
G03X191135000Y-49022000I0J635000D01*
G01*
X191135000Y-49022000D02*
X190246000Y-49022000D01*
X191135000Y-50292000D02*
X190246000Y-50292000D01*
D10*
X142812000Y-66060000D02*
X143277000Y-66060000D01*
X140187000Y-66060000D02*
X140652000Y-66060000D01*
X142812429Y-61245521D02*
G75*
G02X142812000Y-65754684I-1080429J-2254479D01*
G01*
X140651571Y-61245521D02*
G75*
G03X140652000Y-65754684I1080429J-2254479D01*
G01*
X142812827Y-60712185D02*
G75*
G02X143276830Y-66060000I-1080827J-2787815D01*
G01*
X140651173Y-60712185D02*
G75*
G03X140187170Y-66060000I1080827J-2787815D01*
G01*
M02*
