G04 #@! TF.GenerationSoftware,KiCad,Pcbnew,(5.1.5)-3*
G04 #@! TF.CreationDate,2020-02-02T22:15:09+01:00*
G04 #@! TF.ProjectId,12bitbadge,31326269-7462-4616-9467-652e6b696361,rev?*
G04 #@! TF.SameCoordinates,Original*
G04 #@! TF.FileFunction,Soldermask,Top*
G04 #@! TF.FilePolarity,Negative*
%FSLAX46Y46*%
G04 Gerber Fmt 4.6, Leading zero omitted, Abs format (unit mm)*
G04 Created by KiCad (PCBNEW (5.1.5)-3) date 2020-02-02 22:15:09*
%MOMM*%
%LPD*%
G04 APERTURE LIST*
%ADD10C,0.100000*%
G04 APERTURE END LIST*
D10*
G36*
X167351059Y-98083860D02*
G01*
X167487732Y-98140472D01*
X167610735Y-98222660D01*
X167715340Y-98327265D01*
X167715341Y-98327267D01*
X167797529Y-98450270D01*
X167854140Y-98586941D01*
X167883000Y-98732032D01*
X167883000Y-98879968D01*
X167854140Y-99025059D01*
X167797528Y-99161732D01*
X167715340Y-99284735D01*
X167610735Y-99389340D01*
X167487732Y-99471528D01*
X167487731Y-99471529D01*
X167487730Y-99471529D01*
X167351059Y-99528140D01*
X167205968Y-99557000D01*
X167058032Y-99557000D01*
X166912941Y-99528140D01*
X166776270Y-99471529D01*
X166776269Y-99471529D01*
X166776268Y-99471528D01*
X166653265Y-99389340D01*
X166548660Y-99284735D01*
X166466472Y-99161732D01*
X166409860Y-99025059D01*
X166381000Y-98879968D01*
X166381000Y-98732032D01*
X166409860Y-98586941D01*
X166466471Y-98450270D01*
X166548659Y-98327267D01*
X166548660Y-98327265D01*
X166653265Y-98222660D01*
X166776268Y-98140472D01*
X166912941Y-98083860D01*
X167058032Y-98055000D01*
X167205968Y-98055000D01*
X167351059Y-98083860D01*
G37*
G36*
X154651059Y-98083860D02*
G01*
X154787732Y-98140472D01*
X154910735Y-98222660D01*
X155015340Y-98327265D01*
X155015341Y-98327267D01*
X155097529Y-98450270D01*
X155154140Y-98586941D01*
X155183000Y-98732032D01*
X155183000Y-98879968D01*
X155154140Y-99025059D01*
X155097528Y-99161732D01*
X155015340Y-99284735D01*
X154910735Y-99389340D01*
X154787732Y-99471528D01*
X154787731Y-99471529D01*
X154787730Y-99471529D01*
X154651059Y-99528140D01*
X154505968Y-99557000D01*
X154358032Y-99557000D01*
X154212941Y-99528140D01*
X154076270Y-99471529D01*
X154076269Y-99471529D01*
X154076268Y-99471528D01*
X153953265Y-99389340D01*
X153848660Y-99284735D01*
X153766472Y-99161732D01*
X153709860Y-99025059D01*
X153681000Y-98879968D01*
X153681000Y-98732032D01*
X153709860Y-98586941D01*
X153766471Y-98450270D01*
X153848659Y-98327267D01*
X153848660Y-98327265D01*
X153953265Y-98222660D01*
X154076268Y-98140472D01*
X154212941Y-98083860D01*
X154358032Y-98055000D01*
X154505968Y-98055000D01*
X154651059Y-98083860D01*
G37*
G36*
X159731059Y-98083860D02*
G01*
X159867732Y-98140472D01*
X159990735Y-98222660D01*
X160095340Y-98327265D01*
X160095341Y-98327267D01*
X160177529Y-98450270D01*
X160234140Y-98586941D01*
X160263000Y-98732032D01*
X160263000Y-98879968D01*
X160234140Y-99025059D01*
X160177528Y-99161732D01*
X160095340Y-99284735D01*
X159990735Y-99389340D01*
X159867732Y-99471528D01*
X159867731Y-99471529D01*
X159867730Y-99471529D01*
X159731059Y-99528140D01*
X159585968Y-99557000D01*
X159438032Y-99557000D01*
X159292941Y-99528140D01*
X159156270Y-99471529D01*
X159156269Y-99471529D01*
X159156268Y-99471528D01*
X159033265Y-99389340D01*
X158928660Y-99284735D01*
X158846472Y-99161732D01*
X158789860Y-99025059D01*
X158761000Y-98879968D01*
X158761000Y-98732032D01*
X158789860Y-98586941D01*
X158846471Y-98450270D01*
X158928659Y-98327267D01*
X158928660Y-98327265D01*
X159033265Y-98222660D01*
X159156268Y-98140472D01*
X159292941Y-98083860D01*
X159438032Y-98055000D01*
X159585968Y-98055000D01*
X159731059Y-98083860D01*
G37*
G36*
X147031059Y-98083860D02*
G01*
X147167732Y-98140472D01*
X147290735Y-98222660D01*
X147395340Y-98327265D01*
X147395341Y-98327267D01*
X147477529Y-98450270D01*
X147534140Y-98586941D01*
X147563000Y-98732032D01*
X147563000Y-98879968D01*
X147534140Y-99025059D01*
X147477528Y-99161732D01*
X147395340Y-99284735D01*
X147290735Y-99389340D01*
X147167732Y-99471528D01*
X147167731Y-99471529D01*
X147167730Y-99471529D01*
X147031059Y-99528140D01*
X146885968Y-99557000D01*
X146738032Y-99557000D01*
X146592941Y-99528140D01*
X146456270Y-99471529D01*
X146456269Y-99471529D01*
X146456268Y-99471528D01*
X146333265Y-99389340D01*
X146228660Y-99284735D01*
X146146472Y-99161732D01*
X146089860Y-99025059D01*
X146061000Y-98879968D01*
X146061000Y-98732032D01*
X146089860Y-98586941D01*
X146146471Y-98450270D01*
X146228659Y-98327267D01*
X146228660Y-98327265D01*
X146333265Y-98222660D01*
X146456268Y-98140472D01*
X146592941Y-98083860D01*
X146738032Y-98055000D01*
X146885968Y-98055000D01*
X147031059Y-98083860D01*
G37*
G36*
X152111059Y-98083860D02*
G01*
X152247732Y-98140472D01*
X152370735Y-98222660D01*
X152475340Y-98327265D01*
X152475341Y-98327267D01*
X152557529Y-98450270D01*
X152614140Y-98586941D01*
X152643000Y-98732032D01*
X152643000Y-98879968D01*
X152614140Y-99025059D01*
X152557528Y-99161732D01*
X152475340Y-99284735D01*
X152370735Y-99389340D01*
X152247732Y-99471528D01*
X152247731Y-99471529D01*
X152247730Y-99471529D01*
X152111059Y-99528140D01*
X151965968Y-99557000D01*
X151818032Y-99557000D01*
X151672941Y-99528140D01*
X151536270Y-99471529D01*
X151536269Y-99471529D01*
X151536268Y-99471528D01*
X151413265Y-99389340D01*
X151308660Y-99284735D01*
X151226472Y-99161732D01*
X151169860Y-99025059D01*
X151141000Y-98879968D01*
X151141000Y-98732032D01*
X151169860Y-98586941D01*
X151226471Y-98450270D01*
X151308659Y-98327267D01*
X151308660Y-98327265D01*
X151413265Y-98222660D01*
X151536268Y-98140472D01*
X151672941Y-98083860D01*
X151818032Y-98055000D01*
X151965968Y-98055000D01*
X152111059Y-98083860D01*
G37*
G36*
X139411059Y-98083860D02*
G01*
X139547732Y-98140472D01*
X139670735Y-98222660D01*
X139775340Y-98327265D01*
X139775341Y-98327267D01*
X139857529Y-98450270D01*
X139914140Y-98586941D01*
X139943000Y-98732032D01*
X139943000Y-98879968D01*
X139914140Y-99025059D01*
X139857528Y-99161732D01*
X139775340Y-99284735D01*
X139670735Y-99389340D01*
X139547732Y-99471528D01*
X139547731Y-99471529D01*
X139547730Y-99471529D01*
X139411059Y-99528140D01*
X139265968Y-99557000D01*
X139118032Y-99557000D01*
X138972941Y-99528140D01*
X138836270Y-99471529D01*
X138836269Y-99471529D01*
X138836268Y-99471528D01*
X138713265Y-99389340D01*
X138608660Y-99284735D01*
X138526472Y-99161732D01*
X138469860Y-99025059D01*
X138441000Y-98879968D01*
X138441000Y-98732032D01*
X138469860Y-98586941D01*
X138526471Y-98450270D01*
X138608659Y-98327267D01*
X138608660Y-98327265D01*
X138713265Y-98222660D01*
X138836268Y-98140472D01*
X138972941Y-98083860D01*
X139118032Y-98055000D01*
X139265968Y-98055000D01*
X139411059Y-98083860D01*
G37*
G36*
X144491059Y-98083860D02*
G01*
X144627732Y-98140472D01*
X144750735Y-98222660D01*
X144855340Y-98327265D01*
X144855341Y-98327267D01*
X144937529Y-98450270D01*
X144994140Y-98586941D01*
X145023000Y-98732032D01*
X145023000Y-98879968D01*
X144994140Y-99025059D01*
X144937528Y-99161732D01*
X144855340Y-99284735D01*
X144750735Y-99389340D01*
X144627732Y-99471528D01*
X144627731Y-99471529D01*
X144627730Y-99471529D01*
X144491059Y-99528140D01*
X144345968Y-99557000D01*
X144198032Y-99557000D01*
X144052941Y-99528140D01*
X143916270Y-99471529D01*
X143916269Y-99471529D01*
X143916268Y-99471528D01*
X143793265Y-99389340D01*
X143688660Y-99284735D01*
X143606472Y-99161732D01*
X143549860Y-99025059D01*
X143521000Y-98879968D01*
X143521000Y-98732032D01*
X143549860Y-98586941D01*
X143606471Y-98450270D01*
X143688659Y-98327267D01*
X143688660Y-98327265D01*
X143793265Y-98222660D01*
X143916268Y-98140472D01*
X144052941Y-98083860D01*
X144198032Y-98055000D01*
X144345968Y-98055000D01*
X144491059Y-98083860D01*
G37*
G36*
X162271059Y-98083860D02*
G01*
X162407732Y-98140472D01*
X162530735Y-98222660D01*
X162635340Y-98327265D01*
X162635341Y-98327267D01*
X162717529Y-98450270D01*
X162774140Y-98586941D01*
X162803000Y-98732032D01*
X162803000Y-98879968D01*
X162774140Y-99025059D01*
X162717528Y-99161732D01*
X162635340Y-99284735D01*
X162530735Y-99389340D01*
X162407732Y-99471528D01*
X162407731Y-99471529D01*
X162407730Y-99471529D01*
X162271059Y-99528140D01*
X162125968Y-99557000D01*
X161978032Y-99557000D01*
X161832941Y-99528140D01*
X161696270Y-99471529D01*
X161696269Y-99471529D01*
X161696268Y-99471528D01*
X161573265Y-99389340D01*
X161468660Y-99284735D01*
X161386472Y-99161732D01*
X161329860Y-99025059D01*
X161301000Y-98879968D01*
X161301000Y-98732032D01*
X161329860Y-98586941D01*
X161386471Y-98450270D01*
X161468659Y-98327267D01*
X161468660Y-98327265D01*
X161573265Y-98222660D01*
X161696268Y-98140472D01*
X161832941Y-98083860D01*
X161978032Y-98055000D01*
X162125968Y-98055000D01*
X162271059Y-98083860D01*
G37*
G36*
X133209512Y-97655927D02*
G01*
X133358812Y-97685624D01*
X133522784Y-97753544D01*
X133670354Y-97852147D01*
X133795853Y-97977646D01*
X133894456Y-98125216D01*
X133962376Y-98289188D01*
X133997000Y-98463259D01*
X133997000Y-98640741D01*
X133962376Y-98814812D01*
X133894456Y-98978784D01*
X133795853Y-99126354D01*
X133670354Y-99251853D01*
X133522784Y-99350456D01*
X133358812Y-99418376D01*
X133209512Y-99448073D01*
X133184742Y-99453000D01*
X133007258Y-99453000D01*
X132982488Y-99448073D01*
X132833188Y-99418376D01*
X132669216Y-99350456D01*
X132521646Y-99251853D01*
X132396147Y-99126354D01*
X132297544Y-98978784D01*
X132229624Y-98814812D01*
X132195000Y-98640741D01*
X132195000Y-98463259D01*
X132229624Y-98289188D01*
X132297544Y-98125216D01*
X132396147Y-97977646D01*
X132521646Y-97852147D01*
X132669216Y-97753544D01*
X132833188Y-97685624D01*
X132982488Y-97655927D01*
X133007258Y-97651000D01*
X133184742Y-97651000D01*
X133209512Y-97655927D01*
G37*
G36*
X130669512Y-97655927D02*
G01*
X130818812Y-97685624D01*
X130982784Y-97753544D01*
X131130354Y-97852147D01*
X131255853Y-97977646D01*
X131354456Y-98125216D01*
X131422376Y-98289188D01*
X131457000Y-98463259D01*
X131457000Y-98640741D01*
X131422376Y-98814812D01*
X131354456Y-98978784D01*
X131255853Y-99126354D01*
X131130354Y-99251853D01*
X130982784Y-99350456D01*
X130818812Y-99418376D01*
X130669512Y-99448073D01*
X130644742Y-99453000D01*
X130467258Y-99453000D01*
X130442488Y-99448073D01*
X130293188Y-99418376D01*
X130129216Y-99350456D01*
X129981646Y-99251853D01*
X129856147Y-99126354D01*
X129757544Y-98978784D01*
X129689624Y-98814812D01*
X129655000Y-98640741D01*
X129655000Y-98463259D01*
X129689624Y-98289188D01*
X129757544Y-98125216D01*
X129856147Y-97977646D01*
X129981646Y-97852147D01*
X130129216Y-97753544D01*
X130293188Y-97685624D01*
X130442488Y-97655927D01*
X130467258Y-97651000D01*
X130644742Y-97651000D01*
X130669512Y-97655927D01*
G37*
G36*
X135749512Y-97655927D02*
G01*
X135898812Y-97685624D01*
X136062784Y-97753544D01*
X136210354Y-97852147D01*
X136335853Y-97977646D01*
X136434456Y-98125216D01*
X136502376Y-98289188D01*
X136537000Y-98463259D01*
X136537000Y-98640741D01*
X136502376Y-98814812D01*
X136434456Y-98978784D01*
X136335853Y-99126354D01*
X136210354Y-99251853D01*
X136062784Y-99350456D01*
X135898812Y-99418376D01*
X135749512Y-99448073D01*
X135724742Y-99453000D01*
X135547258Y-99453000D01*
X135522488Y-99448073D01*
X135373188Y-99418376D01*
X135209216Y-99350456D01*
X135061646Y-99251853D01*
X134936147Y-99126354D01*
X134837544Y-98978784D01*
X134769624Y-98814812D01*
X134735000Y-98640741D01*
X134735000Y-98463259D01*
X134769624Y-98289188D01*
X134837544Y-98125216D01*
X134936147Y-97977646D01*
X135061646Y-97852147D01*
X135209216Y-97753544D01*
X135373188Y-97685624D01*
X135522488Y-97655927D01*
X135547258Y-97651000D01*
X135724742Y-97651000D01*
X135749512Y-97655927D01*
G37*
G36*
X176667000Y-97807000D02*
G01*
X175365000Y-97807000D01*
X175365000Y-95505000D01*
X176667000Y-95505000D01*
X176667000Y-97807000D01*
G37*
G36*
X172107000Y-97807000D02*
G01*
X170805000Y-97807000D01*
X170805000Y-95505000D01*
X172107000Y-95505000D01*
X172107000Y-97807000D01*
G37*
G36*
X135749512Y-95115927D02*
G01*
X135898812Y-95145624D01*
X136062784Y-95213544D01*
X136210354Y-95312147D01*
X136335853Y-95437646D01*
X136434456Y-95585216D01*
X136502376Y-95749188D01*
X136532073Y-95898488D01*
X136535463Y-95915529D01*
X136537000Y-95923259D01*
X136537000Y-96100741D01*
X136502376Y-96274812D01*
X136434456Y-96438784D01*
X136335853Y-96586354D01*
X136210354Y-96711853D01*
X136062784Y-96810456D01*
X135898812Y-96878376D01*
X135749512Y-96908073D01*
X135724742Y-96913000D01*
X135547258Y-96913000D01*
X135522488Y-96908073D01*
X135373188Y-96878376D01*
X135209216Y-96810456D01*
X135061646Y-96711853D01*
X134936147Y-96586354D01*
X134837544Y-96438784D01*
X134769624Y-96274812D01*
X134735000Y-96100741D01*
X134735000Y-95923259D01*
X134736538Y-95915529D01*
X134739927Y-95898488D01*
X134769624Y-95749188D01*
X134837544Y-95585216D01*
X134936147Y-95437646D01*
X135061646Y-95312147D01*
X135209216Y-95213544D01*
X135373188Y-95145624D01*
X135522488Y-95115927D01*
X135547258Y-95111000D01*
X135724742Y-95111000D01*
X135749512Y-95115927D01*
G37*
G36*
X133209512Y-95115927D02*
G01*
X133358812Y-95145624D01*
X133522784Y-95213544D01*
X133670354Y-95312147D01*
X133795853Y-95437646D01*
X133894456Y-95585216D01*
X133962376Y-95749188D01*
X133992073Y-95898488D01*
X133995463Y-95915529D01*
X133997000Y-95923259D01*
X133997000Y-96100741D01*
X133962376Y-96274812D01*
X133894456Y-96438784D01*
X133795853Y-96586354D01*
X133670354Y-96711853D01*
X133522784Y-96810456D01*
X133358812Y-96878376D01*
X133209512Y-96908073D01*
X133184742Y-96913000D01*
X133007258Y-96913000D01*
X132982488Y-96908073D01*
X132833188Y-96878376D01*
X132669216Y-96810456D01*
X132521646Y-96711853D01*
X132396147Y-96586354D01*
X132297544Y-96438784D01*
X132229624Y-96274812D01*
X132195000Y-96100741D01*
X132195000Y-95923259D01*
X132196538Y-95915529D01*
X132199927Y-95898488D01*
X132229624Y-95749188D01*
X132297544Y-95585216D01*
X132396147Y-95437646D01*
X132521646Y-95312147D01*
X132669216Y-95213544D01*
X132833188Y-95145624D01*
X132982488Y-95115927D01*
X133007258Y-95111000D01*
X133184742Y-95111000D01*
X133209512Y-95115927D01*
G37*
G36*
X131457000Y-96913000D02*
G01*
X129655000Y-96913000D01*
X129655000Y-95111000D01*
X131457000Y-95111000D01*
X131457000Y-96913000D01*
G37*
G36*
X114345412Y-93523215D02*
G01*
X114649514Y-93649178D01*
X114923199Y-93832049D01*
X115155951Y-94064801D01*
X115338822Y-94338486D01*
X115464785Y-94642588D01*
X115529000Y-94965420D01*
X115529000Y-95294580D01*
X115464785Y-95617412D01*
X115338822Y-95921514D01*
X115155951Y-96195199D01*
X114923199Y-96427951D01*
X114649514Y-96610822D01*
X114345412Y-96736785D01*
X114022580Y-96801000D01*
X113693420Y-96801000D01*
X113370588Y-96736785D01*
X113066486Y-96610822D01*
X112792801Y-96427951D01*
X112560049Y-96195199D01*
X112377178Y-95921514D01*
X112251215Y-95617412D01*
X112187000Y-95294580D01*
X112187000Y-94965420D01*
X112251215Y-94642588D01*
X112377178Y-94338486D01*
X112560049Y-94064801D01*
X112792801Y-93832049D01*
X113066486Y-93649178D01*
X113370588Y-93523215D01*
X113693420Y-93459000D01*
X114022580Y-93459000D01*
X114345412Y-93523215D01*
G37*
G36*
X123945412Y-93523215D02*
G01*
X124249514Y-93649178D01*
X124523199Y-93832049D01*
X124755951Y-94064801D01*
X124938822Y-94338486D01*
X125064785Y-94642588D01*
X125129000Y-94965420D01*
X125129000Y-95294580D01*
X125064785Y-95617412D01*
X124938822Y-95921514D01*
X124755951Y-96195199D01*
X124523199Y-96427951D01*
X124249514Y-96610822D01*
X123945412Y-96736785D01*
X123622580Y-96801000D01*
X123293420Y-96801000D01*
X122970588Y-96736785D01*
X122666486Y-96610822D01*
X122392801Y-96427951D01*
X122160049Y-96195199D01*
X121977178Y-95921514D01*
X121851215Y-95617412D01*
X121787000Y-95294580D01*
X121787000Y-94965420D01*
X121851215Y-94642588D01*
X121977178Y-94338486D01*
X122160049Y-94064801D01*
X122392801Y-93832049D01*
X122666486Y-93649178D01*
X122970588Y-93523215D01*
X123293420Y-93459000D01*
X123622580Y-93459000D01*
X123945412Y-93523215D01*
G37*
G36*
X179289059Y-94527860D02*
G01*
X179367304Y-94560270D01*
X179425732Y-94584472D01*
X179548735Y-94666660D01*
X179653340Y-94771265D01*
X179735528Y-94894268D01*
X179735529Y-94894270D01*
X179792140Y-95030941D01*
X179814952Y-95145624D01*
X179821000Y-95176033D01*
X179821000Y-95323967D01*
X179792140Y-95469059D01*
X179735528Y-95605732D01*
X179653340Y-95728735D01*
X179548735Y-95833340D01*
X179425732Y-95915528D01*
X179425731Y-95915529D01*
X179425730Y-95915529D01*
X179289059Y-95972140D01*
X179143968Y-96001000D01*
X178996032Y-96001000D01*
X178850941Y-95972140D01*
X178714270Y-95915529D01*
X178714269Y-95915529D01*
X178714268Y-95915528D01*
X178591265Y-95833340D01*
X178486660Y-95728735D01*
X178404472Y-95605732D01*
X178347860Y-95469059D01*
X178319000Y-95323967D01*
X178319000Y-95176033D01*
X178325049Y-95145624D01*
X178347860Y-95030941D01*
X178404471Y-94894270D01*
X178404472Y-94894268D01*
X178486660Y-94771265D01*
X178591265Y-94666660D01*
X178714268Y-94584472D01*
X178772697Y-94560270D01*
X178850941Y-94527860D01*
X178996032Y-94499000D01*
X179143968Y-94499000D01*
X179289059Y-94527860D01*
G37*
G36*
X167097059Y-94273860D02*
G01*
X167233732Y-94330472D01*
X167356735Y-94412660D01*
X167461340Y-94517265D01*
X167506246Y-94584472D01*
X167543529Y-94640270D01*
X167600140Y-94776941D01*
X167629000Y-94922032D01*
X167629000Y-95069968D01*
X167600442Y-95213544D01*
X167600140Y-95215059D01*
X167543528Y-95351732D01*
X167461340Y-95474735D01*
X167356735Y-95579340D01*
X167233732Y-95661528D01*
X167233731Y-95661529D01*
X167233730Y-95661529D01*
X167097059Y-95718140D01*
X166951968Y-95747000D01*
X166804032Y-95747000D01*
X166658941Y-95718140D01*
X166522270Y-95661529D01*
X166522269Y-95661529D01*
X166522268Y-95661528D01*
X166399265Y-95579340D01*
X166294660Y-95474735D01*
X166212472Y-95351732D01*
X166155860Y-95215059D01*
X166155559Y-95213544D01*
X166127000Y-95069968D01*
X166127000Y-94922032D01*
X166155860Y-94776941D01*
X166212471Y-94640270D01*
X166249754Y-94584472D01*
X166294660Y-94517265D01*
X166399265Y-94412660D01*
X166522268Y-94330472D01*
X166658941Y-94273860D01*
X166804032Y-94245000D01*
X166951968Y-94245000D01*
X167097059Y-94273860D01*
G37*
G36*
X157953059Y-94193860D02*
G01*
X158076522Y-94245000D01*
X158089732Y-94250472D01*
X158212735Y-94332660D01*
X158317340Y-94437265D01*
X158399528Y-94560268D01*
X158399529Y-94560270D01*
X158456140Y-94696941D01*
X158485000Y-94842032D01*
X158485000Y-94989968D01*
X158456140Y-95135059D01*
X158423005Y-95215055D01*
X158399528Y-95271732D01*
X158317340Y-95394735D01*
X158212735Y-95499340D01*
X158089732Y-95581528D01*
X158089731Y-95581529D01*
X158089730Y-95581529D01*
X157953059Y-95638140D01*
X157807968Y-95667000D01*
X157660032Y-95667000D01*
X157514941Y-95638140D01*
X157378270Y-95581529D01*
X157378269Y-95581529D01*
X157378268Y-95581528D01*
X157255265Y-95499340D01*
X157150660Y-95394735D01*
X157068472Y-95271732D01*
X157044996Y-95215055D01*
X157011860Y-95135059D01*
X156983000Y-94989968D01*
X156983000Y-94842032D01*
X157011860Y-94696941D01*
X157068471Y-94560270D01*
X157068472Y-94560268D01*
X157150660Y-94437265D01*
X157255265Y-94332660D01*
X157378268Y-94250472D01*
X157391479Y-94245000D01*
X157514941Y-94193860D01*
X157660032Y-94165000D01*
X157807968Y-94165000D01*
X157953059Y-94193860D01*
G37*
G36*
X148811059Y-94193860D02*
G01*
X148934522Y-94245000D01*
X148947732Y-94250472D01*
X149070735Y-94332660D01*
X149175340Y-94437265D01*
X149257528Y-94560268D01*
X149257529Y-94560270D01*
X149314140Y-94696941D01*
X149343000Y-94842032D01*
X149343000Y-94989968D01*
X149314140Y-95135059D01*
X149281005Y-95215055D01*
X149257528Y-95271732D01*
X149175340Y-95394735D01*
X149070735Y-95499340D01*
X148947732Y-95581528D01*
X148947731Y-95581529D01*
X148947730Y-95581529D01*
X148811059Y-95638140D01*
X148665968Y-95667000D01*
X148518032Y-95667000D01*
X148372941Y-95638140D01*
X148236270Y-95581529D01*
X148236269Y-95581529D01*
X148236268Y-95581528D01*
X148113265Y-95499340D01*
X148008660Y-95394735D01*
X147926472Y-95271732D01*
X147902996Y-95215055D01*
X147869860Y-95135059D01*
X147841000Y-94989968D01*
X147841000Y-94842032D01*
X147869860Y-94696941D01*
X147926471Y-94560270D01*
X147926472Y-94560268D01*
X148008660Y-94437265D01*
X148113265Y-94332660D01*
X148236268Y-94250472D01*
X148249479Y-94245000D01*
X148372941Y-94193860D01*
X148518032Y-94165000D01*
X148665968Y-94165000D01*
X148811059Y-94193860D01*
G37*
G36*
X154653059Y-94193860D02*
G01*
X154776522Y-94245000D01*
X154789732Y-94250472D01*
X154912735Y-94332660D01*
X155017340Y-94437265D01*
X155099528Y-94560268D01*
X155099529Y-94560270D01*
X155156140Y-94696941D01*
X155185000Y-94842032D01*
X155185000Y-94989968D01*
X155156140Y-95135059D01*
X155123005Y-95215055D01*
X155099528Y-95271732D01*
X155017340Y-95394735D01*
X154912735Y-95499340D01*
X154789732Y-95581528D01*
X154789731Y-95581529D01*
X154789730Y-95581529D01*
X154653059Y-95638140D01*
X154507968Y-95667000D01*
X154360032Y-95667000D01*
X154214941Y-95638140D01*
X154078270Y-95581529D01*
X154078269Y-95581529D01*
X154078268Y-95581528D01*
X153955265Y-95499340D01*
X153850660Y-95394735D01*
X153768472Y-95271732D01*
X153744996Y-95215055D01*
X153711860Y-95135059D01*
X153683000Y-94989968D01*
X153683000Y-94842032D01*
X153711860Y-94696941D01*
X153768471Y-94560270D01*
X153768472Y-94560268D01*
X153850660Y-94437265D01*
X153955265Y-94332660D01*
X154078268Y-94250472D01*
X154091479Y-94245000D01*
X154214941Y-94193860D01*
X154360032Y-94165000D01*
X154507968Y-94165000D01*
X154653059Y-94193860D01*
G37*
G36*
X142969059Y-94193860D02*
G01*
X143092522Y-94245000D01*
X143105732Y-94250472D01*
X143228735Y-94332660D01*
X143333340Y-94437265D01*
X143415528Y-94560268D01*
X143415529Y-94560270D01*
X143472140Y-94696941D01*
X143501000Y-94842032D01*
X143501000Y-94989968D01*
X143472140Y-95135059D01*
X143439005Y-95215055D01*
X143415528Y-95271732D01*
X143333340Y-95394735D01*
X143228735Y-95499340D01*
X143105732Y-95581528D01*
X143105731Y-95581529D01*
X143105730Y-95581529D01*
X142969059Y-95638140D01*
X142823968Y-95667000D01*
X142676032Y-95667000D01*
X142530941Y-95638140D01*
X142394270Y-95581529D01*
X142394269Y-95581529D01*
X142394268Y-95581528D01*
X142271265Y-95499340D01*
X142166660Y-95394735D01*
X142084472Y-95271732D01*
X142060996Y-95215055D01*
X142027860Y-95135059D01*
X141999000Y-94989968D01*
X141999000Y-94842032D01*
X142027860Y-94696941D01*
X142084471Y-94560270D01*
X142084472Y-94560268D01*
X142166660Y-94437265D01*
X142271265Y-94332660D01*
X142394268Y-94250472D01*
X142407479Y-94245000D01*
X142530941Y-94193860D01*
X142676032Y-94165000D01*
X142823968Y-94165000D01*
X142969059Y-94193860D01*
G37*
G36*
X160495059Y-94193860D02*
G01*
X160618522Y-94245000D01*
X160631732Y-94250472D01*
X160754735Y-94332660D01*
X160859340Y-94437265D01*
X160941528Y-94560268D01*
X160941529Y-94560270D01*
X160998140Y-94696941D01*
X161027000Y-94842032D01*
X161027000Y-94989968D01*
X160998140Y-95135059D01*
X160965005Y-95215055D01*
X160941528Y-95271732D01*
X160859340Y-95394735D01*
X160754735Y-95499340D01*
X160631732Y-95581528D01*
X160631731Y-95581529D01*
X160631730Y-95581529D01*
X160495059Y-95638140D01*
X160349968Y-95667000D01*
X160202032Y-95667000D01*
X160056941Y-95638140D01*
X159920270Y-95581529D01*
X159920269Y-95581529D01*
X159920268Y-95581528D01*
X159797265Y-95499340D01*
X159692660Y-95394735D01*
X159610472Y-95271732D01*
X159586996Y-95215055D01*
X159553860Y-95135059D01*
X159525000Y-94989968D01*
X159525000Y-94842032D01*
X159553860Y-94696941D01*
X159610471Y-94560270D01*
X159610472Y-94560268D01*
X159692660Y-94437265D01*
X159797265Y-94332660D01*
X159920268Y-94250472D01*
X159933479Y-94245000D01*
X160056941Y-94193860D01*
X160202032Y-94165000D01*
X160349968Y-94165000D01*
X160495059Y-94193860D01*
G37*
G36*
X152111059Y-94193860D02*
G01*
X152234522Y-94245000D01*
X152247732Y-94250472D01*
X152370735Y-94332660D01*
X152475340Y-94437265D01*
X152557528Y-94560268D01*
X152557529Y-94560270D01*
X152614140Y-94696941D01*
X152643000Y-94842032D01*
X152643000Y-94989968D01*
X152614140Y-95135059D01*
X152581005Y-95215055D01*
X152557528Y-95271732D01*
X152475340Y-95394735D01*
X152370735Y-95499340D01*
X152247732Y-95581528D01*
X152247731Y-95581529D01*
X152247730Y-95581529D01*
X152111059Y-95638140D01*
X151965968Y-95667000D01*
X151818032Y-95667000D01*
X151672941Y-95638140D01*
X151536270Y-95581529D01*
X151536269Y-95581529D01*
X151536268Y-95581528D01*
X151413265Y-95499340D01*
X151308660Y-95394735D01*
X151226472Y-95271732D01*
X151202996Y-95215055D01*
X151169860Y-95135059D01*
X151141000Y-94989968D01*
X151141000Y-94842032D01*
X151169860Y-94696941D01*
X151226471Y-94560270D01*
X151226472Y-94560268D01*
X151308660Y-94437265D01*
X151413265Y-94332660D01*
X151536268Y-94250472D01*
X151549479Y-94245000D01*
X151672941Y-94193860D01*
X151818032Y-94165000D01*
X151965968Y-94165000D01*
X152111059Y-94193860D01*
G37*
G36*
X163795059Y-94193860D02*
G01*
X163918522Y-94245000D01*
X163931732Y-94250472D01*
X164054735Y-94332660D01*
X164159340Y-94437265D01*
X164241528Y-94560268D01*
X164241529Y-94560270D01*
X164298140Y-94696941D01*
X164327000Y-94842032D01*
X164327000Y-94989968D01*
X164298140Y-95135059D01*
X164265005Y-95215055D01*
X164241528Y-95271732D01*
X164159340Y-95394735D01*
X164054735Y-95499340D01*
X163931732Y-95581528D01*
X163931731Y-95581529D01*
X163931730Y-95581529D01*
X163795059Y-95638140D01*
X163649968Y-95667000D01*
X163502032Y-95667000D01*
X163356941Y-95638140D01*
X163220270Y-95581529D01*
X163220269Y-95581529D01*
X163220268Y-95581528D01*
X163097265Y-95499340D01*
X162992660Y-95394735D01*
X162910472Y-95271732D01*
X162886996Y-95215055D01*
X162853860Y-95135059D01*
X162825000Y-94989968D01*
X162825000Y-94842032D01*
X162853860Y-94696941D01*
X162910471Y-94560270D01*
X162910472Y-94560268D01*
X162992660Y-94437265D01*
X163097265Y-94332660D01*
X163220268Y-94250472D01*
X163233479Y-94245000D01*
X163356941Y-94193860D01*
X163502032Y-94165000D01*
X163649968Y-94165000D01*
X163795059Y-94193860D01*
G37*
G36*
X146269059Y-94193860D02*
G01*
X146392522Y-94245000D01*
X146405732Y-94250472D01*
X146528735Y-94332660D01*
X146633340Y-94437265D01*
X146715528Y-94560268D01*
X146715529Y-94560270D01*
X146772140Y-94696941D01*
X146801000Y-94842032D01*
X146801000Y-94989968D01*
X146772140Y-95135059D01*
X146739005Y-95215055D01*
X146715528Y-95271732D01*
X146633340Y-95394735D01*
X146528735Y-95499340D01*
X146405732Y-95581528D01*
X146405731Y-95581529D01*
X146405730Y-95581529D01*
X146269059Y-95638140D01*
X146123968Y-95667000D01*
X145976032Y-95667000D01*
X145830941Y-95638140D01*
X145694270Y-95581529D01*
X145694269Y-95581529D01*
X145694268Y-95581528D01*
X145571265Y-95499340D01*
X145466660Y-95394735D01*
X145384472Y-95271732D01*
X145360996Y-95215055D01*
X145327860Y-95135059D01*
X145299000Y-94989968D01*
X145299000Y-94842032D01*
X145327860Y-94696941D01*
X145384471Y-94560270D01*
X145384472Y-94560268D01*
X145466660Y-94437265D01*
X145571265Y-94332660D01*
X145694268Y-94250472D01*
X145707479Y-94245000D01*
X145830941Y-94193860D01*
X145976032Y-94165000D01*
X146123968Y-94165000D01*
X146269059Y-94193860D01*
G37*
G36*
X176687000Y-93607000D02*
G01*
X170785000Y-93607000D01*
X170785000Y-87105000D01*
X176687000Y-87105000D01*
X176687000Y-93607000D01*
G37*
G36*
X146269059Y-91693860D02*
G01*
X146405732Y-91750472D01*
X146528735Y-91832660D01*
X146633340Y-91937265D01*
X146715528Y-92060268D01*
X146772140Y-92196941D01*
X146801000Y-92342033D01*
X146801000Y-92489967D01*
X146772140Y-92635059D01*
X146715528Y-92771732D01*
X146633340Y-92894735D01*
X146528735Y-92999340D01*
X146405732Y-93081528D01*
X146405731Y-93081529D01*
X146405730Y-93081529D01*
X146269059Y-93138140D01*
X146123968Y-93167000D01*
X145976032Y-93167000D01*
X145830941Y-93138140D01*
X145694270Y-93081529D01*
X145694269Y-93081529D01*
X145694268Y-93081528D01*
X145571265Y-92999340D01*
X145466660Y-92894735D01*
X145384472Y-92771732D01*
X145327860Y-92635059D01*
X145299000Y-92489967D01*
X145299000Y-92342033D01*
X145327860Y-92196941D01*
X145384472Y-92060268D01*
X145466660Y-91937265D01*
X145571265Y-91832660D01*
X145694268Y-91750472D01*
X145830941Y-91693860D01*
X145976032Y-91665000D01*
X146123968Y-91665000D01*
X146269059Y-91693860D01*
G37*
G36*
X142969059Y-91693860D02*
G01*
X143105732Y-91750472D01*
X143228735Y-91832660D01*
X143333340Y-91937265D01*
X143415528Y-92060268D01*
X143472140Y-92196941D01*
X143501000Y-92342033D01*
X143501000Y-92489967D01*
X143472140Y-92635059D01*
X143415528Y-92771732D01*
X143333340Y-92894735D01*
X143228735Y-92999340D01*
X143105732Y-93081528D01*
X143105731Y-93081529D01*
X143105730Y-93081529D01*
X142969059Y-93138140D01*
X142823968Y-93167000D01*
X142676032Y-93167000D01*
X142530941Y-93138140D01*
X142394270Y-93081529D01*
X142394269Y-93081529D01*
X142394268Y-93081528D01*
X142271265Y-92999340D01*
X142166660Y-92894735D01*
X142084472Y-92771732D01*
X142027860Y-92635059D01*
X141999000Y-92489967D01*
X141999000Y-92342033D01*
X142027860Y-92196941D01*
X142084472Y-92060268D01*
X142166660Y-91937265D01*
X142271265Y-91832660D01*
X142394268Y-91750472D01*
X142530941Y-91693860D01*
X142676032Y-91665000D01*
X142823968Y-91665000D01*
X142969059Y-91693860D01*
G37*
G36*
X152111059Y-91693860D02*
G01*
X152247732Y-91750472D01*
X152370735Y-91832660D01*
X152475340Y-91937265D01*
X152557528Y-92060268D01*
X152614140Y-92196941D01*
X152643000Y-92342033D01*
X152643000Y-92489967D01*
X152614140Y-92635059D01*
X152557528Y-92771732D01*
X152475340Y-92894735D01*
X152370735Y-92999340D01*
X152247732Y-93081528D01*
X152247731Y-93081529D01*
X152247730Y-93081529D01*
X152111059Y-93138140D01*
X151965968Y-93167000D01*
X151818032Y-93167000D01*
X151672941Y-93138140D01*
X151536270Y-93081529D01*
X151536269Y-93081529D01*
X151536268Y-93081528D01*
X151413265Y-92999340D01*
X151308660Y-92894735D01*
X151226472Y-92771732D01*
X151169860Y-92635059D01*
X151141000Y-92489967D01*
X151141000Y-92342033D01*
X151169860Y-92196941D01*
X151226472Y-92060268D01*
X151308660Y-91937265D01*
X151413265Y-91832660D01*
X151536268Y-91750472D01*
X151672941Y-91693860D01*
X151818032Y-91665000D01*
X151965968Y-91665000D01*
X152111059Y-91693860D01*
G37*
G36*
X148811059Y-91693860D02*
G01*
X148947732Y-91750472D01*
X149070735Y-91832660D01*
X149175340Y-91937265D01*
X149257528Y-92060268D01*
X149314140Y-92196941D01*
X149343000Y-92342033D01*
X149343000Y-92489967D01*
X149314140Y-92635059D01*
X149257528Y-92771732D01*
X149175340Y-92894735D01*
X149070735Y-92999340D01*
X148947732Y-93081528D01*
X148947731Y-93081529D01*
X148947730Y-93081529D01*
X148811059Y-93138140D01*
X148665968Y-93167000D01*
X148518032Y-93167000D01*
X148372941Y-93138140D01*
X148236270Y-93081529D01*
X148236269Y-93081529D01*
X148236268Y-93081528D01*
X148113265Y-92999340D01*
X148008660Y-92894735D01*
X147926472Y-92771732D01*
X147869860Y-92635059D01*
X147841000Y-92489967D01*
X147841000Y-92342033D01*
X147869860Y-92196941D01*
X147926472Y-92060268D01*
X148008660Y-91937265D01*
X148113265Y-91832660D01*
X148236268Y-91750472D01*
X148372941Y-91693860D01*
X148518032Y-91665000D01*
X148665968Y-91665000D01*
X148811059Y-91693860D01*
G37*
G36*
X157953059Y-91693860D02*
G01*
X158089732Y-91750472D01*
X158212735Y-91832660D01*
X158317340Y-91937265D01*
X158399528Y-92060268D01*
X158456140Y-92196941D01*
X158485000Y-92342033D01*
X158485000Y-92489967D01*
X158456140Y-92635059D01*
X158399528Y-92771732D01*
X158317340Y-92894735D01*
X158212735Y-92999340D01*
X158089732Y-93081528D01*
X158089731Y-93081529D01*
X158089730Y-93081529D01*
X157953059Y-93138140D01*
X157807968Y-93167000D01*
X157660032Y-93167000D01*
X157514941Y-93138140D01*
X157378270Y-93081529D01*
X157378269Y-93081529D01*
X157378268Y-93081528D01*
X157255265Y-92999340D01*
X157150660Y-92894735D01*
X157068472Y-92771732D01*
X157011860Y-92635059D01*
X156983000Y-92489967D01*
X156983000Y-92342033D01*
X157011860Y-92196941D01*
X157068472Y-92060268D01*
X157150660Y-91937265D01*
X157255265Y-91832660D01*
X157378268Y-91750472D01*
X157514941Y-91693860D01*
X157660032Y-91665000D01*
X157807968Y-91665000D01*
X157953059Y-91693860D01*
G37*
G36*
X154653059Y-91693860D02*
G01*
X154789732Y-91750472D01*
X154912735Y-91832660D01*
X155017340Y-91937265D01*
X155099528Y-92060268D01*
X155156140Y-92196941D01*
X155185000Y-92342033D01*
X155185000Y-92489967D01*
X155156140Y-92635059D01*
X155099528Y-92771732D01*
X155017340Y-92894735D01*
X154912735Y-92999340D01*
X154789732Y-93081528D01*
X154789731Y-93081529D01*
X154789730Y-93081529D01*
X154653059Y-93138140D01*
X154507968Y-93167000D01*
X154360032Y-93167000D01*
X154214941Y-93138140D01*
X154078270Y-93081529D01*
X154078269Y-93081529D01*
X154078268Y-93081528D01*
X153955265Y-92999340D01*
X153850660Y-92894735D01*
X153768472Y-92771732D01*
X153711860Y-92635059D01*
X153683000Y-92489967D01*
X153683000Y-92342033D01*
X153711860Y-92196941D01*
X153768472Y-92060268D01*
X153850660Y-91937265D01*
X153955265Y-91832660D01*
X154078268Y-91750472D01*
X154214941Y-91693860D01*
X154360032Y-91665000D01*
X154507968Y-91665000D01*
X154653059Y-91693860D01*
G37*
G36*
X163795059Y-91693860D02*
G01*
X163931732Y-91750472D01*
X164054735Y-91832660D01*
X164159340Y-91937265D01*
X164241528Y-92060268D01*
X164298140Y-92196941D01*
X164327000Y-92342033D01*
X164327000Y-92489967D01*
X164298140Y-92635059D01*
X164241528Y-92771732D01*
X164159340Y-92894735D01*
X164054735Y-92999340D01*
X163931732Y-93081528D01*
X163931731Y-93081529D01*
X163931730Y-93081529D01*
X163795059Y-93138140D01*
X163649968Y-93167000D01*
X163502032Y-93167000D01*
X163356941Y-93138140D01*
X163220270Y-93081529D01*
X163220269Y-93081529D01*
X163220268Y-93081528D01*
X163097265Y-92999340D01*
X162992660Y-92894735D01*
X162910472Y-92771732D01*
X162853860Y-92635059D01*
X162825000Y-92489967D01*
X162825000Y-92342033D01*
X162853860Y-92196941D01*
X162910472Y-92060268D01*
X162992660Y-91937265D01*
X163097265Y-91832660D01*
X163220268Y-91750472D01*
X163356941Y-91693860D01*
X163502032Y-91665000D01*
X163649968Y-91665000D01*
X163795059Y-91693860D01*
G37*
G36*
X160495059Y-91693860D02*
G01*
X160631732Y-91750472D01*
X160754735Y-91832660D01*
X160859340Y-91937265D01*
X160941528Y-92060268D01*
X160998140Y-92196941D01*
X161027000Y-92342033D01*
X161027000Y-92489967D01*
X160998140Y-92635059D01*
X160941528Y-92771732D01*
X160859340Y-92894735D01*
X160754735Y-92999340D01*
X160631732Y-93081528D01*
X160631731Y-93081529D01*
X160631730Y-93081529D01*
X160495059Y-93138140D01*
X160349968Y-93167000D01*
X160202032Y-93167000D01*
X160056941Y-93138140D01*
X159920270Y-93081529D01*
X159920269Y-93081529D01*
X159920268Y-93081528D01*
X159797265Y-92999340D01*
X159692660Y-92894735D01*
X159610472Y-92771732D01*
X159553860Y-92635059D01*
X159525000Y-92489967D01*
X159525000Y-92342033D01*
X159553860Y-92196941D01*
X159610472Y-92060268D01*
X159692660Y-91937265D01*
X159797265Y-91832660D01*
X159920268Y-91750472D01*
X160056941Y-91693860D01*
X160202032Y-91665000D01*
X160349968Y-91665000D01*
X160495059Y-91693860D01*
G37*
G36*
X129868228Y-89605703D02*
G01*
X130023100Y-89669853D01*
X130162481Y-89762985D01*
X130281015Y-89881519D01*
X130374147Y-90020900D01*
X130438297Y-90175772D01*
X130471000Y-90340184D01*
X130471000Y-90507816D01*
X130438297Y-90672228D01*
X130374147Y-90827100D01*
X130281015Y-90966481D01*
X130162481Y-91085015D01*
X130023100Y-91178147D01*
X129868228Y-91242297D01*
X129703816Y-91275000D01*
X129536184Y-91275000D01*
X129371772Y-91242297D01*
X129216900Y-91178147D01*
X129077519Y-91085015D01*
X128958985Y-90966481D01*
X128865853Y-90827100D01*
X128801703Y-90672228D01*
X128769000Y-90507816D01*
X128769000Y-90340184D01*
X128801703Y-90175772D01*
X128865853Y-90020900D01*
X128958985Y-89881519D01*
X129077519Y-89762985D01*
X129216900Y-89669853D01*
X129371772Y-89605703D01*
X129536184Y-89573000D01*
X129703816Y-89573000D01*
X129868228Y-89605703D01*
G37*
G36*
X134868228Y-89605703D02*
G01*
X135023100Y-89669853D01*
X135162481Y-89762985D01*
X135281015Y-89881519D01*
X135374147Y-90020900D01*
X135438297Y-90175772D01*
X135471000Y-90340184D01*
X135471000Y-90507816D01*
X135438297Y-90672228D01*
X135374147Y-90827100D01*
X135281015Y-90966481D01*
X135162481Y-91085015D01*
X135023100Y-91178147D01*
X134868228Y-91242297D01*
X134703816Y-91275000D01*
X134536184Y-91275000D01*
X134371772Y-91242297D01*
X134216900Y-91178147D01*
X134077519Y-91085015D01*
X133958985Y-90966481D01*
X133865853Y-90827100D01*
X133801703Y-90672228D01*
X133769000Y-90507816D01*
X133769000Y-90340184D01*
X133801703Y-90175772D01*
X133865853Y-90020900D01*
X133958985Y-89881519D01*
X134077519Y-89762985D01*
X134216900Y-89669853D01*
X134371772Y-89605703D01*
X134536184Y-89573000D01*
X134703816Y-89573000D01*
X134868228Y-89605703D01*
G37*
G36*
X179289059Y-89447860D02*
G01*
X179425732Y-89504472D01*
X179548735Y-89586660D01*
X179653340Y-89691265D01*
X179735528Y-89814268D01*
X179735529Y-89814270D01*
X179792140Y-89950941D01*
X179821000Y-90096032D01*
X179821000Y-90243968D01*
X179792140Y-90389059D01*
X179742950Y-90507815D01*
X179735528Y-90525732D01*
X179653340Y-90648735D01*
X179548735Y-90753340D01*
X179425732Y-90835528D01*
X179425731Y-90835529D01*
X179425730Y-90835529D01*
X179289059Y-90892140D01*
X179143968Y-90921000D01*
X178996032Y-90921000D01*
X178850941Y-90892140D01*
X178714270Y-90835529D01*
X178714269Y-90835529D01*
X178714268Y-90835528D01*
X178591265Y-90753340D01*
X178486660Y-90648735D01*
X178404472Y-90525732D01*
X178397051Y-90507815D01*
X178347860Y-90389059D01*
X178319000Y-90243968D01*
X178319000Y-90096032D01*
X178347860Y-89950941D01*
X178404471Y-89814270D01*
X178404472Y-89814268D01*
X178486660Y-89691265D01*
X178591265Y-89586660D01*
X178714268Y-89504472D01*
X178850941Y-89447860D01*
X178996032Y-89419000D01*
X179143968Y-89419000D01*
X179289059Y-89447860D01*
G37*
G36*
X158485000Y-90667000D02*
G01*
X156983000Y-90667000D01*
X156983000Y-89165000D01*
X158485000Y-89165000D01*
X158485000Y-90667000D01*
G37*
G36*
X167097059Y-89193860D02*
G01*
X167233732Y-89250472D01*
X167356735Y-89332660D01*
X167461340Y-89437265D01*
X167506246Y-89504472D01*
X167543529Y-89560270D01*
X167600140Y-89696941D01*
X167629000Y-89842032D01*
X167629000Y-89989968D01*
X167600140Y-90135059D01*
X167583277Y-90175771D01*
X167543528Y-90271732D01*
X167461340Y-90394735D01*
X167356735Y-90499340D01*
X167233732Y-90581528D01*
X167233731Y-90581529D01*
X167233730Y-90581529D01*
X167097059Y-90638140D01*
X166951968Y-90667000D01*
X166804032Y-90667000D01*
X166658941Y-90638140D01*
X166522270Y-90581529D01*
X166522269Y-90581529D01*
X166522268Y-90581528D01*
X166399265Y-90499340D01*
X166294660Y-90394735D01*
X166212472Y-90271732D01*
X166172724Y-90175771D01*
X166155860Y-90135059D01*
X166127000Y-89989968D01*
X166127000Y-89842032D01*
X166155860Y-89696941D01*
X166212471Y-89560270D01*
X166249754Y-89504472D01*
X166294660Y-89437265D01*
X166399265Y-89332660D01*
X166522268Y-89250472D01*
X166658941Y-89193860D01*
X166804032Y-89165000D01*
X166951968Y-89165000D01*
X167097059Y-89193860D01*
G37*
G36*
X146801000Y-90667000D02*
G01*
X145299000Y-90667000D01*
X145299000Y-89165000D01*
X146801000Y-89165000D01*
X146801000Y-90667000D01*
G37*
G36*
X142969059Y-89193860D02*
G01*
X143105732Y-89250472D01*
X143228735Y-89332660D01*
X143333340Y-89437265D01*
X143378246Y-89504472D01*
X143415529Y-89560270D01*
X143472140Y-89696941D01*
X143501000Y-89842032D01*
X143501000Y-89989968D01*
X143472140Y-90135059D01*
X143455277Y-90175771D01*
X143415528Y-90271732D01*
X143333340Y-90394735D01*
X143228735Y-90499340D01*
X143105732Y-90581528D01*
X143105731Y-90581529D01*
X143105730Y-90581529D01*
X142969059Y-90638140D01*
X142823968Y-90667000D01*
X142676032Y-90667000D01*
X142530941Y-90638140D01*
X142394270Y-90581529D01*
X142394269Y-90581529D01*
X142394268Y-90581528D01*
X142271265Y-90499340D01*
X142166660Y-90394735D01*
X142084472Y-90271732D01*
X142044724Y-90175771D01*
X142027860Y-90135059D01*
X141999000Y-89989968D01*
X141999000Y-89842032D01*
X142027860Y-89696941D01*
X142084471Y-89560270D01*
X142121754Y-89504472D01*
X142166660Y-89437265D01*
X142271265Y-89332660D01*
X142394268Y-89250472D01*
X142530941Y-89193860D01*
X142676032Y-89165000D01*
X142823968Y-89165000D01*
X142969059Y-89193860D01*
G37*
G36*
X148811059Y-89193860D02*
G01*
X148947732Y-89250472D01*
X149070735Y-89332660D01*
X149175340Y-89437265D01*
X149220246Y-89504472D01*
X149257529Y-89560270D01*
X149314140Y-89696941D01*
X149343000Y-89842032D01*
X149343000Y-89989968D01*
X149314140Y-90135059D01*
X149297277Y-90175771D01*
X149257528Y-90271732D01*
X149175340Y-90394735D01*
X149070735Y-90499340D01*
X148947732Y-90581528D01*
X148947731Y-90581529D01*
X148947730Y-90581529D01*
X148811059Y-90638140D01*
X148665968Y-90667000D01*
X148518032Y-90667000D01*
X148372941Y-90638140D01*
X148236270Y-90581529D01*
X148236269Y-90581529D01*
X148236268Y-90581528D01*
X148113265Y-90499340D01*
X148008660Y-90394735D01*
X147926472Y-90271732D01*
X147886724Y-90175771D01*
X147869860Y-90135059D01*
X147841000Y-89989968D01*
X147841000Y-89842032D01*
X147869860Y-89696941D01*
X147926471Y-89560270D01*
X147963754Y-89504472D01*
X148008660Y-89437265D01*
X148113265Y-89332660D01*
X148236268Y-89250472D01*
X148372941Y-89193860D01*
X148518032Y-89165000D01*
X148665968Y-89165000D01*
X148811059Y-89193860D01*
G37*
G36*
X152643000Y-90667000D02*
G01*
X151141000Y-90667000D01*
X151141000Y-89165000D01*
X152643000Y-89165000D01*
X152643000Y-90667000D01*
G37*
G36*
X154653059Y-89193860D02*
G01*
X154789732Y-89250472D01*
X154912735Y-89332660D01*
X155017340Y-89437265D01*
X155062246Y-89504472D01*
X155099529Y-89560270D01*
X155156140Y-89696941D01*
X155185000Y-89842032D01*
X155185000Y-89989968D01*
X155156140Y-90135059D01*
X155139277Y-90175771D01*
X155099528Y-90271732D01*
X155017340Y-90394735D01*
X154912735Y-90499340D01*
X154789732Y-90581528D01*
X154789731Y-90581529D01*
X154789730Y-90581529D01*
X154653059Y-90638140D01*
X154507968Y-90667000D01*
X154360032Y-90667000D01*
X154214941Y-90638140D01*
X154078270Y-90581529D01*
X154078269Y-90581529D01*
X154078268Y-90581528D01*
X153955265Y-90499340D01*
X153850660Y-90394735D01*
X153768472Y-90271732D01*
X153728724Y-90175771D01*
X153711860Y-90135059D01*
X153683000Y-89989968D01*
X153683000Y-89842032D01*
X153711860Y-89696941D01*
X153768471Y-89560270D01*
X153805754Y-89504472D01*
X153850660Y-89437265D01*
X153955265Y-89332660D01*
X154078268Y-89250472D01*
X154214941Y-89193860D01*
X154360032Y-89165000D01*
X154507968Y-89165000D01*
X154653059Y-89193860D01*
G37*
G36*
X160495059Y-89193860D02*
G01*
X160631732Y-89250472D01*
X160754735Y-89332660D01*
X160859340Y-89437265D01*
X160904246Y-89504472D01*
X160941529Y-89560270D01*
X160998140Y-89696941D01*
X161027000Y-89842032D01*
X161027000Y-89989968D01*
X160998140Y-90135059D01*
X160981277Y-90175771D01*
X160941528Y-90271732D01*
X160859340Y-90394735D01*
X160754735Y-90499340D01*
X160631732Y-90581528D01*
X160631731Y-90581529D01*
X160631730Y-90581529D01*
X160495059Y-90638140D01*
X160349968Y-90667000D01*
X160202032Y-90667000D01*
X160056941Y-90638140D01*
X159920270Y-90581529D01*
X159920269Y-90581529D01*
X159920268Y-90581528D01*
X159797265Y-90499340D01*
X159692660Y-90394735D01*
X159610472Y-90271732D01*
X159570724Y-90175771D01*
X159553860Y-90135059D01*
X159525000Y-89989968D01*
X159525000Y-89842032D01*
X159553860Y-89696941D01*
X159610471Y-89560270D01*
X159647754Y-89504472D01*
X159692660Y-89437265D01*
X159797265Y-89332660D01*
X159920268Y-89250472D01*
X160056941Y-89193860D01*
X160202032Y-89165000D01*
X160349968Y-89165000D01*
X160495059Y-89193860D01*
G37*
G36*
X164327000Y-90667000D02*
G01*
X162825000Y-90667000D01*
X162825000Y-89165000D01*
X164327000Y-89165000D01*
X164327000Y-90667000D01*
G37*
G36*
X118935395Y-86715546D02*
G01*
X119108466Y-86787234D01*
X119108467Y-86787235D01*
X119264227Y-86891310D01*
X119396690Y-87023773D01*
X119439284Y-87087520D01*
X119500766Y-87179534D01*
X119572454Y-87352605D01*
X119609000Y-87536333D01*
X119609000Y-87723667D01*
X119572454Y-87907395D01*
X119500766Y-88080466D01*
X119500765Y-88080467D01*
X119396690Y-88236227D01*
X119264227Y-88368690D01*
X119241092Y-88384148D01*
X119108466Y-88472766D01*
X118935395Y-88544454D01*
X118751667Y-88581000D01*
X118564333Y-88581000D01*
X118380605Y-88544454D01*
X118207534Y-88472766D01*
X118074908Y-88384148D01*
X118051773Y-88368690D01*
X117919310Y-88236227D01*
X117815235Y-88080467D01*
X117815234Y-88080466D01*
X117743546Y-87907395D01*
X117707000Y-87723667D01*
X117707000Y-87536333D01*
X117743546Y-87352605D01*
X117815234Y-87179534D01*
X117876716Y-87087520D01*
X117919310Y-87023773D01*
X118051773Y-86891310D01*
X118207533Y-86787235D01*
X118207534Y-86787234D01*
X118380605Y-86715546D01*
X118564333Y-86679000D01*
X118751667Y-86679000D01*
X118935395Y-86715546D01*
G37*
G36*
X116435395Y-86715546D02*
G01*
X116608466Y-86787234D01*
X116608467Y-86787235D01*
X116764227Y-86891310D01*
X116896690Y-87023773D01*
X116939284Y-87087520D01*
X117000766Y-87179534D01*
X117072454Y-87352605D01*
X117109000Y-87536333D01*
X117109000Y-87723667D01*
X117072454Y-87907395D01*
X117000766Y-88080466D01*
X117000765Y-88080467D01*
X116896690Y-88236227D01*
X116764227Y-88368690D01*
X116741092Y-88384148D01*
X116608466Y-88472766D01*
X116435395Y-88544454D01*
X116251667Y-88581000D01*
X116064333Y-88581000D01*
X115880605Y-88544454D01*
X115707534Y-88472766D01*
X115574908Y-88384148D01*
X115551773Y-88368690D01*
X115419310Y-88236227D01*
X115315235Y-88080467D01*
X115315234Y-88080466D01*
X115243546Y-87907395D01*
X115207000Y-87723667D01*
X115207000Y-87536333D01*
X115243546Y-87352605D01*
X115315234Y-87179534D01*
X115376716Y-87087520D01*
X115419310Y-87023773D01*
X115551773Y-86891310D01*
X115707533Y-86787235D01*
X115707534Y-86787234D01*
X115880605Y-86715546D01*
X116064333Y-86679000D01*
X116251667Y-86679000D01*
X116435395Y-86715546D01*
G37*
G36*
X122109000Y-88581000D02*
G01*
X120207000Y-88581000D01*
X120207000Y-86679000D01*
X122109000Y-86679000D01*
X122109000Y-88581000D01*
G37*
G36*
X129868228Y-86811703D02*
G01*
X130023100Y-86875853D01*
X130162481Y-86968985D01*
X130281015Y-87087519D01*
X130374147Y-87226900D01*
X130438297Y-87381772D01*
X130471000Y-87546184D01*
X130471000Y-87713816D01*
X130438297Y-87878228D01*
X130374147Y-88033100D01*
X130281015Y-88172481D01*
X130162481Y-88291015D01*
X130023100Y-88384147D01*
X129868228Y-88448297D01*
X129703816Y-88481000D01*
X129536184Y-88481000D01*
X129371772Y-88448297D01*
X129216900Y-88384147D01*
X129077519Y-88291015D01*
X128958985Y-88172481D01*
X128865853Y-88033100D01*
X128801703Y-87878228D01*
X128769000Y-87713816D01*
X128769000Y-87546184D01*
X128801703Y-87381772D01*
X128865853Y-87226900D01*
X128958985Y-87087519D01*
X129077519Y-86968985D01*
X129216900Y-86875853D01*
X129371772Y-86811703D01*
X129536184Y-86779000D01*
X129703816Y-86779000D01*
X129868228Y-86811703D01*
G37*
G36*
X134868228Y-86811703D02*
G01*
X135023100Y-86875853D01*
X135162481Y-86968985D01*
X135281015Y-87087519D01*
X135374147Y-87226900D01*
X135438297Y-87381772D01*
X135471000Y-87546184D01*
X135471000Y-87713816D01*
X135438297Y-87878228D01*
X135374147Y-88033100D01*
X135281015Y-88172481D01*
X135162481Y-88291015D01*
X135023100Y-88384147D01*
X134868228Y-88448297D01*
X134703816Y-88481000D01*
X134536184Y-88481000D01*
X134371772Y-88448297D01*
X134216900Y-88384147D01*
X134077519Y-88291015D01*
X133958985Y-88172481D01*
X133865853Y-88033100D01*
X133801703Y-87878228D01*
X133769000Y-87713816D01*
X133769000Y-87546184D01*
X133801703Y-87381772D01*
X133865853Y-87226900D01*
X133958985Y-87087519D01*
X134077519Y-86968985D01*
X134216900Y-86875853D01*
X134371772Y-86811703D01*
X134536184Y-86779000D01*
X134703816Y-86779000D01*
X134868228Y-86811703D01*
G37*
G36*
X159731059Y-85383860D02*
G01*
X159867732Y-85440472D01*
X159990735Y-85522660D01*
X160095340Y-85627265D01*
X160177528Y-85750268D01*
X160234140Y-85886941D01*
X160263000Y-86032033D01*
X160263000Y-86179967D01*
X160234140Y-86325059D01*
X160177528Y-86461732D01*
X160095340Y-86584735D01*
X159990735Y-86689340D01*
X159867732Y-86771528D01*
X159867731Y-86771529D01*
X159867730Y-86771529D01*
X159731059Y-86828140D01*
X159585968Y-86857000D01*
X159438032Y-86857000D01*
X159292941Y-86828140D01*
X159156270Y-86771529D01*
X159156269Y-86771529D01*
X159156268Y-86771528D01*
X159033265Y-86689340D01*
X158928660Y-86584735D01*
X158846472Y-86461732D01*
X158789860Y-86325059D01*
X158761000Y-86179967D01*
X158761000Y-86032033D01*
X158789860Y-85886941D01*
X158846472Y-85750268D01*
X158928660Y-85627265D01*
X159033265Y-85522660D01*
X159156268Y-85440472D01*
X159292941Y-85383860D01*
X159438032Y-85355000D01*
X159585968Y-85355000D01*
X159731059Y-85383860D01*
G37*
G36*
X167351059Y-85383860D02*
G01*
X167487732Y-85440472D01*
X167610735Y-85522660D01*
X167715340Y-85627265D01*
X167797528Y-85750268D01*
X167854140Y-85886941D01*
X167883000Y-86032033D01*
X167883000Y-86179967D01*
X167854140Y-86325059D01*
X167797528Y-86461732D01*
X167715340Y-86584735D01*
X167610735Y-86689340D01*
X167487732Y-86771528D01*
X167487731Y-86771529D01*
X167487730Y-86771529D01*
X167351059Y-86828140D01*
X167205968Y-86857000D01*
X167058032Y-86857000D01*
X166912941Y-86828140D01*
X166776270Y-86771529D01*
X166776269Y-86771529D01*
X166776268Y-86771528D01*
X166653265Y-86689340D01*
X166548660Y-86584735D01*
X166466472Y-86461732D01*
X166409860Y-86325059D01*
X166381000Y-86179967D01*
X166381000Y-86032033D01*
X166409860Y-85886941D01*
X166466472Y-85750268D01*
X166548660Y-85627265D01*
X166653265Y-85522660D01*
X166776268Y-85440472D01*
X166912941Y-85383860D01*
X167058032Y-85355000D01*
X167205968Y-85355000D01*
X167351059Y-85383860D01*
G37*
G36*
X162271059Y-85383860D02*
G01*
X162407732Y-85440472D01*
X162530735Y-85522660D01*
X162635340Y-85627265D01*
X162717528Y-85750268D01*
X162774140Y-85886941D01*
X162803000Y-86032033D01*
X162803000Y-86179967D01*
X162774140Y-86325059D01*
X162717528Y-86461732D01*
X162635340Y-86584735D01*
X162530735Y-86689340D01*
X162407732Y-86771528D01*
X162407731Y-86771529D01*
X162407730Y-86771529D01*
X162271059Y-86828140D01*
X162125968Y-86857000D01*
X161978032Y-86857000D01*
X161832941Y-86828140D01*
X161696270Y-86771529D01*
X161696269Y-86771529D01*
X161696268Y-86771528D01*
X161573265Y-86689340D01*
X161468660Y-86584735D01*
X161386472Y-86461732D01*
X161329860Y-86325059D01*
X161301000Y-86179967D01*
X161301000Y-86032033D01*
X161329860Y-85886941D01*
X161386472Y-85750268D01*
X161468660Y-85627265D01*
X161573265Y-85522660D01*
X161696268Y-85440472D01*
X161832941Y-85383860D01*
X161978032Y-85355000D01*
X162125968Y-85355000D01*
X162271059Y-85383860D01*
G37*
G36*
X154651059Y-85383860D02*
G01*
X154787732Y-85440472D01*
X154910735Y-85522660D01*
X155015340Y-85627265D01*
X155097528Y-85750268D01*
X155154140Y-85886941D01*
X155183000Y-86032033D01*
X155183000Y-86179967D01*
X155154140Y-86325059D01*
X155097528Y-86461732D01*
X155015340Y-86584735D01*
X154910735Y-86689340D01*
X154787732Y-86771528D01*
X154787731Y-86771529D01*
X154787730Y-86771529D01*
X154651059Y-86828140D01*
X154505968Y-86857000D01*
X154358032Y-86857000D01*
X154212941Y-86828140D01*
X154076270Y-86771529D01*
X154076269Y-86771529D01*
X154076268Y-86771528D01*
X153953265Y-86689340D01*
X153848660Y-86584735D01*
X153766472Y-86461732D01*
X153709860Y-86325059D01*
X153681000Y-86179967D01*
X153681000Y-86032033D01*
X153709860Y-85886941D01*
X153766472Y-85750268D01*
X153848660Y-85627265D01*
X153953265Y-85522660D01*
X154076268Y-85440472D01*
X154212941Y-85383860D01*
X154358032Y-85355000D01*
X154505968Y-85355000D01*
X154651059Y-85383860D01*
G37*
G36*
X152111059Y-85383860D02*
G01*
X152247732Y-85440472D01*
X152370735Y-85522660D01*
X152475340Y-85627265D01*
X152557528Y-85750268D01*
X152614140Y-85886941D01*
X152643000Y-86032033D01*
X152643000Y-86179967D01*
X152614140Y-86325059D01*
X152557528Y-86461732D01*
X152475340Y-86584735D01*
X152370735Y-86689340D01*
X152247732Y-86771528D01*
X152247731Y-86771529D01*
X152247730Y-86771529D01*
X152111059Y-86828140D01*
X151965968Y-86857000D01*
X151818032Y-86857000D01*
X151672941Y-86828140D01*
X151536270Y-86771529D01*
X151536269Y-86771529D01*
X151536268Y-86771528D01*
X151413265Y-86689340D01*
X151308660Y-86584735D01*
X151226472Y-86461732D01*
X151169860Y-86325059D01*
X151141000Y-86179967D01*
X151141000Y-86032033D01*
X151169860Y-85886941D01*
X151226472Y-85750268D01*
X151308660Y-85627265D01*
X151413265Y-85522660D01*
X151536268Y-85440472D01*
X151672941Y-85383860D01*
X151818032Y-85355000D01*
X151965968Y-85355000D01*
X152111059Y-85383860D01*
G37*
G36*
X147031059Y-85383860D02*
G01*
X147167732Y-85440472D01*
X147290735Y-85522660D01*
X147395340Y-85627265D01*
X147477528Y-85750268D01*
X147534140Y-85886941D01*
X147563000Y-86032033D01*
X147563000Y-86179967D01*
X147534140Y-86325059D01*
X147477528Y-86461732D01*
X147395340Y-86584735D01*
X147290735Y-86689340D01*
X147167732Y-86771528D01*
X147167731Y-86771529D01*
X147167730Y-86771529D01*
X147031059Y-86828140D01*
X146885968Y-86857000D01*
X146738032Y-86857000D01*
X146592941Y-86828140D01*
X146456270Y-86771529D01*
X146456269Y-86771529D01*
X146456268Y-86771528D01*
X146333265Y-86689340D01*
X146228660Y-86584735D01*
X146146472Y-86461732D01*
X146089860Y-86325059D01*
X146061000Y-86179967D01*
X146061000Y-86032033D01*
X146089860Y-85886941D01*
X146146472Y-85750268D01*
X146228660Y-85627265D01*
X146333265Y-85522660D01*
X146456268Y-85440472D01*
X146592941Y-85383860D01*
X146738032Y-85355000D01*
X146885968Y-85355000D01*
X147031059Y-85383860D01*
G37*
G36*
X144491059Y-85383860D02*
G01*
X144627732Y-85440472D01*
X144750735Y-85522660D01*
X144855340Y-85627265D01*
X144937528Y-85750268D01*
X144994140Y-85886941D01*
X145023000Y-86032033D01*
X145023000Y-86179967D01*
X144994140Y-86325059D01*
X144937528Y-86461732D01*
X144855340Y-86584735D01*
X144750735Y-86689340D01*
X144627732Y-86771528D01*
X144627731Y-86771529D01*
X144627730Y-86771529D01*
X144491059Y-86828140D01*
X144345968Y-86857000D01*
X144198032Y-86857000D01*
X144052941Y-86828140D01*
X143916270Y-86771529D01*
X143916269Y-86771529D01*
X143916268Y-86771528D01*
X143793265Y-86689340D01*
X143688660Y-86584735D01*
X143606472Y-86461732D01*
X143549860Y-86325059D01*
X143521000Y-86179967D01*
X143521000Y-86032033D01*
X143549860Y-85886941D01*
X143606472Y-85750268D01*
X143688660Y-85627265D01*
X143793265Y-85522660D01*
X143916268Y-85440472D01*
X144052941Y-85383860D01*
X144198032Y-85355000D01*
X144345968Y-85355000D01*
X144491059Y-85383860D01*
G37*
G36*
X139411059Y-85383860D02*
G01*
X139547732Y-85440472D01*
X139670735Y-85522660D01*
X139775340Y-85627265D01*
X139857528Y-85750268D01*
X139914140Y-85886941D01*
X139943000Y-86032033D01*
X139943000Y-86179967D01*
X139914140Y-86325059D01*
X139857528Y-86461732D01*
X139775340Y-86584735D01*
X139670735Y-86689340D01*
X139547732Y-86771528D01*
X139547731Y-86771529D01*
X139547730Y-86771529D01*
X139411059Y-86828140D01*
X139265968Y-86857000D01*
X139118032Y-86857000D01*
X138972941Y-86828140D01*
X138836270Y-86771529D01*
X138836269Y-86771529D01*
X138836268Y-86771528D01*
X138713265Y-86689340D01*
X138608660Y-86584735D01*
X138526472Y-86461732D01*
X138469860Y-86325059D01*
X138441000Y-86179967D01*
X138441000Y-86032033D01*
X138469860Y-85886941D01*
X138526472Y-85750268D01*
X138608660Y-85627265D01*
X138713265Y-85522660D01*
X138836268Y-85440472D01*
X138972941Y-85383860D01*
X139118032Y-85355000D01*
X139265968Y-85355000D01*
X139411059Y-85383860D01*
G37*
G36*
X121631059Y-83097860D02*
G01*
X121670737Y-83114295D01*
X121767732Y-83154472D01*
X121890735Y-83236660D01*
X121995340Y-83341265D01*
X122077528Y-83464268D01*
X122134140Y-83600941D01*
X122163000Y-83746033D01*
X122163000Y-83893967D01*
X122134140Y-84039059D01*
X122077528Y-84175732D01*
X121995340Y-84298735D01*
X121890735Y-84403340D01*
X121767732Y-84485528D01*
X121767731Y-84485529D01*
X121767730Y-84485529D01*
X121631059Y-84542140D01*
X121485968Y-84571000D01*
X121338032Y-84571000D01*
X121192941Y-84542140D01*
X121056270Y-84485529D01*
X121056269Y-84485529D01*
X121056268Y-84485528D01*
X120933265Y-84403340D01*
X120828660Y-84298735D01*
X120746472Y-84175732D01*
X120689860Y-84039059D01*
X120661000Y-83893967D01*
X120661000Y-83746033D01*
X120689860Y-83600941D01*
X120746472Y-83464268D01*
X120828660Y-83341265D01*
X120933265Y-83236660D01*
X121056268Y-83154472D01*
X121153264Y-83114295D01*
X121192941Y-83097860D01*
X121338032Y-83069000D01*
X121485968Y-83069000D01*
X121631059Y-83097860D01*
G37*
G36*
X116551059Y-83097860D02*
G01*
X116590737Y-83114295D01*
X116687732Y-83154472D01*
X116810735Y-83236660D01*
X116915340Y-83341265D01*
X116997528Y-83464268D01*
X117054140Y-83600941D01*
X117083000Y-83746033D01*
X117083000Y-83893967D01*
X117054140Y-84039059D01*
X116997528Y-84175732D01*
X116915340Y-84298735D01*
X116810735Y-84403340D01*
X116687732Y-84485528D01*
X116687731Y-84485529D01*
X116687730Y-84485529D01*
X116551059Y-84542140D01*
X116405968Y-84571000D01*
X116258032Y-84571000D01*
X116112941Y-84542140D01*
X115976270Y-84485529D01*
X115976269Y-84485529D01*
X115976268Y-84485528D01*
X115853265Y-84403340D01*
X115748660Y-84298735D01*
X115666472Y-84175732D01*
X115609860Y-84039059D01*
X115581000Y-83893967D01*
X115581000Y-83746033D01*
X115609860Y-83600941D01*
X115666472Y-83464268D01*
X115748660Y-83341265D01*
X115853265Y-83236660D01*
X115976268Y-83154472D01*
X116073264Y-83114295D01*
X116112941Y-83097860D01*
X116258032Y-83069000D01*
X116405968Y-83069000D01*
X116551059Y-83097860D01*
G37*
G36*
X162271059Y-82843860D02*
G01*
X162407732Y-82900472D01*
X162530735Y-82982660D01*
X162635340Y-83087265D01*
X162717528Y-83210268D01*
X162774140Y-83346941D01*
X162803000Y-83492033D01*
X162803000Y-83639967D01*
X162774140Y-83785059D01*
X162717528Y-83921732D01*
X162635340Y-84044735D01*
X162530735Y-84149340D01*
X162407732Y-84231528D01*
X162407731Y-84231529D01*
X162407730Y-84231529D01*
X162271059Y-84288140D01*
X162125968Y-84317000D01*
X161978032Y-84317000D01*
X161832941Y-84288140D01*
X161696270Y-84231529D01*
X161696269Y-84231529D01*
X161696268Y-84231528D01*
X161573265Y-84149340D01*
X161468660Y-84044735D01*
X161386472Y-83921732D01*
X161329860Y-83785059D01*
X161301000Y-83639967D01*
X161301000Y-83492033D01*
X161329860Y-83346941D01*
X161386472Y-83210268D01*
X161468660Y-83087265D01*
X161573265Y-82982660D01*
X161696268Y-82900472D01*
X161832941Y-82843860D01*
X161978032Y-82815000D01*
X162125968Y-82815000D01*
X162271059Y-82843860D01*
G37*
G36*
X154651059Y-82843860D02*
G01*
X154787732Y-82900472D01*
X154910735Y-82982660D01*
X155015340Y-83087265D01*
X155097528Y-83210268D01*
X155154140Y-83346941D01*
X155183000Y-83492033D01*
X155183000Y-83639967D01*
X155154140Y-83785059D01*
X155097528Y-83921732D01*
X155015340Y-84044735D01*
X154910735Y-84149340D01*
X154787732Y-84231528D01*
X154787731Y-84231529D01*
X154787730Y-84231529D01*
X154651059Y-84288140D01*
X154505968Y-84317000D01*
X154358032Y-84317000D01*
X154212941Y-84288140D01*
X154076270Y-84231529D01*
X154076269Y-84231529D01*
X154076268Y-84231528D01*
X153953265Y-84149340D01*
X153848660Y-84044735D01*
X153766472Y-83921732D01*
X153709860Y-83785059D01*
X153681000Y-83639967D01*
X153681000Y-83492033D01*
X153709860Y-83346941D01*
X153766472Y-83210268D01*
X153848660Y-83087265D01*
X153953265Y-82982660D01*
X154076268Y-82900472D01*
X154212941Y-82843860D01*
X154358032Y-82815000D01*
X154505968Y-82815000D01*
X154651059Y-82843860D01*
G37*
G36*
X152111059Y-82843860D02*
G01*
X152247732Y-82900472D01*
X152370735Y-82982660D01*
X152475340Y-83087265D01*
X152557528Y-83210268D01*
X152614140Y-83346941D01*
X152643000Y-83492033D01*
X152643000Y-83639967D01*
X152614140Y-83785059D01*
X152557528Y-83921732D01*
X152475340Y-84044735D01*
X152370735Y-84149340D01*
X152247732Y-84231528D01*
X152247731Y-84231529D01*
X152247730Y-84231529D01*
X152111059Y-84288140D01*
X151965968Y-84317000D01*
X151818032Y-84317000D01*
X151672941Y-84288140D01*
X151536270Y-84231529D01*
X151536269Y-84231529D01*
X151536268Y-84231528D01*
X151413265Y-84149340D01*
X151308660Y-84044735D01*
X151226472Y-83921732D01*
X151169860Y-83785059D01*
X151141000Y-83639967D01*
X151141000Y-83492033D01*
X151169860Y-83346941D01*
X151226472Y-83210268D01*
X151308660Y-83087265D01*
X151413265Y-82982660D01*
X151536268Y-82900472D01*
X151672941Y-82843860D01*
X151818032Y-82815000D01*
X151965968Y-82815000D01*
X152111059Y-82843860D01*
G37*
G36*
X147031059Y-82843860D02*
G01*
X147167732Y-82900472D01*
X147290735Y-82982660D01*
X147395340Y-83087265D01*
X147477528Y-83210268D01*
X147534140Y-83346941D01*
X147563000Y-83492033D01*
X147563000Y-83639967D01*
X147534140Y-83785059D01*
X147477528Y-83921732D01*
X147395340Y-84044735D01*
X147290735Y-84149340D01*
X147167732Y-84231528D01*
X147167731Y-84231529D01*
X147167730Y-84231529D01*
X147031059Y-84288140D01*
X146885968Y-84317000D01*
X146738032Y-84317000D01*
X146592941Y-84288140D01*
X146456270Y-84231529D01*
X146456269Y-84231529D01*
X146456268Y-84231528D01*
X146333265Y-84149340D01*
X146228660Y-84044735D01*
X146146472Y-83921732D01*
X146089860Y-83785059D01*
X146061000Y-83639967D01*
X146061000Y-83492033D01*
X146089860Y-83346941D01*
X146146472Y-83210268D01*
X146228660Y-83087265D01*
X146333265Y-82982660D01*
X146456268Y-82900472D01*
X146592941Y-82843860D01*
X146738032Y-82815000D01*
X146885968Y-82815000D01*
X147031059Y-82843860D01*
G37*
G36*
X144491059Y-82843860D02*
G01*
X144627732Y-82900472D01*
X144750735Y-82982660D01*
X144855340Y-83087265D01*
X144937528Y-83210268D01*
X144994140Y-83346941D01*
X145023000Y-83492033D01*
X145023000Y-83639967D01*
X144994140Y-83785059D01*
X144937528Y-83921732D01*
X144855340Y-84044735D01*
X144750735Y-84149340D01*
X144627732Y-84231528D01*
X144627731Y-84231529D01*
X144627730Y-84231529D01*
X144491059Y-84288140D01*
X144345968Y-84317000D01*
X144198032Y-84317000D01*
X144052941Y-84288140D01*
X143916270Y-84231529D01*
X143916269Y-84231529D01*
X143916268Y-84231528D01*
X143793265Y-84149340D01*
X143688660Y-84044735D01*
X143606472Y-83921732D01*
X143549860Y-83785059D01*
X143521000Y-83639967D01*
X143521000Y-83492033D01*
X143549860Y-83346941D01*
X143606472Y-83210268D01*
X143688660Y-83087265D01*
X143793265Y-82982660D01*
X143916268Y-82900472D01*
X144052941Y-82843860D01*
X144198032Y-82815000D01*
X144345968Y-82815000D01*
X144491059Y-82843860D01*
G37*
G36*
X139411059Y-82843860D02*
G01*
X139547732Y-82900472D01*
X139670735Y-82982660D01*
X139775340Y-83087265D01*
X139857528Y-83210268D01*
X139914140Y-83346941D01*
X139943000Y-83492033D01*
X139943000Y-83639967D01*
X139914140Y-83785059D01*
X139857528Y-83921732D01*
X139775340Y-84044735D01*
X139670735Y-84149340D01*
X139547732Y-84231528D01*
X139547731Y-84231529D01*
X139547730Y-84231529D01*
X139411059Y-84288140D01*
X139265968Y-84317000D01*
X139118032Y-84317000D01*
X138972941Y-84288140D01*
X138836270Y-84231529D01*
X138836269Y-84231529D01*
X138836268Y-84231528D01*
X138713265Y-84149340D01*
X138608660Y-84044735D01*
X138526472Y-83921732D01*
X138469860Y-83785059D01*
X138441000Y-83639967D01*
X138441000Y-83492033D01*
X138469860Y-83346941D01*
X138526472Y-83210268D01*
X138608660Y-83087265D01*
X138713265Y-82982660D01*
X138836268Y-82900472D01*
X138972941Y-82843860D01*
X139118032Y-82815000D01*
X139265968Y-82815000D01*
X139411059Y-82843860D01*
G37*
G36*
X159731059Y-82843860D02*
G01*
X159867732Y-82900472D01*
X159990735Y-82982660D01*
X160095340Y-83087265D01*
X160177528Y-83210268D01*
X160234140Y-83346941D01*
X160263000Y-83492033D01*
X160263000Y-83639967D01*
X160234140Y-83785059D01*
X160177528Y-83921732D01*
X160095340Y-84044735D01*
X159990735Y-84149340D01*
X159867732Y-84231528D01*
X159867731Y-84231529D01*
X159867730Y-84231529D01*
X159731059Y-84288140D01*
X159585968Y-84317000D01*
X159438032Y-84317000D01*
X159292941Y-84288140D01*
X159156270Y-84231529D01*
X159156269Y-84231529D01*
X159156268Y-84231528D01*
X159033265Y-84149340D01*
X158928660Y-84044735D01*
X158846472Y-83921732D01*
X158789860Y-83785059D01*
X158761000Y-83639967D01*
X158761000Y-83492033D01*
X158789860Y-83346941D01*
X158846472Y-83210268D01*
X158928660Y-83087265D01*
X159033265Y-82982660D01*
X159156268Y-82900472D01*
X159292941Y-82843860D01*
X159438032Y-82815000D01*
X159585968Y-82815000D01*
X159731059Y-82843860D01*
G37*
G36*
X167351059Y-82843860D02*
G01*
X167487732Y-82900472D01*
X167610735Y-82982660D01*
X167715340Y-83087265D01*
X167797528Y-83210268D01*
X167854140Y-83346941D01*
X167883000Y-83492033D01*
X167883000Y-83639967D01*
X167854140Y-83785059D01*
X167797528Y-83921732D01*
X167715340Y-84044735D01*
X167610735Y-84149340D01*
X167487732Y-84231528D01*
X167487731Y-84231529D01*
X167487730Y-84231529D01*
X167351059Y-84288140D01*
X167205968Y-84317000D01*
X167058032Y-84317000D01*
X166912941Y-84288140D01*
X166776270Y-84231529D01*
X166776269Y-84231529D01*
X166776268Y-84231528D01*
X166653265Y-84149340D01*
X166548660Y-84044735D01*
X166466472Y-83921732D01*
X166409860Y-83785059D01*
X166381000Y-83639967D01*
X166381000Y-83492033D01*
X166409860Y-83346941D01*
X166466472Y-83210268D01*
X166548660Y-83087265D01*
X166653265Y-82982660D01*
X166776268Y-82900472D01*
X166912941Y-82843860D01*
X167058032Y-82815000D01*
X167205968Y-82815000D01*
X167351059Y-82843860D01*
G37*
G36*
X128010228Y-81477703D02*
G01*
X128165100Y-81541853D01*
X128304481Y-81634985D01*
X128423015Y-81753519D01*
X128516147Y-81892900D01*
X128580297Y-82047772D01*
X128613000Y-82212184D01*
X128613000Y-82379816D01*
X128580297Y-82544228D01*
X128516147Y-82699100D01*
X128423015Y-82838481D01*
X128304481Y-82957015D01*
X128165100Y-83050147D01*
X128010228Y-83114297D01*
X127845816Y-83147000D01*
X127678184Y-83147000D01*
X127513772Y-83114297D01*
X127358900Y-83050147D01*
X127219519Y-82957015D01*
X127100985Y-82838481D01*
X127007853Y-82699100D01*
X126943703Y-82544228D01*
X126911000Y-82379816D01*
X126911000Y-82212184D01*
X126943703Y-82047772D01*
X127007853Y-81892900D01*
X127100985Y-81753519D01*
X127219519Y-81634985D01*
X127358900Y-81541853D01*
X127513772Y-81477703D01*
X127678184Y-81445000D01*
X127845816Y-81445000D01*
X128010228Y-81477703D01*
G37*
G36*
X135630228Y-81477703D02*
G01*
X135785100Y-81541853D01*
X135924481Y-81634985D01*
X136043015Y-81753519D01*
X136136147Y-81892900D01*
X136200297Y-82047772D01*
X136233000Y-82212184D01*
X136233000Y-82379816D01*
X136200297Y-82544228D01*
X136136147Y-82699100D01*
X136043015Y-82838481D01*
X135924481Y-82957015D01*
X135785100Y-83050147D01*
X135630228Y-83114297D01*
X135465816Y-83147000D01*
X135298184Y-83147000D01*
X135133772Y-83114297D01*
X134978900Y-83050147D01*
X134839519Y-82957015D01*
X134720985Y-82838481D01*
X134627853Y-82699100D01*
X134563703Y-82544228D01*
X134531000Y-82379816D01*
X134531000Y-82212184D01*
X134563703Y-82047772D01*
X134627853Y-81892900D01*
X134720985Y-81753519D01*
X134839519Y-81634985D01*
X134978900Y-81541853D01*
X135133772Y-81477703D01*
X135298184Y-81445000D01*
X135465816Y-81445000D01*
X135630228Y-81477703D01*
G37*
G36*
X176667000Y-82567000D02*
G01*
X175365000Y-82567000D01*
X175365000Y-80265000D01*
X176667000Y-80265000D01*
X176667000Y-82567000D01*
G37*
G36*
X172107000Y-82567000D02*
G01*
X170805000Y-82567000D01*
X170805000Y-80265000D01*
X172107000Y-80265000D01*
X172107000Y-82567000D01*
G37*
G36*
X116551059Y-80557860D02*
G01*
X116636718Y-80593341D01*
X116687732Y-80614472D01*
X116810735Y-80696660D01*
X116915340Y-80801265D01*
X116915341Y-80801267D01*
X116997529Y-80924270D01*
X117054140Y-81060941D01*
X117083000Y-81206032D01*
X117083000Y-81353968D01*
X117054140Y-81499059D01*
X116997838Y-81634985D01*
X116997528Y-81635732D01*
X116915340Y-81758735D01*
X116810735Y-81863340D01*
X116687732Y-81945528D01*
X116687731Y-81945529D01*
X116687730Y-81945529D01*
X116551059Y-82002140D01*
X116405968Y-82031000D01*
X116258032Y-82031000D01*
X116112941Y-82002140D01*
X115976270Y-81945529D01*
X115976269Y-81945529D01*
X115976268Y-81945528D01*
X115853265Y-81863340D01*
X115748660Y-81758735D01*
X115666472Y-81635732D01*
X115666163Y-81634985D01*
X115609860Y-81499059D01*
X115581000Y-81353968D01*
X115581000Y-81206032D01*
X115609860Y-81060941D01*
X115666471Y-80924270D01*
X115748659Y-80801267D01*
X115748660Y-80801265D01*
X115853265Y-80696660D01*
X115976268Y-80614472D01*
X116027283Y-80593341D01*
X116112941Y-80557860D01*
X116258032Y-80529000D01*
X116405968Y-80529000D01*
X116551059Y-80557860D01*
G37*
G36*
X121631059Y-80557860D02*
G01*
X121716718Y-80593341D01*
X121767732Y-80614472D01*
X121890735Y-80696660D01*
X121995340Y-80801265D01*
X121995341Y-80801267D01*
X122077529Y-80924270D01*
X122134140Y-81060941D01*
X122163000Y-81206032D01*
X122163000Y-81353968D01*
X122134140Y-81499059D01*
X122077838Y-81634985D01*
X122077528Y-81635732D01*
X121995340Y-81758735D01*
X121890735Y-81863340D01*
X121767732Y-81945528D01*
X121767731Y-81945529D01*
X121767730Y-81945529D01*
X121631059Y-82002140D01*
X121485968Y-82031000D01*
X121338032Y-82031000D01*
X121192941Y-82002140D01*
X121056270Y-81945529D01*
X121056269Y-81945529D01*
X121056268Y-81945528D01*
X120933265Y-81863340D01*
X120828660Y-81758735D01*
X120746472Y-81635732D01*
X120746163Y-81634985D01*
X120689860Y-81499059D01*
X120661000Y-81353968D01*
X120661000Y-81206032D01*
X120689860Y-81060941D01*
X120746471Y-80924270D01*
X120828659Y-80801267D01*
X120828660Y-80801265D01*
X120933265Y-80696660D01*
X121056268Y-80614472D01*
X121107283Y-80593341D01*
X121192941Y-80557860D01*
X121338032Y-80529000D01*
X121485968Y-80529000D01*
X121631059Y-80557860D01*
G37*
G36*
X179289059Y-79287860D02*
G01*
X179374718Y-79323341D01*
X179425732Y-79344472D01*
X179548735Y-79426660D01*
X179653340Y-79531265D01*
X179735528Y-79654268D01*
X179735529Y-79654270D01*
X179792140Y-79790941D01*
X179821000Y-79936032D01*
X179821000Y-80083968D01*
X179792140Y-80229059D01*
X179735528Y-80365732D01*
X179653340Y-80488735D01*
X179548735Y-80593340D01*
X179425732Y-80675528D01*
X179425731Y-80675529D01*
X179425730Y-80675529D01*
X179289059Y-80732140D01*
X179143968Y-80761000D01*
X178996032Y-80761000D01*
X178850941Y-80732140D01*
X178714270Y-80675529D01*
X178714269Y-80675529D01*
X178714268Y-80675528D01*
X178591265Y-80593340D01*
X178486660Y-80488735D01*
X178404472Y-80365732D01*
X178347860Y-80229059D01*
X178319000Y-80083968D01*
X178319000Y-79936032D01*
X178347860Y-79790941D01*
X178404471Y-79654270D01*
X178404472Y-79654268D01*
X178486660Y-79531265D01*
X178591265Y-79426660D01*
X178714268Y-79344472D01*
X178765283Y-79323341D01*
X178850941Y-79287860D01*
X178996032Y-79259000D01*
X179143968Y-79259000D01*
X179289059Y-79287860D01*
G37*
G36*
X128010228Y-78937703D02*
G01*
X128165100Y-79001853D01*
X128304481Y-79094985D01*
X128423015Y-79213519D01*
X128516147Y-79352900D01*
X128580297Y-79507772D01*
X128613000Y-79672184D01*
X128613000Y-79839816D01*
X128580297Y-80004228D01*
X128516147Y-80159100D01*
X128423015Y-80298481D01*
X128304481Y-80417015D01*
X128165100Y-80510147D01*
X128010228Y-80574297D01*
X127845816Y-80607000D01*
X127678184Y-80607000D01*
X127513772Y-80574297D01*
X127358900Y-80510147D01*
X127219519Y-80417015D01*
X127100985Y-80298481D01*
X127007853Y-80159100D01*
X126943703Y-80004228D01*
X126911000Y-79839816D01*
X126911000Y-79672184D01*
X126943703Y-79507772D01*
X127007853Y-79352900D01*
X127100985Y-79213519D01*
X127219519Y-79094985D01*
X127358900Y-79001853D01*
X127513772Y-78937703D01*
X127678184Y-78905000D01*
X127845816Y-78905000D01*
X128010228Y-78937703D01*
G37*
G36*
X135630228Y-78937703D02*
G01*
X135785100Y-79001853D01*
X135924481Y-79094985D01*
X136043015Y-79213519D01*
X136136147Y-79352900D01*
X136200297Y-79507772D01*
X136233000Y-79672184D01*
X136233000Y-79839816D01*
X136200297Y-80004228D01*
X136136147Y-80159100D01*
X136043015Y-80298481D01*
X135924481Y-80417015D01*
X135785100Y-80510147D01*
X135630228Y-80574297D01*
X135465816Y-80607000D01*
X135298184Y-80607000D01*
X135133772Y-80574297D01*
X134978900Y-80510147D01*
X134839519Y-80417015D01*
X134720985Y-80298481D01*
X134627853Y-80159100D01*
X134563703Y-80004228D01*
X134531000Y-79839816D01*
X134531000Y-79672184D01*
X134563703Y-79507772D01*
X134627853Y-79352900D01*
X134720985Y-79213519D01*
X134839519Y-79094985D01*
X134978900Y-79001853D01*
X135133772Y-78937703D01*
X135298184Y-78905000D01*
X135465816Y-78905000D01*
X135630228Y-78937703D01*
G37*
G36*
X167351059Y-79033860D02*
G01*
X167487732Y-79090472D01*
X167610735Y-79172660D01*
X167715340Y-79277265D01*
X167797528Y-79400268D01*
X167854140Y-79536941D01*
X167883000Y-79682033D01*
X167883000Y-79829967D01*
X167854140Y-79975059D01*
X167797528Y-80111732D01*
X167715340Y-80234735D01*
X167610735Y-80339340D01*
X167487732Y-80421528D01*
X167487731Y-80421529D01*
X167487730Y-80421529D01*
X167351059Y-80478140D01*
X167205968Y-80507000D01*
X167058032Y-80507000D01*
X166912941Y-80478140D01*
X166776270Y-80421529D01*
X166776269Y-80421529D01*
X166776268Y-80421528D01*
X166653265Y-80339340D01*
X166548660Y-80234735D01*
X166466472Y-80111732D01*
X166409860Y-79975059D01*
X166381000Y-79829967D01*
X166381000Y-79682033D01*
X166409860Y-79536941D01*
X166466472Y-79400268D01*
X166548660Y-79277265D01*
X166653265Y-79172660D01*
X166776268Y-79090472D01*
X166912941Y-79033860D01*
X167058032Y-79005000D01*
X167205968Y-79005000D01*
X167351059Y-79033860D01*
G37*
G36*
X154653059Y-78953860D02*
G01*
X154776522Y-79005000D01*
X154789732Y-79010472D01*
X154912735Y-79092660D01*
X155017340Y-79197265D01*
X155099528Y-79320268D01*
X155099529Y-79320270D01*
X155156140Y-79456941D01*
X155185000Y-79602032D01*
X155185000Y-79749968D01*
X155167128Y-79839816D01*
X155156140Y-79895059D01*
X155099528Y-80031732D01*
X155017340Y-80154735D01*
X154912735Y-80259340D01*
X154789732Y-80341528D01*
X154789731Y-80341529D01*
X154789730Y-80341529D01*
X154653059Y-80398140D01*
X154507968Y-80427000D01*
X154360032Y-80427000D01*
X154214941Y-80398140D01*
X154078270Y-80341529D01*
X154078269Y-80341529D01*
X154078268Y-80341528D01*
X153955265Y-80259340D01*
X153850660Y-80154735D01*
X153768472Y-80031732D01*
X153711860Y-79895059D01*
X153700872Y-79839816D01*
X153683000Y-79749968D01*
X153683000Y-79602032D01*
X153711860Y-79456941D01*
X153768471Y-79320270D01*
X153768472Y-79320268D01*
X153850660Y-79197265D01*
X153955265Y-79092660D01*
X154078268Y-79010472D01*
X154091479Y-79005000D01*
X154214941Y-78953860D01*
X154360032Y-78925000D01*
X154507968Y-78925000D01*
X154653059Y-78953860D01*
G37*
G36*
X160495059Y-78953860D02*
G01*
X160618522Y-79005000D01*
X160631732Y-79010472D01*
X160754735Y-79092660D01*
X160859340Y-79197265D01*
X160941528Y-79320268D01*
X160941529Y-79320270D01*
X160998140Y-79456941D01*
X161027000Y-79602032D01*
X161027000Y-79749968D01*
X161009128Y-79839816D01*
X160998140Y-79895059D01*
X160941528Y-80031732D01*
X160859340Y-80154735D01*
X160754735Y-80259340D01*
X160631732Y-80341528D01*
X160631731Y-80341529D01*
X160631730Y-80341529D01*
X160495059Y-80398140D01*
X160349968Y-80427000D01*
X160202032Y-80427000D01*
X160056941Y-80398140D01*
X159920270Y-80341529D01*
X159920269Y-80341529D01*
X159920268Y-80341528D01*
X159797265Y-80259340D01*
X159692660Y-80154735D01*
X159610472Y-80031732D01*
X159553860Y-79895059D01*
X159542872Y-79839816D01*
X159525000Y-79749968D01*
X159525000Y-79602032D01*
X159553860Y-79456941D01*
X159610471Y-79320270D01*
X159610472Y-79320268D01*
X159692660Y-79197265D01*
X159797265Y-79092660D01*
X159920268Y-79010472D01*
X159933479Y-79005000D01*
X160056941Y-78953860D01*
X160202032Y-78925000D01*
X160349968Y-78925000D01*
X160495059Y-78953860D01*
G37*
G36*
X163795059Y-78953860D02*
G01*
X163918522Y-79005000D01*
X163931732Y-79010472D01*
X164054735Y-79092660D01*
X164159340Y-79197265D01*
X164241528Y-79320268D01*
X164241529Y-79320270D01*
X164298140Y-79456941D01*
X164327000Y-79602032D01*
X164327000Y-79749968D01*
X164309128Y-79839816D01*
X164298140Y-79895059D01*
X164241528Y-80031732D01*
X164159340Y-80154735D01*
X164054735Y-80259340D01*
X163931732Y-80341528D01*
X163931731Y-80341529D01*
X163931730Y-80341529D01*
X163795059Y-80398140D01*
X163649968Y-80427000D01*
X163502032Y-80427000D01*
X163356941Y-80398140D01*
X163220270Y-80341529D01*
X163220269Y-80341529D01*
X163220268Y-80341528D01*
X163097265Y-80259340D01*
X162992660Y-80154735D01*
X162910472Y-80031732D01*
X162853860Y-79895059D01*
X162842872Y-79839816D01*
X162825000Y-79749968D01*
X162825000Y-79602032D01*
X162853860Y-79456941D01*
X162910471Y-79320270D01*
X162910472Y-79320268D01*
X162992660Y-79197265D01*
X163097265Y-79092660D01*
X163220268Y-79010472D01*
X163233479Y-79005000D01*
X163356941Y-78953860D01*
X163502032Y-78925000D01*
X163649968Y-78925000D01*
X163795059Y-78953860D01*
G37*
G36*
X157953059Y-78953860D02*
G01*
X158076522Y-79005000D01*
X158089732Y-79010472D01*
X158212735Y-79092660D01*
X158317340Y-79197265D01*
X158399528Y-79320268D01*
X158399529Y-79320270D01*
X158456140Y-79456941D01*
X158485000Y-79602032D01*
X158485000Y-79749968D01*
X158467128Y-79839816D01*
X158456140Y-79895059D01*
X158399528Y-80031732D01*
X158317340Y-80154735D01*
X158212735Y-80259340D01*
X158089732Y-80341528D01*
X158089731Y-80341529D01*
X158089730Y-80341529D01*
X157953059Y-80398140D01*
X157807968Y-80427000D01*
X157660032Y-80427000D01*
X157514941Y-80398140D01*
X157378270Y-80341529D01*
X157378269Y-80341529D01*
X157378268Y-80341528D01*
X157255265Y-80259340D01*
X157150660Y-80154735D01*
X157068472Y-80031732D01*
X157011860Y-79895059D01*
X157000872Y-79839816D01*
X156983000Y-79749968D01*
X156983000Y-79602032D01*
X157011860Y-79456941D01*
X157068471Y-79320270D01*
X157068472Y-79320268D01*
X157150660Y-79197265D01*
X157255265Y-79092660D01*
X157378268Y-79010472D01*
X157391479Y-79005000D01*
X157514941Y-78953860D01*
X157660032Y-78925000D01*
X157807968Y-78925000D01*
X157953059Y-78953860D01*
G37*
G36*
X148811059Y-78953860D02*
G01*
X148934522Y-79005000D01*
X148947732Y-79010472D01*
X149070735Y-79092660D01*
X149175340Y-79197265D01*
X149257528Y-79320268D01*
X149257529Y-79320270D01*
X149314140Y-79456941D01*
X149343000Y-79602032D01*
X149343000Y-79749968D01*
X149325128Y-79839816D01*
X149314140Y-79895059D01*
X149257528Y-80031732D01*
X149175340Y-80154735D01*
X149070735Y-80259340D01*
X148947732Y-80341528D01*
X148947731Y-80341529D01*
X148947730Y-80341529D01*
X148811059Y-80398140D01*
X148665968Y-80427000D01*
X148518032Y-80427000D01*
X148372941Y-80398140D01*
X148236270Y-80341529D01*
X148236269Y-80341529D01*
X148236268Y-80341528D01*
X148113265Y-80259340D01*
X148008660Y-80154735D01*
X147926472Y-80031732D01*
X147869860Y-79895059D01*
X147858872Y-79839816D01*
X147841000Y-79749968D01*
X147841000Y-79602032D01*
X147869860Y-79456941D01*
X147926471Y-79320270D01*
X147926472Y-79320268D01*
X148008660Y-79197265D01*
X148113265Y-79092660D01*
X148236268Y-79010472D01*
X148249479Y-79005000D01*
X148372941Y-78953860D01*
X148518032Y-78925000D01*
X148665968Y-78925000D01*
X148811059Y-78953860D01*
G37*
G36*
X152111059Y-78953860D02*
G01*
X152234522Y-79005000D01*
X152247732Y-79010472D01*
X152370735Y-79092660D01*
X152475340Y-79197265D01*
X152557528Y-79320268D01*
X152557529Y-79320270D01*
X152614140Y-79456941D01*
X152643000Y-79602032D01*
X152643000Y-79749968D01*
X152625128Y-79839816D01*
X152614140Y-79895059D01*
X152557528Y-80031732D01*
X152475340Y-80154735D01*
X152370735Y-80259340D01*
X152247732Y-80341528D01*
X152247731Y-80341529D01*
X152247730Y-80341529D01*
X152111059Y-80398140D01*
X151965968Y-80427000D01*
X151818032Y-80427000D01*
X151672941Y-80398140D01*
X151536270Y-80341529D01*
X151536269Y-80341529D01*
X151536268Y-80341528D01*
X151413265Y-80259340D01*
X151308660Y-80154735D01*
X151226472Y-80031732D01*
X151169860Y-79895059D01*
X151158872Y-79839816D01*
X151141000Y-79749968D01*
X151141000Y-79602032D01*
X151169860Y-79456941D01*
X151226471Y-79320270D01*
X151226472Y-79320268D01*
X151308660Y-79197265D01*
X151413265Y-79092660D01*
X151536268Y-79010472D01*
X151549479Y-79005000D01*
X151672941Y-78953860D01*
X151818032Y-78925000D01*
X151965968Y-78925000D01*
X152111059Y-78953860D01*
G37*
G36*
X142967059Y-78953860D02*
G01*
X143090522Y-79005000D01*
X143103732Y-79010472D01*
X143226735Y-79092660D01*
X143331340Y-79197265D01*
X143413528Y-79320268D01*
X143413529Y-79320270D01*
X143470140Y-79456941D01*
X143499000Y-79602032D01*
X143499000Y-79749968D01*
X143481128Y-79839816D01*
X143470140Y-79895059D01*
X143413528Y-80031732D01*
X143331340Y-80154735D01*
X143226735Y-80259340D01*
X143103732Y-80341528D01*
X143103731Y-80341529D01*
X143103730Y-80341529D01*
X142967059Y-80398140D01*
X142821968Y-80427000D01*
X142674032Y-80427000D01*
X142528941Y-80398140D01*
X142392270Y-80341529D01*
X142392269Y-80341529D01*
X142392268Y-80341528D01*
X142269265Y-80259340D01*
X142164660Y-80154735D01*
X142082472Y-80031732D01*
X142025860Y-79895059D01*
X142014872Y-79839816D01*
X141997000Y-79749968D01*
X141997000Y-79602032D01*
X142025860Y-79456941D01*
X142082471Y-79320270D01*
X142082472Y-79320268D01*
X142164660Y-79197265D01*
X142269265Y-79092660D01*
X142392268Y-79010472D01*
X142405479Y-79005000D01*
X142528941Y-78953860D01*
X142674032Y-78925000D01*
X142821968Y-78925000D01*
X142967059Y-78953860D01*
G37*
G36*
X146267059Y-78953860D02*
G01*
X146390522Y-79005000D01*
X146403732Y-79010472D01*
X146526735Y-79092660D01*
X146631340Y-79197265D01*
X146713528Y-79320268D01*
X146713529Y-79320270D01*
X146770140Y-79456941D01*
X146799000Y-79602032D01*
X146799000Y-79749968D01*
X146781128Y-79839816D01*
X146770140Y-79895059D01*
X146713528Y-80031732D01*
X146631340Y-80154735D01*
X146526735Y-80259340D01*
X146403732Y-80341528D01*
X146403731Y-80341529D01*
X146403730Y-80341529D01*
X146267059Y-80398140D01*
X146121968Y-80427000D01*
X145974032Y-80427000D01*
X145828941Y-80398140D01*
X145692270Y-80341529D01*
X145692269Y-80341529D01*
X145692268Y-80341528D01*
X145569265Y-80259340D01*
X145464660Y-80154735D01*
X145382472Y-80031732D01*
X145325860Y-79895059D01*
X145314872Y-79839816D01*
X145297000Y-79749968D01*
X145297000Y-79602032D01*
X145325860Y-79456941D01*
X145382471Y-79320270D01*
X145382472Y-79320268D01*
X145464660Y-79197265D01*
X145569265Y-79092660D01*
X145692268Y-79010472D01*
X145705479Y-79005000D01*
X145828941Y-78953860D01*
X145974032Y-78925000D01*
X146121968Y-78925000D01*
X146267059Y-78953860D01*
G37*
G36*
X121631059Y-78017860D02*
G01*
X121670737Y-78034295D01*
X121767732Y-78074472D01*
X121890735Y-78156660D01*
X121995340Y-78261265D01*
X121995341Y-78261267D01*
X122077529Y-78384270D01*
X122134140Y-78520941D01*
X122163000Y-78666032D01*
X122163000Y-78813968D01*
X122134140Y-78959059D01*
X122077838Y-79094985D01*
X122077528Y-79095732D01*
X121995340Y-79218735D01*
X121890735Y-79323340D01*
X121767732Y-79405528D01*
X121767731Y-79405529D01*
X121767730Y-79405529D01*
X121631059Y-79462140D01*
X121485968Y-79491000D01*
X121338032Y-79491000D01*
X121192941Y-79462140D01*
X121056270Y-79405529D01*
X121056269Y-79405529D01*
X121056268Y-79405528D01*
X120933265Y-79323340D01*
X120828660Y-79218735D01*
X120746472Y-79095732D01*
X120746163Y-79094985D01*
X120689860Y-78959059D01*
X120661000Y-78813968D01*
X120661000Y-78666032D01*
X120689860Y-78520941D01*
X120746471Y-78384270D01*
X120828659Y-78261267D01*
X120828660Y-78261265D01*
X120933265Y-78156660D01*
X121056268Y-78074472D01*
X121153264Y-78034295D01*
X121192941Y-78017860D01*
X121338032Y-77989000D01*
X121485968Y-77989000D01*
X121631059Y-78017860D01*
G37*
G36*
X116551059Y-78017860D02*
G01*
X116590737Y-78034295D01*
X116687732Y-78074472D01*
X116810735Y-78156660D01*
X116915340Y-78261265D01*
X116915341Y-78261267D01*
X116997529Y-78384270D01*
X117054140Y-78520941D01*
X117083000Y-78666032D01*
X117083000Y-78813968D01*
X117054140Y-78959059D01*
X116997838Y-79094985D01*
X116997528Y-79095732D01*
X116915340Y-79218735D01*
X116810735Y-79323340D01*
X116687732Y-79405528D01*
X116687731Y-79405529D01*
X116687730Y-79405529D01*
X116551059Y-79462140D01*
X116405968Y-79491000D01*
X116258032Y-79491000D01*
X116112941Y-79462140D01*
X115976270Y-79405529D01*
X115976269Y-79405529D01*
X115976268Y-79405528D01*
X115853265Y-79323340D01*
X115748660Y-79218735D01*
X115666472Y-79095732D01*
X115666163Y-79094985D01*
X115609860Y-78959059D01*
X115581000Y-78813968D01*
X115581000Y-78666032D01*
X115609860Y-78520941D01*
X115666471Y-78384270D01*
X115748659Y-78261267D01*
X115748660Y-78261265D01*
X115853265Y-78156660D01*
X115976268Y-78074472D01*
X116073264Y-78034295D01*
X116112941Y-78017860D01*
X116258032Y-77989000D01*
X116405968Y-77989000D01*
X116551059Y-78017860D01*
G37*
G36*
X192954482Y-73457826D02*
G01*
X193011876Y-73463479D01*
X193085517Y-73485818D01*
X193122338Y-73496987D01*
X193224140Y-73551402D01*
X193313370Y-73624630D01*
X193386598Y-73713860D01*
X193441013Y-73815662D01*
X193452182Y-73852483D01*
X193474521Y-73926124D01*
X193485835Y-74041000D01*
X193474521Y-74155876D01*
X193467506Y-74179000D01*
X193441013Y-74266338D01*
X193386598Y-74368140D01*
X193313370Y-74457370D01*
X193224140Y-74530598D01*
X193158355Y-74565761D01*
X193137981Y-74579375D01*
X193120654Y-74596702D01*
X193107040Y-74617076D01*
X193097663Y-74639715D01*
X193092883Y-74663749D01*
X193092883Y-74688253D01*
X193097664Y-74712286D01*
X193107041Y-74734925D01*
X193120655Y-74755299D01*
X193137982Y-74772626D01*
X193158355Y-74786239D01*
X193224140Y-74821402D01*
X193313370Y-74894630D01*
X193386598Y-74983860D01*
X193441013Y-75085662D01*
X193441013Y-75085663D01*
X193474521Y-75196124D01*
X193485835Y-75311000D01*
X193474521Y-75425876D01*
X193473225Y-75430147D01*
X193441013Y-75536338D01*
X193386598Y-75638140D01*
X193313370Y-75727370D01*
X193224140Y-75800598D01*
X193158355Y-75835761D01*
X193137981Y-75849375D01*
X193120654Y-75866702D01*
X193107040Y-75887076D01*
X193097663Y-75909715D01*
X193092883Y-75933749D01*
X193092883Y-75958253D01*
X193097664Y-75982286D01*
X193107041Y-76004925D01*
X193120655Y-76025299D01*
X193137982Y-76042626D01*
X193158355Y-76056239D01*
X193224140Y-76091402D01*
X193313370Y-76164630D01*
X193386598Y-76253860D01*
X193441013Y-76355662D01*
X193452182Y-76392483D01*
X193474521Y-76466124D01*
X193485835Y-76581000D01*
X193474521Y-76695876D01*
X193452182Y-76769517D01*
X193441013Y-76806338D01*
X193386598Y-76908140D01*
X193313370Y-76997370D01*
X193257311Y-77043375D01*
X193239984Y-77060702D01*
X193226370Y-77081076D01*
X193216993Y-77103715D01*
X193212212Y-77127748D01*
X193212212Y-77152252D01*
X193216992Y-77176285D01*
X193226369Y-77198924D01*
X193239983Y-77219299D01*
X193257310Y-77236626D01*
X193277684Y-77250240D01*
X193300323Y-77259617D01*
X193324356Y-77264398D01*
X193336609Y-77265000D01*
X193483000Y-77265000D01*
X193483000Y-78437000D01*
X191581000Y-78437000D01*
X191581000Y-77265000D01*
X191727391Y-77265000D01*
X191751777Y-77262598D01*
X191775226Y-77255485D01*
X191796837Y-77243934D01*
X191815779Y-77228389D01*
X191831324Y-77209447D01*
X191842875Y-77187836D01*
X191849988Y-77164387D01*
X191852390Y-77140001D01*
X191849988Y-77115615D01*
X191842875Y-77092166D01*
X191831324Y-77070555D01*
X191815779Y-77051613D01*
X191806689Y-77043375D01*
X191750630Y-76997370D01*
X191677402Y-76908140D01*
X191622987Y-76806338D01*
X191611818Y-76769517D01*
X191589479Y-76695876D01*
X191578165Y-76581000D01*
X191589479Y-76466124D01*
X191611818Y-76392483D01*
X191622987Y-76355662D01*
X191677402Y-76253860D01*
X191750630Y-76164630D01*
X191839860Y-76091402D01*
X191905645Y-76056239D01*
X191926019Y-76042625D01*
X191943346Y-76025298D01*
X191956960Y-76004924D01*
X191966337Y-75982285D01*
X191971117Y-75958251D01*
X191971117Y-75933747D01*
X191966336Y-75909714D01*
X191956959Y-75887075D01*
X191943345Y-75866701D01*
X191926018Y-75849374D01*
X191905645Y-75835761D01*
X191839860Y-75800598D01*
X191750630Y-75727370D01*
X191677402Y-75638140D01*
X191622987Y-75536338D01*
X191590775Y-75430147D01*
X191589479Y-75425876D01*
X191578165Y-75311000D01*
X191589479Y-75196124D01*
X191622987Y-75085663D01*
X191622987Y-75085662D01*
X191677402Y-74983860D01*
X191750630Y-74894630D01*
X191839860Y-74821402D01*
X191905645Y-74786239D01*
X191926019Y-74772625D01*
X191943346Y-74755298D01*
X191956960Y-74734924D01*
X191966337Y-74712285D01*
X191971117Y-74688251D01*
X191971117Y-74663747D01*
X191966336Y-74639714D01*
X191956959Y-74617075D01*
X191943345Y-74596701D01*
X191926018Y-74579374D01*
X191905645Y-74565761D01*
X191839860Y-74530598D01*
X191750630Y-74457370D01*
X191677402Y-74368140D01*
X191622987Y-74266338D01*
X191596494Y-74179000D01*
X191589479Y-74155876D01*
X191578165Y-74041000D01*
X191589479Y-73926124D01*
X191611818Y-73852483D01*
X191622987Y-73815662D01*
X191677402Y-73713860D01*
X191750630Y-73624630D01*
X191839860Y-73551402D01*
X191941662Y-73496987D01*
X191978483Y-73485818D01*
X192052124Y-73463479D01*
X192109518Y-73457826D01*
X192138214Y-73455000D01*
X192925786Y-73455000D01*
X192954482Y-73457826D01*
G37*
G36*
X176687000Y-78367000D02*
G01*
X170785000Y-78367000D01*
X170785000Y-71865000D01*
X176687000Y-71865000D01*
X176687000Y-78367000D01*
G37*
G36*
X128010228Y-76397703D02*
G01*
X128165100Y-76461853D01*
X128304481Y-76554985D01*
X128423015Y-76673519D01*
X128516147Y-76812900D01*
X128580297Y-76967772D01*
X128613000Y-77132184D01*
X128613000Y-77299816D01*
X128580297Y-77464228D01*
X128516147Y-77619100D01*
X128423015Y-77758481D01*
X128304481Y-77877015D01*
X128165100Y-77970147D01*
X128010228Y-78034297D01*
X127845816Y-78067000D01*
X127678184Y-78067000D01*
X127513772Y-78034297D01*
X127358900Y-77970147D01*
X127219519Y-77877015D01*
X127100985Y-77758481D01*
X127007853Y-77619100D01*
X126943703Y-77464228D01*
X126911000Y-77299816D01*
X126911000Y-77132184D01*
X126943703Y-76967772D01*
X127007853Y-76812900D01*
X127100985Y-76673519D01*
X127219519Y-76554985D01*
X127358900Y-76461853D01*
X127513772Y-76397703D01*
X127678184Y-76365000D01*
X127845816Y-76365000D01*
X128010228Y-76397703D01*
G37*
G36*
X135630228Y-76397703D02*
G01*
X135785100Y-76461853D01*
X135924481Y-76554985D01*
X136043015Y-76673519D01*
X136136147Y-76812900D01*
X136200297Y-76967772D01*
X136233000Y-77132184D01*
X136233000Y-77299816D01*
X136200297Y-77464228D01*
X136136147Y-77619100D01*
X136043015Y-77758481D01*
X135924481Y-77877015D01*
X135785100Y-77970147D01*
X135630228Y-78034297D01*
X135465816Y-78067000D01*
X135298184Y-78067000D01*
X135133772Y-78034297D01*
X134978900Y-77970147D01*
X134839519Y-77877015D01*
X134720985Y-77758481D01*
X134627853Y-77619100D01*
X134563703Y-77464228D01*
X134531000Y-77299816D01*
X134531000Y-77132184D01*
X134563703Y-76967772D01*
X134627853Y-76812900D01*
X134720985Y-76673519D01*
X134839519Y-76554985D01*
X134978900Y-76461853D01*
X135133772Y-76397703D01*
X135298184Y-76365000D01*
X135465816Y-76365000D01*
X135630228Y-76397703D01*
G37*
G36*
X146267059Y-76453860D02*
G01*
X146403732Y-76510472D01*
X146526735Y-76592660D01*
X146631340Y-76697265D01*
X146704220Y-76806338D01*
X146713529Y-76820270D01*
X146770140Y-76956941D01*
X146799000Y-77102032D01*
X146799000Y-77249968D01*
X146797081Y-77259617D01*
X146770140Y-77395059D01*
X146713528Y-77531732D01*
X146631340Y-77654735D01*
X146526735Y-77759340D01*
X146403732Y-77841528D01*
X146403731Y-77841529D01*
X146403730Y-77841529D01*
X146267059Y-77898140D01*
X146121968Y-77927000D01*
X145974032Y-77927000D01*
X145828941Y-77898140D01*
X145692270Y-77841529D01*
X145692269Y-77841529D01*
X145692268Y-77841528D01*
X145569265Y-77759340D01*
X145464660Y-77654735D01*
X145382472Y-77531732D01*
X145325860Y-77395059D01*
X145298919Y-77259617D01*
X145297000Y-77249968D01*
X145297000Y-77102032D01*
X145325860Y-76956941D01*
X145382471Y-76820270D01*
X145391780Y-76806338D01*
X145464660Y-76697265D01*
X145569265Y-76592660D01*
X145692268Y-76510472D01*
X145828941Y-76453860D01*
X145974032Y-76425000D01*
X146121968Y-76425000D01*
X146267059Y-76453860D01*
G37*
G36*
X142967059Y-76453860D02*
G01*
X143103732Y-76510472D01*
X143226735Y-76592660D01*
X143331340Y-76697265D01*
X143404220Y-76806338D01*
X143413529Y-76820270D01*
X143470140Y-76956941D01*
X143499000Y-77102032D01*
X143499000Y-77249968D01*
X143497081Y-77259617D01*
X143470140Y-77395059D01*
X143413528Y-77531732D01*
X143331340Y-77654735D01*
X143226735Y-77759340D01*
X143103732Y-77841528D01*
X143103731Y-77841529D01*
X143103730Y-77841529D01*
X142967059Y-77898140D01*
X142821968Y-77927000D01*
X142674032Y-77927000D01*
X142528941Y-77898140D01*
X142392270Y-77841529D01*
X142392269Y-77841529D01*
X142392268Y-77841528D01*
X142269265Y-77759340D01*
X142164660Y-77654735D01*
X142082472Y-77531732D01*
X142025860Y-77395059D01*
X141998919Y-77259617D01*
X141997000Y-77249968D01*
X141997000Y-77102032D01*
X142025860Y-76956941D01*
X142082471Y-76820270D01*
X142091780Y-76806338D01*
X142164660Y-76697265D01*
X142269265Y-76592660D01*
X142392268Y-76510472D01*
X142528941Y-76453860D01*
X142674032Y-76425000D01*
X142821968Y-76425000D01*
X142967059Y-76453860D01*
G37*
G36*
X152111059Y-76453860D02*
G01*
X152247732Y-76510472D01*
X152370735Y-76592660D01*
X152475340Y-76697265D01*
X152548220Y-76806338D01*
X152557529Y-76820270D01*
X152614140Y-76956941D01*
X152643000Y-77102032D01*
X152643000Y-77249968D01*
X152641081Y-77259617D01*
X152614140Y-77395059D01*
X152557528Y-77531732D01*
X152475340Y-77654735D01*
X152370735Y-77759340D01*
X152247732Y-77841528D01*
X152247731Y-77841529D01*
X152247730Y-77841529D01*
X152111059Y-77898140D01*
X151965968Y-77927000D01*
X151818032Y-77927000D01*
X151672941Y-77898140D01*
X151536270Y-77841529D01*
X151536269Y-77841529D01*
X151536268Y-77841528D01*
X151413265Y-77759340D01*
X151308660Y-77654735D01*
X151226472Y-77531732D01*
X151169860Y-77395059D01*
X151142919Y-77259617D01*
X151141000Y-77249968D01*
X151141000Y-77102032D01*
X151169860Y-76956941D01*
X151226471Y-76820270D01*
X151235780Y-76806338D01*
X151308660Y-76697265D01*
X151413265Y-76592660D01*
X151536268Y-76510472D01*
X151672941Y-76453860D01*
X151818032Y-76425000D01*
X151965968Y-76425000D01*
X152111059Y-76453860D01*
G37*
G36*
X148811059Y-76453860D02*
G01*
X148947732Y-76510472D01*
X149070735Y-76592660D01*
X149175340Y-76697265D01*
X149248220Y-76806338D01*
X149257529Y-76820270D01*
X149314140Y-76956941D01*
X149343000Y-77102032D01*
X149343000Y-77249968D01*
X149341081Y-77259617D01*
X149314140Y-77395059D01*
X149257528Y-77531732D01*
X149175340Y-77654735D01*
X149070735Y-77759340D01*
X148947732Y-77841528D01*
X148947731Y-77841529D01*
X148947730Y-77841529D01*
X148811059Y-77898140D01*
X148665968Y-77927000D01*
X148518032Y-77927000D01*
X148372941Y-77898140D01*
X148236270Y-77841529D01*
X148236269Y-77841529D01*
X148236268Y-77841528D01*
X148113265Y-77759340D01*
X148008660Y-77654735D01*
X147926472Y-77531732D01*
X147869860Y-77395059D01*
X147842919Y-77259617D01*
X147841000Y-77249968D01*
X147841000Y-77102032D01*
X147869860Y-76956941D01*
X147926471Y-76820270D01*
X147935780Y-76806338D01*
X148008660Y-76697265D01*
X148113265Y-76592660D01*
X148236268Y-76510472D01*
X148372941Y-76453860D01*
X148518032Y-76425000D01*
X148665968Y-76425000D01*
X148811059Y-76453860D01*
G37*
G36*
X154653059Y-76453860D02*
G01*
X154789732Y-76510472D01*
X154912735Y-76592660D01*
X155017340Y-76697265D01*
X155090220Y-76806338D01*
X155099529Y-76820270D01*
X155156140Y-76956941D01*
X155185000Y-77102032D01*
X155185000Y-77249968D01*
X155183081Y-77259617D01*
X155156140Y-77395059D01*
X155099528Y-77531732D01*
X155017340Y-77654735D01*
X154912735Y-77759340D01*
X154789732Y-77841528D01*
X154789731Y-77841529D01*
X154789730Y-77841529D01*
X154653059Y-77898140D01*
X154507968Y-77927000D01*
X154360032Y-77927000D01*
X154214941Y-77898140D01*
X154078270Y-77841529D01*
X154078269Y-77841529D01*
X154078268Y-77841528D01*
X153955265Y-77759340D01*
X153850660Y-77654735D01*
X153768472Y-77531732D01*
X153711860Y-77395059D01*
X153684919Y-77259617D01*
X153683000Y-77249968D01*
X153683000Y-77102032D01*
X153711860Y-76956941D01*
X153768471Y-76820270D01*
X153777780Y-76806338D01*
X153850660Y-76697265D01*
X153955265Y-76592660D01*
X154078268Y-76510472D01*
X154214941Y-76453860D01*
X154360032Y-76425000D01*
X154507968Y-76425000D01*
X154653059Y-76453860D01*
G37*
G36*
X157953059Y-76453860D02*
G01*
X158089732Y-76510472D01*
X158212735Y-76592660D01*
X158317340Y-76697265D01*
X158390220Y-76806338D01*
X158399529Y-76820270D01*
X158456140Y-76956941D01*
X158485000Y-77102032D01*
X158485000Y-77249968D01*
X158483081Y-77259617D01*
X158456140Y-77395059D01*
X158399528Y-77531732D01*
X158317340Y-77654735D01*
X158212735Y-77759340D01*
X158089732Y-77841528D01*
X158089731Y-77841529D01*
X158089730Y-77841529D01*
X157953059Y-77898140D01*
X157807968Y-77927000D01*
X157660032Y-77927000D01*
X157514941Y-77898140D01*
X157378270Y-77841529D01*
X157378269Y-77841529D01*
X157378268Y-77841528D01*
X157255265Y-77759340D01*
X157150660Y-77654735D01*
X157068472Y-77531732D01*
X157011860Y-77395059D01*
X156984919Y-77259617D01*
X156983000Y-77249968D01*
X156983000Y-77102032D01*
X157011860Y-76956941D01*
X157068471Y-76820270D01*
X157077780Y-76806338D01*
X157150660Y-76697265D01*
X157255265Y-76592660D01*
X157378268Y-76510472D01*
X157514941Y-76453860D01*
X157660032Y-76425000D01*
X157807968Y-76425000D01*
X157953059Y-76453860D01*
G37*
G36*
X160495059Y-76453860D02*
G01*
X160631732Y-76510472D01*
X160754735Y-76592660D01*
X160859340Y-76697265D01*
X160932220Y-76806338D01*
X160941529Y-76820270D01*
X160998140Y-76956941D01*
X161027000Y-77102032D01*
X161027000Y-77249968D01*
X161025081Y-77259617D01*
X160998140Y-77395059D01*
X160941528Y-77531732D01*
X160859340Y-77654735D01*
X160754735Y-77759340D01*
X160631732Y-77841528D01*
X160631731Y-77841529D01*
X160631730Y-77841529D01*
X160495059Y-77898140D01*
X160349968Y-77927000D01*
X160202032Y-77927000D01*
X160056941Y-77898140D01*
X159920270Y-77841529D01*
X159920269Y-77841529D01*
X159920268Y-77841528D01*
X159797265Y-77759340D01*
X159692660Y-77654735D01*
X159610472Y-77531732D01*
X159553860Y-77395059D01*
X159526919Y-77259617D01*
X159525000Y-77249968D01*
X159525000Y-77102032D01*
X159553860Y-76956941D01*
X159610471Y-76820270D01*
X159619780Y-76806338D01*
X159692660Y-76697265D01*
X159797265Y-76592660D01*
X159920268Y-76510472D01*
X160056941Y-76453860D01*
X160202032Y-76425000D01*
X160349968Y-76425000D01*
X160495059Y-76453860D01*
G37*
G36*
X163795059Y-76453860D02*
G01*
X163931732Y-76510472D01*
X164054735Y-76592660D01*
X164159340Y-76697265D01*
X164232220Y-76806338D01*
X164241529Y-76820270D01*
X164298140Y-76956941D01*
X164327000Y-77102032D01*
X164327000Y-77249968D01*
X164325081Y-77259617D01*
X164298140Y-77395059D01*
X164241528Y-77531732D01*
X164159340Y-77654735D01*
X164054735Y-77759340D01*
X163931732Y-77841528D01*
X163931731Y-77841529D01*
X163931730Y-77841529D01*
X163795059Y-77898140D01*
X163649968Y-77927000D01*
X163502032Y-77927000D01*
X163356941Y-77898140D01*
X163220270Y-77841529D01*
X163220269Y-77841529D01*
X163220268Y-77841528D01*
X163097265Y-77759340D01*
X162992660Y-77654735D01*
X162910472Y-77531732D01*
X162853860Y-77395059D01*
X162826919Y-77259617D01*
X162825000Y-77249968D01*
X162825000Y-77102032D01*
X162853860Y-76956941D01*
X162910471Y-76820270D01*
X162919780Y-76806338D01*
X162992660Y-76697265D01*
X163097265Y-76592660D01*
X163220268Y-76510472D01*
X163356941Y-76453860D01*
X163502032Y-76425000D01*
X163649968Y-76425000D01*
X163795059Y-76453860D01*
G37*
G36*
X119769000Y-75849000D02*
G01*
X113267000Y-75849000D01*
X113267000Y-69947000D01*
X119769000Y-69947000D01*
X119769000Y-75849000D01*
G37*
G36*
X123969000Y-75829000D02*
G01*
X121667000Y-75829000D01*
X121667000Y-74527000D01*
X123969000Y-74527000D01*
X123969000Y-75829000D01*
G37*
G36*
X179289059Y-74207860D02*
G01*
X179425732Y-74264472D01*
X179548735Y-74346660D01*
X179653340Y-74451265D01*
X179735528Y-74574268D01*
X179735529Y-74574270D01*
X179792140Y-74710941D01*
X179821000Y-74856032D01*
X179821000Y-75003968D01*
X179804750Y-75085662D01*
X179792140Y-75149059D01*
X179735528Y-75285732D01*
X179653340Y-75408735D01*
X179548735Y-75513340D01*
X179425732Y-75595528D01*
X179425731Y-75595529D01*
X179425730Y-75595529D01*
X179289059Y-75652140D01*
X179143968Y-75681000D01*
X178996032Y-75681000D01*
X178850941Y-75652140D01*
X178714270Y-75595529D01*
X178714269Y-75595529D01*
X178714268Y-75595528D01*
X178591265Y-75513340D01*
X178486660Y-75408735D01*
X178404472Y-75285732D01*
X178347860Y-75149059D01*
X178335250Y-75085662D01*
X178319000Y-75003968D01*
X178319000Y-74856032D01*
X178347860Y-74710941D01*
X178404471Y-74574270D01*
X178404472Y-74574268D01*
X178486660Y-74451265D01*
X178591265Y-74346660D01*
X178714268Y-74264472D01*
X178850941Y-74207860D01*
X178996032Y-74179000D01*
X179143968Y-74179000D01*
X179289059Y-74207860D01*
G37*
G36*
X135630228Y-73857703D02*
G01*
X135785100Y-73921853D01*
X135924481Y-74014985D01*
X136043015Y-74133519D01*
X136136147Y-74272900D01*
X136200297Y-74427772D01*
X136233000Y-74592184D01*
X136233000Y-74759816D01*
X136200297Y-74924228D01*
X136136147Y-75079100D01*
X136043015Y-75218481D01*
X135924481Y-75337015D01*
X135785100Y-75430147D01*
X135630228Y-75494297D01*
X135465816Y-75527000D01*
X135298184Y-75527000D01*
X135133772Y-75494297D01*
X134978900Y-75430147D01*
X134839519Y-75337015D01*
X134720985Y-75218481D01*
X134627853Y-75079100D01*
X134563703Y-74924228D01*
X134531000Y-74759816D01*
X134531000Y-74592184D01*
X134563703Y-74427772D01*
X134627853Y-74272900D01*
X134720985Y-74133519D01*
X134839519Y-74014985D01*
X134978900Y-73921853D01*
X135133772Y-73857703D01*
X135298184Y-73825000D01*
X135465816Y-73825000D01*
X135630228Y-73857703D01*
G37*
G36*
X128613000Y-75527000D02*
G01*
X126911000Y-75527000D01*
X126911000Y-73825000D01*
X128613000Y-73825000D01*
X128613000Y-75527000D01*
G37*
G36*
X146799000Y-75427000D02*
G01*
X145297000Y-75427000D01*
X145297000Y-73925000D01*
X146799000Y-73925000D01*
X146799000Y-75427000D01*
G37*
G36*
X142967059Y-73953860D02*
G01*
X143103732Y-74010472D01*
X143226735Y-74092660D01*
X143331340Y-74197265D01*
X143413528Y-74320268D01*
X143413529Y-74320270D01*
X143470140Y-74456941D01*
X143499000Y-74602032D01*
X143499000Y-74749968D01*
X143497041Y-74759815D01*
X143470140Y-74895059D01*
X143413528Y-75031732D01*
X143331340Y-75154735D01*
X143226735Y-75259340D01*
X143103732Y-75341528D01*
X143103731Y-75341529D01*
X143103730Y-75341529D01*
X142967059Y-75398140D01*
X142821968Y-75427000D01*
X142674032Y-75427000D01*
X142528941Y-75398140D01*
X142392270Y-75341529D01*
X142392269Y-75341529D01*
X142392268Y-75341528D01*
X142269265Y-75259340D01*
X142164660Y-75154735D01*
X142082472Y-75031732D01*
X142025860Y-74895059D01*
X141998959Y-74759815D01*
X141997000Y-74749968D01*
X141997000Y-74602032D01*
X142025860Y-74456941D01*
X142082471Y-74320270D01*
X142082472Y-74320268D01*
X142164660Y-74197265D01*
X142269265Y-74092660D01*
X142392268Y-74010472D01*
X142528941Y-73953860D01*
X142674032Y-73925000D01*
X142821968Y-73925000D01*
X142967059Y-73953860D01*
G37*
G36*
X148811059Y-73953860D02*
G01*
X148947732Y-74010472D01*
X149070735Y-74092660D01*
X149175340Y-74197265D01*
X149257528Y-74320268D01*
X149257529Y-74320270D01*
X149314140Y-74456941D01*
X149343000Y-74602032D01*
X149343000Y-74749968D01*
X149341041Y-74759815D01*
X149314140Y-74895059D01*
X149257528Y-75031732D01*
X149175340Y-75154735D01*
X149070735Y-75259340D01*
X148947732Y-75341528D01*
X148947731Y-75341529D01*
X148947730Y-75341529D01*
X148811059Y-75398140D01*
X148665968Y-75427000D01*
X148518032Y-75427000D01*
X148372941Y-75398140D01*
X148236270Y-75341529D01*
X148236269Y-75341529D01*
X148236268Y-75341528D01*
X148113265Y-75259340D01*
X148008660Y-75154735D01*
X147926472Y-75031732D01*
X147869860Y-74895059D01*
X147842959Y-74759815D01*
X147841000Y-74749968D01*
X147841000Y-74602032D01*
X147869860Y-74456941D01*
X147926471Y-74320270D01*
X147926472Y-74320268D01*
X148008660Y-74197265D01*
X148113265Y-74092660D01*
X148236268Y-74010472D01*
X148372941Y-73953860D01*
X148518032Y-73925000D01*
X148665968Y-73925000D01*
X148811059Y-73953860D01*
G37*
G36*
X152643000Y-75427000D02*
G01*
X151141000Y-75427000D01*
X151141000Y-73925000D01*
X152643000Y-73925000D01*
X152643000Y-75427000D01*
G37*
G36*
X154653059Y-73953860D02*
G01*
X154789732Y-74010472D01*
X154912735Y-74092660D01*
X155017340Y-74197265D01*
X155099528Y-74320268D01*
X155099529Y-74320270D01*
X155156140Y-74456941D01*
X155185000Y-74602032D01*
X155185000Y-74749968D01*
X155183041Y-74759815D01*
X155156140Y-74895059D01*
X155099528Y-75031732D01*
X155017340Y-75154735D01*
X154912735Y-75259340D01*
X154789732Y-75341528D01*
X154789731Y-75341529D01*
X154789730Y-75341529D01*
X154653059Y-75398140D01*
X154507968Y-75427000D01*
X154360032Y-75427000D01*
X154214941Y-75398140D01*
X154078270Y-75341529D01*
X154078269Y-75341529D01*
X154078268Y-75341528D01*
X153955265Y-75259340D01*
X153850660Y-75154735D01*
X153768472Y-75031732D01*
X153711860Y-74895059D01*
X153684959Y-74759815D01*
X153683000Y-74749968D01*
X153683000Y-74602032D01*
X153711860Y-74456941D01*
X153768471Y-74320270D01*
X153768472Y-74320268D01*
X153850660Y-74197265D01*
X153955265Y-74092660D01*
X154078268Y-74010472D01*
X154214941Y-73953860D01*
X154360032Y-73925000D01*
X154507968Y-73925000D01*
X154653059Y-73953860D01*
G37*
G36*
X158485000Y-75427000D02*
G01*
X156983000Y-75427000D01*
X156983000Y-73925000D01*
X158485000Y-73925000D01*
X158485000Y-75427000D01*
G37*
G36*
X160495059Y-73953860D02*
G01*
X160631732Y-74010472D01*
X160754735Y-74092660D01*
X160859340Y-74197265D01*
X160941528Y-74320268D01*
X160941529Y-74320270D01*
X160998140Y-74456941D01*
X161027000Y-74602032D01*
X161027000Y-74749968D01*
X161025041Y-74759815D01*
X160998140Y-74895059D01*
X160941528Y-75031732D01*
X160859340Y-75154735D01*
X160754735Y-75259340D01*
X160631732Y-75341528D01*
X160631731Y-75341529D01*
X160631730Y-75341529D01*
X160495059Y-75398140D01*
X160349968Y-75427000D01*
X160202032Y-75427000D01*
X160056941Y-75398140D01*
X159920270Y-75341529D01*
X159920269Y-75341529D01*
X159920268Y-75341528D01*
X159797265Y-75259340D01*
X159692660Y-75154735D01*
X159610472Y-75031732D01*
X159553860Y-74895059D01*
X159526959Y-74759815D01*
X159525000Y-74749968D01*
X159525000Y-74602032D01*
X159553860Y-74456941D01*
X159610471Y-74320270D01*
X159610472Y-74320268D01*
X159692660Y-74197265D01*
X159797265Y-74092660D01*
X159920268Y-74010472D01*
X160056941Y-73953860D01*
X160202032Y-73925000D01*
X160349968Y-73925000D01*
X160495059Y-73953860D01*
G37*
G36*
X164327000Y-75427000D02*
G01*
X162825000Y-75427000D01*
X162825000Y-73925000D01*
X164327000Y-73925000D01*
X164327000Y-75427000D01*
G37*
G36*
X167351059Y-73953860D02*
G01*
X167487732Y-74010472D01*
X167610735Y-74092660D01*
X167715340Y-74197265D01*
X167797528Y-74320268D01*
X167797529Y-74320270D01*
X167854140Y-74456941D01*
X167883000Y-74602032D01*
X167883000Y-74749968D01*
X167881041Y-74759815D01*
X167854140Y-74895059D01*
X167797528Y-75031732D01*
X167715340Y-75154735D01*
X167610735Y-75259340D01*
X167487732Y-75341528D01*
X167487731Y-75341529D01*
X167487730Y-75341529D01*
X167351059Y-75398140D01*
X167205968Y-75427000D01*
X167058032Y-75427000D01*
X166912941Y-75398140D01*
X166776270Y-75341529D01*
X166776269Y-75341529D01*
X166776268Y-75341528D01*
X166653265Y-75259340D01*
X166548660Y-75154735D01*
X166466472Y-75031732D01*
X166409860Y-74895059D01*
X166382959Y-74759815D01*
X166381000Y-74749968D01*
X166381000Y-74602032D01*
X166409860Y-74456941D01*
X166466471Y-74320270D01*
X166466472Y-74320268D01*
X166548660Y-74197265D01*
X166653265Y-74092660D01*
X166776268Y-74010472D01*
X166912941Y-73953860D01*
X167058032Y-73925000D01*
X167205968Y-73925000D01*
X167351059Y-73953860D01*
G37*
G36*
X144491059Y-70143860D02*
G01*
X144627732Y-70200472D01*
X144750735Y-70282660D01*
X144855340Y-70387265D01*
X144937528Y-70510268D01*
X144994140Y-70646941D01*
X145023000Y-70792033D01*
X145023000Y-70939967D01*
X144994140Y-71085059D01*
X144937528Y-71221732D01*
X144855340Y-71344735D01*
X144750735Y-71449340D01*
X144627732Y-71531528D01*
X144627731Y-71531529D01*
X144627730Y-71531529D01*
X144491059Y-71588140D01*
X144345968Y-71617000D01*
X144198032Y-71617000D01*
X144052941Y-71588140D01*
X143916270Y-71531529D01*
X143916269Y-71531529D01*
X143916268Y-71531528D01*
X143793265Y-71449340D01*
X143688660Y-71344735D01*
X143606472Y-71221732D01*
X143549860Y-71085059D01*
X143521000Y-70939967D01*
X143521000Y-70792033D01*
X143549860Y-70646941D01*
X143606472Y-70510268D01*
X143688660Y-70387265D01*
X143793265Y-70282660D01*
X143916268Y-70200472D01*
X144052941Y-70143860D01*
X144198032Y-70115000D01*
X144345968Y-70115000D01*
X144491059Y-70143860D01*
G37*
G36*
X139411059Y-70143860D02*
G01*
X139547732Y-70200472D01*
X139670735Y-70282660D01*
X139775340Y-70387265D01*
X139857528Y-70510268D01*
X139914140Y-70646941D01*
X139943000Y-70792033D01*
X139943000Y-70939967D01*
X139914140Y-71085059D01*
X139857528Y-71221732D01*
X139775340Y-71344735D01*
X139670735Y-71449340D01*
X139547732Y-71531528D01*
X139547731Y-71531529D01*
X139547730Y-71531529D01*
X139411059Y-71588140D01*
X139265968Y-71617000D01*
X139118032Y-71617000D01*
X138972941Y-71588140D01*
X138836270Y-71531529D01*
X138836269Y-71531529D01*
X138836268Y-71531528D01*
X138713265Y-71449340D01*
X138608660Y-71344735D01*
X138526472Y-71221732D01*
X138469860Y-71085059D01*
X138441000Y-70939967D01*
X138441000Y-70792033D01*
X138469860Y-70646941D01*
X138526472Y-70510268D01*
X138608660Y-70387265D01*
X138713265Y-70282660D01*
X138836268Y-70200472D01*
X138972941Y-70143860D01*
X139118032Y-70115000D01*
X139265968Y-70115000D01*
X139411059Y-70143860D01*
G37*
G36*
X147031059Y-70143860D02*
G01*
X147167732Y-70200472D01*
X147290735Y-70282660D01*
X147395340Y-70387265D01*
X147477528Y-70510268D01*
X147534140Y-70646941D01*
X147563000Y-70792033D01*
X147563000Y-70939967D01*
X147534140Y-71085059D01*
X147477528Y-71221732D01*
X147395340Y-71344735D01*
X147290735Y-71449340D01*
X147167732Y-71531528D01*
X147167731Y-71531529D01*
X147167730Y-71531529D01*
X147031059Y-71588140D01*
X146885968Y-71617000D01*
X146738032Y-71617000D01*
X146592941Y-71588140D01*
X146456270Y-71531529D01*
X146456269Y-71531529D01*
X146456268Y-71531528D01*
X146333265Y-71449340D01*
X146228660Y-71344735D01*
X146146472Y-71221732D01*
X146089860Y-71085059D01*
X146061000Y-70939967D01*
X146061000Y-70792033D01*
X146089860Y-70646941D01*
X146146472Y-70510268D01*
X146228660Y-70387265D01*
X146333265Y-70282660D01*
X146456268Y-70200472D01*
X146592941Y-70143860D01*
X146738032Y-70115000D01*
X146885968Y-70115000D01*
X147031059Y-70143860D01*
G37*
G36*
X152111059Y-70143860D02*
G01*
X152247732Y-70200472D01*
X152370735Y-70282660D01*
X152475340Y-70387265D01*
X152557528Y-70510268D01*
X152614140Y-70646941D01*
X152643000Y-70792033D01*
X152643000Y-70939967D01*
X152614140Y-71085059D01*
X152557528Y-71221732D01*
X152475340Y-71344735D01*
X152370735Y-71449340D01*
X152247732Y-71531528D01*
X152247731Y-71531529D01*
X152247730Y-71531529D01*
X152111059Y-71588140D01*
X151965968Y-71617000D01*
X151818032Y-71617000D01*
X151672941Y-71588140D01*
X151536270Y-71531529D01*
X151536269Y-71531529D01*
X151536268Y-71531528D01*
X151413265Y-71449340D01*
X151308660Y-71344735D01*
X151226472Y-71221732D01*
X151169860Y-71085059D01*
X151141000Y-70939967D01*
X151141000Y-70792033D01*
X151169860Y-70646941D01*
X151226472Y-70510268D01*
X151308660Y-70387265D01*
X151413265Y-70282660D01*
X151536268Y-70200472D01*
X151672941Y-70143860D01*
X151818032Y-70115000D01*
X151965968Y-70115000D01*
X152111059Y-70143860D01*
G37*
G36*
X154651059Y-70143860D02*
G01*
X154787732Y-70200472D01*
X154910735Y-70282660D01*
X155015340Y-70387265D01*
X155097528Y-70510268D01*
X155154140Y-70646941D01*
X155183000Y-70792033D01*
X155183000Y-70939967D01*
X155154140Y-71085059D01*
X155097528Y-71221732D01*
X155015340Y-71344735D01*
X154910735Y-71449340D01*
X154787732Y-71531528D01*
X154787731Y-71531529D01*
X154787730Y-71531529D01*
X154651059Y-71588140D01*
X154505968Y-71617000D01*
X154358032Y-71617000D01*
X154212941Y-71588140D01*
X154076270Y-71531529D01*
X154076269Y-71531529D01*
X154076268Y-71531528D01*
X153953265Y-71449340D01*
X153848660Y-71344735D01*
X153766472Y-71221732D01*
X153709860Y-71085059D01*
X153681000Y-70939967D01*
X153681000Y-70792033D01*
X153709860Y-70646941D01*
X153766472Y-70510268D01*
X153848660Y-70387265D01*
X153953265Y-70282660D01*
X154076268Y-70200472D01*
X154212941Y-70143860D01*
X154358032Y-70115000D01*
X154505968Y-70115000D01*
X154651059Y-70143860D01*
G37*
G36*
X159731059Y-70143860D02*
G01*
X159867732Y-70200472D01*
X159990735Y-70282660D01*
X160095340Y-70387265D01*
X160177528Y-70510268D01*
X160234140Y-70646941D01*
X160263000Y-70792033D01*
X160263000Y-70939967D01*
X160234140Y-71085059D01*
X160177528Y-71221732D01*
X160095340Y-71344735D01*
X159990735Y-71449340D01*
X159867732Y-71531528D01*
X159867731Y-71531529D01*
X159867730Y-71531529D01*
X159731059Y-71588140D01*
X159585968Y-71617000D01*
X159438032Y-71617000D01*
X159292941Y-71588140D01*
X159156270Y-71531529D01*
X159156269Y-71531529D01*
X159156268Y-71531528D01*
X159033265Y-71449340D01*
X158928660Y-71344735D01*
X158846472Y-71221732D01*
X158789860Y-71085059D01*
X158761000Y-70939967D01*
X158761000Y-70792033D01*
X158789860Y-70646941D01*
X158846472Y-70510268D01*
X158928660Y-70387265D01*
X159033265Y-70282660D01*
X159156268Y-70200472D01*
X159292941Y-70143860D01*
X159438032Y-70115000D01*
X159585968Y-70115000D01*
X159731059Y-70143860D01*
G37*
G36*
X162271059Y-70143860D02*
G01*
X162407732Y-70200472D01*
X162530735Y-70282660D01*
X162635340Y-70387265D01*
X162717528Y-70510268D01*
X162774140Y-70646941D01*
X162803000Y-70792033D01*
X162803000Y-70939967D01*
X162774140Y-71085059D01*
X162717528Y-71221732D01*
X162635340Y-71344735D01*
X162530735Y-71449340D01*
X162407732Y-71531528D01*
X162407731Y-71531529D01*
X162407730Y-71531529D01*
X162271059Y-71588140D01*
X162125968Y-71617000D01*
X161978032Y-71617000D01*
X161832941Y-71588140D01*
X161696270Y-71531529D01*
X161696269Y-71531529D01*
X161696268Y-71531528D01*
X161573265Y-71449340D01*
X161468660Y-71344735D01*
X161386472Y-71221732D01*
X161329860Y-71085059D01*
X161301000Y-70939967D01*
X161301000Y-70792033D01*
X161329860Y-70646941D01*
X161386472Y-70510268D01*
X161468660Y-70387265D01*
X161573265Y-70282660D01*
X161696268Y-70200472D01*
X161832941Y-70143860D01*
X161978032Y-70115000D01*
X162125968Y-70115000D01*
X162271059Y-70143860D01*
G37*
G36*
X167351059Y-70143860D02*
G01*
X167487732Y-70200472D01*
X167610735Y-70282660D01*
X167715340Y-70387265D01*
X167797528Y-70510268D01*
X167854140Y-70646941D01*
X167883000Y-70792033D01*
X167883000Y-70939967D01*
X167854140Y-71085059D01*
X167797528Y-71221732D01*
X167715340Y-71344735D01*
X167610735Y-71449340D01*
X167487732Y-71531528D01*
X167487731Y-71531529D01*
X167487730Y-71531529D01*
X167351059Y-71588140D01*
X167205968Y-71617000D01*
X167058032Y-71617000D01*
X166912941Y-71588140D01*
X166776270Y-71531529D01*
X166776269Y-71531529D01*
X166776268Y-71531528D01*
X166653265Y-71449340D01*
X166548660Y-71344735D01*
X166466472Y-71221732D01*
X166409860Y-71085059D01*
X166381000Y-70939967D01*
X166381000Y-70792033D01*
X166409860Y-70646941D01*
X166466472Y-70510268D01*
X166548660Y-70387265D01*
X166653265Y-70282660D01*
X166776268Y-70200472D01*
X166912941Y-70143860D01*
X167058032Y-70115000D01*
X167205968Y-70115000D01*
X167351059Y-70143860D01*
G37*
G36*
X123969000Y-71269000D02*
G01*
X121667000Y-71269000D01*
X121667000Y-69967000D01*
X123969000Y-69967000D01*
X123969000Y-71269000D01*
G37*
G36*
X128010228Y-67507703D02*
G01*
X128165100Y-67571853D01*
X128304481Y-67664985D01*
X128423015Y-67783519D01*
X128516147Y-67922900D01*
X128580297Y-68077772D01*
X128613000Y-68242184D01*
X128613000Y-68409816D01*
X128580297Y-68574228D01*
X128516147Y-68729100D01*
X128423015Y-68868481D01*
X128304481Y-68987015D01*
X128165100Y-69080147D01*
X128010228Y-69144297D01*
X127845816Y-69177000D01*
X127678184Y-69177000D01*
X127513772Y-69144297D01*
X127358900Y-69080147D01*
X127219519Y-68987015D01*
X127100985Y-68868481D01*
X127007853Y-68729100D01*
X126943703Y-68574228D01*
X126911000Y-68409816D01*
X126911000Y-68242184D01*
X126943703Y-68077772D01*
X127007853Y-67922900D01*
X127100985Y-67783519D01*
X127219519Y-67664985D01*
X127358900Y-67571853D01*
X127513772Y-67507703D01*
X127678184Y-67475000D01*
X127845816Y-67475000D01*
X128010228Y-67507703D01*
G37*
G36*
X135630228Y-67507703D02*
G01*
X135785100Y-67571853D01*
X135924481Y-67664985D01*
X136043015Y-67783519D01*
X136136147Y-67922900D01*
X136200297Y-68077772D01*
X136233000Y-68242184D01*
X136233000Y-68409816D01*
X136200297Y-68574228D01*
X136136147Y-68729100D01*
X136043015Y-68868481D01*
X135924481Y-68987015D01*
X135785100Y-69080147D01*
X135630228Y-69144297D01*
X135465816Y-69177000D01*
X135298184Y-69177000D01*
X135133772Y-69144297D01*
X134978900Y-69080147D01*
X134839519Y-68987015D01*
X134720985Y-68868481D01*
X134627853Y-68729100D01*
X134563703Y-68574228D01*
X134531000Y-68409816D01*
X134531000Y-68242184D01*
X134563703Y-68077772D01*
X134627853Y-67922900D01*
X134720985Y-67783519D01*
X134839519Y-67664985D01*
X134978900Y-67571853D01*
X135133772Y-67507703D01*
X135298184Y-67475000D01*
X135465816Y-67475000D01*
X135630228Y-67507703D01*
G37*
G36*
X144491059Y-67603860D02*
G01*
X144627732Y-67660472D01*
X144750735Y-67742660D01*
X144855340Y-67847265D01*
X144937528Y-67970268D01*
X144994140Y-68106941D01*
X145023000Y-68252033D01*
X145023000Y-68399967D01*
X144994140Y-68545059D01*
X144937528Y-68681732D01*
X144855340Y-68804735D01*
X144750735Y-68909340D01*
X144627732Y-68991528D01*
X144627731Y-68991529D01*
X144627730Y-68991529D01*
X144491059Y-69048140D01*
X144345968Y-69077000D01*
X144198032Y-69077000D01*
X144052941Y-69048140D01*
X143916270Y-68991529D01*
X143916269Y-68991529D01*
X143916268Y-68991528D01*
X143793265Y-68909340D01*
X143688660Y-68804735D01*
X143606472Y-68681732D01*
X143549860Y-68545059D01*
X143521000Y-68399967D01*
X143521000Y-68252033D01*
X143549860Y-68106941D01*
X143606472Y-67970268D01*
X143688660Y-67847265D01*
X143793265Y-67742660D01*
X143916268Y-67660472D01*
X144052941Y-67603860D01*
X144198032Y-67575000D01*
X144345968Y-67575000D01*
X144491059Y-67603860D01*
G37*
G36*
X139411059Y-67603860D02*
G01*
X139547732Y-67660472D01*
X139670735Y-67742660D01*
X139775340Y-67847265D01*
X139857528Y-67970268D01*
X139914140Y-68106941D01*
X139943000Y-68252033D01*
X139943000Y-68399967D01*
X139914140Y-68545059D01*
X139857528Y-68681732D01*
X139775340Y-68804735D01*
X139670735Y-68909340D01*
X139547732Y-68991528D01*
X139547731Y-68991529D01*
X139547730Y-68991529D01*
X139411059Y-69048140D01*
X139265968Y-69077000D01*
X139118032Y-69077000D01*
X138972941Y-69048140D01*
X138836270Y-68991529D01*
X138836269Y-68991529D01*
X138836268Y-68991528D01*
X138713265Y-68909340D01*
X138608660Y-68804735D01*
X138526472Y-68681732D01*
X138469860Y-68545059D01*
X138441000Y-68399967D01*
X138441000Y-68252033D01*
X138469860Y-68106941D01*
X138526472Y-67970268D01*
X138608660Y-67847265D01*
X138713265Y-67742660D01*
X138836268Y-67660472D01*
X138972941Y-67603860D01*
X139118032Y-67575000D01*
X139265968Y-67575000D01*
X139411059Y-67603860D01*
G37*
G36*
X167351059Y-67603860D02*
G01*
X167487732Y-67660472D01*
X167610735Y-67742660D01*
X167715340Y-67847265D01*
X167797528Y-67970268D01*
X167854140Y-68106941D01*
X167883000Y-68252033D01*
X167883000Y-68399967D01*
X167854140Y-68545059D01*
X167797528Y-68681732D01*
X167715340Y-68804735D01*
X167610735Y-68909340D01*
X167487732Y-68991528D01*
X167487731Y-68991529D01*
X167487730Y-68991529D01*
X167351059Y-69048140D01*
X167205968Y-69077000D01*
X167058032Y-69077000D01*
X166912941Y-69048140D01*
X166776270Y-68991529D01*
X166776269Y-68991529D01*
X166776268Y-68991528D01*
X166653265Y-68909340D01*
X166548660Y-68804735D01*
X166466472Y-68681732D01*
X166409860Y-68545059D01*
X166381000Y-68399967D01*
X166381000Y-68252033D01*
X166409860Y-68106941D01*
X166466472Y-67970268D01*
X166548660Y-67847265D01*
X166653265Y-67742660D01*
X166776268Y-67660472D01*
X166912941Y-67603860D01*
X167058032Y-67575000D01*
X167205968Y-67575000D01*
X167351059Y-67603860D01*
G37*
G36*
X159731059Y-67603860D02*
G01*
X159867732Y-67660472D01*
X159990735Y-67742660D01*
X160095340Y-67847265D01*
X160177528Y-67970268D01*
X160234140Y-68106941D01*
X160263000Y-68252033D01*
X160263000Y-68399967D01*
X160234140Y-68545059D01*
X160177528Y-68681732D01*
X160095340Y-68804735D01*
X159990735Y-68909340D01*
X159867732Y-68991528D01*
X159867731Y-68991529D01*
X159867730Y-68991529D01*
X159731059Y-69048140D01*
X159585968Y-69077000D01*
X159438032Y-69077000D01*
X159292941Y-69048140D01*
X159156270Y-68991529D01*
X159156269Y-68991529D01*
X159156268Y-68991528D01*
X159033265Y-68909340D01*
X158928660Y-68804735D01*
X158846472Y-68681732D01*
X158789860Y-68545059D01*
X158761000Y-68399967D01*
X158761000Y-68252033D01*
X158789860Y-68106941D01*
X158846472Y-67970268D01*
X158928660Y-67847265D01*
X159033265Y-67742660D01*
X159156268Y-67660472D01*
X159292941Y-67603860D01*
X159438032Y-67575000D01*
X159585968Y-67575000D01*
X159731059Y-67603860D01*
G37*
G36*
X147031059Y-67603860D02*
G01*
X147167732Y-67660472D01*
X147290735Y-67742660D01*
X147395340Y-67847265D01*
X147477528Y-67970268D01*
X147534140Y-68106941D01*
X147563000Y-68252033D01*
X147563000Y-68399967D01*
X147534140Y-68545059D01*
X147477528Y-68681732D01*
X147395340Y-68804735D01*
X147290735Y-68909340D01*
X147167732Y-68991528D01*
X147167731Y-68991529D01*
X147167730Y-68991529D01*
X147031059Y-69048140D01*
X146885968Y-69077000D01*
X146738032Y-69077000D01*
X146592941Y-69048140D01*
X146456270Y-68991529D01*
X146456269Y-68991529D01*
X146456268Y-68991528D01*
X146333265Y-68909340D01*
X146228660Y-68804735D01*
X146146472Y-68681732D01*
X146089860Y-68545059D01*
X146061000Y-68399967D01*
X146061000Y-68252033D01*
X146089860Y-68106941D01*
X146146472Y-67970268D01*
X146228660Y-67847265D01*
X146333265Y-67742660D01*
X146456268Y-67660472D01*
X146592941Y-67603860D01*
X146738032Y-67575000D01*
X146885968Y-67575000D01*
X147031059Y-67603860D01*
G37*
G36*
X152111059Y-67603860D02*
G01*
X152247732Y-67660472D01*
X152370735Y-67742660D01*
X152475340Y-67847265D01*
X152557528Y-67970268D01*
X152614140Y-68106941D01*
X152643000Y-68252033D01*
X152643000Y-68399967D01*
X152614140Y-68545059D01*
X152557528Y-68681732D01*
X152475340Y-68804735D01*
X152370735Y-68909340D01*
X152247732Y-68991528D01*
X152247731Y-68991529D01*
X152247730Y-68991529D01*
X152111059Y-69048140D01*
X151965968Y-69077000D01*
X151818032Y-69077000D01*
X151672941Y-69048140D01*
X151536270Y-68991529D01*
X151536269Y-68991529D01*
X151536268Y-68991528D01*
X151413265Y-68909340D01*
X151308660Y-68804735D01*
X151226472Y-68681732D01*
X151169860Y-68545059D01*
X151141000Y-68399967D01*
X151141000Y-68252033D01*
X151169860Y-68106941D01*
X151226472Y-67970268D01*
X151308660Y-67847265D01*
X151413265Y-67742660D01*
X151536268Y-67660472D01*
X151672941Y-67603860D01*
X151818032Y-67575000D01*
X151965968Y-67575000D01*
X152111059Y-67603860D01*
G37*
G36*
X162271059Y-67603860D02*
G01*
X162407732Y-67660472D01*
X162530735Y-67742660D01*
X162635340Y-67847265D01*
X162717528Y-67970268D01*
X162774140Y-68106941D01*
X162803000Y-68252033D01*
X162803000Y-68399967D01*
X162774140Y-68545059D01*
X162717528Y-68681732D01*
X162635340Y-68804735D01*
X162530735Y-68909340D01*
X162407732Y-68991528D01*
X162407731Y-68991529D01*
X162407730Y-68991529D01*
X162271059Y-69048140D01*
X162125968Y-69077000D01*
X161978032Y-69077000D01*
X161832941Y-69048140D01*
X161696270Y-68991529D01*
X161696269Y-68991529D01*
X161696268Y-68991528D01*
X161573265Y-68909340D01*
X161468660Y-68804735D01*
X161386472Y-68681732D01*
X161329860Y-68545059D01*
X161301000Y-68399967D01*
X161301000Y-68252033D01*
X161329860Y-68106941D01*
X161386472Y-67970268D01*
X161468660Y-67847265D01*
X161573265Y-67742660D01*
X161696268Y-67660472D01*
X161832941Y-67603860D01*
X161978032Y-67575000D01*
X162125968Y-67575000D01*
X162271059Y-67603860D01*
G37*
G36*
X154651059Y-67603860D02*
G01*
X154787732Y-67660472D01*
X154910735Y-67742660D01*
X155015340Y-67847265D01*
X155097528Y-67970268D01*
X155154140Y-68106941D01*
X155183000Y-68252033D01*
X155183000Y-68399967D01*
X155154140Y-68545059D01*
X155097528Y-68681732D01*
X155015340Y-68804735D01*
X154910735Y-68909340D01*
X154787732Y-68991528D01*
X154787731Y-68991529D01*
X154787730Y-68991529D01*
X154651059Y-69048140D01*
X154505968Y-69077000D01*
X154358032Y-69077000D01*
X154212941Y-69048140D01*
X154076270Y-68991529D01*
X154076269Y-68991529D01*
X154076268Y-68991528D01*
X153953265Y-68909340D01*
X153848660Y-68804735D01*
X153766472Y-68681732D01*
X153709860Y-68545059D01*
X153681000Y-68399967D01*
X153681000Y-68252033D01*
X153709860Y-68106941D01*
X153766472Y-67970268D01*
X153848660Y-67847265D01*
X153953265Y-67742660D01*
X154076268Y-67660472D01*
X154212941Y-67603860D01*
X154358032Y-67575000D01*
X154505968Y-67575000D01*
X154651059Y-67603860D01*
G37*
G36*
X172108000Y-67073000D02*
G01*
X170806000Y-67073000D01*
X170806000Y-64771000D01*
X172108000Y-64771000D01*
X172108000Y-67073000D01*
G37*
G36*
X176668000Y-67073000D02*
G01*
X175366000Y-67073000D01*
X175366000Y-64771000D01*
X176668000Y-64771000D01*
X176668000Y-67073000D01*
G37*
G36*
X135630228Y-64967703D02*
G01*
X135785100Y-65031853D01*
X135924481Y-65124985D01*
X136043015Y-65243519D01*
X136136147Y-65382900D01*
X136200297Y-65537772D01*
X136233000Y-65702184D01*
X136233000Y-65869816D01*
X136200297Y-66034228D01*
X136136147Y-66189100D01*
X136043015Y-66328481D01*
X135924481Y-66447015D01*
X135785100Y-66540147D01*
X135630228Y-66604297D01*
X135465816Y-66637000D01*
X135298184Y-66637000D01*
X135133772Y-66604297D01*
X134978900Y-66540147D01*
X134839519Y-66447015D01*
X134720985Y-66328481D01*
X134627853Y-66189100D01*
X134563703Y-66034228D01*
X134531000Y-65869816D01*
X134531000Y-65702184D01*
X134563703Y-65537772D01*
X134627853Y-65382900D01*
X134720985Y-65243519D01*
X134839519Y-65124985D01*
X134978900Y-65031853D01*
X135133772Y-64967703D01*
X135298184Y-64935000D01*
X135465816Y-64935000D01*
X135630228Y-64967703D01*
G37*
G36*
X128010228Y-64967703D02*
G01*
X128165100Y-65031853D01*
X128304481Y-65124985D01*
X128423015Y-65243519D01*
X128516147Y-65382900D01*
X128580297Y-65537772D01*
X128613000Y-65702184D01*
X128613000Y-65869816D01*
X128580297Y-66034228D01*
X128516147Y-66189100D01*
X128423015Y-66328481D01*
X128304481Y-66447015D01*
X128165100Y-66540147D01*
X128010228Y-66604297D01*
X127845816Y-66637000D01*
X127678184Y-66637000D01*
X127513772Y-66604297D01*
X127358900Y-66540147D01*
X127219519Y-66447015D01*
X127100985Y-66328481D01*
X127007853Y-66189100D01*
X126943703Y-66034228D01*
X126911000Y-65869816D01*
X126911000Y-65702184D01*
X126943703Y-65537772D01*
X127007853Y-65382900D01*
X127100985Y-65243519D01*
X127219519Y-65124985D01*
X127358900Y-65031853D01*
X127513772Y-64967703D01*
X127678184Y-64935000D01*
X127845816Y-64935000D01*
X128010228Y-64967703D01*
G37*
G36*
X120001512Y-64381927D02*
G01*
X120150812Y-64411624D01*
X120314784Y-64479544D01*
X120462354Y-64578147D01*
X120587853Y-64703646D01*
X120686456Y-64851216D01*
X120754376Y-65015188D01*
X120776364Y-65125732D01*
X120787463Y-65181529D01*
X120789000Y-65189259D01*
X120789000Y-65366741D01*
X120754376Y-65540812D01*
X120686456Y-65704784D01*
X120587853Y-65852354D01*
X120462354Y-65977853D01*
X120314784Y-66076456D01*
X120150812Y-66144376D01*
X120001512Y-66174073D01*
X119976742Y-66179000D01*
X119799258Y-66179000D01*
X119774488Y-66174073D01*
X119625188Y-66144376D01*
X119461216Y-66076456D01*
X119313646Y-65977853D01*
X119188147Y-65852354D01*
X119089544Y-65704784D01*
X119021624Y-65540812D01*
X118987000Y-65366741D01*
X118987000Y-65189259D01*
X118988538Y-65181529D01*
X118999636Y-65125732D01*
X119021624Y-65015188D01*
X119089544Y-64851216D01*
X119188147Y-64703646D01*
X119313646Y-64578147D01*
X119461216Y-64479544D01*
X119625188Y-64411624D01*
X119774488Y-64381927D01*
X119799258Y-64377000D01*
X119976742Y-64377000D01*
X120001512Y-64381927D01*
G37*
G36*
X117461512Y-64381927D02*
G01*
X117610812Y-64411624D01*
X117774784Y-64479544D01*
X117922354Y-64578147D01*
X118047853Y-64703646D01*
X118146456Y-64851216D01*
X118214376Y-65015188D01*
X118236364Y-65125732D01*
X118247463Y-65181529D01*
X118249000Y-65189259D01*
X118249000Y-65366741D01*
X118214376Y-65540812D01*
X118146456Y-65704784D01*
X118047853Y-65852354D01*
X117922354Y-65977853D01*
X117774784Y-66076456D01*
X117610812Y-66144376D01*
X117461512Y-66174073D01*
X117436742Y-66179000D01*
X117259258Y-66179000D01*
X117234488Y-66174073D01*
X117085188Y-66144376D01*
X116921216Y-66076456D01*
X116773646Y-65977853D01*
X116648147Y-65852354D01*
X116549544Y-65704784D01*
X116481624Y-65540812D01*
X116447000Y-65366741D01*
X116447000Y-65189259D01*
X116448538Y-65181529D01*
X116459636Y-65125732D01*
X116481624Y-65015188D01*
X116549544Y-64851216D01*
X116648147Y-64703646D01*
X116773646Y-64578147D01*
X116921216Y-64479544D01*
X117085188Y-64411624D01*
X117234488Y-64381927D01*
X117259258Y-64377000D01*
X117436742Y-64377000D01*
X117461512Y-64381927D01*
G37*
G36*
X179289059Y-64047860D02*
G01*
X179367304Y-64080270D01*
X179425732Y-64104472D01*
X179548735Y-64186660D01*
X179653340Y-64291265D01*
X179710626Y-64377000D01*
X179735529Y-64414270D01*
X179792140Y-64550941D01*
X179821000Y-64696032D01*
X179821000Y-64843968D01*
X179792140Y-64989059D01*
X179735838Y-65124985D01*
X179735528Y-65125732D01*
X179653340Y-65248735D01*
X179548735Y-65353340D01*
X179425732Y-65435528D01*
X179425731Y-65435529D01*
X179425730Y-65435529D01*
X179289059Y-65492140D01*
X179143968Y-65521000D01*
X178996032Y-65521000D01*
X178850941Y-65492140D01*
X178714270Y-65435529D01*
X178714269Y-65435529D01*
X178714268Y-65435528D01*
X178591265Y-65353340D01*
X178486660Y-65248735D01*
X178404472Y-65125732D01*
X178404163Y-65124985D01*
X178347860Y-64989059D01*
X178319000Y-64843968D01*
X178319000Y-64696032D01*
X178347860Y-64550941D01*
X178404471Y-64414270D01*
X178429374Y-64377000D01*
X178486660Y-64291265D01*
X178591265Y-64186660D01*
X178714268Y-64104472D01*
X178772697Y-64080270D01*
X178850941Y-64047860D01*
X178996032Y-64019000D01*
X179143968Y-64019000D01*
X179289059Y-64047860D01*
G37*
G36*
X167351059Y-63793860D02*
G01*
X167487732Y-63850472D01*
X167610735Y-63932660D01*
X167715340Y-64037265D01*
X167760246Y-64104472D01*
X167797529Y-64160270D01*
X167854140Y-64296941D01*
X167876952Y-64411624D01*
X167883000Y-64442033D01*
X167883000Y-64589967D01*
X167854140Y-64735059D01*
X167797528Y-64871732D01*
X167715340Y-64994735D01*
X167610735Y-65099340D01*
X167487732Y-65181528D01*
X167487731Y-65181529D01*
X167487730Y-65181529D01*
X167351059Y-65238140D01*
X167205968Y-65267000D01*
X167058032Y-65267000D01*
X166912941Y-65238140D01*
X166776270Y-65181529D01*
X166776269Y-65181529D01*
X166776268Y-65181528D01*
X166653265Y-65099340D01*
X166548660Y-64994735D01*
X166466472Y-64871732D01*
X166409860Y-64735059D01*
X166381000Y-64589967D01*
X166381000Y-64442033D01*
X166387049Y-64411624D01*
X166409860Y-64296941D01*
X166466471Y-64160270D01*
X166503754Y-64104472D01*
X166548660Y-64037265D01*
X166653265Y-63932660D01*
X166776268Y-63850472D01*
X166912941Y-63793860D01*
X167058032Y-63765000D01*
X167205968Y-63765000D01*
X167351059Y-63793860D01*
G37*
G36*
X148811059Y-63713860D02*
G01*
X148934522Y-63765000D01*
X148947732Y-63770472D01*
X149070735Y-63852660D01*
X149175340Y-63957265D01*
X149257528Y-64080268D01*
X149257529Y-64080270D01*
X149314140Y-64216941D01*
X149343000Y-64362032D01*
X149343000Y-64509968D01*
X149329438Y-64578148D01*
X149314140Y-64655059D01*
X149257528Y-64791732D01*
X149175340Y-64914735D01*
X149070735Y-65019340D01*
X148947732Y-65101528D01*
X148947731Y-65101529D01*
X148947730Y-65101529D01*
X148811059Y-65158140D01*
X148665968Y-65187000D01*
X148518032Y-65187000D01*
X148372941Y-65158140D01*
X148236270Y-65101529D01*
X148236269Y-65101529D01*
X148236268Y-65101528D01*
X148113265Y-65019340D01*
X148008660Y-64914735D01*
X147926472Y-64791732D01*
X147869860Y-64655059D01*
X147854562Y-64578148D01*
X147841000Y-64509968D01*
X147841000Y-64362032D01*
X147869860Y-64216941D01*
X147926471Y-64080270D01*
X147926472Y-64080268D01*
X148008660Y-63957265D01*
X148113265Y-63852660D01*
X148236268Y-63770472D01*
X148249479Y-63765000D01*
X148372941Y-63713860D01*
X148518032Y-63685000D01*
X148665968Y-63685000D01*
X148811059Y-63713860D01*
G37*
G36*
X146269059Y-63713860D02*
G01*
X146392522Y-63765000D01*
X146405732Y-63770472D01*
X146528735Y-63852660D01*
X146633340Y-63957265D01*
X146715528Y-64080268D01*
X146715529Y-64080270D01*
X146772140Y-64216941D01*
X146801000Y-64362032D01*
X146801000Y-64509968D01*
X146787438Y-64578148D01*
X146772140Y-64655059D01*
X146715528Y-64791732D01*
X146633340Y-64914735D01*
X146528735Y-65019340D01*
X146405732Y-65101528D01*
X146405731Y-65101529D01*
X146405730Y-65101529D01*
X146269059Y-65158140D01*
X146123968Y-65187000D01*
X145976032Y-65187000D01*
X145830941Y-65158140D01*
X145694270Y-65101529D01*
X145694269Y-65101529D01*
X145694268Y-65101528D01*
X145571265Y-65019340D01*
X145466660Y-64914735D01*
X145384472Y-64791732D01*
X145327860Y-64655059D01*
X145312562Y-64578148D01*
X145299000Y-64509968D01*
X145299000Y-64362032D01*
X145327860Y-64216941D01*
X145384471Y-64080270D01*
X145384472Y-64080268D01*
X145466660Y-63957265D01*
X145571265Y-63852660D01*
X145694268Y-63770472D01*
X145707479Y-63765000D01*
X145830941Y-63713860D01*
X145976032Y-63685000D01*
X146123968Y-63685000D01*
X146269059Y-63713860D01*
G37*
G36*
X142969059Y-63713860D02*
G01*
X143092522Y-63765000D01*
X143105732Y-63770472D01*
X143228735Y-63852660D01*
X143333340Y-63957265D01*
X143415528Y-64080268D01*
X143415529Y-64080270D01*
X143472140Y-64216941D01*
X143501000Y-64362032D01*
X143501000Y-64509968D01*
X143487438Y-64578148D01*
X143472140Y-64655059D01*
X143415528Y-64791732D01*
X143333340Y-64914735D01*
X143228735Y-65019340D01*
X143105732Y-65101528D01*
X143105731Y-65101529D01*
X143105730Y-65101529D01*
X142969059Y-65158140D01*
X142823968Y-65187000D01*
X142676032Y-65187000D01*
X142530941Y-65158140D01*
X142394270Y-65101529D01*
X142394269Y-65101529D01*
X142394268Y-65101528D01*
X142271265Y-65019340D01*
X142166660Y-64914735D01*
X142084472Y-64791732D01*
X142027860Y-64655059D01*
X142012562Y-64578148D01*
X141999000Y-64509968D01*
X141999000Y-64362032D01*
X142027860Y-64216941D01*
X142084471Y-64080270D01*
X142084472Y-64080268D01*
X142166660Y-63957265D01*
X142271265Y-63852660D01*
X142394268Y-63770472D01*
X142407479Y-63765000D01*
X142530941Y-63713860D01*
X142676032Y-63685000D01*
X142823968Y-63685000D01*
X142969059Y-63713860D01*
G37*
G36*
X152111059Y-63713860D02*
G01*
X152234522Y-63765000D01*
X152247732Y-63770472D01*
X152370735Y-63852660D01*
X152475340Y-63957265D01*
X152557528Y-64080268D01*
X152557529Y-64080270D01*
X152614140Y-64216941D01*
X152643000Y-64362032D01*
X152643000Y-64509968D01*
X152629438Y-64578148D01*
X152614140Y-64655059D01*
X152557528Y-64791732D01*
X152475340Y-64914735D01*
X152370735Y-65019340D01*
X152247732Y-65101528D01*
X152247731Y-65101529D01*
X152247730Y-65101529D01*
X152111059Y-65158140D01*
X151965968Y-65187000D01*
X151818032Y-65187000D01*
X151672941Y-65158140D01*
X151536270Y-65101529D01*
X151536269Y-65101529D01*
X151536268Y-65101528D01*
X151413265Y-65019340D01*
X151308660Y-64914735D01*
X151226472Y-64791732D01*
X151169860Y-64655059D01*
X151154562Y-64578148D01*
X151141000Y-64509968D01*
X151141000Y-64362032D01*
X151169860Y-64216941D01*
X151226471Y-64080270D01*
X151226472Y-64080268D01*
X151308660Y-63957265D01*
X151413265Y-63852660D01*
X151536268Y-63770472D01*
X151549479Y-63765000D01*
X151672941Y-63713860D01*
X151818032Y-63685000D01*
X151965968Y-63685000D01*
X152111059Y-63713860D01*
G37*
G36*
X157953059Y-63713860D02*
G01*
X158076522Y-63765000D01*
X158089732Y-63770472D01*
X158212735Y-63852660D01*
X158317340Y-63957265D01*
X158399528Y-64080268D01*
X158399529Y-64080270D01*
X158456140Y-64216941D01*
X158485000Y-64362032D01*
X158485000Y-64509968D01*
X158471438Y-64578148D01*
X158456140Y-64655059D01*
X158399528Y-64791732D01*
X158317340Y-64914735D01*
X158212735Y-65019340D01*
X158089732Y-65101528D01*
X158089731Y-65101529D01*
X158089730Y-65101529D01*
X157953059Y-65158140D01*
X157807968Y-65187000D01*
X157660032Y-65187000D01*
X157514941Y-65158140D01*
X157378270Y-65101529D01*
X157378269Y-65101529D01*
X157378268Y-65101528D01*
X157255265Y-65019340D01*
X157150660Y-64914735D01*
X157068472Y-64791732D01*
X157011860Y-64655059D01*
X156996562Y-64578148D01*
X156983000Y-64509968D01*
X156983000Y-64362032D01*
X157011860Y-64216941D01*
X157068471Y-64080270D01*
X157068472Y-64080268D01*
X157150660Y-63957265D01*
X157255265Y-63852660D01*
X157378268Y-63770472D01*
X157391479Y-63765000D01*
X157514941Y-63713860D01*
X157660032Y-63685000D01*
X157807968Y-63685000D01*
X157953059Y-63713860D01*
G37*
G36*
X154653059Y-63713860D02*
G01*
X154776522Y-63765000D01*
X154789732Y-63770472D01*
X154912735Y-63852660D01*
X155017340Y-63957265D01*
X155099528Y-64080268D01*
X155099529Y-64080270D01*
X155156140Y-64216941D01*
X155185000Y-64362032D01*
X155185000Y-64509968D01*
X155171438Y-64578148D01*
X155156140Y-64655059D01*
X155099528Y-64791732D01*
X155017340Y-64914735D01*
X154912735Y-65019340D01*
X154789732Y-65101528D01*
X154789731Y-65101529D01*
X154789730Y-65101529D01*
X154653059Y-65158140D01*
X154507968Y-65187000D01*
X154360032Y-65187000D01*
X154214941Y-65158140D01*
X154078270Y-65101529D01*
X154078269Y-65101529D01*
X154078268Y-65101528D01*
X153955265Y-65019340D01*
X153850660Y-64914735D01*
X153768472Y-64791732D01*
X153711860Y-64655059D01*
X153696562Y-64578148D01*
X153683000Y-64509968D01*
X153683000Y-64362032D01*
X153711860Y-64216941D01*
X153768471Y-64080270D01*
X153768472Y-64080268D01*
X153850660Y-63957265D01*
X153955265Y-63852660D01*
X154078268Y-63770472D01*
X154091479Y-63765000D01*
X154214941Y-63713860D01*
X154360032Y-63685000D01*
X154507968Y-63685000D01*
X154653059Y-63713860D01*
G37*
G36*
X160749059Y-63713860D02*
G01*
X160872522Y-63765000D01*
X160885732Y-63770472D01*
X161008735Y-63852660D01*
X161113340Y-63957265D01*
X161195528Y-64080268D01*
X161195529Y-64080270D01*
X161252140Y-64216941D01*
X161281000Y-64362032D01*
X161281000Y-64509968D01*
X161267438Y-64578148D01*
X161252140Y-64655059D01*
X161195528Y-64791732D01*
X161113340Y-64914735D01*
X161008735Y-65019340D01*
X160885732Y-65101528D01*
X160885731Y-65101529D01*
X160885730Y-65101529D01*
X160749059Y-65158140D01*
X160603968Y-65187000D01*
X160456032Y-65187000D01*
X160310941Y-65158140D01*
X160174270Y-65101529D01*
X160174269Y-65101529D01*
X160174268Y-65101528D01*
X160051265Y-65019340D01*
X159946660Y-64914735D01*
X159864472Y-64791732D01*
X159807860Y-64655059D01*
X159792562Y-64578148D01*
X159779000Y-64509968D01*
X159779000Y-64362032D01*
X159807860Y-64216941D01*
X159864471Y-64080270D01*
X159864472Y-64080268D01*
X159946660Y-63957265D01*
X160051265Y-63852660D01*
X160174268Y-63770472D01*
X160187479Y-63765000D01*
X160310941Y-63713860D01*
X160456032Y-63685000D01*
X160603968Y-63685000D01*
X160749059Y-63713860D01*
G37*
G36*
X164049059Y-63713860D02*
G01*
X164172522Y-63765000D01*
X164185732Y-63770472D01*
X164308735Y-63852660D01*
X164413340Y-63957265D01*
X164495528Y-64080268D01*
X164495529Y-64080270D01*
X164552140Y-64216941D01*
X164581000Y-64362032D01*
X164581000Y-64509968D01*
X164567438Y-64578148D01*
X164552140Y-64655059D01*
X164495528Y-64791732D01*
X164413340Y-64914735D01*
X164308735Y-65019340D01*
X164185732Y-65101528D01*
X164185731Y-65101529D01*
X164185730Y-65101529D01*
X164049059Y-65158140D01*
X163903968Y-65187000D01*
X163756032Y-65187000D01*
X163610941Y-65158140D01*
X163474270Y-65101529D01*
X163474269Y-65101529D01*
X163474268Y-65101528D01*
X163351265Y-65019340D01*
X163246660Y-64914735D01*
X163164472Y-64791732D01*
X163107860Y-64655059D01*
X163092562Y-64578148D01*
X163079000Y-64509968D01*
X163079000Y-64362032D01*
X163107860Y-64216941D01*
X163164471Y-64080270D01*
X163164472Y-64080268D01*
X163246660Y-63957265D01*
X163351265Y-63852660D01*
X163474268Y-63770472D01*
X163487479Y-63765000D01*
X163610941Y-63713860D01*
X163756032Y-63685000D01*
X163903968Y-63685000D01*
X164049059Y-63713860D01*
G37*
G36*
X128010228Y-62427703D02*
G01*
X128165100Y-62491853D01*
X128304481Y-62584985D01*
X128423015Y-62703519D01*
X128516147Y-62842900D01*
X128580297Y-62997772D01*
X128613000Y-63162184D01*
X128613000Y-63329816D01*
X128580297Y-63494228D01*
X128516147Y-63649100D01*
X128423015Y-63788481D01*
X128304481Y-63907015D01*
X128165100Y-64000147D01*
X128010228Y-64064297D01*
X127845816Y-64097000D01*
X127678184Y-64097000D01*
X127513772Y-64064297D01*
X127358900Y-64000147D01*
X127219519Y-63907015D01*
X127100985Y-63788481D01*
X127007853Y-63649100D01*
X126943703Y-63494228D01*
X126911000Y-63329816D01*
X126911000Y-63162184D01*
X126943703Y-62997772D01*
X127007853Y-62842900D01*
X127100985Y-62703519D01*
X127219519Y-62584985D01*
X127358900Y-62491853D01*
X127513772Y-62427703D01*
X127678184Y-62395000D01*
X127845816Y-62395000D01*
X128010228Y-62427703D01*
G37*
G36*
X135630228Y-62427703D02*
G01*
X135785100Y-62491853D01*
X135924481Y-62584985D01*
X136043015Y-62703519D01*
X136136147Y-62842900D01*
X136200297Y-62997772D01*
X136233000Y-63162184D01*
X136233000Y-63329816D01*
X136200297Y-63494228D01*
X136136147Y-63649100D01*
X136043015Y-63788481D01*
X135924481Y-63907015D01*
X135785100Y-64000147D01*
X135630228Y-64064297D01*
X135465816Y-64097000D01*
X135298184Y-64097000D01*
X135133772Y-64064297D01*
X134978900Y-64000147D01*
X134839519Y-63907015D01*
X134720985Y-63788481D01*
X134627853Y-63649100D01*
X134563703Y-63494228D01*
X134531000Y-63329816D01*
X134531000Y-63162184D01*
X134563703Y-62997772D01*
X134627853Y-62842900D01*
X134720985Y-62703519D01*
X134839519Y-62584985D01*
X134978900Y-62491853D01*
X135133772Y-62427703D01*
X135298184Y-62395000D01*
X135465816Y-62395000D01*
X135630228Y-62427703D01*
G37*
G36*
X120001512Y-61841927D02*
G01*
X120150812Y-61871624D01*
X120314784Y-61939544D01*
X120462354Y-62038147D01*
X120587853Y-62163646D01*
X120686456Y-62311216D01*
X120754376Y-62475188D01*
X120789000Y-62649259D01*
X120789000Y-62826741D01*
X120754376Y-63000812D01*
X120686456Y-63164784D01*
X120587853Y-63312354D01*
X120462354Y-63437853D01*
X120314784Y-63536456D01*
X120150812Y-63604376D01*
X120001512Y-63634073D01*
X119976742Y-63639000D01*
X119799258Y-63639000D01*
X119774488Y-63634073D01*
X119625188Y-63604376D01*
X119461216Y-63536456D01*
X119313646Y-63437853D01*
X119188147Y-63312354D01*
X119089544Y-63164784D01*
X119021624Y-63000812D01*
X118987000Y-62826741D01*
X118987000Y-62649259D01*
X119021624Y-62475188D01*
X119089544Y-62311216D01*
X119188147Y-62163646D01*
X119313646Y-62038147D01*
X119461216Y-61939544D01*
X119625188Y-61871624D01*
X119774488Y-61841927D01*
X119799258Y-61837000D01*
X119976742Y-61837000D01*
X120001512Y-61841927D01*
G37*
G36*
X117461512Y-61841927D02*
G01*
X117610812Y-61871624D01*
X117774784Y-61939544D01*
X117922354Y-62038147D01*
X118047853Y-62163646D01*
X118146456Y-62311216D01*
X118214376Y-62475188D01*
X118249000Y-62649259D01*
X118249000Y-62826741D01*
X118214376Y-63000812D01*
X118146456Y-63164784D01*
X118047853Y-63312354D01*
X117922354Y-63437853D01*
X117774784Y-63536456D01*
X117610812Y-63604376D01*
X117461512Y-63634073D01*
X117436742Y-63639000D01*
X117259258Y-63639000D01*
X117234488Y-63634073D01*
X117085188Y-63604376D01*
X116921216Y-63536456D01*
X116773646Y-63437853D01*
X116648147Y-63312354D01*
X116549544Y-63164784D01*
X116481624Y-63000812D01*
X116447000Y-62826741D01*
X116447000Y-62649259D01*
X116481624Y-62475188D01*
X116549544Y-62311216D01*
X116648147Y-62163646D01*
X116773646Y-62038147D01*
X116921216Y-61939544D01*
X117085188Y-61871624D01*
X117234488Y-61841927D01*
X117259258Y-61837000D01*
X117436742Y-61837000D01*
X117461512Y-61841927D01*
G37*
G36*
X176688000Y-62873000D02*
G01*
X170786000Y-62873000D01*
X170786000Y-56371000D01*
X176688000Y-56371000D01*
X176688000Y-62873000D01*
G37*
G36*
X148811059Y-61213860D02*
G01*
X148947732Y-61270472D01*
X149070735Y-61352660D01*
X149175340Y-61457265D01*
X149257528Y-61580268D01*
X149314140Y-61716941D01*
X149343000Y-61862033D01*
X149343000Y-62009967D01*
X149314140Y-62155059D01*
X149257528Y-62291732D01*
X149175340Y-62414735D01*
X149070735Y-62519340D01*
X148947732Y-62601528D01*
X148947731Y-62601529D01*
X148947730Y-62601529D01*
X148811059Y-62658140D01*
X148665968Y-62687000D01*
X148518032Y-62687000D01*
X148372941Y-62658140D01*
X148236270Y-62601529D01*
X148236269Y-62601529D01*
X148236268Y-62601528D01*
X148113265Y-62519340D01*
X148008660Y-62414735D01*
X147926472Y-62291732D01*
X147869860Y-62155059D01*
X147841000Y-62009967D01*
X147841000Y-61862033D01*
X147869860Y-61716941D01*
X147926472Y-61580268D01*
X148008660Y-61457265D01*
X148113265Y-61352660D01*
X148236268Y-61270472D01*
X148372941Y-61213860D01*
X148518032Y-61185000D01*
X148665968Y-61185000D01*
X148811059Y-61213860D01*
G37*
G36*
X157953059Y-61213860D02*
G01*
X158089732Y-61270472D01*
X158212735Y-61352660D01*
X158317340Y-61457265D01*
X158399528Y-61580268D01*
X158456140Y-61716941D01*
X158485000Y-61862033D01*
X158485000Y-62009967D01*
X158456140Y-62155059D01*
X158399528Y-62291732D01*
X158317340Y-62414735D01*
X158212735Y-62519340D01*
X158089732Y-62601528D01*
X158089731Y-62601529D01*
X158089730Y-62601529D01*
X157953059Y-62658140D01*
X157807968Y-62687000D01*
X157660032Y-62687000D01*
X157514941Y-62658140D01*
X157378270Y-62601529D01*
X157378269Y-62601529D01*
X157378268Y-62601528D01*
X157255265Y-62519340D01*
X157150660Y-62414735D01*
X157068472Y-62291732D01*
X157011860Y-62155059D01*
X156983000Y-62009967D01*
X156983000Y-61862033D01*
X157011860Y-61716941D01*
X157068472Y-61580268D01*
X157150660Y-61457265D01*
X157255265Y-61352660D01*
X157378268Y-61270472D01*
X157514941Y-61213860D01*
X157660032Y-61185000D01*
X157807968Y-61185000D01*
X157953059Y-61213860D01*
G37*
G36*
X142969059Y-61213860D02*
G01*
X143105732Y-61270472D01*
X143228735Y-61352660D01*
X143333340Y-61457265D01*
X143415528Y-61580268D01*
X143472140Y-61716941D01*
X143501000Y-61862033D01*
X143501000Y-62009967D01*
X143472140Y-62155059D01*
X143415528Y-62291732D01*
X143333340Y-62414735D01*
X143228735Y-62519340D01*
X143105732Y-62601528D01*
X143105731Y-62601529D01*
X143105730Y-62601529D01*
X142969059Y-62658140D01*
X142823968Y-62687000D01*
X142676032Y-62687000D01*
X142530941Y-62658140D01*
X142394270Y-62601529D01*
X142394269Y-62601529D01*
X142394268Y-62601528D01*
X142271265Y-62519340D01*
X142166660Y-62414735D01*
X142084472Y-62291732D01*
X142027860Y-62155059D01*
X141999000Y-62009967D01*
X141999000Y-61862033D01*
X142027860Y-61716941D01*
X142084472Y-61580268D01*
X142166660Y-61457265D01*
X142271265Y-61352660D01*
X142394268Y-61270472D01*
X142530941Y-61213860D01*
X142676032Y-61185000D01*
X142823968Y-61185000D01*
X142969059Y-61213860D01*
G37*
G36*
X146269059Y-61213860D02*
G01*
X146405732Y-61270472D01*
X146528735Y-61352660D01*
X146633340Y-61457265D01*
X146715528Y-61580268D01*
X146772140Y-61716941D01*
X146801000Y-61862033D01*
X146801000Y-62009967D01*
X146772140Y-62155059D01*
X146715528Y-62291732D01*
X146633340Y-62414735D01*
X146528735Y-62519340D01*
X146405732Y-62601528D01*
X146405731Y-62601529D01*
X146405730Y-62601529D01*
X146269059Y-62658140D01*
X146123968Y-62687000D01*
X145976032Y-62687000D01*
X145830941Y-62658140D01*
X145694270Y-62601529D01*
X145694269Y-62601529D01*
X145694268Y-62601528D01*
X145571265Y-62519340D01*
X145466660Y-62414735D01*
X145384472Y-62291732D01*
X145327860Y-62155059D01*
X145299000Y-62009967D01*
X145299000Y-61862033D01*
X145327860Y-61716941D01*
X145384472Y-61580268D01*
X145466660Y-61457265D01*
X145571265Y-61352660D01*
X145694268Y-61270472D01*
X145830941Y-61213860D01*
X145976032Y-61185000D01*
X146123968Y-61185000D01*
X146269059Y-61213860D01*
G37*
G36*
X160749059Y-61213860D02*
G01*
X160885732Y-61270472D01*
X161008735Y-61352660D01*
X161113340Y-61457265D01*
X161195528Y-61580268D01*
X161252140Y-61716941D01*
X161281000Y-61862033D01*
X161281000Y-62009967D01*
X161252140Y-62155059D01*
X161195528Y-62291732D01*
X161113340Y-62414735D01*
X161008735Y-62519340D01*
X160885732Y-62601528D01*
X160885731Y-62601529D01*
X160885730Y-62601529D01*
X160749059Y-62658140D01*
X160603968Y-62687000D01*
X160456032Y-62687000D01*
X160310941Y-62658140D01*
X160174270Y-62601529D01*
X160174269Y-62601529D01*
X160174268Y-62601528D01*
X160051265Y-62519340D01*
X159946660Y-62414735D01*
X159864472Y-62291732D01*
X159807860Y-62155059D01*
X159779000Y-62009967D01*
X159779000Y-61862033D01*
X159807860Y-61716941D01*
X159864472Y-61580268D01*
X159946660Y-61457265D01*
X160051265Y-61352660D01*
X160174268Y-61270472D01*
X160310941Y-61213860D01*
X160456032Y-61185000D01*
X160603968Y-61185000D01*
X160749059Y-61213860D01*
G37*
G36*
X152111059Y-61213860D02*
G01*
X152247732Y-61270472D01*
X152370735Y-61352660D01*
X152475340Y-61457265D01*
X152557528Y-61580268D01*
X152614140Y-61716941D01*
X152643000Y-61862033D01*
X152643000Y-62009967D01*
X152614140Y-62155059D01*
X152557528Y-62291732D01*
X152475340Y-62414735D01*
X152370735Y-62519340D01*
X152247732Y-62601528D01*
X152247731Y-62601529D01*
X152247730Y-62601529D01*
X152111059Y-62658140D01*
X151965968Y-62687000D01*
X151818032Y-62687000D01*
X151672941Y-62658140D01*
X151536270Y-62601529D01*
X151536269Y-62601529D01*
X151536268Y-62601528D01*
X151413265Y-62519340D01*
X151308660Y-62414735D01*
X151226472Y-62291732D01*
X151169860Y-62155059D01*
X151141000Y-62009967D01*
X151141000Y-61862033D01*
X151169860Y-61716941D01*
X151226472Y-61580268D01*
X151308660Y-61457265D01*
X151413265Y-61352660D01*
X151536268Y-61270472D01*
X151672941Y-61213860D01*
X151818032Y-61185000D01*
X151965968Y-61185000D01*
X152111059Y-61213860D01*
G37*
G36*
X154653059Y-61213860D02*
G01*
X154789732Y-61270472D01*
X154912735Y-61352660D01*
X155017340Y-61457265D01*
X155099528Y-61580268D01*
X155156140Y-61716941D01*
X155185000Y-61862033D01*
X155185000Y-62009967D01*
X155156140Y-62155059D01*
X155099528Y-62291732D01*
X155017340Y-62414735D01*
X154912735Y-62519340D01*
X154789732Y-62601528D01*
X154789731Y-62601529D01*
X154789730Y-62601529D01*
X154653059Y-62658140D01*
X154507968Y-62687000D01*
X154360032Y-62687000D01*
X154214941Y-62658140D01*
X154078270Y-62601529D01*
X154078269Y-62601529D01*
X154078268Y-62601528D01*
X153955265Y-62519340D01*
X153850660Y-62414735D01*
X153768472Y-62291732D01*
X153711860Y-62155059D01*
X153683000Y-62009967D01*
X153683000Y-61862033D01*
X153711860Y-61716941D01*
X153768472Y-61580268D01*
X153850660Y-61457265D01*
X153955265Y-61352660D01*
X154078268Y-61270472D01*
X154214941Y-61213860D01*
X154360032Y-61185000D01*
X154507968Y-61185000D01*
X154653059Y-61213860D01*
G37*
G36*
X164049059Y-61213860D02*
G01*
X164185732Y-61270472D01*
X164308735Y-61352660D01*
X164413340Y-61457265D01*
X164495528Y-61580268D01*
X164552140Y-61716941D01*
X164581000Y-61862033D01*
X164581000Y-62009967D01*
X164552140Y-62155059D01*
X164495528Y-62291732D01*
X164413340Y-62414735D01*
X164308735Y-62519340D01*
X164185732Y-62601528D01*
X164185731Y-62601529D01*
X164185730Y-62601529D01*
X164049059Y-62658140D01*
X163903968Y-62687000D01*
X163756032Y-62687000D01*
X163610941Y-62658140D01*
X163474270Y-62601529D01*
X163474269Y-62601529D01*
X163474268Y-62601528D01*
X163351265Y-62519340D01*
X163246660Y-62414735D01*
X163164472Y-62291732D01*
X163107860Y-62155059D01*
X163079000Y-62009967D01*
X163079000Y-61862033D01*
X163107860Y-61716941D01*
X163164472Y-61580268D01*
X163246660Y-61457265D01*
X163351265Y-61352660D01*
X163474268Y-61270472D01*
X163610941Y-61213860D01*
X163756032Y-61185000D01*
X163903968Y-61185000D01*
X164049059Y-61213860D01*
G37*
G36*
X135630228Y-59887703D02*
G01*
X135785100Y-59951853D01*
X135924481Y-60044985D01*
X136043015Y-60163519D01*
X136136147Y-60302900D01*
X136200297Y-60457772D01*
X136233000Y-60622184D01*
X136233000Y-60789816D01*
X136200297Y-60954228D01*
X136136147Y-61109100D01*
X136043015Y-61248481D01*
X135924481Y-61367015D01*
X135785100Y-61460147D01*
X135630228Y-61524297D01*
X135465816Y-61557000D01*
X135298184Y-61557000D01*
X135133772Y-61524297D01*
X134978900Y-61460147D01*
X134839519Y-61367015D01*
X134720985Y-61248481D01*
X134627853Y-61109100D01*
X134563703Y-60954228D01*
X134531000Y-60789816D01*
X134531000Y-60622184D01*
X134563703Y-60457772D01*
X134627853Y-60302900D01*
X134720985Y-60163519D01*
X134839519Y-60044985D01*
X134978900Y-59951853D01*
X135133772Y-59887703D01*
X135298184Y-59855000D01*
X135465816Y-59855000D01*
X135630228Y-59887703D01*
G37*
G36*
X128613000Y-61557000D02*
G01*
X126911000Y-61557000D01*
X126911000Y-59855000D01*
X128613000Y-59855000D01*
X128613000Y-61557000D01*
G37*
G36*
X120001512Y-59301927D02*
G01*
X120150812Y-59331624D01*
X120314784Y-59399544D01*
X120462354Y-59498147D01*
X120587853Y-59623646D01*
X120686456Y-59771216D01*
X120754376Y-59935188D01*
X120776364Y-60045732D01*
X120787463Y-60101529D01*
X120789000Y-60109259D01*
X120789000Y-60286741D01*
X120754376Y-60460812D01*
X120686456Y-60624784D01*
X120587853Y-60772354D01*
X120462354Y-60897853D01*
X120314784Y-60996456D01*
X120150812Y-61064376D01*
X120001512Y-61094073D01*
X119976742Y-61099000D01*
X119799258Y-61099000D01*
X119774488Y-61094073D01*
X119625188Y-61064376D01*
X119461216Y-60996456D01*
X119313646Y-60897853D01*
X119188147Y-60772354D01*
X119089544Y-60624784D01*
X119021624Y-60460812D01*
X118987000Y-60286741D01*
X118987000Y-60109259D01*
X118988538Y-60101529D01*
X118999636Y-60045732D01*
X119021624Y-59935188D01*
X119089544Y-59771216D01*
X119188147Y-59623646D01*
X119313646Y-59498147D01*
X119461216Y-59399544D01*
X119625188Y-59331624D01*
X119774488Y-59301927D01*
X119799258Y-59297000D01*
X119976742Y-59297000D01*
X120001512Y-59301927D01*
G37*
G36*
X118249000Y-61099000D02*
G01*
X116447000Y-61099000D01*
X116447000Y-59297000D01*
X118249000Y-59297000D01*
X118249000Y-61099000D01*
G37*
G36*
X179289059Y-58967860D02*
G01*
X179425732Y-59024472D01*
X179548735Y-59106660D01*
X179653340Y-59211265D01*
X179710626Y-59297000D01*
X179735529Y-59334270D01*
X179792140Y-59470941D01*
X179821000Y-59616032D01*
X179821000Y-59763968D01*
X179792140Y-59909059D01*
X179735838Y-60044985D01*
X179735528Y-60045732D01*
X179653340Y-60168735D01*
X179548735Y-60273340D01*
X179425732Y-60355528D01*
X179425731Y-60355529D01*
X179425730Y-60355529D01*
X179289059Y-60412140D01*
X179143968Y-60441000D01*
X178996032Y-60441000D01*
X178850941Y-60412140D01*
X178714270Y-60355529D01*
X178714269Y-60355529D01*
X178714268Y-60355528D01*
X178591265Y-60273340D01*
X178486660Y-60168735D01*
X178404472Y-60045732D01*
X178404163Y-60044985D01*
X178347860Y-59909059D01*
X178319000Y-59763968D01*
X178319000Y-59616032D01*
X178347860Y-59470941D01*
X178404471Y-59334270D01*
X178429374Y-59297000D01*
X178486660Y-59211265D01*
X178591265Y-59106660D01*
X178714268Y-59024472D01*
X178850941Y-58967860D01*
X178996032Y-58939000D01*
X179143968Y-58939000D01*
X179289059Y-58967860D01*
G37*
G36*
X152643000Y-60187000D02*
G01*
X151141000Y-60187000D01*
X151141000Y-58685000D01*
X152643000Y-58685000D01*
X152643000Y-60187000D01*
G37*
G36*
X167351059Y-58713860D02*
G01*
X167487732Y-58770472D01*
X167610735Y-58852660D01*
X167715340Y-58957265D01*
X167760246Y-59024472D01*
X167797529Y-59080270D01*
X167854140Y-59216941D01*
X167876952Y-59331624D01*
X167883000Y-59362033D01*
X167883000Y-59509967D01*
X167854140Y-59655059D01*
X167797528Y-59791732D01*
X167715340Y-59914735D01*
X167610735Y-60019340D01*
X167487732Y-60101528D01*
X167487731Y-60101529D01*
X167487730Y-60101529D01*
X167351059Y-60158140D01*
X167205968Y-60187000D01*
X167058032Y-60187000D01*
X166912941Y-60158140D01*
X166776270Y-60101529D01*
X166776269Y-60101529D01*
X166776268Y-60101528D01*
X166653265Y-60019340D01*
X166548660Y-59914735D01*
X166466472Y-59791732D01*
X166409860Y-59655059D01*
X166381000Y-59509967D01*
X166381000Y-59362033D01*
X166387049Y-59331624D01*
X166409860Y-59216941D01*
X166466471Y-59080270D01*
X166503754Y-59024472D01*
X166548660Y-58957265D01*
X166653265Y-58852660D01*
X166776268Y-58770472D01*
X166912941Y-58713860D01*
X167058032Y-58685000D01*
X167205968Y-58685000D01*
X167351059Y-58713860D01*
G37*
G36*
X148811059Y-58713860D02*
G01*
X148947732Y-58770472D01*
X149070735Y-58852660D01*
X149175340Y-58957265D01*
X149220246Y-59024472D01*
X149257529Y-59080270D01*
X149314140Y-59216941D01*
X149336952Y-59331624D01*
X149343000Y-59362033D01*
X149343000Y-59509967D01*
X149314140Y-59655059D01*
X149257528Y-59791732D01*
X149175340Y-59914735D01*
X149070735Y-60019340D01*
X148947732Y-60101528D01*
X148947731Y-60101529D01*
X148947730Y-60101529D01*
X148811059Y-60158140D01*
X148665968Y-60187000D01*
X148518032Y-60187000D01*
X148372941Y-60158140D01*
X148236270Y-60101529D01*
X148236269Y-60101529D01*
X148236268Y-60101528D01*
X148113265Y-60019340D01*
X148008660Y-59914735D01*
X147926472Y-59791732D01*
X147869860Y-59655059D01*
X147841000Y-59509967D01*
X147841000Y-59362033D01*
X147847049Y-59331624D01*
X147869860Y-59216941D01*
X147926471Y-59080270D01*
X147963754Y-59024472D01*
X148008660Y-58957265D01*
X148113265Y-58852660D01*
X148236268Y-58770472D01*
X148372941Y-58713860D01*
X148518032Y-58685000D01*
X148665968Y-58685000D01*
X148811059Y-58713860D01*
G37*
G36*
X154653059Y-58713860D02*
G01*
X154789732Y-58770472D01*
X154912735Y-58852660D01*
X155017340Y-58957265D01*
X155062246Y-59024472D01*
X155099529Y-59080270D01*
X155156140Y-59216941D01*
X155178952Y-59331624D01*
X155185000Y-59362033D01*
X155185000Y-59509967D01*
X155156140Y-59655059D01*
X155099528Y-59791732D01*
X155017340Y-59914735D01*
X154912735Y-60019340D01*
X154789732Y-60101528D01*
X154789731Y-60101529D01*
X154789730Y-60101529D01*
X154653059Y-60158140D01*
X154507968Y-60187000D01*
X154360032Y-60187000D01*
X154214941Y-60158140D01*
X154078270Y-60101529D01*
X154078269Y-60101529D01*
X154078268Y-60101528D01*
X153955265Y-60019340D01*
X153850660Y-59914735D01*
X153768472Y-59791732D01*
X153711860Y-59655059D01*
X153683000Y-59509967D01*
X153683000Y-59362033D01*
X153689049Y-59331624D01*
X153711860Y-59216941D01*
X153768471Y-59080270D01*
X153805754Y-59024472D01*
X153850660Y-58957265D01*
X153955265Y-58852660D01*
X154078268Y-58770472D01*
X154214941Y-58713860D01*
X154360032Y-58685000D01*
X154507968Y-58685000D01*
X154653059Y-58713860D01*
G37*
G36*
X158485000Y-60187000D02*
G01*
X156983000Y-60187000D01*
X156983000Y-58685000D01*
X158485000Y-58685000D01*
X158485000Y-60187000D01*
G37*
G36*
X142969059Y-58713860D02*
G01*
X143105732Y-58770472D01*
X143228735Y-58852660D01*
X143333340Y-58957265D01*
X143378246Y-59024472D01*
X143415529Y-59080270D01*
X143472140Y-59216941D01*
X143494952Y-59331624D01*
X143501000Y-59362033D01*
X143501000Y-59509967D01*
X143472140Y-59655059D01*
X143415528Y-59791732D01*
X143333340Y-59914735D01*
X143228735Y-60019340D01*
X143105732Y-60101528D01*
X143105731Y-60101529D01*
X143105730Y-60101529D01*
X142969059Y-60158140D01*
X142823968Y-60187000D01*
X142676032Y-60187000D01*
X142530941Y-60158140D01*
X142394270Y-60101529D01*
X142394269Y-60101529D01*
X142394268Y-60101528D01*
X142271265Y-60019340D01*
X142166660Y-59914735D01*
X142084472Y-59791732D01*
X142027860Y-59655059D01*
X141999000Y-59509967D01*
X141999000Y-59362033D01*
X142005049Y-59331624D01*
X142027860Y-59216941D01*
X142084471Y-59080270D01*
X142121754Y-59024472D01*
X142166660Y-58957265D01*
X142271265Y-58852660D01*
X142394268Y-58770472D01*
X142530941Y-58713860D01*
X142676032Y-58685000D01*
X142823968Y-58685000D01*
X142969059Y-58713860D01*
G37*
G36*
X146801000Y-60187000D02*
G01*
X145299000Y-60187000D01*
X145299000Y-58685000D01*
X146801000Y-58685000D01*
X146801000Y-60187000D01*
G37*
G36*
X160749059Y-58713860D02*
G01*
X160885732Y-58770472D01*
X161008735Y-58852660D01*
X161113340Y-58957265D01*
X161158246Y-59024472D01*
X161195529Y-59080270D01*
X161252140Y-59216941D01*
X161274952Y-59331624D01*
X161281000Y-59362033D01*
X161281000Y-59509967D01*
X161252140Y-59655059D01*
X161195528Y-59791732D01*
X161113340Y-59914735D01*
X161008735Y-60019340D01*
X160885732Y-60101528D01*
X160885731Y-60101529D01*
X160885730Y-60101529D01*
X160749059Y-60158140D01*
X160603968Y-60187000D01*
X160456032Y-60187000D01*
X160310941Y-60158140D01*
X160174270Y-60101529D01*
X160174269Y-60101529D01*
X160174268Y-60101528D01*
X160051265Y-60019340D01*
X159946660Y-59914735D01*
X159864472Y-59791732D01*
X159807860Y-59655059D01*
X159779000Y-59509967D01*
X159779000Y-59362033D01*
X159785049Y-59331624D01*
X159807860Y-59216941D01*
X159864471Y-59080270D01*
X159901754Y-59024472D01*
X159946660Y-58957265D01*
X160051265Y-58852660D01*
X160174268Y-58770472D01*
X160310941Y-58713860D01*
X160456032Y-58685000D01*
X160603968Y-58685000D01*
X160749059Y-58713860D01*
G37*
G36*
X164581000Y-60187000D02*
G01*
X163079000Y-60187000D01*
X163079000Y-58685000D01*
X164581000Y-58685000D01*
X164581000Y-60187000D01*
G37*
G36*
X144491059Y-54903860D02*
G01*
X144627732Y-54960472D01*
X144750735Y-55042660D01*
X144855340Y-55147265D01*
X144937528Y-55270268D01*
X144994140Y-55406941D01*
X145023000Y-55552033D01*
X145023000Y-55699967D01*
X144994140Y-55845059D01*
X144937528Y-55981732D01*
X144855340Y-56104735D01*
X144750735Y-56209340D01*
X144627732Y-56291528D01*
X144627731Y-56291529D01*
X144627730Y-56291529D01*
X144491059Y-56348140D01*
X144345968Y-56377000D01*
X144198032Y-56377000D01*
X144052941Y-56348140D01*
X143916270Y-56291529D01*
X143916269Y-56291529D01*
X143916268Y-56291528D01*
X143793265Y-56209340D01*
X143688660Y-56104735D01*
X143606472Y-55981732D01*
X143549860Y-55845059D01*
X143521000Y-55699967D01*
X143521000Y-55552033D01*
X143549860Y-55406941D01*
X143606472Y-55270268D01*
X143688660Y-55147265D01*
X143793265Y-55042660D01*
X143916268Y-54960472D01*
X144052941Y-54903860D01*
X144198032Y-54875000D01*
X144345968Y-54875000D01*
X144491059Y-54903860D01*
G37*
G36*
X139411059Y-54903860D02*
G01*
X139547732Y-54960472D01*
X139670735Y-55042660D01*
X139775340Y-55147265D01*
X139857528Y-55270268D01*
X139914140Y-55406941D01*
X139943000Y-55552033D01*
X139943000Y-55699967D01*
X139914140Y-55845059D01*
X139857528Y-55981732D01*
X139775340Y-56104735D01*
X139670735Y-56209340D01*
X139547732Y-56291528D01*
X139547731Y-56291529D01*
X139547730Y-56291529D01*
X139411059Y-56348140D01*
X139265968Y-56377000D01*
X139118032Y-56377000D01*
X138972941Y-56348140D01*
X138836270Y-56291529D01*
X138836269Y-56291529D01*
X138836268Y-56291528D01*
X138713265Y-56209340D01*
X138608660Y-56104735D01*
X138526472Y-55981732D01*
X138469860Y-55845059D01*
X138441000Y-55699967D01*
X138441000Y-55552033D01*
X138469860Y-55406941D01*
X138526472Y-55270268D01*
X138608660Y-55147265D01*
X138713265Y-55042660D01*
X138836268Y-54960472D01*
X138972941Y-54903860D01*
X139118032Y-54875000D01*
X139265968Y-54875000D01*
X139411059Y-54903860D01*
G37*
G36*
X147031059Y-54903860D02*
G01*
X147167732Y-54960472D01*
X147290735Y-55042660D01*
X147395340Y-55147265D01*
X147477528Y-55270268D01*
X147534140Y-55406941D01*
X147563000Y-55552033D01*
X147563000Y-55699967D01*
X147534140Y-55845059D01*
X147477528Y-55981732D01*
X147395340Y-56104735D01*
X147290735Y-56209340D01*
X147167732Y-56291528D01*
X147167731Y-56291529D01*
X147167730Y-56291529D01*
X147031059Y-56348140D01*
X146885968Y-56377000D01*
X146738032Y-56377000D01*
X146592941Y-56348140D01*
X146456270Y-56291529D01*
X146456269Y-56291529D01*
X146456268Y-56291528D01*
X146333265Y-56209340D01*
X146228660Y-56104735D01*
X146146472Y-55981732D01*
X146089860Y-55845059D01*
X146061000Y-55699967D01*
X146061000Y-55552033D01*
X146089860Y-55406941D01*
X146146472Y-55270268D01*
X146228660Y-55147265D01*
X146333265Y-55042660D01*
X146456268Y-54960472D01*
X146592941Y-54903860D01*
X146738032Y-54875000D01*
X146885968Y-54875000D01*
X147031059Y-54903860D01*
G37*
G36*
X152111059Y-54903860D02*
G01*
X152247732Y-54960472D01*
X152370735Y-55042660D01*
X152475340Y-55147265D01*
X152557528Y-55270268D01*
X152614140Y-55406941D01*
X152643000Y-55552033D01*
X152643000Y-55699967D01*
X152614140Y-55845059D01*
X152557528Y-55981732D01*
X152475340Y-56104735D01*
X152370735Y-56209340D01*
X152247732Y-56291528D01*
X152247731Y-56291529D01*
X152247730Y-56291529D01*
X152111059Y-56348140D01*
X151965968Y-56377000D01*
X151818032Y-56377000D01*
X151672941Y-56348140D01*
X151536270Y-56291529D01*
X151536269Y-56291529D01*
X151536268Y-56291528D01*
X151413265Y-56209340D01*
X151308660Y-56104735D01*
X151226472Y-55981732D01*
X151169860Y-55845059D01*
X151141000Y-55699967D01*
X151141000Y-55552033D01*
X151169860Y-55406941D01*
X151226472Y-55270268D01*
X151308660Y-55147265D01*
X151413265Y-55042660D01*
X151536268Y-54960472D01*
X151672941Y-54903860D01*
X151818032Y-54875000D01*
X151965968Y-54875000D01*
X152111059Y-54903860D01*
G37*
G36*
X159731059Y-54903860D02*
G01*
X159867732Y-54960472D01*
X159990735Y-55042660D01*
X160095340Y-55147265D01*
X160177528Y-55270268D01*
X160234140Y-55406941D01*
X160263000Y-55552033D01*
X160263000Y-55699967D01*
X160234140Y-55845059D01*
X160177528Y-55981732D01*
X160095340Y-56104735D01*
X159990735Y-56209340D01*
X159867732Y-56291528D01*
X159867731Y-56291529D01*
X159867730Y-56291529D01*
X159731059Y-56348140D01*
X159585968Y-56377000D01*
X159438032Y-56377000D01*
X159292941Y-56348140D01*
X159156270Y-56291529D01*
X159156269Y-56291529D01*
X159156268Y-56291528D01*
X159033265Y-56209340D01*
X158928660Y-56104735D01*
X158846472Y-55981732D01*
X158789860Y-55845059D01*
X158761000Y-55699967D01*
X158761000Y-55552033D01*
X158789860Y-55406941D01*
X158846472Y-55270268D01*
X158928660Y-55147265D01*
X159033265Y-55042660D01*
X159156268Y-54960472D01*
X159292941Y-54903860D01*
X159438032Y-54875000D01*
X159585968Y-54875000D01*
X159731059Y-54903860D01*
G37*
G36*
X162271059Y-54903860D02*
G01*
X162407732Y-54960472D01*
X162530735Y-55042660D01*
X162635340Y-55147265D01*
X162717528Y-55270268D01*
X162774140Y-55406941D01*
X162803000Y-55552033D01*
X162803000Y-55699967D01*
X162774140Y-55845059D01*
X162717528Y-55981732D01*
X162635340Y-56104735D01*
X162530735Y-56209340D01*
X162407732Y-56291528D01*
X162407731Y-56291529D01*
X162407730Y-56291529D01*
X162271059Y-56348140D01*
X162125968Y-56377000D01*
X161978032Y-56377000D01*
X161832941Y-56348140D01*
X161696270Y-56291529D01*
X161696269Y-56291529D01*
X161696268Y-56291528D01*
X161573265Y-56209340D01*
X161468660Y-56104735D01*
X161386472Y-55981732D01*
X161329860Y-55845059D01*
X161301000Y-55699967D01*
X161301000Y-55552033D01*
X161329860Y-55406941D01*
X161386472Y-55270268D01*
X161468660Y-55147265D01*
X161573265Y-55042660D01*
X161696268Y-54960472D01*
X161832941Y-54903860D01*
X161978032Y-54875000D01*
X162125968Y-54875000D01*
X162271059Y-54903860D01*
G37*
G36*
X167351059Y-54903860D02*
G01*
X167487732Y-54960472D01*
X167610735Y-55042660D01*
X167715340Y-55147265D01*
X167797528Y-55270268D01*
X167854140Y-55406941D01*
X167883000Y-55552033D01*
X167883000Y-55699967D01*
X167854140Y-55845059D01*
X167797528Y-55981732D01*
X167715340Y-56104735D01*
X167610735Y-56209340D01*
X167487732Y-56291528D01*
X167487731Y-56291529D01*
X167487730Y-56291529D01*
X167351059Y-56348140D01*
X167205968Y-56377000D01*
X167058032Y-56377000D01*
X166912941Y-56348140D01*
X166776270Y-56291529D01*
X166776269Y-56291529D01*
X166776268Y-56291528D01*
X166653265Y-56209340D01*
X166548660Y-56104735D01*
X166466472Y-55981732D01*
X166409860Y-55845059D01*
X166381000Y-55699967D01*
X166381000Y-55552033D01*
X166409860Y-55406941D01*
X166466472Y-55270268D01*
X166548660Y-55147265D01*
X166653265Y-55042660D01*
X166776268Y-54960472D01*
X166912941Y-54903860D01*
X167058032Y-54875000D01*
X167205968Y-54875000D01*
X167351059Y-54903860D01*
G37*
G36*
X154651059Y-54903860D02*
G01*
X154787732Y-54960472D01*
X154910735Y-55042660D01*
X155015340Y-55147265D01*
X155097528Y-55270268D01*
X155154140Y-55406941D01*
X155183000Y-55552033D01*
X155183000Y-55699967D01*
X155154140Y-55845059D01*
X155097528Y-55981732D01*
X155015340Y-56104735D01*
X154910735Y-56209340D01*
X154787732Y-56291528D01*
X154787731Y-56291529D01*
X154787730Y-56291529D01*
X154651059Y-56348140D01*
X154505968Y-56377000D01*
X154358032Y-56377000D01*
X154212941Y-56348140D01*
X154076270Y-56291529D01*
X154076269Y-56291529D01*
X154076268Y-56291528D01*
X153953265Y-56209340D01*
X153848660Y-56104735D01*
X153766472Y-55981732D01*
X153709860Y-55845059D01*
X153681000Y-55699967D01*
X153681000Y-55552033D01*
X153709860Y-55406941D01*
X153766472Y-55270268D01*
X153848660Y-55147265D01*
X153953265Y-55042660D01*
X154076268Y-54960472D01*
X154212941Y-54903860D01*
X154358032Y-54875000D01*
X154505968Y-54875000D01*
X154651059Y-54903860D01*
G37*
G36*
X115639528Y-52250581D02*
G01*
X115788828Y-52280278D01*
X115952800Y-52348198D01*
X116100370Y-52446801D01*
X116225869Y-52572300D01*
X116324472Y-52719870D01*
X116392392Y-52883842D01*
X116413044Y-52987670D01*
X116423655Y-53041013D01*
X116427016Y-53057913D01*
X116427016Y-53235395D01*
X116392392Y-53409466D01*
X116324472Y-53573438D01*
X116225869Y-53721008D01*
X116100370Y-53846507D01*
X115952800Y-53945110D01*
X115788828Y-54013030D01*
X115639528Y-54042727D01*
X115614758Y-54047654D01*
X115437274Y-54047654D01*
X115412504Y-54042727D01*
X115263204Y-54013030D01*
X115099232Y-53945110D01*
X114951662Y-53846507D01*
X114826163Y-53721008D01*
X114727560Y-53573438D01*
X114659640Y-53409466D01*
X114625016Y-53235395D01*
X114625016Y-53057913D01*
X114628378Y-53041013D01*
X114638988Y-52987670D01*
X114659640Y-52883842D01*
X114727560Y-52719870D01*
X114826163Y-52572300D01*
X114951662Y-52446801D01*
X115099232Y-52348198D01*
X115263204Y-52280278D01*
X115412504Y-52250581D01*
X115437274Y-52245654D01*
X115614758Y-52245654D01*
X115639528Y-52250581D01*
G37*
G36*
X177062804Y-52162613D02*
G01*
X177212104Y-52192310D01*
X177376076Y-52260230D01*
X177523646Y-52358833D01*
X177649145Y-52484332D01*
X177747748Y-52631902D01*
X177815668Y-52795874D01*
X177845365Y-52945174D01*
X177846931Y-52953045D01*
X177850292Y-52969945D01*
X177850292Y-53147427D01*
X177815668Y-53321498D01*
X177747748Y-53485470D01*
X177649145Y-53633040D01*
X177523646Y-53758539D01*
X177376076Y-53857142D01*
X177212104Y-53925062D01*
X177062804Y-53954759D01*
X177038034Y-53959686D01*
X176860550Y-53959686D01*
X176835780Y-53954759D01*
X176686480Y-53925062D01*
X176522508Y-53857142D01*
X176374938Y-53758539D01*
X176249439Y-53633040D01*
X176150836Y-53485470D01*
X176082916Y-53321498D01*
X176048292Y-53147427D01*
X176048292Y-52969945D01*
X176051654Y-52953045D01*
X176053219Y-52945174D01*
X176082916Y-52795874D01*
X176150836Y-52631902D01*
X176249439Y-52484332D01*
X176374938Y-52358833D01*
X176522508Y-52260230D01*
X176686480Y-52192310D01*
X176835780Y-52162613D01*
X176860550Y-52157686D01*
X177038034Y-52157686D01*
X177062804Y-52162613D01*
G37*
G36*
X117986182Y-51278565D02*
G01*
X118135482Y-51308262D01*
X118299454Y-51376182D01*
X118447024Y-51474785D01*
X118572523Y-51600284D01*
X118671126Y-51747854D01*
X118739046Y-51911826D01*
X118759698Y-52015654D01*
X118773670Y-52085896D01*
X118773670Y-52263380D01*
X118768743Y-52288150D01*
X118739046Y-52437450D01*
X118671126Y-52601422D01*
X118572523Y-52748992D01*
X118447024Y-52874491D01*
X118299454Y-52973094D01*
X118135482Y-53041014D01*
X117986182Y-53070711D01*
X117961412Y-53075638D01*
X117783928Y-53075638D01*
X117759158Y-53070711D01*
X117609858Y-53041014D01*
X117445886Y-52973094D01*
X117298316Y-52874491D01*
X117172817Y-52748992D01*
X117074214Y-52601422D01*
X117006294Y-52437450D01*
X116976597Y-52288150D01*
X116971670Y-52263380D01*
X116971670Y-52085896D01*
X116985642Y-52015654D01*
X117006294Y-51911826D01*
X117074214Y-51747854D01*
X117172817Y-51600284D01*
X117298316Y-51474785D01*
X117445886Y-51376182D01*
X117609858Y-51308262D01*
X117759158Y-51278565D01*
X117783928Y-51273638D01*
X117961412Y-51273638D01*
X117986182Y-51278565D01*
G37*
G36*
X174716150Y-51190597D02*
G01*
X174865450Y-51220294D01*
X175029422Y-51288214D01*
X175176992Y-51386817D01*
X175302491Y-51512316D01*
X175401094Y-51659886D01*
X175469014Y-51823858D01*
X175498711Y-51973158D01*
X175503638Y-51997928D01*
X175503638Y-52175412D01*
X175498711Y-52200182D01*
X175469014Y-52349482D01*
X175401094Y-52513454D01*
X175302491Y-52661024D01*
X175176992Y-52786523D01*
X175029422Y-52885126D01*
X174865450Y-52953046D01*
X174716150Y-52982743D01*
X174691380Y-52987670D01*
X174513896Y-52987670D01*
X174489126Y-52982743D01*
X174339826Y-52953046D01*
X174175854Y-52885126D01*
X174028284Y-52786523D01*
X173902785Y-52661024D01*
X173804182Y-52513454D01*
X173736262Y-52349482D01*
X173706565Y-52200182D01*
X173701638Y-52175412D01*
X173701638Y-51997928D01*
X173706565Y-51973158D01*
X173736262Y-51823858D01*
X173804182Y-51659886D01*
X173902785Y-51512316D01*
X174028284Y-51386817D01*
X174175854Y-51288214D01*
X174339826Y-51220294D01*
X174489126Y-51190597D01*
X174513896Y-51185670D01*
X174691380Y-51185670D01*
X174716150Y-51190597D01*
G37*
G36*
X120332836Y-50306549D02*
G01*
X120482136Y-50336246D01*
X120646108Y-50404166D01*
X120793678Y-50502769D01*
X120919177Y-50628268D01*
X121017780Y-50775838D01*
X121085700Y-50939810D01*
X121115397Y-51089110D01*
X121120324Y-51113880D01*
X121120324Y-51291364D01*
X121115397Y-51316134D01*
X121085700Y-51465434D01*
X121017780Y-51629406D01*
X120919177Y-51776976D01*
X120793678Y-51902475D01*
X120646108Y-52001078D01*
X120482136Y-52068998D01*
X120332836Y-52098695D01*
X120308066Y-52103622D01*
X120130582Y-52103622D01*
X120105812Y-52098695D01*
X119956512Y-52068998D01*
X119792540Y-52001078D01*
X119644970Y-51902475D01*
X119519471Y-51776976D01*
X119420868Y-51629406D01*
X119352948Y-51465434D01*
X119323251Y-51316134D01*
X119318324Y-51291364D01*
X119318324Y-51113880D01*
X119323251Y-51089110D01*
X119352948Y-50939810D01*
X119420868Y-50775838D01*
X119519471Y-50628268D01*
X119644970Y-50502769D01*
X119792540Y-50404166D01*
X119956512Y-50336246D01*
X120105812Y-50306549D01*
X120130582Y-50301622D01*
X120308066Y-50301622D01*
X120332836Y-50306549D01*
G37*
G36*
X172369496Y-50218581D02*
G01*
X172518796Y-50248278D01*
X172682768Y-50316198D01*
X172830338Y-50414801D01*
X172955837Y-50540300D01*
X173054440Y-50687870D01*
X173122360Y-50851842D01*
X173146826Y-50974843D01*
X173156984Y-51025912D01*
X173156984Y-51203396D01*
X173152057Y-51228166D01*
X173122360Y-51377466D01*
X173054440Y-51541438D01*
X172955837Y-51689008D01*
X172830338Y-51814507D01*
X172682768Y-51913110D01*
X172518796Y-51981030D01*
X172369496Y-52010727D01*
X172344726Y-52015654D01*
X172167242Y-52015654D01*
X172142472Y-52010727D01*
X171993172Y-51981030D01*
X171829200Y-51913110D01*
X171681630Y-51814507D01*
X171556131Y-51689008D01*
X171457528Y-51541438D01*
X171389608Y-51377466D01*
X171359911Y-51228166D01*
X171354984Y-51203396D01*
X171354984Y-51025912D01*
X171365142Y-50974843D01*
X171389608Y-50851842D01*
X171457528Y-50687870D01*
X171556131Y-50540300D01*
X171681630Y-50414801D01*
X171829200Y-50316198D01*
X171993172Y-50248278D01*
X172142472Y-50218581D01*
X172167242Y-50213654D01*
X172344726Y-50213654D01*
X172369496Y-50218581D01*
G37*
G36*
X115731213Y-51287618D02*
G01*
X114066382Y-51977213D01*
X113376787Y-50312382D01*
X115041618Y-49622787D01*
X115731213Y-51287618D01*
G37*
G36*
X178034820Y-49815959D02*
G01*
X178184120Y-49845656D01*
X178348092Y-49913576D01*
X178495662Y-50012179D01*
X178621161Y-50137678D01*
X178719764Y-50285248D01*
X178787684Y-50449220D01*
X178817381Y-50598520D01*
X178818947Y-50606391D01*
X178822308Y-50623291D01*
X178822308Y-50800773D01*
X178787684Y-50974844D01*
X178719764Y-51138816D01*
X178621161Y-51286386D01*
X178495662Y-51411885D01*
X178348092Y-51510488D01*
X178184120Y-51578408D01*
X178034820Y-51608105D01*
X178010050Y-51613032D01*
X177832566Y-51613032D01*
X177807796Y-51608105D01*
X177658496Y-51578408D01*
X177494524Y-51510488D01*
X177346954Y-51411885D01*
X177221455Y-51286386D01*
X177122852Y-51138816D01*
X177054932Y-50974844D01*
X177020308Y-50800773D01*
X177020308Y-50623291D01*
X177023670Y-50606391D01*
X177025235Y-50598520D01*
X177054932Y-50449220D01*
X177122852Y-50285248D01*
X177221455Y-50137678D01*
X177346954Y-50012179D01*
X177494524Y-49913576D01*
X177658496Y-49845656D01*
X177807796Y-49815959D01*
X177832566Y-49811032D01*
X178010050Y-49811032D01*
X178034820Y-49815959D01*
G37*
G36*
X146417512Y-49141927D02*
G01*
X146566812Y-49171624D01*
X146730784Y-49239544D01*
X146878354Y-49338147D01*
X147003853Y-49463646D01*
X147102456Y-49611216D01*
X147170376Y-49775188D01*
X147205000Y-49949259D01*
X147205000Y-50126741D01*
X147170376Y-50300812D01*
X147102456Y-50464784D01*
X147003853Y-50612354D01*
X146878354Y-50737853D01*
X146730784Y-50836456D01*
X146566812Y-50904376D01*
X146417512Y-50934073D01*
X146392742Y-50939000D01*
X146215258Y-50939000D01*
X146190488Y-50934073D01*
X146041188Y-50904376D01*
X145877216Y-50836456D01*
X145729646Y-50737853D01*
X145604147Y-50612354D01*
X145505544Y-50464784D01*
X145437624Y-50300812D01*
X145403000Y-50126741D01*
X145403000Y-49949259D01*
X145437624Y-49775188D01*
X145505544Y-49611216D01*
X145604147Y-49463646D01*
X145729646Y-49338147D01*
X145877216Y-49239544D01*
X146041188Y-49171624D01*
X146190488Y-49141927D01*
X146215258Y-49137000D01*
X146392742Y-49137000D01*
X146417512Y-49141927D01*
G37*
G36*
X143877512Y-49141927D02*
G01*
X144026812Y-49171624D01*
X144190784Y-49239544D01*
X144338354Y-49338147D01*
X144463853Y-49463646D01*
X144562456Y-49611216D01*
X144630376Y-49775188D01*
X144665000Y-49949259D01*
X144665000Y-50126741D01*
X144630376Y-50300812D01*
X144562456Y-50464784D01*
X144463853Y-50612354D01*
X144338354Y-50737853D01*
X144190784Y-50836456D01*
X144026812Y-50904376D01*
X143877512Y-50934073D01*
X143852742Y-50939000D01*
X143675258Y-50939000D01*
X143650488Y-50934073D01*
X143501188Y-50904376D01*
X143337216Y-50836456D01*
X143189646Y-50737853D01*
X143064147Y-50612354D01*
X142965544Y-50464784D01*
X142897624Y-50300812D01*
X142863000Y-50126741D01*
X142863000Y-49949259D01*
X142897624Y-49775188D01*
X142965544Y-49611216D01*
X143064147Y-49463646D01*
X143189646Y-49338147D01*
X143337216Y-49239544D01*
X143501188Y-49171624D01*
X143650488Y-49141927D01*
X143675258Y-49137000D01*
X143852742Y-49137000D01*
X143877512Y-49141927D01*
G37*
G36*
X148957512Y-49141927D02*
G01*
X149106812Y-49171624D01*
X149270784Y-49239544D01*
X149418354Y-49338147D01*
X149543853Y-49463646D01*
X149642456Y-49611216D01*
X149710376Y-49775188D01*
X149745000Y-49949259D01*
X149745000Y-50126741D01*
X149710376Y-50300812D01*
X149642456Y-50464784D01*
X149543853Y-50612354D01*
X149418354Y-50737853D01*
X149270784Y-50836456D01*
X149106812Y-50904376D01*
X148957512Y-50934073D01*
X148932742Y-50939000D01*
X148755258Y-50939000D01*
X148730488Y-50934073D01*
X148581188Y-50904376D01*
X148417216Y-50836456D01*
X148269646Y-50737853D01*
X148144147Y-50612354D01*
X148045544Y-50464784D01*
X147977624Y-50300812D01*
X147943000Y-50126741D01*
X147943000Y-49949259D01*
X147977624Y-49775188D01*
X148045544Y-49611216D01*
X148144147Y-49463646D01*
X148269646Y-49338147D01*
X148417216Y-49239544D01*
X148581188Y-49171624D01*
X148730488Y-49141927D01*
X148755258Y-49137000D01*
X148932742Y-49137000D01*
X148957512Y-49141927D01*
G37*
G36*
X117014166Y-48931911D02*
G01*
X117163466Y-48961608D01*
X117327438Y-49029528D01*
X117475008Y-49128131D01*
X117600507Y-49253630D01*
X117699110Y-49401200D01*
X117767030Y-49565172D01*
X117796727Y-49714472D01*
X117798293Y-49722343D01*
X117801654Y-49739243D01*
X117801654Y-49916725D01*
X117767030Y-50090796D01*
X117699110Y-50254768D01*
X117600507Y-50402338D01*
X117475008Y-50527837D01*
X117327438Y-50626440D01*
X117163466Y-50694360D01*
X117014166Y-50724057D01*
X116989396Y-50728984D01*
X116811912Y-50728984D01*
X116787142Y-50724057D01*
X116637842Y-50694360D01*
X116473870Y-50626440D01*
X116326300Y-50527837D01*
X116200801Y-50402338D01*
X116102198Y-50254768D01*
X116034278Y-50090796D01*
X115999654Y-49916725D01*
X115999654Y-49739243D01*
X116003016Y-49722343D01*
X116004581Y-49714472D01*
X116034278Y-49565172D01*
X116102198Y-49401200D01*
X116200801Y-49253630D01*
X116326300Y-49128131D01*
X116473870Y-49029528D01*
X116637842Y-48961608D01*
X116787142Y-48931911D01*
X116811912Y-48926984D01*
X116989396Y-48926984D01*
X117014166Y-48931911D01*
G37*
G36*
X175688166Y-48843943D02*
G01*
X175837466Y-48873640D01*
X176001438Y-48941560D01*
X176149008Y-49040163D01*
X176274507Y-49165662D01*
X176373110Y-49313232D01*
X176441030Y-49477204D01*
X176470727Y-49626504D01*
X176475654Y-49651274D01*
X176475654Y-49828758D01*
X176470727Y-49853528D01*
X176441030Y-50002828D01*
X176373110Y-50166800D01*
X176274507Y-50314370D01*
X176149008Y-50439869D01*
X176001438Y-50538472D01*
X175837466Y-50606392D01*
X175688166Y-50636089D01*
X175663396Y-50641016D01*
X175485912Y-50641016D01*
X175461142Y-50636089D01*
X175311842Y-50606392D01*
X175147870Y-50538472D01*
X175000300Y-50439869D01*
X174874801Y-50314370D01*
X174776198Y-50166800D01*
X174708278Y-50002828D01*
X174678581Y-49853528D01*
X174673654Y-49828758D01*
X174673654Y-49651274D01*
X174678581Y-49626504D01*
X174708278Y-49477204D01*
X174776198Y-49313232D01*
X174874801Y-49165662D01*
X175000300Y-49040163D01*
X175147870Y-48941560D01*
X175311842Y-48873640D01*
X175461142Y-48843943D01*
X175485912Y-48839016D01*
X175663396Y-48839016D01*
X175688166Y-48843943D01*
G37*
G36*
X174405213Y-48280382D02*
G01*
X173715618Y-49945213D01*
X172050787Y-49255618D01*
X172740382Y-47590787D01*
X174405213Y-48280382D01*
G37*
G36*
X119360820Y-47959895D02*
G01*
X119510120Y-47989592D01*
X119674092Y-48057512D01*
X119821662Y-48156115D01*
X119947161Y-48281614D01*
X120045764Y-48429184D01*
X120113684Y-48593156D01*
X120143381Y-48742456D01*
X120148308Y-48767226D01*
X120148308Y-48944710D01*
X120143381Y-48969480D01*
X120113684Y-49118780D01*
X120045764Y-49282752D01*
X119947161Y-49430322D01*
X119821662Y-49555821D01*
X119674092Y-49654424D01*
X119510120Y-49722344D01*
X119360820Y-49752041D01*
X119336050Y-49756968D01*
X119158566Y-49756968D01*
X119133796Y-49752041D01*
X118984496Y-49722344D01*
X118820524Y-49654424D01*
X118672954Y-49555821D01*
X118547455Y-49430322D01*
X118448852Y-49282752D01*
X118380932Y-49118780D01*
X118351235Y-48969480D01*
X118346308Y-48944710D01*
X118346308Y-48767226D01*
X118351235Y-48742456D01*
X118380932Y-48593156D01*
X118448852Y-48429184D01*
X118547455Y-48281614D01*
X118672954Y-48156115D01*
X118820524Y-48057512D01*
X118984496Y-47989592D01*
X119133796Y-47959895D01*
X119158566Y-47954968D01*
X119336050Y-47954968D01*
X119360820Y-47959895D01*
G37*
G36*
X144665000Y-48399000D02*
G01*
X142863000Y-48399000D01*
X142863000Y-46597000D01*
X144665000Y-46597000D01*
X144665000Y-48399000D01*
G37*
G36*
X146417512Y-46601927D02*
G01*
X146566812Y-46631624D01*
X146730784Y-46699544D01*
X146878354Y-46798147D01*
X147003853Y-46923646D01*
X147102456Y-47071216D01*
X147170376Y-47235188D01*
X147205000Y-47409259D01*
X147205000Y-47586741D01*
X147170376Y-47760812D01*
X147102456Y-47924784D01*
X147003853Y-48072354D01*
X146878354Y-48197853D01*
X146730784Y-48296456D01*
X146566812Y-48364376D01*
X146417512Y-48394073D01*
X146392742Y-48399000D01*
X146215258Y-48399000D01*
X146190488Y-48394073D01*
X146041188Y-48364376D01*
X145877216Y-48296456D01*
X145729646Y-48197853D01*
X145604147Y-48072354D01*
X145505544Y-47924784D01*
X145437624Y-47760812D01*
X145403000Y-47586741D01*
X145403000Y-47409259D01*
X145437624Y-47235188D01*
X145505544Y-47071216D01*
X145604147Y-46923646D01*
X145729646Y-46798147D01*
X145877216Y-46699544D01*
X146041188Y-46631624D01*
X146190488Y-46601927D01*
X146215258Y-46597000D01*
X146392742Y-46597000D01*
X146417512Y-46601927D01*
G37*
G36*
X148957512Y-46601927D02*
G01*
X149106812Y-46631624D01*
X149270784Y-46699544D01*
X149418354Y-46798147D01*
X149543853Y-46923646D01*
X149642456Y-47071216D01*
X149710376Y-47235188D01*
X149745000Y-47409259D01*
X149745000Y-47586741D01*
X149710376Y-47760812D01*
X149642456Y-47924784D01*
X149543853Y-48072354D01*
X149418354Y-48197853D01*
X149270784Y-48296456D01*
X149106812Y-48364376D01*
X148957512Y-48394073D01*
X148932742Y-48399000D01*
X148755258Y-48399000D01*
X148730488Y-48394073D01*
X148581188Y-48364376D01*
X148417216Y-48296456D01*
X148269646Y-48197853D01*
X148144147Y-48072354D01*
X148045544Y-47924784D01*
X147977624Y-47760812D01*
X147943000Y-47586741D01*
X147943000Y-47409259D01*
X147977624Y-47235188D01*
X148045544Y-47071216D01*
X148144147Y-46923646D01*
X148269646Y-46798147D01*
X148417216Y-46699544D01*
X148581188Y-46631624D01*
X148730488Y-46601927D01*
X148755258Y-46597000D01*
X148932742Y-46597000D01*
X148957512Y-46601927D01*
G37*
M02*
