G04 #@! TF.GenerationSoftware,KiCad,Pcbnew,(5.1.5)-3*
G04 #@! TF.CreationDate,2020-02-02T22:15:08+01:00*
G04 #@! TF.ProjectId,12bitbadge,31326269-7462-4616-9467-652e6b696361,rev?*
G04 #@! TF.SameCoordinates,Original*
G04 #@! TF.FileFunction,Copper,L1,Top*
G04 #@! TF.FilePolarity,Positive*
%FSLAX46Y46*%
G04 Gerber Fmt 4.6, Leading zero omitted, Abs format (unit mm)*
G04 Created by KiCad (PCBNEW (5.1.5)-3) date 2020-02-02 22:15:08*
%MOMM*%
%LPD*%
G04 APERTURE LIST*
%ADD10O,1.700000X1.700000*%
%ADD11R,1.700000X1.700000*%
%ADD12R,6.400000X5.800000*%
%ADD13R,2.200000X1.200000*%
%ADD14R,5.800000X6.400000*%
%ADD15R,1.200000X2.200000*%
%ADD16O,1.600000X1.600000*%
%ADD17R,1.600000X1.600000*%
%ADD18C,1.400000*%
%ADD19R,1.400000X1.400000*%
%ADD20C,3.240000*%
%ADD21C,1.800000*%
%ADD22R,1.800000X1.800000*%
%ADD23O,1.400000X1.400000*%
%ADD24C,1.700000*%
%ADD25C,0.100000*%
%ADD26C,1.600000*%
%ADD27O,1.800000X1.070000*%
%ADD28R,1.800000X1.070000*%
%ADD29C,0.800000*%
%ADD30C,0.200000*%
%ADD31C,0.500000*%
G04 APERTURE END LIST*
D10*
X119888000Y-65278000D03*
X117348000Y-65278000D03*
X119888000Y-62738000D03*
X117348000Y-62738000D03*
X119888000Y-60198000D03*
D11*
X117348000Y-60198000D03*
D12*
X116518000Y-72898000D03*
D13*
X122818000Y-70618000D03*
X122818000Y-75178000D03*
D14*
X173736000Y-90356000D03*
D15*
X176016000Y-96656000D03*
X171456000Y-96656000D03*
D14*
X173736000Y-75116000D03*
D15*
X176016000Y-81416000D03*
X171456000Y-81416000D03*
D14*
X173737000Y-59622000D03*
D15*
X176017000Y-65922000D03*
X171457000Y-65922000D03*
D16*
X135382000Y-60706000D03*
X127762000Y-68326000D03*
X135382000Y-63246000D03*
X127762000Y-65786000D03*
X135382000Y-65786000D03*
X127762000Y-63246000D03*
X135382000Y-68326000D03*
D17*
X127762000Y-60706000D03*
D16*
X135382000Y-74676000D03*
X127762000Y-82296000D03*
X135382000Y-77216000D03*
X127762000Y-79756000D03*
X135382000Y-79756000D03*
X127762000Y-77216000D03*
X135382000Y-82296000D03*
D17*
X127762000Y-74676000D03*
D18*
X160276000Y-94916000D03*
X160276000Y-92416000D03*
X160276000Y-89916000D03*
X163576000Y-94916000D03*
X163576000Y-92416000D03*
D19*
X163576000Y-89916000D03*
D18*
X154434000Y-94916000D03*
X154434000Y-92416000D03*
X154434000Y-89916000D03*
X157734000Y-94916000D03*
X157734000Y-92416000D03*
D19*
X157734000Y-89916000D03*
D18*
X148592000Y-94916000D03*
X148592000Y-92416000D03*
X148592000Y-89916000D03*
X151892000Y-94916000D03*
X151892000Y-92416000D03*
D19*
X151892000Y-89916000D03*
D18*
X142750000Y-94916000D03*
X142750000Y-92416000D03*
X142750000Y-89916000D03*
X146050000Y-94916000D03*
X146050000Y-92416000D03*
D19*
X146050000Y-89916000D03*
D18*
X160276000Y-79676000D03*
X160276000Y-77176000D03*
X160276000Y-74676000D03*
X163576000Y-79676000D03*
X163576000Y-77176000D03*
D19*
X163576000Y-74676000D03*
D18*
X154434000Y-79676000D03*
X154434000Y-77176000D03*
X154434000Y-74676000D03*
X157734000Y-79676000D03*
X157734000Y-77176000D03*
D19*
X157734000Y-74676000D03*
D18*
X148592000Y-79676000D03*
X148592000Y-77176000D03*
X148592000Y-74676000D03*
X151892000Y-79676000D03*
X151892000Y-77176000D03*
D19*
X151892000Y-74676000D03*
D18*
X142748000Y-79676000D03*
X142748000Y-77176000D03*
X142748000Y-74676000D03*
X146048000Y-79676000D03*
X146048000Y-77176000D03*
D19*
X146048000Y-74676000D03*
D18*
X160530000Y-64436000D03*
X160530000Y-61936000D03*
X160530000Y-59436000D03*
X163830000Y-64436000D03*
X163830000Y-61936000D03*
D19*
X163830000Y-59436000D03*
D18*
X154434000Y-64436000D03*
X154434000Y-61936000D03*
X154434000Y-59436000D03*
X157734000Y-64436000D03*
X157734000Y-61936000D03*
D19*
X157734000Y-59436000D03*
D18*
X148592000Y-64436000D03*
X148592000Y-61936000D03*
X148592000Y-59436000D03*
X151892000Y-64436000D03*
X151892000Y-61936000D03*
D19*
X151892000Y-59436000D03*
D18*
X142750000Y-64436000D03*
X142750000Y-61936000D03*
X142750000Y-59436000D03*
X146050000Y-64436000D03*
X146050000Y-61936000D03*
D19*
X146050000Y-59436000D03*
D20*
X123458000Y-95130000D03*
X113858000Y-95130000D03*
D21*
X116158000Y-87630000D03*
X118658000Y-87630000D03*
D22*
X121158000Y-87630000D03*
D23*
X116332000Y-83820000D03*
D18*
X121412000Y-83820000D03*
D23*
X121412000Y-81280000D03*
D18*
X116332000Y-81280000D03*
D23*
X116332000Y-78740000D03*
D18*
X121412000Y-78740000D03*
D23*
X179070000Y-90170000D03*
D18*
X179070000Y-95250000D03*
D23*
X179070000Y-80010000D03*
D18*
X179070000Y-74930000D03*
D23*
X179070000Y-64770000D03*
D18*
X179070000Y-59690000D03*
D23*
X166878000Y-89916000D03*
D18*
X166878000Y-94996000D03*
D23*
X162052000Y-98806000D03*
D18*
X167132000Y-98806000D03*
D23*
X154432000Y-98806000D03*
D18*
X159512000Y-98806000D03*
D23*
X146812000Y-98806000D03*
D18*
X151892000Y-98806000D03*
D23*
X139192000Y-98806000D03*
D18*
X144272000Y-98806000D03*
D23*
X167132000Y-86106000D03*
D18*
X162052000Y-86106000D03*
D23*
X159512000Y-86106000D03*
D18*
X154432000Y-86106000D03*
D23*
X151892000Y-86106000D03*
D18*
X146812000Y-86106000D03*
D23*
X144272000Y-86106000D03*
D18*
X139192000Y-86106000D03*
D23*
X167132000Y-79756000D03*
D18*
X167132000Y-74676000D03*
D23*
X162052000Y-83566000D03*
D18*
X167132000Y-83566000D03*
D23*
X154432000Y-83566000D03*
D18*
X159512000Y-83566000D03*
D23*
X146812000Y-83566000D03*
D18*
X151892000Y-83566000D03*
D23*
X139192000Y-83566000D03*
D18*
X144272000Y-83566000D03*
D23*
X167132000Y-70866000D03*
D18*
X162052000Y-70866000D03*
D23*
X154432000Y-70866000D03*
D18*
X159512000Y-70866000D03*
D23*
X151892000Y-70866000D03*
D18*
X146812000Y-70866000D03*
D23*
X144272000Y-70866000D03*
D18*
X139192000Y-70866000D03*
D23*
X167132000Y-64516000D03*
D18*
X167132000Y-59436000D03*
D23*
X162052000Y-68326000D03*
D18*
X167132000Y-68326000D03*
D23*
X154432000Y-68326000D03*
D18*
X159512000Y-68326000D03*
D23*
X146812000Y-68326000D03*
D18*
X151892000Y-68326000D03*
D23*
X144272000Y-68326000D03*
D18*
X139192000Y-68326000D03*
D23*
X167132000Y-55626000D03*
D18*
X162052000Y-55626000D03*
D23*
X159512000Y-55626000D03*
D18*
X154432000Y-55626000D03*
D23*
X151892000Y-55626000D03*
D18*
X146812000Y-55626000D03*
D23*
X144272000Y-55626000D03*
D18*
X139192000Y-55626000D03*
D10*
X135636000Y-98552000D03*
X135636000Y-96012000D03*
X133096000Y-98552000D03*
X133096000Y-96012000D03*
X130556000Y-98552000D03*
D11*
X130556000Y-96012000D03*
D24*
X176949292Y-53058686D02*
X176949292Y-53058686D01*
X177921308Y-50712032D02*
X177921308Y-50712032D01*
X174602638Y-52086670D02*
X174602638Y-52086670D01*
X175574654Y-49740016D02*
X175574654Y-49740016D01*
X172255984Y-51114654D02*
X172255984Y-51114654D01*
G04 #@! TA.AperFunction,ComponentPad*
D25*
G36*
X173688017Y-49878579D02*
G01*
X172117421Y-49228017D01*
X172767983Y-47657421D01*
X174338579Y-48307983D01*
X173688017Y-49878579D01*
G37*
G04 #@! TD.AperFunction*
D10*
X148844000Y-50038000D03*
X148844000Y-47498000D03*
X146304000Y-50038000D03*
X146304000Y-47498000D03*
X143764000Y-50038000D03*
D11*
X143764000Y-47498000D03*
D24*
X120219324Y-51202622D02*
X120219324Y-51202622D01*
X119247308Y-48855968D02*
X119247308Y-48855968D01*
X117872670Y-52174638D02*
X117872670Y-52174638D01*
X116900654Y-49827984D02*
X116900654Y-49827984D01*
X115526016Y-53146654D02*
X115526016Y-53146654D01*
G04 #@! TA.AperFunction,ComponentPad*
D25*
G36*
X115664579Y-51260017D02*
G01*
X114093983Y-51910579D01*
X113443421Y-50339983D01*
X115014017Y-49689421D01*
X115664579Y-51260017D01*
G37*
G04 #@! TD.AperFunction*
D26*
X134620000Y-90424000D03*
X129620000Y-90424000D03*
X129620000Y-87630000D03*
X134620000Y-87630000D03*
D27*
X192532000Y-74041000D03*
X192532000Y-75311000D03*
X192532000Y-76581000D03*
D28*
X192532000Y-77851000D03*
D29*
X116518000Y-72898000D03*
X173482000Y-66294000D03*
X173805000Y-59690000D03*
X173736000Y-75116000D03*
X173736000Y-90356000D03*
D30*
X179070000Y-64770000D02*
X179070000Y-70866000D01*
X182245000Y-74041000D02*
X192532000Y-74041000D01*
X179070000Y-70866000D02*
X182245000Y-74041000D01*
X183769000Y-75311000D02*
X179070000Y-80010000D01*
X192532000Y-75311000D02*
X183769000Y-75311000D01*
D31*
X184201002Y-76581000D02*
X191132000Y-76581000D01*
X191132000Y-76581000D02*
X192532000Y-76581000D01*
X179366002Y-81416000D02*
X184201002Y-76581000D01*
X176016000Y-81416000D02*
X179366002Y-81416000D01*
X143222002Y-60706000D02*
X136513370Y-60706000D01*
X144452002Y-61936000D02*
X143222002Y-60706000D01*
X136513370Y-60706000D02*
X135382000Y-60706000D01*
X146050000Y-61936000D02*
X144452002Y-61936000D01*
X143121999Y-70313999D02*
X143121999Y-72255999D01*
X143719999Y-69715999D02*
X143121999Y-70313999D01*
X144899999Y-63086001D02*
X144899999Y-67251997D01*
X144780000Y-75908000D02*
X146048000Y-77176000D01*
X143121999Y-72255999D02*
X144780000Y-73914000D01*
X146050000Y-61936000D02*
X144899999Y-63086001D01*
X144899999Y-67251997D02*
X145422001Y-67773999D01*
X144780000Y-73914000D02*
X144780000Y-75908000D01*
X144824001Y-69715999D02*
X143719999Y-69715999D01*
X145422001Y-69117999D02*
X144824001Y-69715999D01*
X145422001Y-67773999D02*
X145422001Y-69117999D01*
X175645000Y-66294000D02*
X176017000Y-65922000D01*
X173482000Y-66294000D02*
X175645000Y-66294000D01*
X176017000Y-69337000D02*
X176017000Y-65922000D01*
X180594000Y-73914000D02*
X176017000Y-69337000D01*
X176016000Y-79816000D02*
X178362000Y-77470000D01*
X176016000Y-81416000D02*
X176016000Y-79816000D01*
X180594000Y-76200000D02*
X180594000Y-73914000D01*
X178362000Y-77470000D02*
X179324000Y-77470000D01*
X179324000Y-77470000D02*
X180594000Y-76200000D01*
X174916000Y-96656000D02*
X172748000Y-94488000D01*
X176016000Y-96656000D02*
X174916000Y-96656000D01*
X172748000Y-94488000D02*
X170688000Y-94488000D01*
X170688000Y-94488000D02*
X169926000Y-93726000D01*
X169926000Y-93726000D02*
X169926000Y-86614000D01*
X169926000Y-86614000D02*
X170434000Y-86106000D01*
X176016000Y-83016000D02*
X176016000Y-81416000D01*
X172926000Y-86106000D02*
X176016000Y-83016000D01*
X170434000Y-86106000D02*
X172926000Y-86106000D01*
D30*
X184277000Y-77851000D02*
X192532000Y-77851000D01*
X179070000Y-90170000D02*
X179070000Y-83058000D01*
X179070000Y-83058000D02*
X184277000Y-77851000D01*
X128419999Y-88830001D02*
X128820001Y-88429999D01*
X119858001Y-88830001D02*
X128419999Y-88830001D01*
X128820001Y-88429999D02*
X129620000Y-87630000D01*
X118658000Y-87630000D02*
X119858001Y-88830001D01*
X122936000Y-77216000D02*
X121412000Y-78740000D01*
X127762000Y-77216000D02*
X122936000Y-77216000D01*
X116332000Y-83820000D02*
X121412000Y-78740000D01*
X132842000Y-77216000D02*
X135382000Y-79756000D01*
X127762000Y-77216000D02*
X132842000Y-77216000D01*
X133820001Y-81317999D02*
X135382000Y-79756000D01*
X134620000Y-87630000D02*
X133820001Y-86830001D01*
X133820001Y-86830001D02*
X133820001Y-81317999D01*
X136181999Y-83095999D02*
X135382000Y-82296000D01*
X136181999Y-88862001D02*
X136181999Y-83095999D01*
X134620000Y-90424000D02*
X136181999Y-88862001D01*
D31*
X127762000Y-68326000D02*
X127762000Y-74676000D01*
X122936000Y-68326000D02*
X119888000Y-65278000D01*
X127762000Y-68326000D02*
X122936000Y-68326000D01*
X119968000Y-83820000D02*
X121412000Y-83820000D01*
X116158000Y-87630000D02*
X119968000Y-83820000D01*
X127660002Y-83820000D02*
X122401949Y-83820000D01*
X130870001Y-87029999D02*
X127660002Y-83820000D01*
X130870001Y-89173999D02*
X130870001Y-87029999D01*
X122401949Y-83820000D02*
X121412000Y-83820000D01*
X129620000Y-90424000D02*
X130870001Y-89173999D01*
X134112002Y-92416000D02*
X142750000Y-92416000D01*
X130870001Y-89173999D02*
X134112002Y-92416000D01*
X128820001Y-91223999D02*
X129620000Y-90424000D01*
X128820001Y-96816001D02*
X128820001Y-91223999D01*
X130556000Y-98552000D02*
X128820001Y-96816001D01*
X128561999Y-69125999D02*
X127762000Y-68326000D01*
X129012001Y-69576001D02*
X128561999Y-69125999D01*
X135982001Y-69576001D02*
X129012001Y-69576001D01*
X138041999Y-67516003D02*
X135982001Y-69576001D01*
X138041999Y-66644001D02*
X138041999Y-67516003D01*
X142750000Y-61936000D02*
X138041999Y-66644001D01*
X142914001Y-50887999D02*
X143764000Y-50038000D01*
X140327361Y-53474639D02*
X142914001Y-50887999D01*
X117056082Y-53474639D02*
X140327361Y-53474639D01*
X116728097Y-53146654D02*
X117056082Y-53474639D01*
X115526016Y-53146654D02*
X116728097Y-53146654D01*
X171405985Y-51964653D02*
X172255984Y-51114654D01*
X145690653Y-51964653D02*
X171405985Y-51964653D01*
X143764000Y-50038000D02*
X145690653Y-51964653D01*
X179070000Y-59690000D02*
X173805000Y-59690000D01*
X173737000Y-59622000D02*
X173805000Y-59690000D01*
X173922000Y-74930000D02*
X173736000Y-75116000D01*
X179070000Y-74930000D02*
X173922000Y-74930000D01*
X174176000Y-90356000D02*
X173736000Y-90356000D01*
X179070000Y-95250000D02*
X174176000Y-90356000D01*
X117321949Y-78740000D02*
X116332000Y-78740000D01*
X122818000Y-71718000D02*
X120650000Y-73886000D01*
X122818000Y-70618000D02*
X122818000Y-71718000D01*
X120650000Y-73886000D02*
X120650000Y-76454000D01*
X120650000Y-76454000D02*
X118364000Y-78740000D01*
X118364000Y-78740000D02*
X117321949Y-78740000D01*
D30*
X163830000Y-65024000D02*
X163830000Y-64436000D01*
X167132000Y-68326000D02*
X163830000Y-65024000D01*
X161530001Y-60436001D02*
X161229999Y-60135999D01*
X163810003Y-60436001D02*
X161530001Y-60436001D01*
X164830001Y-61455999D02*
X163810003Y-60436001D01*
X164830001Y-63435999D02*
X164830001Y-61455999D01*
X161229999Y-60135999D02*
X160530000Y-59436000D01*
X163830000Y-64436000D02*
X164830001Y-63435999D01*
X160530000Y-57148000D02*
X160530000Y-59436000D01*
X162052000Y-55626000D02*
X160530000Y-57148000D01*
X126119999Y-61348001D02*
X126762000Y-60706000D01*
X118737999Y-62185999D02*
X119575997Y-61348001D01*
X119575997Y-61348001D02*
X126119999Y-61348001D01*
X117348000Y-65278000D02*
X118737999Y-63888001D01*
X118737999Y-63888001D02*
X118737999Y-62185999D01*
X126762000Y-60706000D02*
X127762000Y-60706000D01*
X121090081Y-62738000D02*
X121852081Y-61976000D01*
X119888000Y-62738000D02*
X121090081Y-62738000D01*
X129032000Y-61976000D02*
X135382000Y-68326000D01*
X121852081Y-61976000D02*
X129032000Y-61976000D01*
X133604000Y-63246000D02*
X135382000Y-63246000D01*
X116197999Y-61587999D02*
X116197999Y-59107999D01*
X117348000Y-62738000D02*
X116197999Y-61587999D01*
X117139998Y-58166000D02*
X128524000Y-58166000D01*
X116197999Y-59107999D02*
X117139998Y-58166000D01*
X128524000Y-58166000D02*
X133604000Y-63246000D01*
X117348000Y-59148000D02*
X117698009Y-58797991D01*
X117348000Y-60198000D02*
X117348000Y-59148000D01*
X135382000Y-65786000D02*
X128400009Y-58804009D01*
X117698009Y-58797991D02*
X128400009Y-58797991D01*
X128400009Y-58804009D02*
X128400009Y-58797991D01*
X170657000Y-65922000D02*
X171457000Y-65922000D01*
X167132000Y-62397000D02*
X170657000Y-65922000D01*
X167132000Y-59436000D02*
X167132000Y-62397000D01*
X170656000Y-81416000D02*
X171456000Y-81416000D01*
X167132000Y-77892000D02*
X170656000Y-81416000D01*
X167132000Y-74676000D02*
X167132000Y-77892000D01*
X168538000Y-96656000D02*
X171456000Y-96656000D01*
X166878000Y-94996000D02*
X168538000Y-96656000D01*
X122818000Y-75678000D02*
X122555974Y-75678000D01*
X122555974Y-75678000D02*
X116953974Y-81280000D01*
X122818000Y-75178000D02*
X122318000Y-75178000D01*
X116953974Y-81280000D02*
X116332000Y-81280000D01*
X122318000Y-75178000D02*
X122818000Y-75678000D01*
X146050000Y-57404000D02*
X144272000Y-55626000D01*
X146050000Y-59436000D02*
X146050000Y-57404000D01*
X147039949Y-64436000D02*
X148539948Y-62936001D01*
X146050000Y-64436000D02*
X147039949Y-64436000D01*
X151192001Y-62635999D02*
X151892000Y-61936000D01*
X148539948Y-62936001D02*
X150891999Y-62936001D01*
X150891999Y-62936001D02*
X151192001Y-62635999D01*
X139891999Y-54926001D02*
X139192000Y-55626000D01*
X145272001Y-55566003D02*
X145272001Y-55145999D01*
X147050001Y-59374003D02*
X147050001Y-57344003D01*
X145272001Y-55145999D02*
X144752001Y-54625999D01*
X148111999Y-60436001D02*
X147050001Y-59374003D01*
X140192001Y-54625999D02*
X139891999Y-54926001D01*
X147050001Y-57344003D02*
X145272001Y-55566003D01*
X149402052Y-60436001D02*
X148111999Y-60436001D01*
X144752001Y-54625999D02*
X140192001Y-54625999D01*
X150902051Y-61936000D02*
X149402052Y-60436001D01*
X151892000Y-61936000D02*
X150902051Y-61936000D01*
X151892000Y-58536000D02*
X151892000Y-55626000D01*
X151892000Y-59436000D02*
X151892000Y-58536000D01*
X157034001Y-62635999D02*
X157734000Y-61936000D01*
X153999698Y-62936001D02*
X156733999Y-62936001D01*
X153199698Y-63736001D02*
X153999698Y-62936001D01*
X156733999Y-62936001D02*
X157034001Y-62635999D01*
X152591999Y-63736001D02*
X153199698Y-63736001D01*
X151892000Y-64436000D02*
X152591999Y-63736001D01*
X156733999Y-60935999D02*
X157034001Y-61236001D01*
X157034001Y-61236001D02*
X157734000Y-61936000D01*
X154453997Y-60935999D02*
X156733999Y-60935999D01*
X152372001Y-54625999D02*
X153431999Y-55685997D01*
X153431999Y-59914001D02*
X154453997Y-60935999D01*
X147812001Y-54625999D02*
X152372001Y-54625999D01*
X153431999Y-55685997D02*
X153431999Y-59914001D01*
X146812000Y-55626000D02*
X147812001Y-54625999D01*
X157734000Y-57404000D02*
X159512000Y-55626000D01*
X157734000Y-59436000D02*
X157734000Y-57404000D01*
X163130001Y-62635999D02*
X163830000Y-61936000D01*
X162829999Y-62936001D02*
X163130001Y-62635999D01*
X160223948Y-62936001D02*
X162829999Y-62936001D01*
X158723949Y-64436000D02*
X160223948Y-62936001D01*
X157734000Y-64436000D02*
X158723949Y-64436000D01*
X159992001Y-54625999D02*
X155432001Y-54625999D01*
X160512001Y-55145999D02*
X159992001Y-54625999D01*
X155432001Y-54625999D02*
X155131999Y-54926001D01*
X160512001Y-56106001D02*
X160512001Y-55145999D01*
X159529993Y-59915994D02*
X159529993Y-57088009D01*
X160049999Y-60436001D02*
X159529993Y-59915994D01*
X155131999Y-54926001D02*
X154432000Y-55626000D01*
X160964302Y-60436001D02*
X160049999Y-60436001D01*
X162464301Y-61936000D02*
X160964302Y-60436001D01*
X159529993Y-57088009D02*
X160512001Y-56106001D01*
X163830000Y-61936000D02*
X162464301Y-61936000D01*
X167132000Y-56615949D02*
X167132000Y-55626000D01*
X167132000Y-57034000D02*
X167132000Y-56615949D01*
X164730000Y-59436000D02*
X167132000Y-57034000D01*
X163830000Y-59436000D02*
X164730000Y-59436000D01*
X144272000Y-65958000D02*
X142750000Y-64436000D01*
X144272000Y-68326000D02*
X144272000Y-65958000D01*
X143449999Y-60135999D02*
X142750000Y-59436000D01*
X146102052Y-60436001D02*
X143750001Y-60436001D01*
X147602051Y-61936000D02*
X146102052Y-60436001D01*
X143750001Y-60436001D02*
X143449999Y-60135999D01*
X148592000Y-61936000D02*
X147602051Y-61936000D01*
X146812000Y-66216000D02*
X148592000Y-64436000D01*
X146812000Y-68326000D02*
X146812000Y-66216000D01*
X153734001Y-62635999D02*
X154434000Y-61936000D01*
X153433999Y-62936001D02*
X153734001Y-62635999D01*
X151911997Y-62936001D02*
X153433999Y-62936001D01*
X150891999Y-63955999D02*
X151911997Y-62936001D01*
X150891999Y-67325999D02*
X150891999Y-63955999D01*
X151892000Y-68326000D02*
X150891999Y-67325999D01*
X151081948Y-60935999D02*
X153433999Y-60935999D01*
X153433999Y-60935999D02*
X153734001Y-61236001D01*
X149581949Y-59436000D02*
X151081948Y-60935999D01*
X153734001Y-61236001D02*
X154434000Y-61936000D01*
X148592000Y-59436000D02*
X149581949Y-59436000D01*
X154432000Y-64438000D02*
X154434000Y-64436000D01*
X154432000Y-68326000D02*
X154432000Y-64438000D01*
X155133999Y-60135999D02*
X154434000Y-59436000D01*
X158040052Y-60436001D02*
X155434001Y-60436001D01*
X159540051Y-61936000D02*
X158040052Y-60436001D01*
X155434001Y-60436001D02*
X155133999Y-60135999D01*
X160530000Y-61936000D02*
X159540051Y-61936000D01*
X156733999Y-63955999D02*
X157753997Y-62936001D01*
X159830001Y-62635999D02*
X160530000Y-61936000D01*
X159529999Y-62936001D02*
X159830001Y-62635999D01*
X156733999Y-66537948D02*
X156733999Y-63955999D01*
X157753997Y-62936001D02*
X159529999Y-62936001D01*
X158522051Y-68326000D02*
X156733999Y-66537948D01*
X159512000Y-68326000D02*
X158522051Y-68326000D01*
X162052000Y-65958000D02*
X160530000Y-64436000D01*
X162052000Y-68326000D02*
X162052000Y-65958000D01*
X146048000Y-72642000D02*
X144272000Y-70866000D01*
X146048000Y-74676000D02*
X146048000Y-72642000D01*
X149606000Y-76476001D02*
X151192001Y-76476001D01*
X149305998Y-76175999D02*
X149606000Y-76476001D01*
X146048000Y-78686051D02*
X147591999Y-77142052D01*
X146048000Y-79676000D02*
X146048000Y-78686051D01*
X147591999Y-77142052D02*
X147591999Y-76695999D01*
X151192001Y-76476001D02*
X151892000Y-77176000D01*
X148111999Y-76175999D02*
X149305998Y-76175999D01*
X147574000Y-76708000D02*
X148111999Y-76175999D01*
X147591999Y-76695999D02*
X147574000Y-76708000D01*
X140181949Y-70866000D02*
X139192000Y-70866000D01*
X143748001Y-74195999D02*
X140418002Y-70866000D01*
X143748001Y-75653831D02*
X143748001Y-74195999D01*
X140418002Y-70866000D02*
X140181949Y-70866000D01*
X145047999Y-76953829D02*
X143748001Y-75653831D01*
X145047999Y-78675999D02*
X145047999Y-76953829D01*
X146048000Y-79676000D02*
X145047999Y-78675999D01*
X151892000Y-74676000D02*
X151892000Y-70866000D01*
X156733999Y-76175999D02*
X157034001Y-76476001D01*
X153953999Y-76175999D02*
X156733999Y-76175999D01*
X157034001Y-76476001D02*
X157734000Y-77176000D01*
X153433999Y-76695999D02*
X153953999Y-76175999D01*
X153433999Y-78134001D02*
X153433999Y-76695999D01*
X151892000Y-79676000D02*
X153433999Y-78134001D01*
X147511999Y-70166001D02*
X146812000Y-70866000D01*
X147812001Y-69865999D02*
X147511999Y-70166001D01*
X152372001Y-69865999D02*
X147812001Y-69865999D01*
X152892001Y-70385999D02*
X152372001Y-69865999D01*
X152892001Y-74914001D02*
X152892001Y-70385999D01*
X153953999Y-75975999D02*
X152892001Y-74914001D01*
X153953999Y-76175999D02*
X153953999Y-75975999D01*
X154432000Y-72274000D02*
X154432000Y-71855949D01*
X154432000Y-71855949D02*
X154432000Y-70866000D01*
X156834000Y-74676000D02*
X154432000Y-72274000D01*
X157734000Y-74676000D02*
X156834000Y-74676000D01*
X162876001Y-77875999D02*
X163576000Y-77176000D01*
X162076001Y-78675999D02*
X162876001Y-77875999D01*
X158734001Y-78675999D02*
X162076001Y-78675999D01*
X157734000Y-79676000D02*
X158734001Y-78675999D01*
X158812001Y-71565999D02*
X159512000Y-70866000D01*
X158812001Y-74692003D02*
X158812001Y-71565999D01*
X160196009Y-76076011D02*
X158812001Y-74692003D01*
X161486062Y-76076011D02*
X160196009Y-76076011D01*
X162586051Y-77176000D02*
X161486062Y-76076011D01*
X163576000Y-77176000D02*
X162586051Y-77176000D01*
X167132000Y-71855949D02*
X167132000Y-70866000D01*
X167132000Y-72020000D02*
X167132000Y-71855949D01*
X164476000Y-74676000D02*
X167132000Y-72020000D01*
X163576000Y-74676000D02*
X164476000Y-74676000D01*
X163576000Y-80010000D02*
X163576000Y-79676000D01*
X167132000Y-83566000D02*
X163576000Y-80010000D01*
X161276001Y-75676001D02*
X160975999Y-75375999D01*
X164576001Y-76695999D02*
X163556003Y-75676001D01*
X160975999Y-75375999D02*
X160276000Y-74676000D01*
X164576001Y-79665948D02*
X164576001Y-76695999D01*
X164565949Y-79676000D02*
X164576001Y-79665948D01*
X163556003Y-75676001D02*
X161276001Y-75676001D01*
X163576000Y-79676000D02*
X164565949Y-79676000D01*
X160276000Y-72642000D02*
X162052000Y-70866000D01*
X160276000Y-74676000D02*
X160276000Y-72642000D01*
X142748000Y-80010000D02*
X142748000Y-79676000D01*
X139192000Y-83566000D02*
X142748000Y-80010000D01*
X147591999Y-78176001D02*
X147892001Y-77875999D01*
X147591999Y-79612003D02*
X147591999Y-78176001D01*
X144272000Y-82932002D02*
X147591999Y-79612003D01*
X147892001Y-77875999D02*
X148592000Y-77176000D01*
X144272000Y-83566000D02*
X144272000Y-82932002D01*
X144272000Y-76962000D02*
X144272000Y-83566000D01*
X142748000Y-74676000D02*
X142748000Y-75438000D01*
X142748000Y-75438000D02*
X144272000Y-76962000D01*
X146812000Y-81456000D02*
X148592000Y-79676000D01*
X146812000Y-83566000D02*
X146812000Y-81456000D01*
X154434000Y-78165949D02*
X154434000Y-77176000D01*
X153433999Y-79165950D02*
X154434000Y-78165949D01*
X153433999Y-81034052D02*
X153433999Y-79165950D01*
X151892000Y-82576051D02*
X153433999Y-81034052D01*
X151892000Y-83566000D02*
X151892000Y-82576051D01*
X152892001Y-76695999D02*
X152142002Y-75946000D01*
X150891999Y-82565999D02*
X150891999Y-78696001D01*
X149862000Y-75946000D02*
X149291999Y-75375999D01*
X151892000Y-83566000D02*
X150891999Y-82565999D01*
X151411999Y-78176001D02*
X152372001Y-78176001D01*
X149291999Y-75375999D02*
X148592000Y-74676000D01*
X152142002Y-75946000D02*
X149862000Y-75946000D01*
X152892001Y-77656001D02*
X152892001Y-76695999D01*
X150891999Y-78696001D02*
X151411999Y-78176001D01*
X152372001Y-78176001D02*
X152892001Y-77656001D01*
X154432000Y-79678000D02*
X154434000Y-79676000D01*
X154432000Y-83566000D02*
X154432000Y-79678000D01*
X159275999Y-78176001D02*
X159576001Y-77875999D01*
X159576001Y-77875999D02*
X160276000Y-77176000D01*
X156733999Y-78724001D02*
X157281999Y-78176001D01*
X157281999Y-78176001D02*
X159275999Y-78176001D01*
X156733999Y-81777948D02*
X156733999Y-78724001D01*
X158522051Y-83566000D02*
X156733999Y-81777948D01*
X159512000Y-83566000D02*
X158522051Y-83566000D01*
X155133999Y-75375999D02*
X154434000Y-74676000D01*
X155434001Y-75676001D02*
X155133999Y-75375999D01*
X159214002Y-77176000D02*
X157714003Y-75676001D01*
X157714003Y-75676001D02*
X155434001Y-75676001D01*
X160276000Y-77176000D02*
X159214002Y-77176000D01*
X154434000Y-74676000D02*
X154432000Y-74676000D01*
X160276000Y-81790000D02*
X162052000Y-83566000D01*
X160276000Y-79676000D02*
X160276000Y-81790000D01*
X145150000Y-89916000D02*
X146050000Y-89916000D01*
X144272000Y-89038000D02*
X145150000Y-89916000D01*
X144272000Y-86106000D02*
X144272000Y-89038000D01*
X150836000Y-93472000D02*
X151892000Y-92416000D01*
X146050000Y-94916000D02*
X147494000Y-93472000D01*
X147494000Y-93472000D02*
X150836000Y-93472000D01*
X140181949Y-86106000D02*
X139192000Y-86106000D01*
X143750001Y-89556003D02*
X143750001Y-89435999D01*
X143750001Y-89435999D02*
X140420002Y-86106000D01*
X145109999Y-90916001D02*
X143750001Y-89556003D01*
X149402052Y-90916001D02*
X145109999Y-90916001D01*
X140420002Y-86106000D02*
X140181949Y-86106000D01*
X150902051Y-92416000D02*
X149402052Y-90916001D01*
X151892000Y-92416000D02*
X150902051Y-92416000D01*
X151892000Y-87095949D02*
X151892000Y-89916000D01*
X151892000Y-86106000D02*
X151892000Y-87095949D01*
X152591999Y-94216001D02*
X151892000Y-94916000D01*
X153391999Y-93416001D02*
X152591999Y-94216001D01*
X156733999Y-93416001D02*
X153391999Y-93416001D01*
X157734000Y-92416000D02*
X156733999Y-93416001D01*
X156733999Y-91415999D02*
X157034001Y-91716001D01*
X154453997Y-91415999D02*
X156733999Y-91415999D01*
X153431999Y-90394001D02*
X154453997Y-91415999D01*
X153431999Y-86165997D02*
X153431999Y-90394001D01*
X152372001Y-85105999D02*
X153431999Y-86165997D01*
X157034001Y-91716001D02*
X157734000Y-92416000D01*
X148801950Y-85105999D02*
X152372001Y-85105999D01*
X147801949Y-86106000D02*
X148801950Y-85105999D01*
X146812000Y-86106000D02*
X147801949Y-86106000D01*
X157734000Y-87884000D02*
X159512000Y-86106000D01*
X157734000Y-89916000D02*
X157734000Y-87884000D01*
X158734001Y-93915999D02*
X158433999Y-94216001D01*
X158433999Y-94216001D02*
X157734000Y-94916000D01*
X162586051Y-92416000D02*
X161086052Y-93915999D01*
X161086052Y-93915999D02*
X158734001Y-93915999D01*
X163576000Y-92416000D02*
X162586051Y-92416000D01*
X159258000Y-90424000D02*
X160249999Y-91415999D01*
X159258000Y-88334302D02*
X159258000Y-90424000D01*
X160528000Y-87064302D02*
X159258000Y-88334302D01*
X160528000Y-85641998D02*
X160528000Y-87064302D01*
X159992001Y-85105999D02*
X160528000Y-85641998D01*
X162575999Y-91415999D02*
X162876001Y-91716001D01*
X160249999Y-91415999D02*
X162575999Y-91415999D01*
X158031998Y-86106000D02*
X159031999Y-85105999D01*
X162876001Y-91716001D02*
X163576000Y-92416000D01*
X159031999Y-85105999D02*
X159992001Y-85105999D01*
X154432000Y-86106000D02*
X158031998Y-86106000D01*
X167132000Y-87095949D02*
X167132000Y-86106000D01*
X167132000Y-87260000D02*
X167132000Y-87095949D01*
X164476000Y-89916000D02*
X167132000Y-87260000D01*
X163576000Y-89916000D02*
X164476000Y-89916000D01*
X163576000Y-95250000D02*
X163576000Y-94916000D01*
X167132000Y-98806000D02*
X163576000Y-95250000D01*
X160276000Y-87882000D02*
X162052000Y-86106000D01*
X160276000Y-89916000D02*
X160276000Y-87882000D01*
X161276001Y-90916001D02*
X160975999Y-90615999D01*
X163556003Y-90916001D02*
X161276001Y-90916001D01*
X164576001Y-91935999D02*
X163556003Y-90916001D01*
X160975999Y-90615999D02*
X160276000Y-89916000D01*
X164576001Y-93915999D02*
X164576001Y-91935999D01*
X163576000Y-94916000D02*
X164576001Y-93915999D01*
X142750000Y-95248000D02*
X142750000Y-94916000D01*
X139192000Y-98806000D02*
X142750000Y-95248000D01*
X144272000Y-97816051D02*
X144272000Y-98806000D01*
X144272000Y-95213998D02*
X144272000Y-97816051D01*
X145569999Y-93915999D02*
X144272000Y-95213998D01*
X146102052Y-93915999D02*
X145569999Y-93915999D01*
X147602051Y-92416000D02*
X146102052Y-93915999D01*
X148592000Y-92416000D02*
X147602051Y-92416000D01*
X144272000Y-91438000D02*
X144272000Y-98806000D01*
X142750000Y-89916000D02*
X144272000Y-91438000D01*
X146812000Y-96696000D02*
X148592000Y-94916000D01*
X146812000Y-98806000D02*
X146812000Y-96696000D01*
X152444050Y-93416001D02*
X153444051Y-92416000D01*
X151693999Y-93416001D02*
X152444050Y-93416001D01*
X150891999Y-94218001D02*
X151693999Y-93416001D01*
X153444051Y-92416000D02*
X154434000Y-92416000D01*
X150891999Y-96816050D02*
X150891999Y-94218001D01*
X151892000Y-97816051D02*
X150891999Y-96816050D01*
X151892000Y-98806000D02*
X151892000Y-97816051D01*
X149581949Y-89916000D02*
X151081948Y-91415999D01*
X152444050Y-91415999D02*
X153444051Y-92416000D01*
X151081948Y-91415999D02*
X152444050Y-91415999D01*
X148592000Y-89916000D02*
X149581949Y-89916000D01*
X154432000Y-94918000D02*
X154434000Y-94916000D01*
X154432000Y-98806000D02*
X154432000Y-94918000D01*
X159576001Y-93115999D02*
X160276000Y-92416000D01*
X159275999Y-93416001D02*
X159576001Y-93115999D01*
X157753997Y-93416001D02*
X159275999Y-93416001D01*
X156733999Y-96027999D02*
X156733999Y-94435999D01*
X156733999Y-94435999D02*
X157753997Y-93416001D01*
X159512000Y-98806000D02*
X156733999Y-96027999D01*
X158776001Y-90916001D02*
X159576001Y-91716001D01*
X155434001Y-90916001D02*
X158776001Y-90916001D01*
X159576001Y-91716001D02*
X160276000Y-92416000D01*
X154434000Y-89916000D02*
X155434001Y-90916001D01*
X162052000Y-96692000D02*
X160276000Y-94916000D01*
X162052000Y-98806000D02*
X162052000Y-96692000D01*
X122936000Y-79756000D02*
X127762000Y-79756000D01*
X121412000Y-81280000D02*
X122936000Y-79756000D01*
M02*
