G04 #@! TF.GenerationSoftware,KiCad,Pcbnew,(5.1.5)-3*
G04 #@! TF.CreationDate,2020-02-02T22:15:08+01:00*
G04 #@! TF.ProjectId,12bitbadge,31326269-7462-4616-9467-652e6b696361,rev?*
G04 #@! TF.SameCoordinates,Original*
G04 #@! TF.FileFunction,Legend,Top*
G04 #@! TF.FilePolarity,Positive*
%FSLAX46Y46*%
G04 Gerber Fmt 4.6, Leading zero omitted, Abs format (unit mm)*
G04 Created by KiCad (PCBNEW (5.1.5)-3) date 2020-02-02 22:15:08*
%MOMM*%
%LPD*%
G04 APERTURE LIST*
%ADD10C,0.120000*%
G04 APERTURE END LIST*
D10*
X196602229Y-65709725D02*
G75*
G03X196602229Y-65709725I-1878829J0D01*
G01*
X199177515Y-66621035D02*
G75*
G03X199177515Y-66621035I-1878829J0D01*
G01*
X201429186Y-68167825D02*
G75*
G03X201429186Y-68167825I-1878829J0D01*
G01*
X203203794Y-70244686D02*
G75*
G03X203203794Y-70244686I-1878829J0D01*
G01*
X204380404Y-72710082D02*
G75*
G03X204380404Y-72710082I-1878830J0D01*
G01*
X204878829Y-75396000D02*
G75*
G03X204878829Y-75396000I-1878829J0D01*
G01*
X204665104Y-78119400D02*
G75*
G03X204665104Y-78119400I-1878829J0D01*
G01*
X203753794Y-80694686D02*
G75*
G03X203753794Y-80694686I-1878829J0D01*
G01*
X202207004Y-82946357D02*
G75*
G03X202207004Y-82946357I-1878829J0D01*
G01*
X200130143Y-84720965D02*
G75*
G03X200130143Y-84720965I-1878829J0D01*
G01*
X197664748Y-85897574D02*
G75*
G03X197664748Y-85897574I-1878830J0D01*
G01*
X194978829Y-86396000D02*
G75*
G03X194978829Y-86396000I-1878829J0D01*
G01*
X192255429Y-86182275D02*
G75*
G03X192255429Y-86182275I-1878829J0D01*
G01*
X189680143Y-85270965D02*
G75*
G03X189680143Y-85270965I-1878829J0D01*
G01*
X187428472Y-83724175D02*
G75*
G03X187428472Y-83724175I-1878829J0D01*
G01*
X185653864Y-81647314D02*
G75*
G03X185653864Y-81647314I-1878829J0D01*
G01*
X184477256Y-79181918D02*
G75*
G03X184477256Y-79181918I-1878830J0D01*
G01*
X183978829Y-76496000D02*
G75*
G03X183978829Y-76496000I-1878829J0D01*
G01*
X184192554Y-73772600D02*
G75*
G03X184192554Y-73772600I-1878829J0D01*
G01*
X185103864Y-71197314D02*
G75*
G03X185103864Y-71197314I-1878829J0D01*
G01*
X186650654Y-68945643D02*
G75*
G03X186650654Y-68945643I-1878829J0D01*
G01*
X188727515Y-67171035D02*
G75*
G03X188727515Y-67171035I-1878829J0D01*
G01*
X191192912Y-65994426D02*
G75*
G03X191192912Y-65994426I-1878830J0D01*
G01*
X193763822Y-67464551D02*
G75*
G03X193763822Y-67464551I-2150581J0D01*
G01*
X195990902Y-67511098D02*
G75*
G03X195990902Y-67511098I-2150581J0D01*
G01*
X198130049Y-68132470D02*
G75*
G03X198130049Y-68132470I-2150581J0D01*
G01*
X200035483Y-69286321D02*
G75*
G03X200035483Y-69286321I-2150581J0D01*
G01*
X201577352Y-70894019D02*
G75*
G03X201577352Y-70894019I-2150581J0D01*
G01*
X202650581Y-72846000D02*
G75*
G03X202650581Y-72846000I-2150581J0D01*
G01*
X203182030Y-75009241D02*
G75*
G03X203182030Y-75009241I-2150581J0D01*
G01*
X203135483Y-77236321D02*
G75*
G03X203135483Y-77236321I-2150581J0D01*
G01*
X202514111Y-79375468D02*
G75*
G03X202514111Y-79375468I-2150581J0D01*
G01*
X201360260Y-81280902D02*
G75*
G03X201360260Y-81280902I-2150581J0D01*
G01*
X199752562Y-82822771D02*
G75*
G03X199752562Y-82822771I-2150581J0D01*
G01*
X197800581Y-83896000D02*
G75*
G03X197800581Y-83896000I-2150581J0D01*
G01*
X195637340Y-84427449D02*
G75*
G03X195637340Y-84427449I-2150581J0D01*
G01*
X193410260Y-84380902D02*
G75*
G03X193410260Y-84380902I-2150581J0D01*
G01*
X191271113Y-83759530D02*
G75*
G03X191271113Y-83759530I-2150581J0D01*
G01*
X189365679Y-82605679D02*
G75*
G03X189365679Y-82605679I-2150581J0D01*
G01*
X187823810Y-80997981D02*
G75*
G03X187823810Y-80997981I-2150581J0D01*
G01*
X186750581Y-79046000D02*
G75*
G03X186750581Y-79046000I-2150581J0D01*
G01*
X186219132Y-76882759D02*
G75*
G03X186219132Y-76882759I-2150581J0D01*
G01*
X186265679Y-74655679D02*
G75*
G03X186265679Y-74655679I-2150581J0D01*
G01*
X186887051Y-72516532D02*
G75*
G03X186887051Y-72516532I-2150581J0D01*
G01*
X188040902Y-70611098D02*
G75*
G03X188040902Y-70611098I-2150581J0D01*
G01*
X189648600Y-69069229D02*
G75*
G03X189648600Y-69069229I-2150581J0D01*
G01*
X191600581Y-67996000D02*
G75*
G03X191600581Y-67996000I-2150581J0D01*
G01*
X193878829Y-65496000D02*
G75*
G03X193878829Y-65496000I-1878829J0D01*
G01*
X116018000Y-58868000D02*
X117348000Y-58868000D01*
X116018000Y-60198000D02*
X116018000Y-58868000D01*
X118618000Y-58868000D02*
X121218000Y-58868000D01*
X118618000Y-61468000D02*
X118618000Y-58868000D01*
X116018000Y-61468000D02*
X118618000Y-61468000D01*
X121218000Y-58868000D02*
X121218000Y-66608000D01*
X116018000Y-61468000D02*
X116018000Y-66608000D01*
X116018000Y-66608000D02*
X121218000Y-66608000D01*
X121088000Y-69718000D02*
X122188000Y-69718000D01*
X121088000Y-69448000D02*
X121088000Y-69718000D01*
X119588000Y-69448000D02*
X121088000Y-69448000D01*
X121088000Y-76078000D02*
X123918000Y-76078000D01*
X121088000Y-76348000D02*
X121088000Y-76078000D01*
X119588000Y-76348000D02*
X121088000Y-76348000D01*
X176916000Y-94926000D02*
X176916000Y-96026000D01*
X177186000Y-94926000D02*
X176916000Y-94926000D01*
X177186000Y-93426000D02*
X177186000Y-94926000D01*
X170556000Y-94926000D02*
X170556000Y-97756000D01*
X170286000Y-94926000D02*
X170556000Y-94926000D01*
X170286000Y-93426000D02*
X170286000Y-94926000D01*
X176916000Y-79686000D02*
X176916000Y-80786000D01*
X177186000Y-79686000D02*
X176916000Y-79686000D01*
X177186000Y-78186000D02*
X177186000Y-79686000D01*
X170556000Y-79686000D02*
X170556000Y-82516000D01*
X170286000Y-79686000D02*
X170556000Y-79686000D01*
X170286000Y-78186000D02*
X170286000Y-79686000D01*
X176917000Y-64192000D02*
X176917000Y-65292000D01*
X177187000Y-64192000D02*
X176917000Y-64192000D01*
X177187000Y-62692000D02*
X177187000Y-64192000D01*
X170557000Y-64192000D02*
X170557000Y-67022000D01*
X170287000Y-64192000D02*
X170557000Y-64192000D01*
X170287000Y-62692000D02*
X170287000Y-64192000D01*
X134222000Y-59376000D02*
X132572000Y-59376000D01*
X134222000Y-69656000D02*
X134222000Y-59376000D01*
X128922000Y-69656000D02*
X134222000Y-69656000D01*
X128922000Y-59376000D02*
X128922000Y-69656000D01*
X130572000Y-59376000D02*
X128922000Y-59376000D01*
X132572000Y-59376000D02*
G75*
G02X130572000Y-59376000I-1000000J0D01*
G01*
X134222000Y-73346000D02*
X132572000Y-73346000D01*
X134222000Y-83626000D02*
X134222000Y-73346000D01*
X128922000Y-83626000D02*
X134222000Y-83626000D01*
X128922000Y-73346000D02*
X128922000Y-83626000D01*
X130572000Y-73346000D02*
X128922000Y-73346000D01*
X132572000Y-73346000D02*
G75*
G02X130572000Y-73346000I-1000000J0D01*
G01*
X164026000Y-89016000D02*
X164026000Y-87816000D01*
X164026000Y-87816000D02*
X159826000Y-87816000D01*
X159826000Y-87816000D02*
X159826000Y-89016000D01*
X164026000Y-95816000D02*
X164026000Y-97016000D01*
X164026000Y-97016000D02*
X159826000Y-97016000D01*
X159826000Y-97016000D02*
X159826000Y-95816000D01*
X164326000Y-88716000D02*
X164326000Y-87516000D01*
X164326000Y-87516000D02*
X163126000Y-87516000D01*
X158184000Y-89016000D02*
X158184000Y-87816000D01*
X158184000Y-87816000D02*
X153984000Y-87816000D01*
X153984000Y-87816000D02*
X153984000Y-89016000D01*
X158184000Y-95816000D02*
X158184000Y-97016000D01*
X158184000Y-97016000D02*
X153984000Y-97016000D01*
X153984000Y-97016000D02*
X153984000Y-95816000D01*
X158484000Y-88716000D02*
X158484000Y-87516000D01*
X158484000Y-87516000D02*
X157284000Y-87516000D01*
X152342000Y-89016000D02*
X152342000Y-87816000D01*
X152342000Y-87816000D02*
X148142000Y-87816000D01*
X148142000Y-87816000D02*
X148142000Y-89016000D01*
X152342000Y-95816000D02*
X152342000Y-97016000D01*
X152342000Y-97016000D02*
X148142000Y-97016000D01*
X148142000Y-97016000D02*
X148142000Y-95816000D01*
X152642000Y-88716000D02*
X152642000Y-87516000D01*
X152642000Y-87516000D02*
X151442000Y-87516000D01*
X146500000Y-89016000D02*
X146500000Y-87816000D01*
X146500000Y-87816000D02*
X142300000Y-87816000D01*
X142300000Y-87816000D02*
X142300000Y-89016000D01*
X146500000Y-95816000D02*
X146500000Y-97016000D01*
X146500000Y-97016000D02*
X142300000Y-97016000D01*
X142300000Y-97016000D02*
X142300000Y-95816000D01*
X146800000Y-88716000D02*
X146800000Y-87516000D01*
X146800000Y-87516000D02*
X145600000Y-87516000D01*
X164026000Y-73776000D02*
X164026000Y-72576000D01*
X164026000Y-72576000D02*
X159826000Y-72576000D01*
X159826000Y-72576000D02*
X159826000Y-73776000D01*
X164026000Y-80576000D02*
X164026000Y-81776000D01*
X164026000Y-81776000D02*
X159826000Y-81776000D01*
X159826000Y-81776000D02*
X159826000Y-80576000D01*
X164326000Y-73476000D02*
X164326000Y-72276000D01*
X164326000Y-72276000D02*
X163126000Y-72276000D01*
X158184000Y-73776000D02*
X158184000Y-72576000D01*
X158184000Y-72576000D02*
X153984000Y-72576000D01*
X153984000Y-72576000D02*
X153984000Y-73776000D01*
X158184000Y-80576000D02*
X158184000Y-81776000D01*
X158184000Y-81776000D02*
X153984000Y-81776000D01*
X153984000Y-81776000D02*
X153984000Y-80576000D01*
X158484000Y-73476000D02*
X158484000Y-72276000D01*
X158484000Y-72276000D02*
X157284000Y-72276000D01*
X152342000Y-73776000D02*
X152342000Y-72576000D01*
X152342000Y-72576000D02*
X148142000Y-72576000D01*
X148142000Y-72576000D02*
X148142000Y-73776000D01*
X152342000Y-80576000D02*
X152342000Y-81776000D01*
X152342000Y-81776000D02*
X148142000Y-81776000D01*
X148142000Y-81776000D02*
X148142000Y-80576000D01*
X152642000Y-73476000D02*
X152642000Y-72276000D01*
X152642000Y-72276000D02*
X151442000Y-72276000D01*
X146498000Y-73776000D02*
X146498000Y-72576000D01*
X146498000Y-72576000D02*
X142298000Y-72576000D01*
X142298000Y-72576000D02*
X142298000Y-73776000D01*
X146498000Y-80576000D02*
X146498000Y-81776000D01*
X146498000Y-81776000D02*
X142298000Y-81776000D01*
X142298000Y-81776000D02*
X142298000Y-80576000D01*
X146798000Y-73476000D02*
X146798000Y-72276000D01*
X146798000Y-72276000D02*
X145598000Y-72276000D01*
X164280000Y-58536000D02*
X164280000Y-57336000D01*
X164280000Y-57336000D02*
X160080000Y-57336000D01*
X160080000Y-57336000D02*
X160080000Y-58536000D01*
X164280000Y-65336000D02*
X164280000Y-66536000D01*
X164280000Y-66536000D02*
X160080000Y-66536000D01*
X160080000Y-66536000D02*
X160080000Y-65336000D01*
X164580000Y-58236000D02*
X164580000Y-57036000D01*
X164580000Y-57036000D02*
X163380000Y-57036000D01*
X158184000Y-58536000D02*
X158184000Y-57336000D01*
X158184000Y-57336000D02*
X153984000Y-57336000D01*
X153984000Y-57336000D02*
X153984000Y-58536000D01*
X158184000Y-65336000D02*
X158184000Y-66536000D01*
X158184000Y-66536000D02*
X153984000Y-66536000D01*
X153984000Y-66536000D02*
X153984000Y-65336000D01*
X158484000Y-58236000D02*
X158484000Y-57036000D01*
X158484000Y-57036000D02*
X157284000Y-57036000D01*
X152342000Y-58536000D02*
X152342000Y-57336000D01*
X152342000Y-57336000D02*
X148142000Y-57336000D01*
X148142000Y-57336000D02*
X148142000Y-58536000D01*
X152342000Y-65336000D02*
X152342000Y-66536000D01*
X152342000Y-66536000D02*
X148142000Y-66536000D01*
X148142000Y-66536000D02*
X148142000Y-65336000D01*
X152642000Y-58236000D02*
X152642000Y-57036000D01*
X152642000Y-57036000D02*
X151442000Y-57036000D01*
X146500000Y-58536000D02*
X146500000Y-57336000D01*
X146500000Y-57336000D02*
X142300000Y-57336000D01*
X142300000Y-57336000D02*
X142300000Y-58536000D01*
X146500000Y-65336000D02*
X146500000Y-66536000D01*
X146500000Y-66536000D02*
X142300000Y-66536000D01*
X142300000Y-66536000D02*
X142300000Y-65336000D01*
X146800000Y-58236000D02*
X146800000Y-57036000D01*
X146800000Y-57036000D02*
X145600000Y-57036000D01*
X116998000Y-88510000D02*
X117828000Y-88510000D01*
X119448000Y-88510000D02*
X119978000Y-88510000D01*
X122348000Y-88510000D02*
X123528000Y-88510000D01*
X113788000Y-88510000D02*
X113788000Y-93230000D01*
X123528000Y-97040000D02*
X123528000Y-100100000D01*
X123538000Y-88510000D02*
X123538000Y-93230000D01*
X113788000Y-97040000D02*
X113788000Y-100100000D01*
X113788000Y-88510000D02*
X115278000Y-88510000D01*
X113788000Y-100100000D02*
X123528000Y-100100000D01*
X120792000Y-82900000D02*
X116952000Y-82900000D01*
X120792000Y-84740000D02*
X116952000Y-84740000D01*
X116952000Y-82200000D02*
X120792000Y-82200000D01*
X116952000Y-80360000D02*
X120792000Y-80360000D01*
X120792000Y-77820000D02*
X116952000Y-77820000D01*
X120792000Y-79660000D02*
X116952000Y-79660000D01*
X179990000Y-94630000D02*
X179990000Y-90790000D01*
X178150000Y-94630000D02*
X178150000Y-90790000D01*
X178150000Y-75550000D02*
X178150000Y-79390000D01*
X179990000Y-75550000D02*
X179990000Y-79390000D01*
X178150000Y-60310000D02*
X178150000Y-64150000D01*
X179990000Y-60310000D02*
X179990000Y-64150000D01*
X167798000Y-94376000D02*
X167798000Y-90536000D01*
X165958000Y-94376000D02*
X165958000Y-90536000D01*
X166512000Y-97886000D02*
X162672000Y-97886000D01*
X166512000Y-99726000D02*
X162672000Y-99726000D01*
X158892000Y-97886000D02*
X155052000Y-97886000D01*
X158892000Y-99726000D02*
X155052000Y-99726000D01*
X151272000Y-97886000D02*
X147432000Y-97886000D01*
X151272000Y-99726000D02*
X147432000Y-99726000D01*
X143652000Y-97886000D02*
X139812000Y-97886000D01*
X143652000Y-99726000D02*
X139812000Y-99726000D01*
X162672000Y-87026000D02*
X166512000Y-87026000D01*
X162672000Y-85186000D02*
X166512000Y-85186000D01*
X155052000Y-87026000D02*
X158892000Y-87026000D01*
X155052000Y-85186000D02*
X158892000Y-85186000D01*
X147432000Y-87026000D02*
X151272000Y-87026000D01*
X147432000Y-85186000D02*
X151272000Y-85186000D01*
X139812000Y-87026000D02*
X143652000Y-87026000D01*
X139812000Y-85186000D02*
X143652000Y-85186000D01*
X166212000Y-75296000D02*
X166212000Y-79136000D01*
X168052000Y-75296000D02*
X168052000Y-79136000D01*
X166512000Y-82646000D02*
X162672000Y-82646000D01*
X166512000Y-84486000D02*
X162672000Y-84486000D01*
X158892000Y-82646000D02*
X155052000Y-82646000D01*
X158892000Y-84486000D02*
X155052000Y-84486000D01*
X151272000Y-82646000D02*
X147432000Y-82646000D01*
X151272000Y-84486000D02*
X147432000Y-84486000D01*
X143652000Y-82646000D02*
X139812000Y-82646000D01*
X143652000Y-84486000D02*
X139812000Y-84486000D01*
X162672000Y-71786000D02*
X166512000Y-71786000D01*
X162672000Y-69946000D02*
X166512000Y-69946000D01*
X158892000Y-69946000D02*
X155052000Y-69946000D01*
X158892000Y-71786000D02*
X155052000Y-71786000D01*
X147432000Y-71786000D02*
X151272000Y-71786000D01*
X147432000Y-69946000D02*
X151272000Y-69946000D01*
X139812000Y-71786000D02*
X143652000Y-71786000D01*
X139812000Y-69946000D02*
X143652000Y-69946000D01*
X166212000Y-60056000D02*
X166212000Y-63896000D01*
X168052000Y-60056000D02*
X168052000Y-63896000D01*
X166512000Y-67406000D02*
X162672000Y-67406000D01*
X166512000Y-69246000D02*
X162672000Y-69246000D01*
X158892000Y-67406000D02*
X155052000Y-67406000D01*
X158892000Y-69246000D02*
X155052000Y-69246000D01*
X151272000Y-67406000D02*
X147432000Y-67406000D01*
X151272000Y-69246000D02*
X147432000Y-69246000D01*
X139812000Y-69246000D02*
X143652000Y-69246000D01*
X139812000Y-67406000D02*
X143652000Y-67406000D01*
X162672000Y-56546000D02*
X166512000Y-56546000D01*
X162672000Y-54706000D02*
X166512000Y-54706000D01*
X155052000Y-56546000D02*
X158892000Y-56546000D01*
X155052000Y-54706000D02*
X158892000Y-54706000D01*
X147432000Y-56546000D02*
X151272000Y-56546000D01*
X147432000Y-54706000D02*
X151272000Y-54706000D01*
X139812000Y-56546000D02*
X143652000Y-56546000D01*
X139812000Y-54706000D02*
X143652000Y-54706000D01*
X171999240Y-48259031D02*
X172508209Y-47030271D01*
X172508209Y-47030271D02*
X173736969Y-47539240D01*
X171513232Y-49432358D02*
X173915319Y-50427335D01*
X173915319Y-50427335D02*
X174910296Y-48025248D01*
X174910296Y-48025248D02*
X179659037Y-49992241D01*
X177669083Y-54796415D02*
X179659037Y-49992241D01*
X170518255Y-51834445D02*
X177669083Y-54796415D01*
X170518255Y-51834445D02*
X171513232Y-49432358D01*
X142434000Y-47498000D02*
X142434000Y-46168000D01*
X142434000Y-46168000D02*
X143764000Y-46168000D01*
X142434000Y-48768000D02*
X145034000Y-48768000D01*
X145034000Y-48768000D02*
X145034000Y-46168000D01*
X145034000Y-46168000D02*
X150174000Y-46168000D01*
X150174000Y-51368000D02*
X150174000Y-46168000D01*
X142434000Y-51368000D02*
X150174000Y-51368000D01*
X142434000Y-51368000D02*
X142434000Y-48768000D01*
X113325240Y-51308969D02*
X112816271Y-50080209D01*
X112816271Y-50080209D02*
X114045031Y-49571240D01*
X113811248Y-52482296D02*
X116213335Y-51487319D01*
X116213335Y-51487319D02*
X115218358Y-49085232D01*
X115218358Y-49085232D02*
X119967099Y-47118239D01*
X121957053Y-51922413D02*
X119967099Y-47118239D01*
X114806225Y-54884383D02*
X121957053Y-51922413D01*
X114806225Y-54884383D02*
X113811248Y-52482296D01*
X134390000Y-91479000D02*
X134390000Y-91494000D01*
X134390000Y-89354000D02*
X134390000Y-89369000D01*
X129850000Y-91479000D02*
X129850000Y-91494000D01*
X129850000Y-89354000D02*
X129850000Y-89369000D01*
X129850000Y-91494000D02*
X134390000Y-91494000D01*
X129850000Y-89354000D02*
X134390000Y-89354000D01*
X129850000Y-86575000D02*
X129850000Y-86560000D01*
X129850000Y-88700000D02*
X129850000Y-88685000D01*
X134390000Y-86575000D02*
X134390000Y-86560000D01*
X134390000Y-88700000D02*
X134390000Y-88685000D01*
X134390000Y-86560000D02*
X129850000Y-86560000D01*
X134390000Y-88700000D02*
X129850000Y-88700000D01*
X193612000Y-78506000D02*
X194077000Y-78506000D01*
X190987000Y-78506000D02*
X191452000Y-78506000D01*
X193612429Y-73691521D02*
G75*
G02X193612000Y-78200684I-1080429J-2254479D01*
G01*
X191451571Y-73691521D02*
G75*
G03X191452000Y-78200684I1080429J-2254479D01*
G01*
X193612827Y-73158185D02*
G75*
G02X194076830Y-78506000I-1080827J-2787815D01*
G01*
X191451173Y-73158185D02*
G75*
G03X190987170Y-78506000I1080827J-2787815D01*
G01*
M02*
