M48
; DRILL file {KiCad (5.1.5)-3} date 2/2/2020 10:15:12 PM
; FORMAT={-:-/ absolute / metric / decimal}
; #@! TF.CreationDate,2020-02-02T22:15:12+01:00
; #@! TF.GenerationSoftware,Kicad,Pcbnew,(5.1.5)-3
FMAT,2
METRIC
T1C0.400
T2C0.700
T3C0.800
T4C0.900
T5C1.000
T6C1.800
%
G90
G05
T1
X116.518Y-72.898
X173.482Y-66.294
X173.736Y-75.116
X173.736Y-90.356
X173.805Y-59.69
T2
X139.192Y-55.626
X144.272Y-55.626
X167.132Y-59.436
X167.132Y-64.516
X154.432Y-68.326
X159.512Y-68.326
X154.432Y-98.806
X159.512Y-98.806
X146.812Y-68.326
X151.892Y-68.326
X139.192Y-68.326
X144.272Y-68.326
X162.052Y-86.106
X167.132Y-86.106
X179.07Y-74.93
X179.07Y-80.01
X154.432Y-70.866
X159.512Y-70.866
X162.052Y-70.866
X167.132Y-70.866
X139.192Y-98.806
X144.272Y-98.806
X146.812Y-55.626
X151.892Y-55.626
X162.052Y-68.326
X167.132Y-68.326
X167.132Y-74.676
X167.132Y-79.756
X139.192Y-83.566
X144.272Y-83.566
X116.332Y-83.82
X121.412Y-83.82
X146.812Y-98.806
X151.892Y-98.806
X179.07Y-90.17
X179.07Y-95.25
X139.192Y-70.866
X144.272Y-70.866
X139.192Y-86.106
X144.272Y-86.106
X154.432Y-86.106
X159.512Y-86.106
X162.052Y-98.806
X167.132Y-98.806
X116.332Y-78.74
X121.412Y-78.74
X154.432Y-55.626
X159.512Y-55.626
X146.812Y-83.566
X151.892Y-83.566
X162.052Y-55.626
X167.132Y-55.626
X154.432Y-83.566
X159.512Y-83.566
X166.878Y-89.916
X166.878Y-94.996
X179.07Y-59.69
X179.07Y-64.77
X116.332Y-81.28
X121.412Y-81.28
X162.052Y-83.566
X167.132Y-83.566
X146.812Y-70.866
X151.892Y-70.866
X146.812Y-86.106
X151.892Y-86.106
T3
X127.762Y-60.706
X127.762Y-63.246
X127.762Y-65.786
X127.762Y-68.326
X135.382Y-60.706
X135.382Y-63.246
X135.382Y-65.786
X135.382Y-68.326
X129.62Y-87.63
X134.62Y-87.63
X127.762Y-74.676
X127.762Y-77.216
X127.762Y-79.756
X127.762Y-82.296
X135.382Y-74.676
X135.382Y-77.216
X135.382Y-79.756
X135.382Y-82.296
X129.62Y-90.424
X134.62Y-90.424
T4
X142.75Y-59.436
X142.75Y-61.936
X142.75Y-64.436
X146.05Y-59.436
X146.05Y-61.936
X146.05Y-64.436
X154.434Y-59.436
X154.434Y-61.936
X154.434Y-64.436
X157.734Y-59.436
X157.734Y-61.936
X157.734Y-64.436
X160.53Y-59.436
X160.53Y-61.936
X160.53Y-64.436
X163.83Y-59.436
X163.83Y-61.936
X163.83Y-64.436
X154.434Y-74.676
X154.434Y-77.176
X154.434Y-79.676
X157.734Y-74.676
X157.734Y-77.176
X157.734Y-79.676
X154.434Y-89.916
X154.434Y-92.416
X154.434Y-94.916
X157.734Y-89.916
X157.734Y-92.416
X157.734Y-94.916
X148.592Y-89.916
X148.592Y-92.416
X148.592Y-94.916
X151.892Y-89.916
X151.892Y-92.416
X151.892Y-94.916
X160.276Y-89.916
X160.276Y-92.416
X160.276Y-94.916
X163.576Y-89.916
X163.576Y-92.416
X163.576Y-94.916
X192.532Y-74.041
X192.532Y-75.311
X192.532Y-76.581
X192.532Y-77.851
X160.276Y-74.676
X160.276Y-77.176
X160.276Y-79.676
X163.576Y-74.676
X163.576Y-77.176
X163.576Y-79.676
X148.592Y-59.436
X148.592Y-61.936
X148.592Y-64.436
X151.892Y-59.436
X151.892Y-61.936
X151.892Y-64.436
X148.592Y-74.676
X148.592Y-77.176
X148.592Y-79.676
X151.892Y-74.676
X151.892Y-77.176
X151.892Y-79.676
X142.748Y-74.676
X142.748Y-77.176
X142.748Y-79.676
X146.048Y-74.676
X146.048Y-77.176
X146.048Y-79.676
X142.75Y-89.916
X142.75Y-92.416
X142.75Y-94.916
X146.05Y-89.916
X146.05Y-92.416
X146.05Y-94.916
T5
X143.764Y-47.498
X143.764Y-50.038
X146.304Y-47.498
X146.304Y-50.038
X148.844Y-47.498
X148.844Y-50.038
X172.256Y-51.115
X173.228Y-48.768
X174.603Y-52.087
X175.575Y-49.74
X176.949Y-53.059
X177.921Y-50.712
X116.158Y-87.63
X118.658Y-87.63
X121.158Y-87.63
X117.348Y-60.198
X117.348Y-62.738
X117.348Y-65.278
X119.888Y-60.198
X119.888Y-62.738
X119.888Y-65.278
X130.556Y-96.012
X130.556Y-98.552
X133.096Y-96.012
X133.096Y-98.552
X135.636Y-96.012
X135.636Y-98.552
X114.554Y-50.8
X115.526Y-53.147
X116.901Y-49.828
X117.873Y-52.175
X119.247Y-48.856
X120.219Y-51.203
T6
X113.858Y-95.13
X123.458Y-95.13
T0
M30
