M48
; DRILL file {KiCad (5.1.5)-3} date 2/2/2020 2:59:42 PM
; FORMAT={-:-/ absolute / metric / decimal}
; #@! TF.CreationDate,2020-02-02T14:59:42+01:00
; #@! TF.GenerationSoftware,Kicad,Pcbnew,(5.1.5)-3
FMAT,2
METRIC
T1C0.400
T2C0.900
T3C1.000
T4C0.700
%
G90
G05
T1
X158.496Y-43.434
X162.56Y-44.411
X171.958Y-45.339
X177.85Y-64.55
X178.1Y-76.95
X180.848Y-57.277
X180.975Y-70.104
X180.975Y-82.55
X182.35Y-78.7
X182.753Y-53.594
X182.753Y-66.421
X183.365Y-76.962
X183.769Y-42.799
X184.1Y-51.6
X184.494Y-64.256
X186.05Y-77.75
X186.85Y-51.9
X186.85Y-64.95
X188.2Y-82.9
X189.865Y-57.404
X189.992Y-70.104
T2
X173.23Y-50.8
X173.23Y-53.3
X173.23Y-55.8
X176.53Y-50.8
X176.53Y-53.3
X176.53Y-55.8
X160.53Y-50.8
X160.53Y-53.3
X160.53Y-55.8
X163.83Y-50.8
X163.83Y-53.3
X163.83Y-55.8
X166.88Y-76.2
X166.88Y-78.7
X166.88Y-81.2
X170.18Y-76.2
X170.18Y-78.7
X170.18Y-81.2
X154.18Y-76.2
X154.18Y-78.7
X154.18Y-81.2
X157.48Y-76.2
X157.48Y-78.7
X157.48Y-81.2
X166.88Y-63.5
X166.88Y-66.0
X166.88Y-68.5
X170.18Y-63.5
X170.18Y-66.0
X170.18Y-68.5
X154.18Y-63.5
X154.18Y-66.0
X154.18Y-68.5
X157.48Y-63.5
X157.48Y-66.0
X157.48Y-68.5
X160.53Y-76.2
X160.53Y-78.7
X160.53Y-81.2
X163.83Y-76.2
X163.83Y-78.7
X163.83Y-81.2
X173.23Y-63.5
X173.23Y-66.0
X173.23Y-68.5
X176.53Y-63.5
X176.53Y-66.0
X176.53Y-68.5
X173.23Y-76.2
X173.23Y-78.7
X173.23Y-81.2
X176.53Y-76.2
X176.53Y-78.7
X176.53Y-81.2
X160.53Y-63.5
X160.53Y-66.0
X160.53Y-68.5
X163.83Y-63.5
X163.83Y-66.0
X163.83Y-68.5
X166.88Y-50.8
X166.88Y-53.3
X166.88Y-55.8
X170.18Y-50.8
X170.18Y-53.3
X170.18Y-55.8
X141.732Y-61.595
X141.732Y-62.865
X141.732Y-64.135
X141.732Y-65.405
X154.18Y-50.8
X154.18Y-53.3
X154.18Y-55.8
X157.48Y-50.8
X157.48Y-53.3
X157.48Y-55.8
T3
X168.275Y-38.1
X168.275Y-40.64
X170.815Y-38.1
X170.815Y-40.64
X173.355Y-38.1
X173.355Y-40.64
X184.321Y-40.447
X185.293Y-38.1
X186.668Y-41.419
X187.64Y-39.072
X189.014Y-42.391
X189.986Y-40.044
X152.256Y-39.646
X153.228Y-41.993
X154.603Y-38.674
X155.575Y-41.021
X156.95Y-37.702
X157.922Y-40.049
X168.402Y-86.233
X168.402Y-88.773
X170.942Y-86.233
X170.942Y-88.773
X173.482Y-86.233
X173.482Y-88.773
T4
X189.611Y-49.022
X189.611Y-50.292
X189.611Y-51.562
X189.611Y-52.832
X189.611Y-54.102
X189.611Y-74.676
X189.611Y-75.946
X189.611Y-77.216
X189.611Y-78.486
X189.611Y-79.756
X189.611Y-61.976
X189.611Y-63.246
X189.611Y-64.516
X189.611Y-65.786
X189.611Y-67.056
T0
M30
