G04 #@! TF.GenerationSoftware,KiCad,Pcbnew,(5.1.5)-3*
G04 #@! TF.CreationDate,2020-01-25T10:46:39+01:00*
G04 #@! TF.ProjectId,12bitbadge,31326269-7462-4616-9467-652e6b696361,rev?*
G04 #@! TF.SameCoordinates,Original*
G04 #@! TF.FileFunction,Legend,Top*
G04 #@! TF.FilePolarity,Positive*
%FSLAX46Y46*%
G04 Gerber Fmt 4.6, Leading zero omitted, Abs format (unit mm)*
G04 Created by KiCad (PCBNEW (5.1.5)-3) date 2020-01-25 10:46:39*
%MOMM*%
%LPD*%
G04 APERTURE LIST*
%ADD10C,0.120000*%
%ADD11C,0.100000*%
%ADD12C,0.150000*%
G04 APERTURE END LIST*
D10*
X187432000Y-75352000D02*
X184982000Y-75352000D01*
X185632000Y-78572000D02*
X187432000Y-78572000D01*
X181950000Y-75352000D02*
X179000000Y-75352000D01*
X180150000Y-78572000D02*
X181950000Y-78572000D01*
X187632000Y-62906000D02*
X185182000Y-62906000D01*
X185832000Y-66126000D02*
X187632000Y-66126000D01*
X182200000Y-62890000D02*
X179250000Y-62890000D01*
X180400000Y-66110000D02*
X182200000Y-66110000D01*
X187700000Y-49952000D02*
X185250000Y-49952000D01*
X185900000Y-53172000D02*
X187700000Y-53172000D01*
X182350000Y-49952000D02*
X179400000Y-49952000D01*
X180550000Y-53172000D02*
X182350000Y-53172000D01*
X148929752Y-65838000D02*
X148407248Y-65838000D01*
X148929752Y-67258000D02*
X148407248Y-67258000D01*
X148851252Y-62663000D02*
X148328748Y-62663000D01*
X148851252Y-64083000D02*
X148328748Y-64083000D01*
X148851252Y-59615000D02*
X148328748Y-59615000D01*
X148851252Y-61035000D02*
X148328748Y-61035000D01*
X179760000Y-82048752D02*
X179760000Y-81526248D01*
X178340000Y-82048752D02*
X178340000Y-81526248D01*
X174744748Y-73354000D02*
X175267252Y-73354000D01*
X174744748Y-71934000D02*
X175267252Y-71934000D01*
X168394748Y-73354000D02*
X168917252Y-73354000D01*
X168394748Y-71934000D02*
X168917252Y-71934000D01*
X162044748Y-73354000D02*
X162567252Y-73354000D01*
X162044748Y-71934000D02*
X162567252Y-71934000D01*
X155694748Y-73354000D02*
X156217252Y-73354000D01*
X155694748Y-71934000D02*
X156217252Y-71934000D01*
X179710000Y-69361252D02*
X179710000Y-68838748D01*
X178290000Y-69361252D02*
X178290000Y-68838748D01*
X174744748Y-60654000D02*
X175267252Y-60654000D01*
X174744748Y-59234000D02*
X175267252Y-59234000D01*
X168394748Y-60654000D02*
X168917252Y-60654000D01*
X168394748Y-59234000D02*
X168917252Y-59234000D01*
X162044748Y-60654000D02*
X162567252Y-60654000D01*
X162044748Y-59234000D02*
X162567252Y-59234000D01*
X155694748Y-60654000D02*
X156217252Y-60654000D01*
X155694748Y-59234000D02*
X156217252Y-59234000D01*
X179760000Y-56649252D02*
X179760000Y-56126748D01*
X178340000Y-56649252D02*
X178340000Y-56126748D01*
X174744748Y-47954000D02*
X175267252Y-47954000D01*
X174744748Y-46534000D02*
X175267252Y-46534000D01*
X168394748Y-47954000D02*
X168917252Y-47954000D01*
X168394748Y-46534000D02*
X168917252Y-46534000D01*
X162044748Y-47954000D02*
X162567252Y-47954000D01*
X162044748Y-46534000D02*
X162567252Y-46534000D01*
X155694748Y-47954000D02*
X156217252Y-47954000D01*
X155694748Y-46534000D02*
X156217252Y-46534000D01*
X176980000Y-75300000D02*
X176980000Y-74100000D01*
X176980000Y-74100000D02*
X172780000Y-74100000D01*
X172780000Y-74100000D02*
X172780000Y-75300000D01*
X176980000Y-82100000D02*
X176980000Y-83300000D01*
X176980000Y-83300000D02*
X172780000Y-83300000D01*
X172780000Y-83300000D02*
X172780000Y-82100000D01*
X177280000Y-75000000D02*
X177280000Y-73800000D01*
X177280000Y-73800000D02*
X176080000Y-73800000D01*
X170630000Y-75300000D02*
X170630000Y-74100000D01*
X170630000Y-74100000D02*
X166430000Y-74100000D01*
X166430000Y-74100000D02*
X166430000Y-75300000D01*
X170630000Y-82100000D02*
X170630000Y-83300000D01*
X170630000Y-83300000D02*
X166430000Y-83300000D01*
X166430000Y-83300000D02*
X166430000Y-82100000D01*
X170930000Y-75000000D02*
X170930000Y-73800000D01*
X170930000Y-73800000D02*
X169730000Y-73800000D01*
X164280000Y-75300000D02*
X164280000Y-74100000D01*
X164280000Y-74100000D02*
X160080000Y-74100000D01*
X160080000Y-74100000D02*
X160080000Y-75300000D01*
X164280000Y-82100000D02*
X164280000Y-83300000D01*
X164280000Y-83300000D02*
X160080000Y-83300000D01*
X160080000Y-83300000D02*
X160080000Y-82100000D01*
X164580000Y-75000000D02*
X164580000Y-73800000D01*
X164580000Y-73800000D02*
X163380000Y-73800000D01*
X157930000Y-75300000D02*
X157930000Y-74100000D01*
X157930000Y-74100000D02*
X153730000Y-74100000D01*
X153730000Y-74100000D02*
X153730000Y-75300000D01*
X157930000Y-82100000D02*
X157930000Y-83300000D01*
X157930000Y-83300000D02*
X153730000Y-83300000D01*
X153730000Y-83300000D02*
X153730000Y-82100000D01*
X158230000Y-75000000D02*
X158230000Y-73800000D01*
X158230000Y-73800000D02*
X157030000Y-73800000D01*
X176980000Y-62600000D02*
X176980000Y-61400000D01*
X176980000Y-61400000D02*
X172780000Y-61400000D01*
X172780000Y-61400000D02*
X172780000Y-62600000D01*
X176980000Y-69400000D02*
X176980000Y-70600000D01*
X176980000Y-70600000D02*
X172780000Y-70600000D01*
X172780000Y-70600000D02*
X172780000Y-69400000D01*
X177280000Y-62300000D02*
X177280000Y-61100000D01*
X177280000Y-61100000D02*
X176080000Y-61100000D01*
X170630000Y-62600000D02*
X170630000Y-61400000D01*
X170630000Y-61400000D02*
X166430000Y-61400000D01*
X166430000Y-61400000D02*
X166430000Y-62600000D01*
X170630000Y-69400000D02*
X170630000Y-70600000D01*
X170630000Y-70600000D02*
X166430000Y-70600000D01*
X166430000Y-70600000D02*
X166430000Y-69400000D01*
X170930000Y-62300000D02*
X170930000Y-61100000D01*
X170930000Y-61100000D02*
X169730000Y-61100000D01*
X164280000Y-62600000D02*
X164280000Y-61400000D01*
X164280000Y-61400000D02*
X160080000Y-61400000D01*
X160080000Y-61400000D02*
X160080000Y-62600000D01*
X164280000Y-69400000D02*
X164280000Y-70600000D01*
X164280000Y-70600000D02*
X160080000Y-70600000D01*
X160080000Y-70600000D02*
X160080000Y-69400000D01*
X164580000Y-62300000D02*
X164580000Y-61100000D01*
X164580000Y-61100000D02*
X163380000Y-61100000D01*
X157930000Y-62600000D02*
X157930000Y-61400000D01*
X157930000Y-61400000D02*
X153730000Y-61400000D01*
X153730000Y-61400000D02*
X153730000Y-62600000D01*
X157930000Y-69400000D02*
X157930000Y-70600000D01*
X157930000Y-70600000D02*
X153730000Y-70600000D01*
X153730000Y-70600000D02*
X153730000Y-69400000D01*
X158230000Y-62300000D02*
X158230000Y-61100000D01*
X158230000Y-61100000D02*
X157030000Y-61100000D01*
X176980000Y-49900000D02*
X176980000Y-48700000D01*
X176980000Y-48700000D02*
X172780000Y-48700000D01*
X172780000Y-48700000D02*
X172780000Y-49900000D01*
X176980000Y-56700000D02*
X176980000Y-57900000D01*
X176980000Y-57900000D02*
X172780000Y-57900000D01*
X172780000Y-57900000D02*
X172780000Y-56700000D01*
X177280000Y-49600000D02*
X177280000Y-48400000D01*
X177280000Y-48400000D02*
X176080000Y-48400000D01*
X170630000Y-49900000D02*
X170630000Y-48700000D01*
X170630000Y-48700000D02*
X166430000Y-48700000D01*
X166430000Y-48700000D02*
X166430000Y-49900000D01*
X170630000Y-56700000D02*
X170630000Y-57900000D01*
X170630000Y-57900000D02*
X166430000Y-57900000D01*
X166430000Y-57900000D02*
X166430000Y-56700000D01*
X170930000Y-49600000D02*
X170930000Y-48400000D01*
X170930000Y-48400000D02*
X169730000Y-48400000D01*
X164280000Y-49900000D02*
X164280000Y-48700000D01*
X164280000Y-48700000D02*
X160080000Y-48700000D01*
X160080000Y-48700000D02*
X160080000Y-49900000D01*
X164280000Y-56700000D02*
X164280000Y-57900000D01*
X164280000Y-57900000D02*
X160080000Y-57900000D01*
X160080000Y-57900000D02*
X160080000Y-56700000D01*
X164580000Y-49600000D02*
X164580000Y-48400000D01*
X164580000Y-48400000D02*
X163380000Y-48400000D01*
X157930000Y-49900000D02*
X157930000Y-48700000D01*
X157930000Y-48700000D02*
X153730000Y-48700000D01*
X153730000Y-48700000D02*
X153730000Y-49900000D01*
X157930000Y-56700000D02*
X157930000Y-57900000D01*
X157930000Y-57900000D02*
X153730000Y-57900000D01*
X153730000Y-57900000D02*
X153730000Y-56700000D01*
X158230000Y-49600000D02*
X158230000Y-48400000D01*
X158230000Y-48400000D02*
X157030000Y-48400000D01*
X184064240Y-37591031D02*
X184573209Y-36362271D01*
X184573209Y-36362271D02*
X185801969Y-36871240D01*
X183578232Y-38764358D02*
X185980319Y-39759335D01*
X185980319Y-39759335D02*
X186975296Y-37357248D01*
X186975296Y-37357248D02*
X191724037Y-39324241D01*
X189734083Y-44128415D02*
X191724037Y-39324241D01*
X182583255Y-41166445D02*
X189734083Y-44128415D01*
X182583255Y-41166445D02*
X183578232Y-38764358D01*
X166945000Y-38100000D02*
X166945000Y-36770000D01*
X166945000Y-36770000D02*
X168275000Y-36770000D01*
X166945000Y-39370000D02*
X169545000Y-39370000D01*
X169545000Y-39370000D02*
X169545000Y-36770000D01*
X169545000Y-36770000D02*
X174685000Y-36770000D01*
X174685000Y-41970000D02*
X174685000Y-36770000D01*
X166945000Y-41970000D02*
X174685000Y-41970000D01*
X166945000Y-41970000D02*
X166945000Y-39370000D01*
X151027570Y-40155331D02*
X150518601Y-38926571D01*
X150518601Y-38926571D02*
X151747361Y-38417602D01*
X151513578Y-41328658D02*
X153915665Y-40333681D01*
X153915665Y-40333681D02*
X152920688Y-37931594D01*
X152920688Y-37931594D02*
X157669429Y-35964601D01*
X159659383Y-40768775D02*
X157669429Y-35964601D01*
X152508555Y-43730745D02*
X159659383Y-40768775D01*
X152508555Y-43730745D02*
X151513578Y-41328658D01*
D11*
X191135000Y-75946000D02*
G75*
G03X191135000Y-74676000I0J635000D01*
G01*
X191135000Y-74676000D02*
X190246000Y-74676000D01*
X191135000Y-75946000D02*
X190246000Y-75946000D01*
X191135000Y-63246000D02*
G75*
G03X191135000Y-61976000I0J635000D01*
G01*
X191135000Y-61976000D02*
X190246000Y-61976000D01*
X191135000Y-63246000D02*
X190246000Y-63246000D01*
X191135000Y-50292000D02*
G75*
G03X191135000Y-49022000I0J635000D01*
G01*
X191135000Y-49022000D02*
X190246000Y-49022000D01*
X191135000Y-50292000D02*
X190246000Y-50292000D01*
D10*
X142812000Y-66060000D02*
X143277000Y-66060000D01*
X140187000Y-66060000D02*
X140652000Y-66060000D01*
X142812429Y-61245521D02*
G75*
G02X142812000Y-65754684I-1080429J-2254479D01*
G01*
X140651571Y-61245521D02*
G75*
G03X140652000Y-65754684I1080429J-2254479D01*
G01*
X142812827Y-60712185D02*
G75*
G02X143276830Y-66060000I-1080827J-2787815D01*
G01*
X140651173Y-60712185D02*
G75*
G03X140187170Y-66060000I1080827J-2787815D01*
G01*
D12*
X185770095Y-73514380D02*
X185770095Y-74323904D01*
X185817714Y-74419142D01*
X185865333Y-74466761D01*
X185960571Y-74514380D01*
X186151047Y-74514380D01*
X186246285Y-74466761D01*
X186293904Y-74419142D01*
X186341523Y-74323904D01*
X186341523Y-73514380D01*
X187246285Y-73514380D02*
X187055809Y-73514380D01*
X186960571Y-73562000D01*
X186912952Y-73609619D01*
X186817714Y-73752476D01*
X186770095Y-73942952D01*
X186770095Y-74323904D01*
X186817714Y-74419142D01*
X186865333Y-74466761D01*
X186960571Y-74514380D01*
X187151047Y-74514380D01*
X187246285Y-74466761D01*
X187293904Y-74419142D01*
X187341523Y-74323904D01*
X187341523Y-74085809D01*
X187293904Y-73990571D01*
X187246285Y-73942952D01*
X187151047Y-73895333D01*
X186960571Y-73895333D01*
X186865333Y-73942952D01*
X186817714Y-73990571D01*
X186770095Y-74085809D01*
X180288095Y-73514380D02*
X180288095Y-74323904D01*
X180335714Y-74419142D01*
X180383333Y-74466761D01*
X180478571Y-74514380D01*
X180669047Y-74514380D01*
X180764285Y-74466761D01*
X180811904Y-74419142D01*
X180859523Y-74323904D01*
X180859523Y-73514380D01*
X181240476Y-73514380D02*
X181859523Y-73514380D01*
X181526190Y-73895333D01*
X181669047Y-73895333D01*
X181764285Y-73942952D01*
X181811904Y-73990571D01*
X181859523Y-74085809D01*
X181859523Y-74323904D01*
X181811904Y-74419142D01*
X181764285Y-74466761D01*
X181669047Y-74514380D01*
X181383333Y-74514380D01*
X181288095Y-74466761D01*
X181240476Y-74419142D01*
X185970095Y-61068380D02*
X185970095Y-61877904D01*
X186017714Y-61973142D01*
X186065333Y-62020761D01*
X186160571Y-62068380D01*
X186351047Y-62068380D01*
X186446285Y-62020761D01*
X186493904Y-61973142D01*
X186541523Y-61877904D01*
X186541523Y-61068380D01*
X187493904Y-61068380D02*
X187017714Y-61068380D01*
X186970095Y-61544571D01*
X187017714Y-61496952D01*
X187112952Y-61449333D01*
X187351047Y-61449333D01*
X187446285Y-61496952D01*
X187493904Y-61544571D01*
X187541523Y-61639809D01*
X187541523Y-61877904D01*
X187493904Y-61973142D01*
X187446285Y-62020761D01*
X187351047Y-62068380D01*
X187112952Y-62068380D01*
X187017714Y-62020761D01*
X186970095Y-61973142D01*
X180538095Y-61052380D02*
X180538095Y-61861904D01*
X180585714Y-61957142D01*
X180633333Y-62004761D01*
X180728571Y-62052380D01*
X180919047Y-62052380D01*
X181014285Y-62004761D01*
X181061904Y-61957142D01*
X181109523Y-61861904D01*
X181109523Y-61052380D01*
X181538095Y-61147619D02*
X181585714Y-61100000D01*
X181680952Y-61052380D01*
X181919047Y-61052380D01*
X182014285Y-61100000D01*
X182061904Y-61147619D01*
X182109523Y-61242857D01*
X182109523Y-61338095D01*
X182061904Y-61480952D01*
X181490476Y-62052380D01*
X182109523Y-62052380D01*
X186038095Y-48114380D02*
X186038095Y-48923904D01*
X186085714Y-49019142D01*
X186133333Y-49066761D01*
X186228571Y-49114380D01*
X186419047Y-49114380D01*
X186514285Y-49066761D01*
X186561904Y-49019142D01*
X186609523Y-48923904D01*
X186609523Y-48114380D01*
X187514285Y-48447714D02*
X187514285Y-49114380D01*
X187276190Y-48066761D02*
X187038095Y-48781047D01*
X187657142Y-48781047D01*
X180688095Y-48114380D02*
X180688095Y-48923904D01*
X180735714Y-49019142D01*
X180783333Y-49066761D01*
X180878571Y-49114380D01*
X181069047Y-49114380D01*
X181164285Y-49066761D01*
X181211904Y-49019142D01*
X181259523Y-48923904D01*
X181259523Y-48114380D01*
X182259523Y-49114380D02*
X181688095Y-49114380D01*
X181973809Y-49114380D02*
X181973809Y-48114380D01*
X181878571Y-48257238D01*
X181783333Y-48352476D01*
X181688095Y-48400095D01*
X148025642Y-68650380D02*
X147692309Y-68174190D01*
X147454214Y-68650380D02*
X147454214Y-67650380D01*
X147835166Y-67650380D01*
X147930404Y-67698000D01*
X147978023Y-67745619D01*
X148025642Y-67840857D01*
X148025642Y-67983714D01*
X147978023Y-68078952D01*
X147930404Y-68126571D01*
X147835166Y-68174190D01*
X147454214Y-68174190D01*
X148978023Y-68650380D02*
X148406595Y-68650380D01*
X148692309Y-68650380D02*
X148692309Y-67650380D01*
X148597071Y-67793238D01*
X148501833Y-67888476D01*
X148406595Y-67936095D01*
X149549452Y-68078952D02*
X149454214Y-68031333D01*
X149406595Y-67983714D01*
X149358976Y-67888476D01*
X149358976Y-67840857D01*
X149406595Y-67745619D01*
X149454214Y-67698000D01*
X149549452Y-67650380D01*
X149739928Y-67650380D01*
X149835166Y-67698000D01*
X149882785Y-67745619D01*
X149930404Y-67840857D01*
X149930404Y-67888476D01*
X149882785Y-67983714D01*
X149835166Y-68031333D01*
X149739928Y-68078952D01*
X149549452Y-68078952D01*
X149454214Y-68126571D01*
X149406595Y-68174190D01*
X149358976Y-68269428D01*
X149358976Y-68459904D01*
X149406595Y-68555142D01*
X149454214Y-68602761D01*
X149549452Y-68650380D01*
X149739928Y-68650380D01*
X149835166Y-68602761D01*
X149882785Y-68555142D01*
X149930404Y-68459904D01*
X149930404Y-68269428D01*
X149882785Y-68174190D01*
X149835166Y-68126571D01*
X149739928Y-68078952D01*
X147947142Y-65475380D02*
X147613809Y-64999190D01*
X147375714Y-65475380D02*
X147375714Y-64475380D01*
X147756666Y-64475380D01*
X147851904Y-64523000D01*
X147899523Y-64570619D01*
X147947142Y-64665857D01*
X147947142Y-64808714D01*
X147899523Y-64903952D01*
X147851904Y-64951571D01*
X147756666Y-64999190D01*
X147375714Y-64999190D01*
X148899523Y-65475380D02*
X148328095Y-65475380D01*
X148613809Y-65475380D02*
X148613809Y-64475380D01*
X148518571Y-64618238D01*
X148423333Y-64713476D01*
X148328095Y-64761095D01*
X149232857Y-64475380D02*
X149899523Y-64475380D01*
X149470952Y-65475380D01*
X147947142Y-62427380D02*
X147613809Y-61951190D01*
X147375714Y-62427380D02*
X147375714Y-61427380D01*
X147756666Y-61427380D01*
X147851904Y-61475000D01*
X147899523Y-61522619D01*
X147947142Y-61617857D01*
X147947142Y-61760714D01*
X147899523Y-61855952D01*
X147851904Y-61903571D01*
X147756666Y-61951190D01*
X147375714Y-61951190D01*
X148899523Y-62427380D02*
X148328095Y-62427380D01*
X148613809Y-62427380D02*
X148613809Y-61427380D01*
X148518571Y-61570238D01*
X148423333Y-61665476D01*
X148328095Y-61713095D01*
X149756666Y-61427380D02*
X149566190Y-61427380D01*
X149470952Y-61475000D01*
X149423333Y-61522619D01*
X149328095Y-61665476D01*
X149280476Y-61855952D01*
X149280476Y-62236904D01*
X149328095Y-62332142D01*
X149375714Y-62379761D01*
X149470952Y-62427380D01*
X149661428Y-62427380D01*
X149756666Y-62379761D01*
X149804285Y-62332142D01*
X149851904Y-62236904D01*
X149851904Y-61998809D01*
X149804285Y-61903571D01*
X149756666Y-61855952D01*
X149661428Y-61808333D01*
X149470952Y-61808333D01*
X149375714Y-61855952D01*
X149328095Y-61903571D01*
X149280476Y-61998809D01*
X177852380Y-82430357D02*
X177376190Y-82763690D01*
X177852380Y-83001785D02*
X176852380Y-83001785D01*
X176852380Y-82620833D01*
X176900000Y-82525595D01*
X176947619Y-82477976D01*
X177042857Y-82430357D01*
X177185714Y-82430357D01*
X177280952Y-82477976D01*
X177328571Y-82525595D01*
X177376190Y-82620833D01*
X177376190Y-83001785D01*
X177852380Y-81477976D02*
X177852380Y-82049404D01*
X177852380Y-81763690D02*
X176852380Y-81763690D01*
X176995238Y-81858928D01*
X177090476Y-81954166D01*
X177138095Y-82049404D01*
X176852380Y-80573214D02*
X176852380Y-81049404D01*
X177328571Y-81097023D01*
X177280952Y-81049404D01*
X177233333Y-80954166D01*
X177233333Y-80716071D01*
X177280952Y-80620833D01*
X177328571Y-80573214D01*
X177423809Y-80525595D01*
X177661904Y-80525595D01*
X177757142Y-80573214D01*
X177804761Y-80620833D01*
X177852380Y-80716071D01*
X177852380Y-80954166D01*
X177804761Y-81049404D01*
X177757142Y-81097023D01*
X174363142Y-71446380D02*
X174029809Y-70970190D01*
X173791714Y-71446380D02*
X173791714Y-70446380D01*
X174172666Y-70446380D01*
X174267904Y-70494000D01*
X174315523Y-70541619D01*
X174363142Y-70636857D01*
X174363142Y-70779714D01*
X174315523Y-70874952D01*
X174267904Y-70922571D01*
X174172666Y-70970190D01*
X173791714Y-70970190D01*
X175315523Y-71446380D02*
X174744095Y-71446380D01*
X175029809Y-71446380D02*
X175029809Y-70446380D01*
X174934571Y-70589238D01*
X174839333Y-70684476D01*
X174744095Y-70732095D01*
X176172666Y-70779714D02*
X176172666Y-71446380D01*
X175934571Y-70398761D02*
X175696476Y-71113047D01*
X176315523Y-71113047D01*
X168013142Y-71446380D02*
X167679809Y-70970190D01*
X167441714Y-71446380D02*
X167441714Y-70446380D01*
X167822666Y-70446380D01*
X167917904Y-70494000D01*
X167965523Y-70541619D01*
X168013142Y-70636857D01*
X168013142Y-70779714D01*
X167965523Y-70874952D01*
X167917904Y-70922571D01*
X167822666Y-70970190D01*
X167441714Y-70970190D01*
X168965523Y-71446380D02*
X168394095Y-71446380D01*
X168679809Y-71446380D02*
X168679809Y-70446380D01*
X168584571Y-70589238D01*
X168489333Y-70684476D01*
X168394095Y-70732095D01*
X169298857Y-70446380D02*
X169917904Y-70446380D01*
X169584571Y-70827333D01*
X169727428Y-70827333D01*
X169822666Y-70874952D01*
X169870285Y-70922571D01*
X169917904Y-71017809D01*
X169917904Y-71255904D01*
X169870285Y-71351142D01*
X169822666Y-71398761D01*
X169727428Y-71446380D01*
X169441714Y-71446380D01*
X169346476Y-71398761D01*
X169298857Y-71351142D01*
X161663142Y-71446380D02*
X161329809Y-70970190D01*
X161091714Y-71446380D02*
X161091714Y-70446380D01*
X161472666Y-70446380D01*
X161567904Y-70494000D01*
X161615523Y-70541619D01*
X161663142Y-70636857D01*
X161663142Y-70779714D01*
X161615523Y-70874952D01*
X161567904Y-70922571D01*
X161472666Y-70970190D01*
X161091714Y-70970190D01*
X162615523Y-71446380D02*
X162044095Y-71446380D01*
X162329809Y-71446380D02*
X162329809Y-70446380D01*
X162234571Y-70589238D01*
X162139333Y-70684476D01*
X162044095Y-70732095D01*
X162996476Y-70541619D02*
X163044095Y-70494000D01*
X163139333Y-70446380D01*
X163377428Y-70446380D01*
X163472666Y-70494000D01*
X163520285Y-70541619D01*
X163567904Y-70636857D01*
X163567904Y-70732095D01*
X163520285Y-70874952D01*
X162948857Y-71446380D01*
X163567904Y-71446380D01*
X155313142Y-71446380D02*
X154979809Y-70970190D01*
X154741714Y-71446380D02*
X154741714Y-70446380D01*
X155122666Y-70446380D01*
X155217904Y-70494000D01*
X155265523Y-70541619D01*
X155313142Y-70636857D01*
X155313142Y-70779714D01*
X155265523Y-70874952D01*
X155217904Y-70922571D01*
X155122666Y-70970190D01*
X154741714Y-70970190D01*
X156265523Y-71446380D02*
X155694095Y-71446380D01*
X155979809Y-71446380D02*
X155979809Y-70446380D01*
X155884571Y-70589238D01*
X155789333Y-70684476D01*
X155694095Y-70732095D01*
X157217904Y-71446380D02*
X156646476Y-71446380D01*
X156932190Y-71446380D02*
X156932190Y-70446380D01*
X156836952Y-70589238D01*
X156741714Y-70684476D01*
X156646476Y-70732095D01*
X177802380Y-69742857D02*
X177326190Y-70076190D01*
X177802380Y-70314285D02*
X176802380Y-70314285D01*
X176802380Y-69933333D01*
X176850000Y-69838095D01*
X176897619Y-69790476D01*
X176992857Y-69742857D01*
X177135714Y-69742857D01*
X177230952Y-69790476D01*
X177278571Y-69838095D01*
X177326190Y-69933333D01*
X177326190Y-70314285D01*
X177802380Y-68790476D02*
X177802380Y-69361904D01*
X177802380Y-69076190D02*
X176802380Y-69076190D01*
X176945238Y-69171428D01*
X177040476Y-69266666D01*
X177088095Y-69361904D01*
X176802380Y-68171428D02*
X176802380Y-68076190D01*
X176850000Y-67980952D01*
X176897619Y-67933333D01*
X176992857Y-67885714D01*
X177183333Y-67838095D01*
X177421428Y-67838095D01*
X177611904Y-67885714D01*
X177707142Y-67933333D01*
X177754761Y-67980952D01*
X177802380Y-68076190D01*
X177802380Y-68171428D01*
X177754761Y-68266666D01*
X177707142Y-68314285D01*
X177611904Y-68361904D01*
X177421428Y-68409523D01*
X177183333Y-68409523D01*
X176992857Y-68361904D01*
X176897619Y-68314285D01*
X176850000Y-68266666D01*
X176802380Y-68171428D01*
X174839333Y-58746380D02*
X174506000Y-58270190D01*
X174267904Y-58746380D02*
X174267904Y-57746380D01*
X174648857Y-57746380D01*
X174744095Y-57794000D01*
X174791714Y-57841619D01*
X174839333Y-57936857D01*
X174839333Y-58079714D01*
X174791714Y-58174952D01*
X174744095Y-58222571D01*
X174648857Y-58270190D01*
X174267904Y-58270190D01*
X175315523Y-58746380D02*
X175506000Y-58746380D01*
X175601238Y-58698761D01*
X175648857Y-58651142D01*
X175744095Y-58508285D01*
X175791714Y-58317809D01*
X175791714Y-57936857D01*
X175744095Y-57841619D01*
X175696476Y-57794000D01*
X175601238Y-57746380D01*
X175410761Y-57746380D01*
X175315523Y-57794000D01*
X175267904Y-57841619D01*
X175220285Y-57936857D01*
X175220285Y-58174952D01*
X175267904Y-58270190D01*
X175315523Y-58317809D01*
X175410761Y-58365428D01*
X175601238Y-58365428D01*
X175696476Y-58317809D01*
X175744095Y-58270190D01*
X175791714Y-58174952D01*
X168489333Y-58746380D02*
X168156000Y-58270190D01*
X167917904Y-58746380D02*
X167917904Y-57746380D01*
X168298857Y-57746380D01*
X168394095Y-57794000D01*
X168441714Y-57841619D01*
X168489333Y-57936857D01*
X168489333Y-58079714D01*
X168441714Y-58174952D01*
X168394095Y-58222571D01*
X168298857Y-58270190D01*
X167917904Y-58270190D01*
X169060761Y-58174952D02*
X168965523Y-58127333D01*
X168917904Y-58079714D01*
X168870285Y-57984476D01*
X168870285Y-57936857D01*
X168917904Y-57841619D01*
X168965523Y-57794000D01*
X169060761Y-57746380D01*
X169251238Y-57746380D01*
X169346476Y-57794000D01*
X169394095Y-57841619D01*
X169441714Y-57936857D01*
X169441714Y-57984476D01*
X169394095Y-58079714D01*
X169346476Y-58127333D01*
X169251238Y-58174952D01*
X169060761Y-58174952D01*
X168965523Y-58222571D01*
X168917904Y-58270190D01*
X168870285Y-58365428D01*
X168870285Y-58555904D01*
X168917904Y-58651142D01*
X168965523Y-58698761D01*
X169060761Y-58746380D01*
X169251238Y-58746380D01*
X169346476Y-58698761D01*
X169394095Y-58651142D01*
X169441714Y-58555904D01*
X169441714Y-58365428D01*
X169394095Y-58270190D01*
X169346476Y-58222571D01*
X169251238Y-58174952D01*
X162139333Y-58746380D02*
X161806000Y-58270190D01*
X161567904Y-58746380D02*
X161567904Y-57746380D01*
X161948857Y-57746380D01*
X162044095Y-57794000D01*
X162091714Y-57841619D01*
X162139333Y-57936857D01*
X162139333Y-58079714D01*
X162091714Y-58174952D01*
X162044095Y-58222571D01*
X161948857Y-58270190D01*
X161567904Y-58270190D01*
X162472666Y-57746380D02*
X163139333Y-57746380D01*
X162710761Y-58746380D01*
X155789333Y-58746380D02*
X155456000Y-58270190D01*
X155217904Y-58746380D02*
X155217904Y-57746380D01*
X155598857Y-57746380D01*
X155694095Y-57794000D01*
X155741714Y-57841619D01*
X155789333Y-57936857D01*
X155789333Y-58079714D01*
X155741714Y-58174952D01*
X155694095Y-58222571D01*
X155598857Y-58270190D01*
X155217904Y-58270190D01*
X156646476Y-57746380D02*
X156456000Y-57746380D01*
X156360761Y-57794000D01*
X156313142Y-57841619D01*
X156217904Y-57984476D01*
X156170285Y-58174952D01*
X156170285Y-58555904D01*
X156217904Y-58651142D01*
X156265523Y-58698761D01*
X156360761Y-58746380D01*
X156551238Y-58746380D01*
X156646476Y-58698761D01*
X156694095Y-58651142D01*
X156741714Y-58555904D01*
X156741714Y-58317809D01*
X156694095Y-58222571D01*
X156646476Y-58174952D01*
X156551238Y-58127333D01*
X156360761Y-58127333D01*
X156265523Y-58174952D01*
X156217904Y-58222571D01*
X156170285Y-58317809D01*
X177852380Y-56554666D02*
X177376190Y-56888000D01*
X177852380Y-57126095D02*
X176852380Y-57126095D01*
X176852380Y-56745142D01*
X176900000Y-56649904D01*
X176947619Y-56602285D01*
X177042857Y-56554666D01*
X177185714Y-56554666D01*
X177280952Y-56602285D01*
X177328571Y-56649904D01*
X177376190Y-56745142D01*
X177376190Y-57126095D01*
X176852380Y-55649904D02*
X176852380Y-56126095D01*
X177328571Y-56173714D01*
X177280952Y-56126095D01*
X177233333Y-56030857D01*
X177233333Y-55792761D01*
X177280952Y-55697523D01*
X177328571Y-55649904D01*
X177423809Y-55602285D01*
X177661904Y-55602285D01*
X177757142Y-55649904D01*
X177804761Y-55697523D01*
X177852380Y-55792761D01*
X177852380Y-56030857D01*
X177804761Y-56126095D01*
X177757142Y-56173714D01*
X174839333Y-46046380D02*
X174506000Y-45570190D01*
X174267904Y-46046380D02*
X174267904Y-45046380D01*
X174648857Y-45046380D01*
X174744095Y-45094000D01*
X174791714Y-45141619D01*
X174839333Y-45236857D01*
X174839333Y-45379714D01*
X174791714Y-45474952D01*
X174744095Y-45522571D01*
X174648857Y-45570190D01*
X174267904Y-45570190D01*
X175696476Y-45379714D02*
X175696476Y-46046380D01*
X175458380Y-44998761D02*
X175220285Y-45713047D01*
X175839333Y-45713047D01*
X168489333Y-46046380D02*
X168156000Y-45570190D01*
X167917904Y-46046380D02*
X167917904Y-45046380D01*
X168298857Y-45046380D01*
X168394095Y-45094000D01*
X168441714Y-45141619D01*
X168489333Y-45236857D01*
X168489333Y-45379714D01*
X168441714Y-45474952D01*
X168394095Y-45522571D01*
X168298857Y-45570190D01*
X167917904Y-45570190D01*
X168822666Y-45046380D02*
X169441714Y-45046380D01*
X169108380Y-45427333D01*
X169251238Y-45427333D01*
X169346476Y-45474952D01*
X169394095Y-45522571D01*
X169441714Y-45617809D01*
X169441714Y-45855904D01*
X169394095Y-45951142D01*
X169346476Y-45998761D01*
X169251238Y-46046380D01*
X168965523Y-46046380D01*
X168870285Y-45998761D01*
X168822666Y-45951142D01*
X162139333Y-46046380D02*
X161806000Y-45570190D01*
X161567904Y-46046380D02*
X161567904Y-45046380D01*
X161948857Y-45046380D01*
X162044095Y-45094000D01*
X162091714Y-45141619D01*
X162139333Y-45236857D01*
X162139333Y-45379714D01*
X162091714Y-45474952D01*
X162044095Y-45522571D01*
X161948857Y-45570190D01*
X161567904Y-45570190D01*
X162520285Y-45141619D02*
X162567904Y-45094000D01*
X162663142Y-45046380D01*
X162901238Y-45046380D01*
X162996476Y-45094000D01*
X163044095Y-45141619D01*
X163091714Y-45236857D01*
X163091714Y-45332095D01*
X163044095Y-45474952D01*
X162472666Y-46046380D01*
X163091714Y-46046380D01*
X155789333Y-46046380D02*
X155456000Y-45570190D01*
X155217904Y-46046380D02*
X155217904Y-45046380D01*
X155598857Y-45046380D01*
X155694095Y-45094000D01*
X155741714Y-45141619D01*
X155789333Y-45236857D01*
X155789333Y-45379714D01*
X155741714Y-45474952D01*
X155694095Y-45522571D01*
X155598857Y-45570190D01*
X155217904Y-45570190D01*
X156741714Y-46046380D02*
X156170285Y-46046380D01*
X156456000Y-46046380D02*
X156456000Y-45046380D01*
X156360761Y-45189238D01*
X156265523Y-45284476D01*
X156170285Y-45332095D01*
X178534761Y-80759523D02*
X178582380Y-80616666D01*
X178582380Y-80378571D01*
X178534761Y-80283333D01*
X178487142Y-80235714D01*
X178391904Y-80188095D01*
X178296666Y-80188095D01*
X178201428Y-80235714D01*
X178153809Y-80283333D01*
X178106190Y-80378571D01*
X178058571Y-80569047D01*
X178010952Y-80664285D01*
X177963333Y-80711904D01*
X177868095Y-80759523D01*
X177772857Y-80759523D01*
X177677619Y-80711904D01*
X177630000Y-80664285D01*
X177582380Y-80569047D01*
X177582380Y-80330952D01*
X177630000Y-80188095D01*
X177582380Y-79854761D02*
X178582380Y-79616666D01*
X177868095Y-79426190D01*
X178582380Y-79235714D01*
X177582380Y-78997619D01*
X178582380Y-78092857D02*
X178582380Y-78664285D01*
X178582380Y-78378571D02*
X177582380Y-78378571D01*
X177725238Y-78473809D01*
X177820476Y-78569047D01*
X177868095Y-78664285D01*
X177677619Y-77711904D02*
X177630000Y-77664285D01*
X177582380Y-77569047D01*
X177582380Y-77330952D01*
X177630000Y-77235714D01*
X177677619Y-77188095D01*
X177772857Y-77140476D01*
X177868095Y-77140476D01*
X178010952Y-77188095D01*
X178582380Y-77759523D01*
X178582380Y-77140476D01*
X172184761Y-80759523D02*
X172232380Y-80616666D01*
X172232380Y-80378571D01*
X172184761Y-80283333D01*
X172137142Y-80235714D01*
X172041904Y-80188095D01*
X171946666Y-80188095D01*
X171851428Y-80235714D01*
X171803809Y-80283333D01*
X171756190Y-80378571D01*
X171708571Y-80569047D01*
X171660952Y-80664285D01*
X171613333Y-80711904D01*
X171518095Y-80759523D01*
X171422857Y-80759523D01*
X171327619Y-80711904D01*
X171280000Y-80664285D01*
X171232380Y-80569047D01*
X171232380Y-80330952D01*
X171280000Y-80188095D01*
X171232380Y-79854761D02*
X172232380Y-79616666D01*
X171518095Y-79426190D01*
X172232380Y-79235714D01*
X171232380Y-78997619D01*
X172232380Y-78092857D02*
X172232380Y-78664285D01*
X172232380Y-78378571D02*
X171232380Y-78378571D01*
X171375238Y-78473809D01*
X171470476Y-78569047D01*
X171518095Y-78664285D01*
X172232380Y-77140476D02*
X172232380Y-77711904D01*
X172232380Y-77426190D02*
X171232380Y-77426190D01*
X171375238Y-77521428D01*
X171470476Y-77616666D01*
X171518095Y-77711904D01*
X165834761Y-80759523D02*
X165882380Y-80616666D01*
X165882380Y-80378571D01*
X165834761Y-80283333D01*
X165787142Y-80235714D01*
X165691904Y-80188095D01*
X165596666Y-80188095D01*
X165501428Y-80235714D01*
X165453809Y-80283333D01*
X165406190Y-80378571D01*
X165358571Y-80569047D01*
X165310952Y-80664285D01*
X165263333Y-80711904D01*
X165168095Y-80759523D01*
X165072857Y-80759523D01*
X164977619Y-80711904D01*
X164930000Y-80664285D01*
X164882380Y-80569047D01*
X164882380Y-80330952D01*
X164930000Y-80188095D01*
X164882380Y-79854761D02*
X165882380Y-79616666D01*
X165168095Y-79426190D01*
X165882380Y-79235714D01*
X164882380Y-78997619D01*
X165882380Y-78092857D02*
X165882380Y-78664285D01*
X165882380Y-78378571D02*
X164882380Y-78378571D01*
X165025238Y-78473809D01*
X165120476Y-78569047D01*
X165168095Y-78664285D01*
X164882380Y-77473809D02*
X164882380Y-77378571D01*
X164930000Y-77283333D01*
X164977619Y-77235714D01*
X165072857Y-77188095D01*
X165263333Y-77140476D01*
X165501428Y-77140476D01*
X165691904Y-77188095D01*
X165787142Y-77235714D01*
X165834761Y-77283333D01*
X165882380Y-77378571D01*
X165882380Y-77473809D01*
X165834761Y-77569047D01*
X165787142Y-77616666D01*
X165691904Y-77664285D01*
X165501428Y-77711904D01*
X165263333Y-77711904D01*
X165072857Y-77664285D01*
X164977619Y-77616666D01*
X164930000Y-77569047D01*
X164882380Y-77473809D01*
X159484761Y-80283333D02*
X159532380Y-80140476D01*
X159532380Y-79902380D01*
X159484761Y-79807142D01*
X159437142Y-79759523D01*
X159341904Y-79711904D01*
X159246666Y-79711904D01*
X159151428Y-79759523D01*
X159103809Y-79807142D01*
X159056190Y-79902380D01*
X159008571Y-80092857D01*
X158960952Y-80188095D01*
X158913333Y-80235714D01*
X158818095Y-80283333D01*
X158722857Y-80283333D01*
X158627619Y-80235714D01*
X158580000Y-80188095D01*
X158532380Y-80092857D01*
X158532380Y-79854761D01*
X158580000Y-79711904D01*
X158532380Y-79378571D02*
X159532380Y-79140476D01*
X158818095Y-78950000D01*
X159532380Y-78759523D01*
X158532380Y-78521428D01*
X159532380Y-78092857D02*
X159532380Y-77902380D01*
X159484761Y-77807142D01*
X159437142Y-77759523D01*
X159294285Y-77664285D01*
X159103809Y-77616666D01*
X158722857Y-77616666D01*
X158627619Y-77664285D01*
X158580000Y-77711904D01*
X158532380Y-77807142D01*
X158532380Y-77997619D01*
X158580000Y-78092857D01*
X158627619Y-78140476D01*
X158722857Y-78188095D01*
X158960952Y-78188095D01*
X159056190Y-78140476D01*
X159103809Y-78092857D01*
X159151428Y-77997619D01*
X159151428Y-77807142D01*
X159103809Y-77711904D01*
X159056190Y-77664285D01*
X158960952Y-77616666D01*
X178534761Y-67583333D02*
X178582380Y-67440476D01*
X178582380Y-67202380D01*
X178534761Y-67107142D01*
X178487142Y-67059523D01*
X178391904Y-67011904D01*
X178296666Y-67011904D01*
X178201428Y-67059523D01*
X178153809Y-67107142D01*
X178106190Y-67202380D01*
X178058571Y-67392857D01*
X178010952Y-67488095D01*
X177963333Y-67535714D01*
X177868095Y-67583333D01*
X177772857Y-67583333D01*
X177677619Y-67535714D01*
X177630000Y-67488095D01*
X177582380Y-67392857D01*
X177582380Y-67154761D01*
X177630000Y-67011904D01*
X177582380Y-66678571D02*
X178582380Y-66440476D01*
X177868095Y-66250000D01*
X178582380Y-66059523D01*
X177582380Y-65821428D01*
X178010952Y-65297619D02*
X177963333Y-65392857D01*
X177915714Y-65440476D01*
X177820476Y-65488095D01*
X177772857Y-65488095D01*
X177677619Y-65440476D01*
X177630000Y-65392857D01*
X177582380Y-65297619D01*
X177582380Y-65107142D01*
X177630000Y-65011904D01*
X177677619Y-64964285D01*
X177772857Y-64916666D01*
X177820476Y-64916666D01*
X177915714Y-64964285D01*
X177963333Y-65011904D01*
X178010952Y-65107142D01*
X178010952Y-65297619D01*
X178058571Y-65392857D01*
X178106190Y-65440476D01*
X178201428Y-65488095D01*
X178391904Y-65488095D01*
X178487142Y-65440476D01*
X178534761Y-65392857D01*
X178582380Y-65297619D01*
X178582380Y-65107142D01*
X178534761Y-65011904D01*
X178487142Y-64964285D01*
X178391904Y-64916666D01*
X178201428Y-64916666D01*
X178106190Y-64964285D01*
X178058571Y-65011904D01*
X178010952Y-65107142D01*
X172184761Y-67583333D02*
X172232380Y-67440476D01*
X172232380Y-67202380D01*
X172184761Y-67107142D01*
X172137142Y-67059523D01*
X172041904Y-67011904D01*
X171946666Y-67011904D01*
X171851428Y-67059523D01*
X171803809Y-67107142D01*
X171756190Y-67202380D01*
X171708571Y-67392857D01*
X171660952Y-67488095D01*
X171613333Y-67535714D01*
X171518095Y-67583333D01*
X171422857Y-67583333D01*
X171327619Y-67535714D01*
X171280000Y-67488095D01*
X171232380Y-67392857D01*
X171232380Y-67154761D01*
X171280000Y-67011904D01*
X171232380Y-66678571D02*
X172232380Y-66440476D01*
X171518095Y-66250000D01*
X172232380Y-66059523D01*
X171232380Y-65821428D01*
X171232380Y-65535714D02*
X171232380Y-64869047D01*
X172232380Y-65297619D01*
X165834761Y-67583333D02*
X165882380Y-67440476D01*
X165882380Y-67202380D01*
X165834761Y-67107142D01*
X165787142Y-67059523D01*
X165691904Y-67011904D01*
X165596666Y-67011904D01*
X165501428Y-67059523D01*
X165453809Y-67107142D01*
X165406190Y-67202380D01*
X165358571Y-67392857D01*
X165310952Y-67488095D01*
X165263333Y-67535714D01*
X165168095Y-67583333D01*
X165072857Y-67583333D01*
X164977619Y-67535714D01*
X164930000Y-67488095D01*
X164882380Y-67392857D01*
X164882380Y-67154761D01*
X164930000Y-67011904D01*
X164882380Y-66678571D02*
X165882380Y-66440476D01*
X165168095Y-66250000D01*
X165882380Y-66059523D01*
X164882380Y-65821428D01*
X164882380Y-65011904D02*
X164882380Y-65202380D01*
X164930000Y-65297619D01*
X164977619Y-65345238D01*
X165120476Y-65440476D01*
X165310952Y-65488095D01*
X165691904Y-65488095D01*
X165787142Y-65440476D01*
X165834761Y-65392857D01*
X165882380Y-65297619D01*
X165882380Y-65107142D01*
X165834761Y-65011904D01*
X165787142Y-64964285D01*
X165691904Y-64916666D01*
X165453809Y-64916666D01*
X165358571Y-64964285D01*
X165310952Y-65011904D01*
X165263333Y-65107142D01*
X165263333Y-65297619D01*
X165310952Y-65392857D01*
X165358571Y-65440476D01*
X165453809Y-65488095D01*
X159484761Y-67583333D02*
X159532380Y-67440476D01*
X159532380Y-67202380D01*
X159484761Y-67107142D01*
X159437142Y-67059523D01*
X159341904Y-67011904D01*
X159246666Y-67011904D01*
X159151428Y-67059523D01*
X159103809Y-67107142D01*
X159056190Y-67202380D01*
X159008571Y-67392857D01*
X158960952Y-67488095D01*
X158913333Y-67535714D01*
X158818095Y-67583333D01*
X158722857Y-67583333D01*
X158627619Y-67535714D01*
X158580000Y-67488095D01*
X158532380Y-67392857D01*
X158532380Y-67154761D01*
X158580000Y-67011904D01*
X158532380Y-66678571D02*
X159532380Y-66440476D01*
X158818095Y-66250000D01*
X159532380Y-66059523D01*
X158532380Y-65821428D01*
X158532380Y-64964285D02*
X158532380Y-65440476D01*
X159008571Y-65488095D01*
X158960952Y-65440476D01*
X158913333Y-65345238D01*
X158913333Y-65107142D01*
X158960952Y-65011904D01*
X159008571Y-64964285D01*
X159103809Y-64916666D01*
X159341904Y-64916666D01*
X159437142Y-64964285D01*
X159484761Y-65011904D01*
X159532380Y-65107142D01*
X159532380Y-65345238D01*
X159484761Y-65440476D01*
X159437142Y-65488095D01*
X178534761Y-54883333D02*
X178582380Y-54740476D01*
X178582380Y-54502380D01*
X178534761Y-54407142D01*
X178487142Y-54359523D01*
X178391904Y-54311904D01*
X178296666Y-54311904D01*
X178201428Y-54359523D01*
X178153809Y-54407142D01*
X178106190Y-54502380D01*
X178058571Y-54692857D01*
X178010952Y-54788095D01*
X177963333Y-54835714D01*
X177868095Y-54883333D01*
X177772857Y-54883333D01*
X177677619Y-54835714D01*
X177630000Y-54788095D01*
X177582380Y-54692857D01*
X177582380Y-54454761D01*
X177630000Y-54311904D01*
X177582380Y-53978571D02*
X178582380Y-53740476D01*
X177868095Y-53550000D01*
X178582380Y-53359523D01*
X177582380Y-53121428D01*
X177915714Y-52311904D02*
X178582380Y-52311904D01*
X177534761Y-52550000D02*
X178249047Y-52788095D01*
X178249047Y-52169047D01*
X172184761Y-54883333D02*
X172232380Y-54740476D01*
X172232380Y-54502380D01*
X172184761Y-54407142D01*
X172137142Y-54359523D01*
X172041904Y-54311904D01*
X171946666Y-54311904D01*
X171851428Y-54359523D01*
X171803809Y-54407142D01*
X171756190Y-54502380D01*
X171708571Y-54692857D01*
X171660952Y-54788095D01*
X171613333Y-54835714D01*
X171518095Y-54883333D01*
X171422857Y-54883333D01*
X171327619Y-54835714D01*
X171280000Y-54788095D01*
X171232380Y-54692857D01*
X171232380Y-54454761D01*
X171280000Y-54311904D01*
X171232380Y-53978571D02*
X172232380Y-53740476D01*
X171518095Y-53550000D01*
X172232380Y-53359523D01*
X171232380Y-53121428D01*
X171232380Y-52835714D02*
X171232380Y-52216666D01*
X171613333Y-52550000D01*
X171613333Y-52407142D01*
X171660952Y-52311904D01*
X171708571Y-52264285D01*
X171803809Y-52216666D01*
X172041904Y-52216666D01*
X172137142Y-52264285D01*
X172184761Y-52311904D01*
X172232380Y-52407142D01*
X172232380Y-52692857D01*
X172184761Y-52788095D01*
X172137142Y-52835714D01*
X165834761Y-54883333D02*
X165882380Y-54740476D01*
X165882380Y-54502380D01*
X165834761Y-54407142D01*
X165787142Y-54359523D01*
X165691904Y-54311904D01*
X165596666Y-54311904D01*
X165501428Y-54359523D01*
X165453809Y-54407142D01*
X165406190Y-54502380D01*
X165358571Y-54692857D01*
X165310952Y-54788095D01*
X165263333Y-54835714D01*
X165168095Y-54883333D01*
X165072857Y-54883333D01*
X164977619Y-54835714D01*
X164930000Y-54788095D01*
X164882380Y-54692857D01*
X164882380Y-54454761D01*
X164930000Y-54311904D01*
X164882380Y-53978571D02*
X165882380Y-53740476D01*
X165168095Y-53550000D01*
X165882380Y-53359523D01*
X164882380Y-53121428D01*
X164977619Y-52788095D02*
X164930000Y-52740476D01*
X164882380Y-52645238D01*
X164882380Y-52407142D01*
X164930000Y-52311904D01*
X164977619Y-52264285D01*
X165072857Y-52216666D01*
X165168095Y-52216666D01*
X165310952Y-52264285D01*
X165882380Y-52835714D01*
X165882380Y-52216666D01*
X159484761Y-54883333D02*
X159532380Y-54740476D01*
X159532380Y-54502380D01*
X159484761Y-54407142D01*
X159437142Y-54359523D01*
X159341904Y-54311904D01*
X159246666Y-54311904D01*
X159151428Y-54359523D01*
X159103809Y-54407142D01*
X159056190Y-54502380D01*
X159008571Y-54692857D01*
X158960952Y-54788095D01*
X158913333Y-54835714D01*
X158818095Y-54883333D01*
X158722857Y-54883333D01*
X158627619Y-54835714D01*
X158580000Y-54788095D01*
X158532380Y-54692857D01*
X158532380Y-54454761D01*
X158580000Y-54311904D01*
X158532380Y-53978571D02*
X159532380Y-53740476D01*
X158818095Y-53550000D01*
X159532380Y-53359523D01*
X158532380Y-53121428D01*
X159532380Y-52216666D02*
X159532380Y-52788095D01*
X159532380Y-52502380D02*
X158532380Y-52502380D01*
X158675238Y-52597619D01*
X158770476Y-52692857D01*
X158818095Y-52788095D01*
X181614350Y-38311689D02*
X182274264Y-38585034D01*
X182388024Y-38683697D01*
X182439567Y-38808132D01*
X182428892Y-38958338D01*
X182392446Y-39046326D01*
X181760134Y-37959734D02*
X182015257Y-37343815D01*
X182775129Y-38122447D01*
X164957380Y-39703333D02*
X165671666Y-39703333D01*
X165814523Y-39750952D01*
X165909761Y-39846190D01*
X165957380Y-39989047D01*
X165957380Y-40084285D01*
X164957380Y-38798571D02*
X164957380Y-38989047D01*
X165005000Y-39084285D01*
X165052619Y-39131904D01*
X165195476Y-39227142D01*
X165385952Y-39274761D01*
X165766904Y-39274761D01*
X165862142Y-39227142D01*
X165909761Y-39179523D01*
X165957380Y-39084285D01*
X165957380Y-38893809D01*
X165909761Y-38798571D01*
X165862142Y-38750952D01*
X165766904Y-38703333D01*
X165528809Y-38703333D01*
X165433571Y-38750952D01*
X165385952Y-38798571D01*
X165338333Y-38893809D01*
X165338333Y-39084285D01*
X165385952Y-39179523D01*
X165433571Y-39227142D01*
X165528809Y-39274761D01*
X150561564Y-41362197D02*
X149901650Y-41635542D01*
X149751445Y-41646217D01*
X149627010Y-41594675D01*
X149528347Y-41480915D01*
X149491901Y-41392926D01*
X150926025Y-42242082D02*
X150743795Y-41802140D01*
X150285629Y-41940375D01*
X150347846Y-41966147D01*
X150428287Y-42035912D01*
X150519402Y-42255884D01*
X150511853Y-42362095D01*
X150486082Y-42424312D01*
X150416317Y-42504753D01*
X150196345Y-42595868D01*
X150090134Y-42588320D01*
X150027917Y-42562548D01*
X149947476Y-42492783D01*
X149856361Y-42272812D01*
X149863909Y-42166600D01*
X149889681Y-42104383D01*
X187666380Y-77549333D02*
X188380666Y-77549333D01*
X188523523Y-77596952D01*
X188618761Y-77692190D01*
X188666380Y-77835047D01*
X188666380Y-77930285D01*
X187666380Y-77168380D02*
X187666380Y-76549333D01*
X188047333Y-76882666D01*
X188047333Y-76739809D01*
X188094952Y-76644571D01*
X188142571Y-76596952D01*
X188237809Y-76549333D01*
X188475904Y-76549333D01*
X188571142Y-76596952D01*
X188618761Y-76644571D01*
X188666380Y-76739809D01*
X188666380Y-77025523D01*
X188618761Y-77120761D01*
X188571142Y-77168380D01*
X187666380Y-64849333D02*
X188380666Y-64849333D01*
X188523523Y-64896952D01*
X188618761Y-64992190D01*
X188666380Y-65135047D01*
X188666380Y-65230285D01*
X187761619Y-64420761D02*
X187714000Y-64373142D01*
X187666380Y-64277904D01*
X187666380Y-64039809D01*
X187714000Y-63944571D01*
X187761619Y-63896952D01*
X187856857Y-63849333D01*
X187952095Y-63849333D01*
X188094952Y-63896952D01*
X188666380Y-64468380D01*
X188666380Y-63849333D01*
X187666380Y-51895333D02*
X188380666Y-51895333D01*
X188523523Y-51942952D01*
X188618761Y-52038190D01*
X188666380Y-52181047D01*
X188666380Y-52276285D01*
X188666380Y-50895333D02*
X188666380Y-51466761D01*
X188666380Y-51181047D02*
X187666380Y-51181047D01*
X187809238Y-51276285D01*
X187904476Y-51371523D01*
X187952095Y-51466761D01*
X138224380Y-64238095D02*
X137224380Y-64238095D01*
X137224380Y-64000000D01*
X137272000Y-63857142D01*
X137367238Y-63761904D01*
X137462476Y-63714285D01*
X137652952Y-63666666D01*
X137795809Y-63666666D01*
X137986285Y-63714285D01*
X138081523Y-63761904D01*
X138176761Y-63857142D01*
X138224380Y-64000000D01*
X138224380Y-64238095D01*
X138224380Y-62714285D02*
X138224380Y-63285714D01*
X138224380Y-63000000D02*
X137224380Y-63000000D01*
X137367238Y-63095238D01*
X137462476Y-63190476D01*
X137510095Y-63285714D01*
M02*
