G04 #@! TF.GenerationSoftware,KiCad,Pcbnew,5.1.5-52549c5~84~ubuntu18.04.1*
G04 #@! TF.CreationDate,2020-01-23T15:23:27+01:00*
G04 #@! TF.ProjectId,12bitbadge,31326269-7462-4616-9467-652e6b696361,rev?*
G04 #@! TF.SameCoordinates,Original*
G04 #@! TF.FileFunction,Copper,L1,Top*
G04 #@! TF.FilePolarity,Positive*
%FSLAX46Y46*%
G04 Gerber Fmt 4.6, Leading zero omitted, Abs format (unit mm)*
G04 Created by KiCad (PCBNEW 5.1.5-52549c5~84~ubuntu18.04.1) date 2020-01-23 15:23:27*
%MOMM*%
%LPD*%
G04 APERTURE LIST*
%ADD10R,1.060000X0.650000*%
%ADD11C,1.400000*%
%ADD12R,1.400000X1.400000*%
%ADD13C,0.100000*%
%ADD14C,1.700000*%
%ADD15O,1.700000X1.700000*%
%ADD16R,1.700000X1.700000*%
%ADD17O,1.500000X0.800000*%
%ADD18O,1.800000X1.070000*%
%ADD19R,1.800000X1.070000*%
%ADD20C,0.800000*%
%ADD21C,0.500000*%
%ADD22C,0.200000*%
%ADD23C,2.000000*%
%ADD24C,0.250000*%
G04 APERTURE END LIST*
D10*
X187282000Y-76012000D03*
X187282000Y-77912000D03*
X185082000Y-77912000D03*
X185082000Y-76962000D03*
X185082000Y-76012000D03*
X187282000Y-63566000D03*
X187282000Y-65466000D03*
X185082000Y-65466000D03*
X185082000Y-64516000D03*
X185082000Y-63566000D03*
X187282000Y-50612000D03*
X187282000Y-52512000D03*
X185082000Y-52512000D03*
X185082000Y-51562000D03*
X185082000Y-50612000D03*
X182710000Y-76962000D03*
X182710000Y-76012000D03*
X182710000Y-77912000D03*
X180510000Y-77912000D03*
X180510000Y-76962000D03*
X180510000Y-76012000D03*
X182710000Y-64516000D03*
X182710000Y-63566000D03*
X182710000Y-65466000D03*
X180510000Y-65466000D03*
X180510000Y-64516000D03*
X180510000Y-63566000D03*
X182710000Y-51562000D03*
X182710000Y-50612000D03*
X182710000Y-52512000D03*
X180510000Y-52512000D03*
X180510000Y-51562000D03*
X180510000Y-50612000D03*
D11*
X173230000Y-81200000D03*
X173230000Y-78700000D03*
X173230000Y-76200000D03*
X176530000Y-81200000D03*
X176530000Y-78700000D03*
D12*
X176530000Y-76200000D03*
D11*
X166880000Y-81200000D03*
X166880000Y-78700000D03*
X166880000Y-76200000D03*
X170180000Y-81200000D03*
X170180000Y-78700000D03*
D12*
X170180000Y-76200000D03*
D11*
X160530000Y-81200000D03*
X160530000Y-78700000D03*
X160530000Y-76200000D03*
X163830000Y-81200000D03*
X163830000Y-78700000D03*
D12*
X163830000Y-76200000D03*
D11*
X154180000Y-81200000D03*
X154180000Y-78700000D03*
X154180000Y-76200000D03*
X157480000Y-81200000D03*
X157480000Y-78700000D03*
D12*
X157480000Y-76200000D03*
D11*
X173230000Y-68500000D03*
X173230000Y-66000000D03*
X173230000Y-63500000D03*
X176530000Y-68500000D03*
X176530000Y-66000000D03*
D12*
X176530000Y-63500000D03*
D11*
X166880000Y-68500000D03*
X166880000Y-66000000D03*
X166880000Y-63500000D03*
X170180000Y-68500000D03*
X170180000Y-66000000D03*
D12*
X170180000Y-63500000D03*
D11*
X160530000Y-68500000D03*
X160530000Y-66000000D03*
X160530000Y-63500000D03*
X163830000Y-68500000D03*
X163830000Y-66000000D03*
D12*
X163830000Y-63500000D03*
D11*
X154180000Y-68500000D03*
X154180000Y-66000000D03*
X154180000Y-63500000D03*
X157480000Y-68500000D03*
X157480000Y-66000000D03*
D12*
X157480000Y-63500000D03*
D11*
X173230000Y-55800000D03*
X173230000Y-53300000D03*
X173230000Y-50800000D03*
X176530000Y-55800000D03*
X176530000Y-53300000D03*
D12*
X176530000Y-50800000D03*
D11*
X166880000Y-55800000D03*
X166880000Y-53300000D03*
X166880000Y-50800000D03*
X170180000Y-55800000D03*
X170180000Y-53300000D03*
D12*
X170180000Y-50800000D03*
D11*
X160530000Y-55800000D03*
X160530000Y-53300000D03*
X160530000Y-50800000D03*
X163830000Y-55800000D03*
X163830000Y-53300000D03*
D12*
X163830000Y-50800000D03*
D11*
X154180000Y-55800000D03*
X154180000Y-53300000D03*
X154180000Y-50800000D03*
X157480000Y-55800000D03*
X157480000Y-53300000D03*
D12*
X157480000Y-50800000D03*
G04 #@! TA.AperFunction,SMDPad,CuDef*
D13*
G36*
X147998642Y-65849174D02*
G01*
X148022303Y-65852684D01*
X148045507Y-65858496D01*
X148068029Y-65866554D01*
X148089653Y-65876782D01*
X148110170Y-65889079D01*
X148129383Y-65903329D01*
X148147107Y-65919393D01*
X148163171Y-65937117D01*
X148177421Y-65956330D01*
X148189718Y-65976847D01*
X148199946Y-65998471D01*
X148208004Y-66020993D01*
X148213816Y-66044197D01*
X148217326Y-66067858D01*
X148218500Y-66091750D01*
X148218500Y-67004250D01*
X148217326Y-67028142D01*
X148213816Y-67051803D01*
X148208004Y-67075007D01*
X148199946Y-67097529D01*
X148189718Y-67119153D01*
X148177421Y-67139670D01*
X148163171Y-67158883D01*
X148147107Y-67176607D01*
X148129383Y-67192671D01*
X148110170Y-67206921D01*
X148089653Y-67219218D01*
X148068029Y-67229446D01*
X148045507Y-67237504D01*
X148022303Y-67243316D01*
X147998642Y-67246826D01*
X147974750Y-67248000D01*
X147487250Y-67248000D01*
X147463358Y-67246826D01*
X147439697Y-67243316D01*
X147416493Y-67237504D01*
X147393971Y-67229446D01*
X147372347Y-67219218D01*
X147351830Y-67206921D01*
X147332617Y-67192671D01*
X147314893Y-67176607D01*
X147298829Y-67158883D01*
X147284579Y-67139670D01*
X147272282Y-67119153D01*
X147262054Y-67097529D01*
X147253996Y-67075007D01*
X147248184Y-67051803D01*
X147244674Y-67028142D01*
X147243500Y-67004250D01*
X147243500Y-66091750D01*
X147244674Y-66067858D01*
X147248184Y-66044197D01*
X147253996Y-66020993D01*
X147262054Y-65998471D01*
X147272282Y-65976847D01*
X147284579Y-65956330D01*
X147298829Y-65937117D01*
X147314893Y-65919393D01*
X147332617Y-65903329D01*
X147351830Y-65889079D01*
X147372347Y-65876782D01*
X147393971Y-65866554D01*
X147416493Y-65858496D01*
X147439697Y-65852684D01*
X147463358Y-65849174D01*
X147487250Y-65848000D01*
X147974750Y-65848000D01*
X147998642Y-65849174D01*
G37*
G04 #@! TD.AperFunction*
G04 #@! TA.AperFunction,SMDPad,CuDef*
G36*
X149873642Y-65849174D02*
G01*
X149897303Y-65852684D01*
X149920507Y-65858496D01*
X149943029Y-65866554D01*
X149964653Y-65876782D01*
X149985170Y-65889079D01*
X150004383Y-65903329D01*
X150022107Y-65919393D01*
X150038171Y-65937117D01*
X150052421Y-65956330D01*
X150064718Y-65976847D01*
X150074946Y-65998471D01*
X150083004Y-66020993D01*
X150088816Y-66044197D01*
X150092326Y-66067858D01*
X150093500Y-66091750D01*
X150093500Y-67004250D01*
X150092326Y-67028142D01*
X150088816Y-67051803D01*
X150083004Y-67075007D01*
X150074946Y-67097529D01*
X150064718Y-67119153D01*
X150052421Y-67139670D01*
X150038171Y-67158883D01*
X150022107Y-67176607D01*
X150004383Y-67192671D01*
X149985170Y-67206921D01*
X149964653Y-67219218D01*
X149943029Y-67229446D01*
X149920507Y-67237504D01*
X149897303Y-67243316D01*
X149873642Y-67246826D01*
X149849750Y-67248000D01*
X149362250Y-67248000D01*
X149338358Y-67246826D01*
X149314697Y-67243316D01*
X149291493Y-67237504D01*
X149268971Y-67229446D01*
X149247347Y-67219218D01*
X149226830Y-67206921D01*
X149207617Y-67192671D01*
X149189893Y-67176607D01*
X149173829Y-67158883D01*
X149159579Y-67139670D01*
X149147282Y-67119153D01*
X149137054Y-67097529D01*
X149128996Y-67075007D01*
X149123184Y-67051803D01*
X149119674Y-67028142D01*
X149118500Y-67004250D01*
X149118500Y-66091750D01*
X149119674Y-66067858D01*
X149123184Y-66044197D01*
X149128996Y-66020993D01*
X149137054Y-65998471D01*
X149147282Y-65976847D01*
X149159579Y-65956330D01*
X149173829Y-65937117D01*
X149189893Y-65919393D01*
X149207617Y-65903329D01*
X149226830Y-65889079D01*
X149247347Y-65876782D01*
X149268971Y-65866554D01*
X149291493Y-65858496D01*
X149314697Y-65852684D01*
X149338358Y-65849174D01*
X149362250Y-65848000D01*
X149849750Y-65848000D01*
X149873642Y-65849174D01*
G37*
G04 #@! TD.AperFunction*
G04 #@! TA.AperFunction,SMDPad,CuDef*
G36*
X147920142Y-62674174D02*
G01*
X147943803Y-62677684D01*
X147967007Y-62683496D01*
X147989529Y-62691554D01*
X148011153Y-62701782D01*
X148031670Y-62714079D01*
X148050883Y-62728329D01*
X148068607Y-62744393D01*
X148084671Y-62762117D01*
X148098921Y-62781330D01*
X148111218Y-62801847D01*
X148121446Y-62823471D01*
X148129504Y-62845993D01*
X148135316Y-62869197D01*
X148138826Y-62892858D01*
X148140000Y-62916750D01*
X148140000Y-63829250D01*
X148138826Y-63853142D01*
X148135316Y-63876803D01*
X148129504Y-63900007D01*
X148121446Y-63922529D01*
X148111218Y-63944153D01*
X148098921Y-63964670D01*
X148084671Y-63983883D01*
X148068607Y-64001607D01*
X148050883Y-64017671D01*
X148031670Y-64031921D01*
X148011153Y-64044218D01*
X147989529Y-64054446D01*
X147967007Y-64062504D01*
X147943803Y-64068316D01*
X147920142Y-64071826D01*
X147896250Y-64073000D01*
X147408750Y-64073000D01*
X147384858Y-64071826D01*
X147361197Y-64068316D01*
X147337993Y-64062504D01*
X147315471Y-64054446D01*
X147293847Y-64044218D01*
X147273330Y-64031921D01*
X147254117Y-64017671D01*
X147236393Y-64001607D01*
X147220329Y-63983883D01*
X147206079Y-63964670D01*
X147193782Y-63944153D01*
X147183554Y-63922529D01*
X147175496Y-63900007D01*
X147169684Y-63876803D01*
X147166174Y-63853142D01*
X147165000Y-63829250D01*
X147165000Y-62916750D01*
X147166174Y-62892858D01*
X147169684Y-62869197D01*
X147175496Y-62845993D01*
X147183554Y-62823471D01*
X147193782Y-62801847D01*
X147206079Y-62781330D01*
X147220329Y-62762117D01*
X147236393Y-62744393D01*
X147254117Y-62728329D01*
X147273330Y-62714079D01*
X147293847Y-62701782D01*
X147315471Y-62691554D01*
X147337993Y-62683496D01*
X147361197Y-62677684D01*
X147384858Y-62674174D01*
X147408750Y-62673000D01*
X147896250Y-62673000D01*
X147920142Y-62674174D01*
G37*
G04 #@! TD.AperFunction*
G04 #@! TA.AperFunction,SMDPad,CuDef*
G36*
X149795142Y-62674174D02*
G01*
X149818803Y-62677684D01*
X149842007Y-62683496D01*
X149864529Y-62691554D01*
X149886153Y-62701782D01*
X149906670Y-62714079D01*
X149925883Y-62728329D01*
X149943607Y-62744393D01*
X149959671Y-62762117D01*
X149973921Y-62781330D01*
X149986218Y-62801847D01*
X149996446Y-62823471D01*
X150004504Y-62845993D01*
X150010316Y-62869197D01*
X150013826Y-62892858D01*
X150015000Y-62916750D01*
X150015000Y-63829250D01*
X150013826Y-63853142D01*
X150010316Y-63876803D01*
X150004504Y-63900007D01*
X149996446Y-63922529D01*
X149986218Y-63944153D01*
X149973921Y-63964670D01*
X149959671Y-63983883D01*
X149943607Y-64001607D01*
X149925883Y-64017671D01*
X149906670Y-64031921D01*
X149886153Y-64044218D01*
X149864529Y-64054446D01*
X149842007Y-64062504D01*
X149818803Y-64068316D01*
X149795142Y-64071826D01*
X149771250Y-64073000D01*
X149283750Y-64073000D01*
X149259858Y-64071826D01*
X149236197Y-64068316D01*
X149212993Y-64062504D01*
X149190471Y-64054446D01*
X149168847Y-64044218D01*
X149148330Y-64031921D01*
X149129117Y-64017671D01*
X149111393Y-64001607D01*
X149095329Y-63983883D01*
X149081079Y-63964670D01*
X149068782Y-63944153D01*
X149058554Y-63922529D01*
X149050496Y-63900007D01*
X149044684Y-63876803D01*
X149041174Y-63853142D01*
X149040000Y-63829250D01*
X149040000Y-62916750D01*
X149041174Y-62892858D01*
X149044684Y-62869197D01*
X149050496Y-62845993D01*
X149058554Y-62823471D01*
X149068782Y-62801847D01*
X149081079Y-62781330D01*
X149095329Y-62762117D01*
X149111393Y-62744393D01*
X149129117Y-62728329D01*
X149148330Y-62714079D01*
X149168847Y-62701782D01*
X149190471Y-62691554D01*
X149212993Y-62683496D01*
X149236197Y-62677684D01*
X149259858Y-62674174D01*
X149283750Y-62673000D01*
X149771250Y-62673000D01*
X149795142Y-62674174D01*
G37*
G04 #@! TD.AperFunction*
G04 #@! TA.AperFunction,SMDPad,CuDef*
G36*
X147920142Y-59626174D02*
G01*
X147943803Y-59629684D01*
X147967007Y-59635496D01*
X147989529Y-59643554D01*
X148011153Y-59653782D01*
X148031670Y-59666079D01*
X148050883Y-59680329D01*
X148068607Y-59696393D01*
X148084671Y-59714117D01*
X148098921Y-59733330D01*
X148111218Y-59753847D01*
X148121446Y-59775471D01*
X148129504Y-59797993D01*
X148135316Y-59821197D01*
X148138826Y-59844858D01*
X148140000Y-59868750D01*
X148140000Y-60781250D01*
X148138826Y-60805142D01*
X148135316Y-60828803D01*
X148129504Y-60852007D01*
X148121446Y-60874529D01*
X148111218Y-60896153D01*
X148098921Y-60916670D01*
X148084671Y-60935883D01*
X148068607Y-60953607D01*
X148050883Y-60969671D01*
X148031670Y-60983921D01*
X148011153Y-60996218D01*
X147989529Y-61006446D01*
X147967007Y-61014504D01*
X147943803Y-61020316D01*
X147920142Y-61023826D01*
X147896250Y-61025000D01*
X147408750Y-61025000D01*
X147384858Y-61023826D01*
X147361197Y-61020316D01*
X147337993Y-61014504D01*
X147315471Y-61006446D01*
X147293847Y-60996218D01*
X147273330Y-60983921D01*
X147254117Y-60969671D01*
X147236393Y-60953607D01*
X147220329Y-60935883D01*
X147206079Y-60916670D01*
X147193782Y-60896153D01*
X147183554Y-60874529D01*
X147175496Y-60852007D01*
X147169684Y-60828803D01*
X147166174Y-60805142D01*
X147165000Y-60781250D01*
X147165000Y-59868750D01*
X147166174Y-59844858D01*
X147169684Y-59821197D01*
X147175496Y-59797993D01*
X147183554Y-59775471D01*
X147193782Y-59753847D01*
X147206079Y-59733330D01*
X147220329Y-59714117D01*
X147236393Y-59696393D01*
X147254117Y-59680329D01*
X147273330Y-59666079D01*
X147293847Y-59653782D01*
X147315471Y-59643554D01*
X147337993Y-59635496D01*
X147361197Y-59629684D01*
X147384858Y-59626174D01*
X147408750Y-59625000D01*
X147896250Y-59625000D01*
X147920142Y-59626174D01*
G37*
G04 #@! TD.AperFunction*
G04 #@! TA.AperFunction,SMDPad,CuDef*
G36*
X149795142Y-59626174D02*
G01*
X149818803Y-59629684D01*
X149842007Y-59635496D01*
X149864529Y-59643554D01*
X149886153Y-59653782D01*
X149906670Y-59666079D01*
X149925883Y-59680329D01*
X149943607Y-59696393D01*
X149959671Y-59714117D01*
X149973921Y-59733330D01*
X149986218Y-59753847D01*
X149996446Y-59775471D01*
X150004504Y-59797993D01*
X150010316Y-59821197D01*
X150013826Y-59844858D01*
X150015000Y-59868750D01*
X150015000Y-60781250D01*
X150013826Y-60805142D01*
X150010316Y-60828803D01*
X150004504Y-60852007D01*
X149996446Y-60874529D01*
X149986218Y-60896153D01*
X149973921Y-60916670D01*
X149959671Y-60935883D01*
X149943607Y-60953607D01*
X149925883Y-60969671D01*
X149906670Y-60983921D01*
X149886153Y-60996218D01*
X149864529Y-61006446D01*
X149842007Y-61014504D01*
X149818803Y-61020316D01*
X149795142Y-61023826D01*
X149771250Y-61025000D01*
X149283750Y-61025000D01*
X149259858Y-61023826D01*
X149236197Y-61020316D01*
X149212993Y-61014504D01*
X149190471Y-61006446D01*
X149168847Y-60996218D01*
X149148330Y-60983921D01*
X149129117Y-60969671D01*
X149111393Y-60953607D01*
X149095329Y-60935883D01*
X149081079Y-60916670D01*
X149068782Y-60896153D01*
X149058554Y-60874529D01*
X149050496Y-60852007D01*
X149044684Y-60828803D01*
X149041174Y-60805142D01*
X149040000Y-60781250D01*
X149040000Y-59868750D01*
X149041174Y-59844858D01*
X149044684Y-59821197D01*
X149050496Y-59797993D01*
X149058554Y-59775471D01*
X149068782Y-59753847D01*
X149081079Y-59733330D01*
X149095329Y-59714117D01*
X149111393Y-59696393D01*
X149129117Y-59680329D01*
X149148330Y-59666079D01*
X149168847Y-59653782D01*
X149190471Y-59643554D01*
X149212993Y-59635496D01*
X149236197Y-59629684D01*
X149259858Y-59626174D01*
X149283750Y-59625000D01*
X149771250Y-59625000D01*
X149795142Y-59626174D01*
G37*
G04 #@! TD.AperFunction*
G04 #@! TA.AperFunction,SMDPad,CuDef*
G36*
X180058142Y-80188674D02*
G01*
X180081803Y-80192184D01*
X180105007Y-80197996D01*
X180127529Y-80206054D01*
X180149153Y-80216282D01*
X180169670Y-80228579D01*
X180188883Y-80242829D01*
X180206607Y-80258893D01*
X180222671Y-80276617D01*
X180236921Y-80295830D01*
X180249218Y-80316347D01*
X180259446Y-80337971D01*
X180267504Y-80360493D01*
X180273316Y-80383697D01*
X180276826Y-80407358D01*
X180278000Y-80431250D01*
X180278000Y-80918750D01*
X180276826Y-80942642D01*
X180273316Y-80966303D01*
X180267504Y-80989507D01*
X180259446Y-81012029D01*
X180249218Y-81033653D01*
X180236921Y-81054170D01*
X180222671Y-81073383D01*
X180206607Y-81091107D01*
X180188883Y-81107171D01*
X180169670Y-81121421D01*
X180149153Y-81133718D01*
X180127529Y-81143946D01*
X180105007Y-81152004D01*
X180081803Y-81157816D01*
X180058142Y-81161326D01*
X180034250Y-81162500D01*
X179121750Y-81162500D01*
X179097858Y-81161326D01*
X179074197Y-81157816D01*
X179050993Y-81152004D01*
X179028471Y-81143946D01*
X179006847Y-81133718D01*
X178986330Y-81121421D01*
X178967117Y-81107171D01*
X178949393Y-81091107D01*
X178933329Y-81073383D01*
X178919079Y-81054170D01*
X178906782Y-81033653D01*
X178896554Y-81012029D01*
X178888496Y-80989507D01*
X178882684Y-80966303D01*
X178879174Y-80942642D01*
X178878000Y-80918750D01*
X178878000Y-80431250D01*
X178879174Y-80407358D01*
X178882684Y-80383697D01*
X178888496Y-80360493D01*
X178896554Y-80337971D01*
X178906782Y-80316347D01*
X178919079Y-80295830D01*
X178933329Y-80276617D01*
X178949393Y-80258893D01*
X178967117Y-80242829D01*
X178986330Y-80228579D01*
X179006847Y-80216282D01*
X179028471Y-80206054D01*
X179050993Y-80197996D01*
X179074197Y-80192184D01*
X179097858Y-80188674D01*
X179121750Y-80187500D01*
X180034250Y-80187500D01*
X180058142Y-80188674D01*
G37*
G04 #@! TD.AperFunction*
G04 #@! TA.AperFunction,SMDPad,CuDef*
G36*
X180058142Y-82063674D02*
G01*
X180081803Y-82067184D01*
X180105007Y-82072996D01*
X180127529Y-82081054D01*
X180149153Y-82091282D01*
X180169670Y-82103579D01*
X180188883Y-82117829D01*
X180206607Y-82133893D01*
X180222671Y-82151617D01*
X180236921Y-82170830D01*
X180249218Y-82191347D01*
X180259446Y-82212971D01*
X180267504Y-82235493D01*
X180273316Y-82258697D01*
X180276826Y-82282358D01*
X180278000Y-82306250D01*
X180278000Y-82793750D01*
X180276826Y-82817642D01*
X180273316Y-82841303D01*
X180267504Y-82864507D01*
X180259446Y-82887029D01*
X180249218Y-82908653D01*
X180236921Y-82929170D01*
X180222671Y-82948383D01*
X180206607Y-82966107D01*
X180188883Y-82982171D01*
X180169670Y-82996421D01*
X180149153Y-83008718D01*
X180127529Y-83018946D01*
X180105007Y-83027004D01*
X180081803Y-83032816D01*
X180058142Y-83036326D01*
X180034250Y-83037500D01*
X179121750Y-83037500D01*
X179097858Y-83036326D01*
X179074197Y-83032816D01*
X179050993Y-83027004D01*
X179028471Y-83018946D01*
X179006847Y-83008718D01*
X178986330Y-82996421D01*
X178967117Y-82982171D01*
X178949393Y-82966107D01*
X178933329Y-82948383D01*
X178919079Y-82929170D01*
X178906782Y-82908653D01*
X178896554Y-82887029D01*
X178888496Y-82864507D01*
X178882684Y-82841303D01*
X178879174Y-82817642D01*
X178878000Y-82793750D01*
X178878000Y-82306250D01*
X178879174Y-82282358D01*
X178882684Y-82258697D01*
X178888496Y-82235493D01*
X178896554Y-82212971D01*
X178906782Y-82191347D01*
X178919079Y-82170830D01*
X178933329Y-82151617D01*
X178949393Y-82133893D01*
X178967117Y-82117829D01*
X178986330Y-82103579D01*
X179006847Y-82091282D01*
X179028471Y-82081054D01*
X179050993Y-82072996D01*
X179074197Y-82067184D01*
X179097858Y-82063674D01*
X179121750Y-82062500D01*
X180034250Y-82062500D01*
X180058142Y-82063674D01*
G37*
G04 #@! TD.AperFunction*
G04 #@! TA.AperFunction,SMDPad,CuDef*
G36*
X176211142Y-71945174D02*
G01*
X176234803Y-71948684D01*
X176258007Y-71954496D01*
X176280529Y-71962554D01*
X176302153Y-71972782D01*
X176322670Y-71985079D01*
X176341883Y-71999329D01*
X176359607Y-72015393D01*
X176375671Y-72033117D01*
X176389921Y-72052330D01*
X176402218Y-72072847D01*
X176412446Y-72094471D01*
X176420504Y-72116993D01*
X176426316Y-72140197D01*
X176429826Y-72163858D01*
X176431000Y-72187750D01*
X176431000Y-73100250D01*
X176429826Y-73124142D01*
X176426316Y-73147803D01*
X176420504Y-73171007D01*
X176412446Y-73193529D01*
X176402218Y-73215153D01*
X176389921Y-73235670D01*
X176375671Y-73254883D01*
X176359607Y-73272607D01*
X176341883Y-73288671D01*
X176322670Y-73302921D01*
X176302153Y-73315218D01*
X176280529Y-73325446D01*
X176258007Y-73333504D01*
X176234803Y-73339316D01*
X176211142Y-73342826D01*
X176187250Y-73344000D01*
X175699750Y-73344000D01*
X175675858Y-73342826D01*
X175652197Y-73339316D01*
X175628993Y-73333504D01*
X175606471Y-73325446D01*
X175584847Y-73315218D01*
X175564330Y-73302921D01*
X175545117Y-73288671D01*
X175527393Y-73272607D01*
X175511329Y-73254883D01*
X175497079Y-73235670D01*
X175484782Y-73215153D01*
X175474554Y-73193529D01*
X175466496Y-73171007D01*
X175460684Y-73147803D01*
X175457174Y-73124142D01*
X175456000Y-73100250D01*
X175456000Y-72187750D01*
X175457174Y-72163858D01*
X175460684Y-72140197D01*
X175466496Y-72116993D01*
X175474554Y-72094471D01*
X175484782Y-72072847D01*
X175497079Y-72052330D01*
X175511329Y-72033117D01*
X175527393Y-72015393D01*
X175545117Y-71999329D01*
X175564330Y-71985079D01*
X175584847Y-71972782D01*
X175606471Y-71962554D01*
X175628993Y-71954496D01*
X175652197Y-71948684D01*
X175675858Y-71945174D01*
X175699750Y-71944000D01*
X176187250Y-71944000D01*
X176211142Y-71945174D01*
G37*
G04 #@! TD.AperFunction*
G04 #@! TA.AperFunction,SMDPad,CuDef*
G36*
X174336142Y-71945174D02*
G01*
X174359803Y-71948684D01*
X174383007Y-71954496D01*
X174405529Y-71962554D01*
X174427153Y-71972782D01*
X174447670Y-71985079D01*
X174466883Y-71999329D01*
X174484607Y-72015393D01*
X174500671Y-72033117D01*
X174514921Y-72052330D01*
X174527218Y-72072847D01*
X174537446Y-72094471D01*
X174545504Y-72116993D01*
X174551316Y-72140197D01*
X174554826Y-72163858D01*
X174556000Y-72187750D01*
X174556000Y-73100250D01*
X174554826Y-73124142D01*
X174551316Y-73147803D01*
X174545504Y-73171007D01*
X174537446Y-73193529D01*
X174527218Y-73215153D01*
X174514921Y-73235670D01*
X174500671Y-73254883D01*
X174484607Y-73272607D01*
X174466883Y-73288671D01*
X174447670Y-73302921D01*
X174427153Y-73315218D01*
X174405529Y-73325446D01*
X174383007Y-73333504D01*
X174359803Y-73339316D01*
X174336142Y-73342826D01*
X174312250Y-73344000D01*
X173824750Y-73344000D01*
X173800858Y-73342826D01*
X173777197Y-73339316D01*
X173753993Y-73333504D01*
X173731471Y-73325446D01*
X173709847Y-73315218D01*
X173689330Y-73302921D01*
X173670117Y-73288671D01*
X173652393Y-73272607D01*
X173636329Y-73254883D01*
X173622079Y-73235670D01*
X173609782Y-73215153D01*
X173599554Y-73193529D01*
X173591496Y-73171007D01*
X173585684Y-73147803D01*
X173582174Y-73124142D01*
X173581000Y-73100250D01*
X173581000Y-72187750D01*
X173582174Y-72163858D01*
X173585684Y-72140197D01*
X173591496Y-72116993D01*
X173599554Y-72094471D01*
X173609782Y-72072847D01*
X173622079Y-72052330D01*
X173636329Y-72033117D01*
X173652393Y-72015393D01*
X173670117Y-71999329D01*
X173689330Y-71985079D01*
X173709847Y-71972782D01*
X173731471Y-71962554D01*
X173753993Y-71954496D01*
X173777197Y-71948684D01*
X173800858Y-71945174D01*
X173824750Y-71944000D01*
X174312250Y-71944000D01*
X174336142Y-71945174D01*
G37*
G04 #@! TD.AperFunction*
G04 #@! TA.AperFunction,SMDPad,CuDef*
G36*
X169861142Y-71945174D02*
G01*
X169884803Y-71948684D01*
X169908007Y-71954496D01*
X169930529Y-71962554D01*
X169952153Y-71972782D01*
X169972670Y-71985079D01*
X169991883Y-71999329D01*
X170009607Y-72015393D01*
X170025671Y-72033117D01*
X170039921Y-72052330D01*
X170052218Y-72072847D01*
X170062446Y-72094471D01*
X170070504Y-72116993D01*
X170076316Y-72140197D01*
X170079826Y-72163858D01*
X170081000Y-72187750D01*
X170081000Y-73100250D01*
X170079826Y-73124142D01*
X170076316Y-73147803D01*
X170070504Y-73171007D01*
X170062446Y-73193529D01*
X170052218Y-73215153D01*
X170039921Y-73235670D01*
X170025671Y-73254883D01*
X170009607Y-73272607D01*
X169991883Y-73288671D01*
X169972670Y-73302921D01*
X169952153Y-73315218D01*
X169930529Y-73325446D01*
X169908007Y-73333504D01*
X169884803Y-73339316D01*
X169861142Y-73342826D01*
X169837250Y-73344000D01*
X169349750Y-73344000D01*
X169325858Y-73342826D01*
X169302197Y-73339316D01*
X169278993Y-73333504D01*
X169256471Y-73325446D01*
X169234847Y-73315218D01*
X169214330Y-73302921D01*
X169195117Y-73288671D01*
X169177393Y-73272607D01*
X169161329Y-73254883D01*
X169147079Y-73235670D01*
X169134782Y-73215153D01*
X169124554Y-73193529D01*
X169116496Y-73171007D01*
X169110684Y-73147803D01*
X169107174Y-73124142D01*
X169106000Y-73100250D01*
X169106000Y-72187750D01*
X169107174Y-72163858D01*
X169110684Y-72140197D01*
X169116496Y-72116993D01*
X169124554Y-72094471D01*
X169134782Y-72072847D01*
X169147079Y-72052330D01*
X169161329Y-72033117D01*
X169177393Y-72015393D01*
X169195117Y-71999329D01*
X169214330Y-71985079D01*
X169234847Y-71972782D01*
X169256471Y-71962554D01*
X169278993Y-71954496D01*
X169302197Y-71948684D01*
X169325858Y-71945174D01*
X169349750Y-71944000D01*
X169837250Y-71944000D01*
X169861142Y-71945174D01*
G37*
G04 #@! TD.AperFunction*
G04 #@! TA.AperFunction,SMDPad,CuDef*
G36*
X167986142Y-71945174D02*
G01*
X168009803Y-71948684D01*
X168033007Y-71954496D01*
X168055529Y-71962554D01*
X168077153Y-71972782D01*
X168097670Y-71985079D01*
X168116883Y-71999329D01*
X168134607Y-72015393D01*
X168150671Y-72033117D01*
X168164921Y-72052330D01*
X168177218Y-72072847D01*
X168187446Y-72094471D01*
X168195504Y-72116993D01*
X168201316Y-72140197D01*
X168204826Y-72163858D01*
X168206000Y-72187750D01*
X168206000Y-73100250D01*
X168204826Y-73124142D01*
X168201316Y-73147803D01*
X168195504Y-73171007D01*
X168187446Y-73193529D01*
X168177218Y-73215153D01*
X168164921Y-73235670D01*
X168150671Y-73254883D01*
X168134607Y-73272607D01*
X168116883Y-73288671D01*
X168097670Y-73302921D01*
X168077153Y-73315218D01*
X168055529Y-73325446D01*
X168033007Y-73333504D01*
X168009803Y-73339316D01*
X167986142Y-73342826D01*
X167962250Y-73344000D01*
X167474750Y-73344000D01*
X167450858Y-73342826D01*
X167427197Y-73339316D01*
X167403993Y-73333504D01*
X167381471Y-73325446D01*
X167359847Y-73315218D01*
X167339330Y-73302921D01*
X167320117Y-73288671D01*
X167302393Y-73272607D01*
X167286329Y-73254883D01*
X167272079Y-73235670D01*
X167259782Y-73215153D01*
X167249554Y-73193529D01*
X167241496Y-73171007D01*
X167235684Y-73147803D01*
X167232174Y-73124142D01*
X167231000Y-73100250D01*
X167231000Y-72187750D01*
X167232174Y-72163858D01*
X167235684Y-72140197D01*
X167241496Y-72116993D01*
X167249554Y-72094471D01*
X167259782Y-72072847D01*
X167272079Y-72052330D01*
X167286329Y-72033117D01*
X167302393Y-72015393D01*
X167320117Y-71999329D01*
X167339330Y-71985079D01*
X167359847Y-71972782D01*
X167381471Y-71962554D01*
X167403993Y-71954496D01*
X167427197Y-71948684D01*
X167450858Y-71945174D01*
X167474750Y-71944000D01*
X167962250Y-71944000D01*
X167986142Y-71945174D01*
G37*
G04 #@! TD.AperFunction*
G04 #@! TA.AperFunction,SMDPad,CuDef*
G36*
X163511142Y-71945174D02*
G01*
X163534803Y-71948684D01*
X163558007Y-71954496D01*
X163580529Y-71962554D01*
X163602153Y-71972782D01*
X163622670Y-71985079D01*
X163641883Y-71999329D01*
X163659607Y-72015393D01*
X163675671Y-72033117D01*
X163689921Y-72052330D01*
X163702218Y-72072847D01*
X163712446Y-72094471D01*
X163720504Y-72116993D01*
X163726316Y-72140197D01*
X163729826Y-72163858D01*
X163731000Y-72187750D01*
X163731000Y-73100250D01*
X163729826Y-73124142D01*
X163726316Y-73147803D01*
X163720504Y-73171007D01*
X163712446Y-73193529D01*
X163702218Y-73215153D01*
X163689921Y-73235670D01*
X163675671Y-73254883D01*
X163659607Y-73272607D01*
X163641883Y-73288671D01*
X163622670Y-73302921D01*
X163602153Y-73315218D01*
X163580529Y-73325446D01*
X163558007Y-73333504D01*
X163534803Y-73339316D01*
X163511142Y-73342826D01*
X163487250Y-73344000D01*
X162999750Y-73344000D01*
X162975858Y-73342826D01*
X162952197Y-73339316D01*
X162928993Y-73333504D01*
X162906471Y-73325446D01*
X162884847Y-73315218D01*
X162864330Y-73302921D01*
X162845117Y-73288671D01*
X162827393Y-73272607D01*
X162811329Y-73254883D01*
X162797079Y-73235670D01*
X162784782Y-73215153D01*
X162774554Y-73193529D01*
X162766496Y-73171007D01*
X162760684Y-73147803D01*
X162757174Y-73124142D01*
X162756000Y-73100250D01*
X162756000Y-72187750D01*
X162757174Y-72163858D01*
X162760684Y-72140197D01*
X162766496Y-72116993D01*
X162774554Y-72094471D01*
X162784782Y-72072847D01*
X162797079Y-72052330D01*
X162811329Y-72033117D01*
X162827393Y-72015393D01*
X162845117Y-71999329D01*
X162864330Y-71985079D01*
X162884847Y-71972782D01*
X162906471Y-71962554D01*
X162928993Y-71954496D01*
X162952197Y-71948684D01*
X162975858Y-71945174D01*
X162999750Y-71944000D01*
X163487250Y-71944000D01*
X163511142Y-71945174D01*
G37*
G04 #@! TD.AperFunction*
G04 #@! TA.AperFunction,SMDPad,CuDef*
G36*
X161636142Y-71945174D02*
G01*
X161659803Y-71948684D01*
X161683007Y-71954496D01*
X161705529Y-71962554D01*
X161727153Y-71972782D01*
X161747670Y-71985079D01*
X161766883Y-71999329D01*
X161784607Y-72015393D01*
X161800671Y-72033117D01*
X161814921Y-72052330D01*
X161827218Y-72072847D01*
X161837446Y-72094471D01*
X161845504Y-72116993D01*
X161851316Y-72140197D01*
X161854826Y-72163858D01*
X161856000Y-72187750D01*
X161856000Y-73100250D01*
X161854826Y-73124142D01*
X161851316Y-73147803D01*
X161845504Y-73171007D01*
X161837446Y-73193529D01*
X161827218Y-73215153D01*
X161814921Y-73235670D01*
X161800671Y-73254883D01*
X161784607Y-73272607D01*
X161766883Y-73288671D01*
X161747670Y-73302921D01*
X161727153Y-73315218D01*
X161705529Y-73325446D01*
X161683007Y-73333504D01*
X161659803Y-73339316D01*
X161636142Y-73342826D01*
X161612250Y-73344000D01*
X161124750Y-73344000D01*
X161100858Y-73342826D01*
X161077197Y-73339316D01*
X161053993Y-73333504D01*
X161031471Y-73325446D01*
X161009847Y-73315218D01*
X160989330Y-73302921D01*
X160970117Y-73288671D01*
X160952393Y-73272607D01*
X160936329Y-73254883D01*
X160922079Y-73235670D01*
X160909782Y-73215153D01*
X160899554Y-73193529D01*
X160891496Y-73171007D01*
X160885684Y-73147803D01*
X160882174Y-73124142D01*
X160881000Y-73100250D01*
X160881000Y-72187750D01*
X160882174Y-72163858D01*
X160885684Y-72140197D01*
X160891496Y-72116993D01*
X160899554Y-72094471D01*
X160909782Y-72072847D01*
X160922079Y-72052330D01*
X160936329Y-72033117D01*
X160952393Y-72015393D01*
X160970117Y-71999329D01*
X160989330Y-71985079D01*
X161009847Y-71972782D01*
X161031471Y-71962554D01*
X161053993Y-71954496D01*
X161077197Y-71948684D01*
X161100858Y-71945174D01*
X161124750Y-71944000D01*
X161612250Y-71944000D01*
X161636142Y-71945174D01*
G37*
G04 #@! TD.AperFunction*
G04 #@! TA.AperFunction,SMDPad,CuDef*
G36*
X157161142Y-71945174D02*
G01*
X157184803Y-71948684D01*
X157208007Y-71954496D01*
X157230529Y-71962554D01*
X157252153Y-71972782D01*
X157272670Y-71985079D01*
X157291883Y-71999329D01*
X157309607Y-72015393D01*
X157325671Y-72033117D01*
X157339921Y-72052330D01*
X157352218Y-72072847D01*
X157362446Y-72094471D01*
X157370504Y-72116993D01*
X157376316Y-72140197D01*
X157379826Y-72163858D01*
X157381000Y-72187750D01*
X157381000Y-73100250D01*
X157379826Y-73124142D01*
X157376316Y-73147803D01*
X157370504Y-73171007D01*
X157362446Y-73193529D01*
X157352218Y-73215153D01*
X157339921Y-73235670D01*
X157325671Y-73254883D01*
X157309607Y-73272607D01*
X157291883Y-73288671D01*
X157272670Y-73302921D01*
X157252153Y-73315218D01*
X157230529Y-73325446D01*
X157208007Y-73333504D01*
X157184803Y-73339316D01*
X157161142Y-73342826D01*
X157137250Y-73344000D01*
X156649750Y-73344000D01*
X156625858Y-73342826D01*
X156602197Y-73339316D01*
X156578993Y-73333504D01*
X156556471Y-73325446D01*
X156534847Y-73315218D01*
X156514330Y-73302921D01*
X156495117Y-73288671D01*
X156477393Y-73272607D01*
X156461329Y-73254883D01*
X156447079Y-73235670D01*
X156434782Y-73215153D01*
X156424554Y-73193529D01*
X156416496Y-73171007D01*
X156410684Y-73147803D01*
X156407174Y-73124142D01*
X156406000Y-73100250D01*
X156406000Y-72187750D01*
X156407174Y-72163858D01*
X156410684Y-72140197D01*
X156416496Y-72116993D01*
X156424554Y-72094471D01*
X156434782Y-72072847D01*
X156447079Y-72052330D01*
X156461329Y-72033117D01*
X156477393Y-72015393D01*
X156495117Y-71999329D01*
X156514330Y-71985079D01*
X156534847Y-71972782D01*
X156556471Y-71962554D01*
X156578993Y-71954496D01*
X156602197Y-71948684D01*
X156625858Y-71945174D01*
X156649750Y-71944000D01*
X157137250Y-71944000D01*
X157161142Y-71945174D01*
G37*
G04 #@! TD.AperFunction*
G04 #@! TA.AperFunction,SMDPad,CuDef*
G36*
X155286142Y-71945174D02*
G01*
X155309803Y-71948684D01*
X155333007Y-71954496D01*
X155355529Y-71962554D01*
X155377153Y-71972782D01*
X155397670Y-71985079D01*
X155416883Y-71999329D01*
X155434607Y-72015393D01*
X155450671Y-72033117D01*
X155464921Y-72052330D01*
X155477218Y-72072847D01*
X155487446Y-72094471D01*
X155495504Y-72116993D01*
X155501316Y-72140197D01*
X155504826Y-72163858D01*
X155506000Y-72187750D01*
X155506000Y-73100250D01*
X155504826Y-73124142D01*
X155501316Y-73147803D01*
X155495504Y-73171007D01*
X155487446Y-73193529D01*
X155477218Y-73215153D01*
X155464921Y-73235670D01*
X155450671Y-73254883D01*
X155434607Y-73272607D01*
X155416883Y-73288671D01*
X155397670Y-73302921D01*
X155377153Y-73315218D01*
X155355529Y-73325446D01*
X155333007Y-73333504D01*
X155309803Y-73339316D01*
X155286142Y-73342826D01*
X155262250Y-73344000D01*
X154774750Y-73344000D01*
X154750858Y-73342826D01*
X154727197Y-73339316D01*
X154703993Y-73333504D01*
X154681471Y-73325446D01*
X154659847Y-73315218D01*
X154639330Y-73302921D01*
X154620117Y-73288671D01*
X154602393Y-73272607D01*
X154586329Y-73254883D01*
X154572079Y-73235670D01*
X154559782Y-73215153D01*
X154549554Y-73193529D01*
X154541496Y-73171007D01*
X154535684Y-73147803D01*
X154532174Y-73124142D01*
X154531000Y-73100250D01*
X154531000Y-72187750D01*
X154532174Y-72163858D01*
X154535684Y-72140197D01*
X154541496Y-72116993D01*
X154549554Y-72094471D01*
X154559782Y-72072847D01*
X154572079Y-72052330D01*
X154586329Y-72033117D01*
X154602393Y-72015393D01*
X154620117Y-71999329D01*
X154639330Y-71985079D01*
X154659847Y-71972782D01*
X154681471Y-71962554D01*
X154703993Y-71954496D01*
X154727197Y-71948684D01*
X154750858Y-71945174D01*
X154774750Y-71944000D01*
X155262250Y-71944000D01*
X155286142Y-71945174D01*
G37*
G04 #@! TD.AperFunction*
G04 #@! TA.AperFunction,SMDPad,CuDef*
G36*
X180058142Y-67664174D02*
G01*
X180081803Y-67667684D01*
X180105007Y-67673496D01*
X180127529Y-67681554D01*
X180149153Y-67691782D01*
X180169670Y-67704079D01*
X180188883Y-67718329D01*
X180206607Y-67734393D01*
X180222671Y-67752117D01*
X180236921Y-67771330D01*
X180249218Y-67791847D01*
X180259446Y-67813471D01*
X180267504Y-67835993D01*
X180273316Y-67859197D01*
X180276826Y-67882858D01*
X180278000Y-67906750D01*
X180278000Y-68394250D01*
X180276826Y-68418142D01*
X180273316Y-68441803D01*
X180267504Y-68465007D01*
X180259446Y-68487529D01*
X180249218Y-68509153D01*
X180236921Y-68529670D01*
X180222671Y-68548883D01*
X180206607Y-68566607D01*
X180188883Y-68582671D01*
X180169670Y-68596921D01*
X180149153Y-68609218D01*
X180127529Y-68619446D01*
X180105007Y-68627504D01*
X180081803Y-68633316D01*
X180058142Y-68636826D01*
X180034250Y-68638000D01*
X179121750Y-68638000D01*
X179097858Y-68636826D01*
X179074197Y-68633316D01*
X179050993Y-68627504D01*
X179028471Y-68619446D01*
X179006847Y-68609218D01*
X178986330Y-68596921D01*
X178967117Y-68582671D01*
X178949393Y-68566607D01*
X178933329Y-68548883D01*
X178919079Y-68529670D01*
X178906782Y-68509153D01*
X178896554Y-68487529D01*
X178888496Y-68465007D01*
X178882684Y-68441803D01*
X178879174Y-68418142D01*
X178878000Y-68394250D01*
X178878000Y-67906750D01*
X178879174Y-67882858D01*
X178882684Y-67859197D01*
X178888496Y-67835993D01*
X178896554Y-67813471D01*
X178906782Y-67791847D01*
X178919079Y-67771330D01*
X178933329Y-67752117D01*
X178949393Y-67734393D01*
X178967117Y-67718329D01*
X178986330Y-67704079D01*
X179006847Y-67691782D01*
X179028471Y-67681554D01*
X179050993Y-67673496D01*
X179074197Y-67667684D01*
X179097858Y-67664174D01*
X179121750Y-67663000D01*
X180034250Y-67663000D01*
X180058142Y-67664174D01*
G37*
G04 #@! TD.AperFunction*
G04 #@! TA.AperFunction,SMDPad,CuDef*
G36*
X180058142Y-69539174D02*
G01*
X180081803Y-69542684D01*
X180105007Y-69548496D01*
X180127529Y-69556554D01*
X180149153Y-69566782D01*
X180169670Y-69579079D01*
X180188883Y-69593329D01*
X180206607Y-69609393D01*
X180222671Y-69627117D01*
X180236921Y-69646330D01*
X180249218Y-69666847D01*
X180259446Y-69688471D01*
X180267504Y-69710993D01*
X180273316Y-69734197D01*
X180276826Y-69757858D01*
X180278000Y-69781750D01*
X180278000Y-70269250D01*
X180276826Y-70293142D01*
X180273316Y-70316803D01*
X180267504Y-70340007D01*
X180259446Y-70362529D01*
X180249218Y-70384153D01*
X180236921Y-70404670D01*
X180222671Y-70423883D01*
X180206607Y-70441607D01*
X180188883Y-70457671D01*
X180169670Y-70471921D01*
X180149153Y-70484218D01*
X180127529Y-70494446D01*
X180105007Y-70502504D01*
X180081803Y-70508316D01*
X180058142Y-70511826D01*
X180034250Y-70513000D01*
X179121750Y-70513000D01*
X179097858Y-70511826D01*
X179074197Y-70508316D01*
X179050993Y-70502504D01*
X179028471Y-70494446D01*
X179006847Y-70484218D01*
X178986330Y-70471921D01*
X178967117Y-70457671D01*
X178949393Y-70441607D01*
X178933329Y-70423883D01*
X178919079Y-70404670D01*
X178906782Y-70384153D01*
X178896554Y-70362529D01*
X178888496Y-70340007D01*
X178882684Y-70316803D01*
X178879174Y-70293142D01*
X178878000Y-70269250D01*
X178878000Y-69781750D01*
X178879174Y-69757858D01*
X178882684Y-69734197D01*
X178888496Y-69710993D01*
X178896554Y-69688471D01*
X178906782Y-69666847D01*
X178919079Y-69646330D01*
X178933329Y-69627117D01*
X178949393Y-69609393D01*
X178967117Y-69593329D01*
X178986330Y-69579079D01*
X179006847Y-69566782D01*
X179028471Y-69556554D01*
X179050993Y-69548496D01*
X179074197Y-69542684D01*
X179097858Y-69539174D01*
X179121750Y-69538000D01*
X180034250Y-69538000D01*
X180058142Y-69539174D01*
G37*
G04 #@! TD.AperFunction*
G04 #@! TA.AperFunction,SMDPad,CuDef*
G36*
X176211142Y-59245174D02*
G01*
X176234803Y-59248684D01*
X176258007Y-59254496D01*
X176280529Y-59262554D01*
X176302153Y-59272782D01*
X176322670Y-59285079D01*
X176341883Y-59299329D01*
X176359607Y-59315393D01*
X176375671Y-59333117D01*
X176389921Y-59352330D01*
X176402218Y-59372847D01*
X176412446Y-59394471D01*
X176420504Y-59416993D01*
X176426316Y-59440197D01*
X176429826Y-59463858D01*
X176431000Y-59487750D01*
X176431000Y-60400250D01*
X176429826Y-60424142D01*
X176426316Y-60447803D01*
X176420504Y-60471007D01*
X176412446Y-60493529D01*
X176402218Y-60515153D01*
X176389921Y-60535670D01*
X176375671Y-60554883D01*
X176359607Y-60572607D01*
X176341883Y-60588671D01*
X176322670Y-60602921D01*
X176302153Y-60615218D01*
X176280529Y-60625446D01*
X176258007Y-60633504D01*
X176234803Y-60639316D01*
X176211142Y-60642826D01*
X176187250Y-60644000D01*
X175699750Y-60644000D01*
X175675858Y-60642826D01*
X175652197Y-60639316D01*
X175628993Y-60633504D01*
X175606471Y-60625446D01*
X175584847Y-60615218D01*
X175564330Y-60602921D01*
X175545117Y-60588671D01*
X175527393Y-60572607D01*
X175511329Y-60554883D01*
X175497079Y-60535670D01*
X175484782Y-60515153D01*
X175474554Y-60493529D01*
X175466496Y-60471007D01*
X175460684Y-60447803D01*
X175457174Y-60424142D01*
X175456000Y-60400250D01*
X175456000Y-59487750D01*
X175457174Y-59463858D01*
X175460684Y-59440197D01*
X175466496Y-59416993D01*
X175474554Y-59394471D01*
X175484782Y-59372847D01*
X175497079Y-59352330D01*
X175511329Y-59333117D01*
X175527393Y-59315393D01*
X175545117Y-59299329D01*
X175564330Y-59285079D01*
X175584847Y-59272782D01*
X175606471Y-59262554D01*
X175628993Y-59254496D01*
X175652197Y-59248684D01*
X175675858Y-59245174D01*
X175699750Y-59244000D01*
X176187250Y-59244000D01*
X176211142Y-59245174D01*
G37*
G04 #@! TD.AperFunction*
G04 #@! TA.AperFunction,SMDPad,CuDef*
G36*
X174336142Y-59245174D02*
G01*
X174359803Y-59248684D01*
X174383007Y-59254496D01*
X174405529Y-59262554D01*
X174427153Y-59272782D01*
X174447670Y-59285079D01*
X174466883Y-59299329D01*
X174484607Y-59315393D01*
X174500671Y-59333117D01*
X174514921Y-59352330D01*
X174527218Y-59372847D01*
X174537446Y-59394471D01*
X174545504Y-59416993D01*
X174551316Y-59440197D01*
X174554826Y-59463858D01*
X174556000Y-59487750D01*
X174556000Y-60400250D01*
X174554826Y-60424142D01*
X174551316Y-60447803D01*
X174545504Y-60471007D01*
X174537446Y-60493529D01*
X174527218Y-60515153D01*
X174514921Y-60535670D01*
X174500671Y-60554883D01*
X174484607Y-60572607D01*
X174466883Y-60588671D01*
X174447670Y-60602921D01*
X174427153Y-60615218D01*
X174405529Y-60625446D01*
X174383007Y-60633504D01*
X174359803Y-60639316D01*
X174336142Y-60642826D01*
X174312250Y-60644000D01*
X173824750Y-60644000D01*
X173800858Y-60642826D01*
X173777197Y-60639316D01*
X173753993Y-60633504D01*
X173731471Y-60625446D01*
X173709847Y-60615218D01*
X173689330Y-60602921D01*
X173670117Y-60588671D01*
X173652393Y-60572607D01*
X173636329Y-60554883D01*
X173622079Y-60535670D01*
X173609782Y-60515153D01*
X173599554Y-60493529D01*
X173591496Y-60471007D01*
X173585684Y-60447803D01*
X173582174Y-60424142D01*
X173581000Y-60400250D01*
X173581000Y-59487750D01*
X173582174Y-59463858D01*
X173585684Y-59440197D01*
X173591496Y-59416993D01*
X173599554Y-59394471D01*
X173609782Y-59372847D01*
X173622079Y-59352330D01*
X173636329Y-59333117D01*
X173652393Y-59315393D01*
X173670117Y-59299329D01*
X173689330Y-59285079D01*
X173709847Y-59272782D01*
X173731471Y-59262554D01*
X173753993Y-59254496D01*
X173777197Y-59248684D01*
X173800858Y-59245174D01*
X173824750Y-59244000D01*
X174312250Y-59244000D01*
X174336142Y-59245174D01*
G37*
G04 #@! TD.AperFunction*
G04 #@! TA.AperFunction,SMDPad,CuDef*
G36*
X169861142Y-59245174D02*
G01*
X169884803Y-59248684D01*
X169908007Y-59254496D01*
X169930529Y-59262554D01*
X169952153Y-59272782D01*
X169972670Y-59285079D01*
X169991883Y-59299329D01*
X170009607Y-59315393D01*
X170025671Y-59333117D01*
X170039921Y-59352330D01*
X170052218Y-59372847D01*
X170062446Y-59394471D01*
X170070504Y-59416993D01*
X170076316Y-59440197D01*
X170079826Y-59463858D01*
X170081000Y-59487750D01*
X170081000Y-60400250D01*
X170079826Y-60424142D01*
X170076316Y-60447803D01*
X170070504Y-60471007D01*
X170062446Y-60493529D01*
X170052218Y-60515153D01*
X170039921Y-60535670D01*
X170025671Y-60554883D01*
X170009607Y-60572607D01*
X169991883Y-60588671D01*
X169972670Y-60602921D01*
X169952153Y-60615218D01*
X169930529Y-60625446D01*
X169908007Y-60633504D01*
X169884803Y-60639316D01*
X169861142Y-60642826D01*
X169837250Y-60644000D01*
X169349750Y-60644000D01*
X169325858Y-60642826D01*
X169302197Y-60639316D01*
X169278993Y-60633504D01*
X169256471Y-60625446D01*
X169234847Y-60615218D01*
X169214330Y-60602921D01*
X169195117Y-60588671D01*
X169177393Y-60572607D01*
X169161329Y-60554883D01*
X169147079Y-60535670D01*
X169134782Y-60515153D01*
X169124554Y-60493529D01*
X169116496Y-60471007D01*
X169110684Y-60447803D01*
X169107174Y-60424142D01*
X169106000Y-60400250D01*
X169106000Y-59487750D01*
X169107174Y-59463858D01*
X169110684Y-59440197D01*
X169116496Y-59416993D01*
X169124554Y-59394471D01*
X169134782Y-59372847D01*
X169147079Y-59352330D01*
X169161329Y-59333117D01*
X169177393Y-59315393D01*
X169195117Y-59299329D01*
X169214330Y-59285079D01*
X169234847Y-59272782D01*
X169256471Y-59262554D01*
X169278993Y-59254496D01*
X169302197Y-59248684D01*
X169325858Y-59245174D01*
X169349750Y-59244000D01*
X169837250Y-59244000D01*
X169861142Y-59245174D01*
G37*
G04 #@! TD.AperFunction*
G04 #@! TA.AperFunction,SMDPad,CuDef*
G36*
X167986142Y-59245174D02*
G01*
X168009803Y-59248684D01*
X168033007Y-59254496D01*
X168055529Y-59262554D01*
X168077153Y-59272782D01*
X168097670Y-59285079D01*
X168116883Y-59299329D01*
X168134607Y-59315393D01*
X168150671Y-59333117D01*
X168164921Y-59352330D01*
X168177218Y-59372847D01*
X168187446Y-59394471D01*
X168195504Y-59416993D01*
X168201316Y-59440197D01*
X168204826Y-59463858D01*
X168206000Y-59487750D01*
X168206000Y-60400250D01*
X168204826Y-60424142D01*
X168201316Y-60447803D01*
X168195504Y-60471007D01*
X168187446Y-60493529D01*
X168177218Y-60515153D01*
X168164921Y-60535670D01*
X168150671Y-60554883D01*
X168134607Y-60572607D01*
X168116883Y-60588671D01*
X168097670Y-60602921D01*
X168077153Y-60615218D01*
X168055529Y-60625446D01*
X168033007Y-60633504D01*
X168009803Y-60639316D01*
X167986142Y-60642826D01*
X167962250Y-60644000D01*
X167474750Y-60644000D01*
X167450858Y-60642826D01*
X167427197Y-60639316D01*
X167403993Y-60633504D01*
X167381471Y-60625446D01*
X167359847Y-60615218D01*
X167339330Y-60602921D01*
X167320117Y-60588671D01*
X167302393Y-60572607D01*
X167286329Y-60554883D01*
X167272079Y-60535670D01*
X167259782Y-60515153D01*
X167249554Y-60493529D01*
X167241496Y-60471007D01*
X167235684Y-60447803D01*
X167232174Y-60424142D01*
X167231000Y-60400250D01*
X167231000Y-59487750D01*
X167232174Y-59463858D01*
X167235684Y-59440197D01*
X167241496Y-59416993D01*
X167249554Y-59394471D01*
X167259782Y-59372847D01*
X167272079Y-59352330D01*
X167286329Y-59333117D01*
X167302393Y-59315393D01*
X167320117Y-59299329D01*
X167339330Y-59285079D01*
X167359847Y-59272782D01*
X167381471Y-59262554D01*
X167403993Y-59254496D01*
X167427197Y-59248684D01*
X167450858Y-59245174D01*
X167474750Y-59244000D01*
X167962250Y-59244000D01*
X167986142Y-59245174D01*
G37*
G04 #@! TD.AperFunction*
G04 #@! TA.AperFunction,SMDPad,CuDef*
G36*
X163511142Y-59245174D02*
G01*
X163534803Y-59248684D01*
X163558007Y-59254496D01*
X163580529Y-59262554D01*
X163602153Y-59272782D01*
X163622670Y-59285079D01*
X163641883Y-59299329D01*
X163659607Y-59315393D01*
X163675671Y-59333117D01*
X163689921Y-59352330D01*
X163702218Y-59372847D01*
X163712446Y-59394471D01*
X163720504Y-59416993D01*
X163726316Y-59440197D01*
X163729826Y-59463858D01*
X163731000Y-59487750D01*
X163731000Y-60400250D01*
X163729826Y-60424142D01*
X163726316Y-60447803D01*
X163720504Y-60471007D01*
X163712446Y-60493529D01*
X163702218Y-60515153D01*
X163689921Y-60535670D01*
X163675671Y-60554883D01*
X163659607Y-60572607D01*
X163641883Y-60588671D01*
X163622670Y-60602921D01*
X163602153Y-60615218D01*
X163580529Y-60625446D01*
X163558007Y-60633504D01*
X163534803Y-60639316D01*
X163511142Y-60642826D01*
X163487250Y-60644000D01*
X162999750Y-60644000D01*
X162975858Y-60642826D01*
X162952197Y-60639316D01*
X162928993Y-60633504D01*
X162906471Y-60625446D01*
X162884847Y-60615218D01*
X162864330Y-60602921D01*
X162845117Y-60588671D01*
X162827393Y-60572607D01*
X162811329Y-60554883D01*
X162797079Y-60535670D01*
X162784782Y-60515153D01*
X162774554Y-60493529D01*
X162766496Y-60471007D01*
X162760684Y-60447803D01*
X162757174Y-60424142D01*
X162756000Y-60400250D01*
X162756000Y-59487750D01*
X162757174Y-59463858D01*
X162760684Y-59440197D01*
X162766496Y-59416993D01*
X162774554Y-59394471D01*
X162784782Y-59372847D01*
X162797079Y-59352330D01*
X162811329Y-59333117D01*
X162827393Y-59315393D01*
X162845117Y-59299329D01*
X162864330Y-59285079D01*
X162884847Y-59272782D01*
X162906471Y-59262554D01*
X162928993Y-59254496D01*
X162952197Y-59248684D01*
X162975858Y-59245174D01*
X162999750Y-59244000D01*
X163487250Y-59244000D01*
X163511142Y-59245174D01*
G37*
G04 #@! TD.AperFunction*
G04 #@! TA.AperFunction,SMDPad,CuDef*
G36*
X161636142Y-59245174D02*
G01*
X161659803Y-59248684D01*
X161683007Y-59254496D01*
X161705529Y-59262554D01*
X161727153Y-59272782D01*
X161747670Y-59285079D01*
X161766883Y-59299329D01*
X161784607Y-59315393D01*
X161800671Y-59333117D01*
X161814921Y-59352330D01*
X161827218Y-59372847D01*
X161837446Y-59394471D01*
X161845504Y-59416993D01*
X161851316Y-59440197D01*
X161854826Y-59463858D01*
X161856000Y-59487750D01*
X161856000Y-60400250D01*
X161854826Y-60424142D01*
X161851316Y-60447803D01*
X161845504Y-60471007D01*
X161837446Y-60493529D01*
X161827218Y-60515153D01*
X161814921Y-60535670D01*
X161800671Y-60554883D01*
X161784607Y-60572607D01*
X161766883Y-60588671D01*
X161747670Y-60602921D01*
X161727153Y-60615218D01*
X161705529Y-60625446D01*
X161683007Y-60633504D01*
X161659803Y-60639316D01*
X161636142Y-60642826D01*
X161612250Y-60644000D01*
X161124750Y-60644000D01*
X161100858Y-60642826D01*
X161077197Y-60639316D01*
X161053993Y-60633504D01*
X161031471Y-60625446D01*
X161009847Y-60615218D01*
X160989330Y-60602921D01*
X160970117Y-60588671D01*
X160952393Y-60572607D01*
X160936329Y-60554883D01*
X160922079Y-60535670D01*
X160909782Y-60515153D01*
X160899554Y-60493529D01*
X160891496Y-60471007D01*
X160885684Y-60447803D01*
X160882174Y-60424142D01*
X160881000Y-60400250D01*
X160881000Y-59487750D01*
X160882174Y-59463858D01*
X160885684Y-59440197D01*
X160891496Y-59416993D01*
X160899554Y-59394471D01*
X160909782Y-59372847D01*
X160922079Y-59352330D01*
X160936329Y-59333117D01*
X160952393Y-59315393D01*
X160970117Y-59299329D01*
X160989330Y-59285079D01*
X161009847Y-59272782D01*
X161031471Y-59262554D01*
X161053993Y-59254496D01*
X161077197Y-59248684D01*
X161100858Y-59245174D01*
X161124750Y-59244000D01*
X161612250Y-59244000D01*
X161636142Y-59245174D01*
G37*
G04 #@! TD.AperFunction*
G04 #@! TA.AperFunction,SMDPad,CuDef*
G36*
X157161142Y-59245174D02*
G01*
X157184803Y-59248684D01*
X157208007Y-59254496D01*
X157230529Y-59262554D01*
X157252153Y-59272782D01*
X157272670Y-59285079D01*
X157291883Y-59299329D01*
X157309607Y-59315393D01*
X157325671Y-59333117D01*
X157339921Y-59352330D01*
X157352218Y-59372847D01*
X157362446Y-59394471D01*
X157370504Y-59416993D01*
X157376316Y-59440197D01*
X157379826Y-59463858D01*
X157381000Y-59487750D01*
X157381000Y-60400250D01*
X157379826Y-60424142D01*
X157376316Y-60447803D01*
X157370504Y-60471007D01*
X157362446Y-60493529D01*
X157352218Y-60515153D01*
X157339921Y-60535670D01*
X157325671Y-60554883D01*
X157309607Y-60572607D01*
X157291883Y-60588671D01*
X157272670Y-60602921D01*
X157252153Y-60615218D01*
X157230529Y-60625446D01*
X157208007Y-60633504D01*
X157184803Y-60639316D01*
X157161142Y-60642826D01*
X157137250Y-60644000D01*
X156649750Y-60644000D01*
X156625858Y-60642826D01*
X156602197Y-60639316D01*
X156578993Y-60633504D01*
X156556471Y-60625446D01*
X156534847Y-60615218D01*
X156514330Y-60602921D01*
X156495117Y-60588671D01*
X156477393Y-60572607D01*
X156461329Y-60554883D01*
X156447079Y-60535670D01*
X156434782Y-60515153D01*
X156424554Y-60493529D01*
X156416496Y-60471007D01*
X156410684Y-60447803D01*
X156407174Y-60424142D01*
X156406000Y-60400250D01*
X156406000Y-59487750D01*
X156407174Y-59463858D01*
X156410684Y-59440197D01*
X156416496Y-59416993D01*
X156424554Y-59394471D01*
X156434782Y-59372847D01*
X156447079Y-59352330D01*
X156461329Y-59333117D01*
X156477393Y-59315393D01*
X156495117Y-59299329D01*
X156514330Y-59285079D01*
X156534847Y-59272782D01*
X156556471Y-59262554D01*
X156578993Y-59254496D01*
X156602197Y-59248684D01*
X156625858Y-59245174D01*
X156649750Y-59244000D01*
X157137250Y-59244000D01*
X157161142Y-59245174D01*
G37*
G04 #@! TD.AperFunction*
G04 #@! TA.AperFunction,SMDPad,CuDef*
G36*
X155286142Y-59245174D02*
G01*
X155309803Y-59248684D01*
X155333007Y-59254496D01*
X155355529Y-59262554D01*
X155377153Y-59272782D01*
X155397670Y-59285079D01*
X155416883Y-59299329D01*
X155434607Y-59315393D01*
X155450671Y-59333117D01*
X155464921Y-59352330D01*
X155477218Y-59372847D01*
X155487446Y-59394471D01*
X155495504Y-59416993D01*
X155501316Y-59440197D01*
X155504826Y-59463858D01*
X155506000Y-59487750D01*
X155506000Y-60400250D01*
X155504826Y-60424142D01*
X155501316Y-60447803D01*
X155495504Y-60471007D01*
X155487446Y-60493529D01*
X155477218Y-60515153D01*
X155464921Y-60535670D01*
X155450671Y-60554883D01*
X155434607Y-60572607D01*
X155416883Y-60588671D01*
X155397670Y-60602921D01*
X155377153Y-60615218D01*
X155355529Y-60625446D01*
X155333007Y-60633504D01*
X155309803Y-60639316D01*
X155286142Y-60642826D01*
X155262250Y-60644000D01*
X154774750Y-60644000D01*
X154750858Y-60642826D01*
X154727197Y-60639316D01*
X154703993Y-60633504D01*
X154681471Y-60625446D01*
X154659847Y-60615218D01*
X154639330Y-60602921D01*
X154620117Y-60588671D01*
X154602393Y-60572607D01*
X154586329Y-60554883D01*
X154572079Y-60535670D01*
X154559782Y-60515153D01*
X154549554Y-60493529D01*
X154541496Y-60471007D01*
X154535684Y-60447803D01*
X154532174Y-60424142D01*
X154531000Y-60400250D01*
X154531000Y-59487750D01*
X154532174Y-59463858D01*
X154535684Y-59440197D01*
X154541496Y-59416993D01*
X154549554Y-59394471D01*
X154559782Y-59372847D01*
X154572079Y-59352330D01*
X154586329Y-59333117D01*
X154602393Y-59315393D01*
X154620117Y-59299329D01*
X154639330Y-59285079D01*
X154659847Y-59272782D01*
X154681471Y-59262554D01*
X154703993Y-59254496D01*
X154727197Y-59248684D01*
X154750858Y-59245174D01*
X154774750Y-59244000D01*
X155262250Y-59244000D01*
X155286142Y-59245174D01*
G37*
G04 #@! TD.AperFunction*
G04 #@! TA.AperFunction,SMDPad,CuDef*
G36*
X180058142Y-54964174D02*
G01*
X180081803Y-54967684D01*
X180105007Y-54973496D01*
X180127529Y-54981554D01*
X180149153Y-54991782D01*
X180169670Y-55004079D01*
X180188883Y-55018329D01*
X180206607Y-55034393D01*
X180222671Y-55052117D01*
X180236921Y-55071330D01*
X180249218Y-55091847D01*
X180259446Y-55113471D01*
X180267504Y-55135993D01*
X180273316Y-55159197D01*
X180276826Y-55182858D01*
X180278000Y-55206750D01*
X180278000Y-55694250D01*
X180276826Y-55718142D01*
X180273316Y-55741803D01*
X180267504Y-55765007D01*
X180259446Y-55787529D01*
X180249218Y-55809153D01*
X180236921Y-55829670D01*
X180222671Y-55848883D01*
X180206607Y-55866607D01*
X180188883Y-55882671D01*
X180169670Y-55896921D01*
X180149153Y-55909218D01*
X180127529Y-55919446D01*
X180105007Y-55927504D01*
X180081803Y-55933316D01*
X180058142Y-55936826D01*
X180034250Y-55938000D01*
X179121750Y-55938000D01*
X179097858Y-55936826D01*
X179074197Y-55933316D01*
X179050993Y-55927504D01*
X179028471Y-55919446D01*
X179006847Y-55909218D01*
X178986330Y-55896921D01*
X178967117Y-55882671D01*
X178949393Y-55866607D01*
X178933329Y-55848883D01*
X178919079Y-55829670D01*
X178906782Y-55809153D01*
X178896554Y-55787529D01*
X178888496Y-55765007D01*
X178882684Y-55741803D01*
X178879174Y-55718142D01*
X178878000Y-55694250D01*
X178878000Y-55206750D01*
X178879174Y-55182858D01*
X178882684Y-55159197D01*
X178888496Y-55135993D01*
X178896554Y-55113471D01*
X178906782Y-55091847D01*
X178919079Y-55071330D01*
X178933329Y-55052117D01*
X178949393Y-55034393D01*
X178967117Y-55018329D01*
X178986330Y-55004079D01*
X179006847Y-54991782D01*
X179028471Y-54981554D01*
X179050993Y-54973496D01*
X179074197Y-54967684D01*
X179097858Y-54964174D01*
X179121750Y-54963000D01*
X180034250Y-54963000D01*
X180058142Y-54964174D01*
G37*
G04 #@! TD.AperFunction*
G04 #@! TA.AperFunction,SMDPad,CuDef*
G36*
X180058142Y-56839174D02*
G01*
X180081803Y-56842684D01*
X180105007Y-56848496D01*
X180127529Y-56856554D01*
X180149153Y-56866782D01*
X180169670Y-56879079D01*
X180188883Y-56893329D01*
X180206607Y-56909393D01*
X180222671Y-56927117D01*
X180236921Y-56946330D01*
X180249218Y-56966847D01*
X180259446Y-56988471D01*
X180267504Y-57010993D01*
X180273316Y-57034197D01*
X180276826Y-57057858D01*
X180278000Y-57081750D01*
X180278000Y-57569250D01*
X180276826Y-57593142D01*
X180273316Y-57616803D01*
X180267504Y-57640007D01*
X180259446Y-57662529D01*
X180249218Y-57684153D01*
X180236921Y-57704670D01*
X180222671Y-57723883D01*
X180206607Y-57741607D01*
X180188883Y-57757671D01*
X180169670Y-57771921D01*
X180149153Y-57784218D01*
X180127529Y-57794446D01*
X180105007Y-57802504D01*
X180081803Y-57808316D01*
X180058142Y-57811826D01*
X180034250Y-57813000D01*
X179121750Y-57813000D01*
X179097858Y-57811826D01*
X179074197Y-57808316D01*
X179050993Y-57802504D01*
X179028471Y-57794446D01*
X179006847Y-57784218D01*
X178986330Y-57771921D01*
X178967117Y-57757671D01*
X178949393Y-57741607D01*
X178933329Y-57723883D01*
X178919079Y-57704670D01*
X178906782Y-57684153D01*
X178896554Y-57662529D01*
X178888496Y-57640007D01*
X178882684Y-57616803D01*
X178879174Y-57593142D01*
X178878000Y-57569250D01*
X178878000Y-57081750D01*
X178879174Y-57057858D01*
X178882684Y-57034197D01*
X178888496Y-57010993D01*
X178896554Y-56988471D01*
X178906782Y-56966847D01*
X178919079Y-56946330D01*
X178933329Y-56927117D01*
X178949393Y-56909393D01*
X178967117Y-56893329D01*
X178986330Y-56879079D01*
X179006847Y-56866782D01*
X179028471Y-56856554D01*
X179050993Y-56848496D01*
X179074197Y-56842684D01*
X179097858Y-56839174D01*
X179121750Y-56838000D01*
X180034250Y-56838000D01*
X180058142Y-56839174D01*
G37*
G04 #@! TD.AperFunction*
G04 #@! TA.AperFunction,SMDPad,CuDef*
G36*
X176211142Y-46545174D02*
G01*
X176234803Y-46548684D01*
X176258007Y-46554496D01*
X176280529Y-46562554D01*
X176302153Y-46572782D01*
X176322670Y-46585079D01*
X176341883Y-46599329D01*
X176359607Y-46615393D01*
X176375671Y-46633117D01*
X176389921Y-46652330D01*
X176402218Y-46672847D01*
X176412446Y-46694471D01*
X176420504Y-46716993D01*
X176426316Y-46740197D01*
X176429826Y-46763858D01*
X176431000Y-46787750D01*
X176431000Y-47700250D01*
X176429826Y-47724142D01*
X176426316Y-47747803D01*
X176420504Y-47771007D01*
X176412446Y-47793529D01*
X176402218Y-47815153D01*
X176389921Y-47835670D01*
X176375671Y-47854883D01*
X176359607Y-47872607D01*
X176341883Y-47888671D01*
X176322670Y-47902921D01*
X176302153Y-47915218D01*
X176280529Y-47925446D01*
X176258007Y-47933504D01*
X176234803Y-47939316D01*
X176211142Y-47942826D01*
X176187250Y-47944000D01*
X175699750Y-47944000D01*
X175675858Y-47942826D01*
X175652197Y-47939316D01*
X175628993Y-47933504D01*
X175606471Y-47925446D01*
X175584847Y-47915218D01*
X175564330Y-47902921D01*
X175545117Y-47888671D01*
X175527393Y-47872607D01*
X175511329Y-47854883D01*
X175497079Y-47835670D01*
X175484782Y-47815153D01*
X175474554Y-47793529D01*
X175466496Y-47771007D01*
X175460684Y-47747803D01*
X175457174Y-47724142D01*
X175456000Y-47700250D01*
X175456000Y-46787750D01*
X175457174Y-46763858D01*
X175460684Y-46740197D01*
X175466496Y-46716993D01*
X175474554Y-46694471D01*
X175484782Y-46672847D01*
X175497079Y-46652330D01*
X175511329Y-46633117D01*
X175527393Y-46615393D01*
X175545117Y-46599329D01*
X175564330Y-46585079D01*
X175584847Y-46572782D01*
X175606471Y-46562554D01*
X175628993Y-46554496D01*
X175652197Y-46548684D01*
X175675858Y-46545174D01*
X175699750Y-46544000D01*
X176187250Y-46544000D01*
X176211142Y-46545174D01*
G37*
G04 #@! TD.AperFunction*
G04 #@! TA.AperFunction,SMDPad,CuDef*
G36*
X174336142Y-46545174D02*
G01*
X174359803Y-46548684D01*
X174383007Y-46554496D01*
X174405529Y-46562554D01*
X174427153Y-46572782D01*
X174447670Y-46585079D01*
X174466883Y-46599329D01*
X174484607Y-46615393D01*
X174500671Y-46633117D01*
X174514921Y-46652330D01*
X174527218Y-46672847D01*
X174537446Y-46694471D01*
X174545504Y-46716993D01*
X174551316Y-46740197D01*
X174554826Y-46763858D01*
X174556000Y-46787750D01*
X174556000Y-47700250D01*
X174554826Y-47724142D01*
X174551316Y-47747803D01*
X174545504Y-47771007D01*
X174537446Y-47793529D01*
X174527218Y-47815153D01*
X174514921Y-47835670D01*
X174500671Y-47854883D01*
X174484607Y-47872607D01*
X174466883Y-47888671D01*
X174447670Y-47902921D01*
X174427153Y-47915218D01*
X174405529Y-47925446D01*
X174383007Y-47933504D01*
X174359803Y-47939316D01*
X174336142Y-47942826D01*
X174312250Y-47944000D01*
X173824750Y-47944000D01*
X173800858Y-47942826D01*
X173777197Y-47939316D01*
X173753993Y-47933504D01*
X173731471Y-47925446D01*
X173709847Y-47915218D01*
X173689330Y-47902921D01*
X173670117Y-47888671D01*
X173652393Y-47872607D01*
X173636329Y-47854883D01*
X173622079Y-47835670D01*
X173609782Y-47815153D01*
X173599554Y-47793529D01*
X173591496Y-47771007D01*
X173585684Y-47747803D01*
X173582174Y-47724142D01*
X173581000Y-47700250D01*
X173581000Y-46787750D01*
X173582174Y-46763858D01*
X173585684Y-46740197D01*
X173591496Y-46716993D01*
X173599554Y-46694471D01*
X173609782Y-46672847D01*
X173622079Y-46652330D01*
X173636329Y-46633117D01*
X173652393Y-46615393D01*
X173670117Y-46599329D01*
X173689330Y-46585079D01*
X173709847Y-46572782D01*
X173731471Y-46562554D01*
X173753993Y-46554496D01*
X173777197Y-46548684D01*
X173800858Y-46545174D01*
X173824750Y-46544000D01*
X174312250Y-46544000D01*
X174336142Y-46545174D01*
G37*
G04 #@! TD.AperFunction*
G04 #@! TA.AperFunction,SMDPad,CuDef*
G36*
X169861142Y-46545174D02*
G01*
X169884803Y-46548684D01*
X169908007Y-46554496D01*
X169930529Y-46562554D01*
X169952153Y-46572782D01*
X169972670Y-46585079D01*
X169991883Y-46599329D01*
X170009607Y-46615393D01*
X170025671Y-46633117D01*
X170039921Y-46652330D01*
X170052218Y-46672847D01*
X170062446Y-46694471D01*
X170070504Y-46716993D01*
X170076316Y-46740197D01*
X170079826Y-46763858D01*
X170081000Y-46787750D01*
X170081000Y-47700250D01*
X170079826Y-47724142D01*
X170076316Y-47747803D01*
X170070504Y-47771007D01*
X170062446Y-47793529D01*
X170052218Y-47815153D01*
X170039921Y-47835670D01*
X170025671Y-47854883D01*
X170009607Y-47872607D01*
X169991883Y-47888671D01*
X169972670Y-47902921D01*
X169952153Y-47915218D01*
X169930529Y-47925446D01*
X169908007Y-47933504D01*
X169884803Y-47939316D01*
X169861142Y-47942826D01*
X169837250Y-47944000D01*
X169349750Y-47944000D01*
X169325858Y-47942826D01*
X169302197Y-47939316D01*
X169278993Y-47933504D01*
X169256471Y-47925446D01*
X169234847Y-47915218D01*
X169214330Y-47902921D01*
X169195117Y-47888671D01*
X169177393Y-47872607D01*
X169161329Y-47854883D01*
X169147079Y-47835670D01*
X169134782Y-47815153D01*
X169124554Y-47793529D01*
X169116496Y-47771007D01*
X169110684Y-47747803D01*
X169107174Y-47724142D01*
X169106000Y-47700250D01*
X169106000Y-46787750D01*
X169107174Y-46763858D01*
X169110684Y-46740197D01*
X169116496Y-46716993D01*
X169124554Y-46694471D01*
X169134782Y-46672847D01*
X169147079Y-46652330D01*
X169161329Y-46633117D01*
X169177393Y-46615393D01*
X169195117Y-46599329D01*
X169214330Y-46585079D01*
X169234847Y-46572782D01*
X169256471Y-46562554D01*
X169278993Y-46554496D01*
X169302197Y-46548684D01*
X169325858Y-46545174D01*
X169349750Y-46544000D01*
X169837250Y-46544000D01*
X169861142Y-46545174D01*
G37*
G04 #@! TD.AperFunction*
G04 #@! TA.AperFunction,SMDPad,CuDef*
G36*
X167986142Y-46545174D02*
G01*
X168009803Y-46548684D01*
X168033007Y-46554496D01*
X168055529Y-46562554D01*
X168077153Y-46572782D01*
X168097670Y-46585079D01*
X168116883Y-46599329D01*
X168134607Y-46615393D01*
X168150671Y-46633117D01*
X168164921Y-46652330D01*
X168177218Y-46672847D01*
X168187446Y-46694471D01*
X168195504Y-46716993D01*
X168201316Y-46740197D01*
X168204826Y-46763858D01*
X168206000Y-46787750D01*
X168206000Y-47700250D01*
X168204826Y-47724142D01*
X168201316Y-47747803D01*
X168195504Y-47771007D01*
X168187446Y-47793529D01*
X168177218Y-47815153D01*
X168164921Y-47835670D01*
X168150671Y-47854883D01*
X168134607Y-47872607D01*
X168116883Y-47888671D01*
X168097670Y-47902921D01*
X168077153Y-47915218D01*
X168055529Y-47925446D01*
X168033007Y-47933504D01*
X168009803Y-47939316D01*
X167986142Y-47942826D01*
X167962250Y-47944000D01*
X167474750Y-47944000D01*
X167450858Y-47942826D01*
X167427197Y-47939316D01*
X167403993Y-47933504D01*
X167381471Y-47925446D01*
X167359847Y-47915218D01*
X167339330Y-47902921D01*
X167320117Y-47888671D01*
X167302393Y-47872607D01*
X167286329Y-47854883D01*
X167272079Y-47835670D01*
X167259782Y-47815153D01*
X167249554Y-47793529D01*
X167241496Y-47771007D01*
X167235684Y-47747803D01*
X167232174Y-47724142D01*
X167231000Y-47700250D01*
X167231000Y-46787750D01*
X167232174Y-46763858D01*
X167235684Y-46740197D01*
X167241496Y-46716993D01*
X167249554Y-46694471D01*
X167259782Y-46672847D01*
X167272079Y-46652330D01*
X167286329Y-46633117D01*
X167302393Y-46615393D01*
X167320117Y-46599329D01*
X167339330Y-46585079D01*
X167359847Y-46572782D01*
X167381471Y-46562554D01*
X167403993Y-46554496D01*
X167427197Y-46548684D01*
X167450858Y-46545174D01*
X167474750Y-46544000D01*
X167962250Y-46544000D01*
X167986142Y-46545174D01*
G37*
G04 #@! TD.AperFunction*
G04 #@! TA.AperFunction,SMDPad,CuDef*
G36*
X163511142Y-46545174D02*
G01*
X163534803Y-46548684D01*
X163558007Y-46554496D01*
X163580529Y-46562554D01*
X163602153Y-46572782D01*
X163622670Y-46585079D01*
X163641883Y-46599329D01*
X163659607Y-46615393D01*
X163675671Y-46633117D01*
X163689921Y-46652330D01*
X163702218Y-46672847D01*
X163712446Y-46694471D01*
X163720504Y-46716993D01*
X163726316Y-46740197D01*
X163729826Y-46763858D01*
X163731000Y-46787750D01*
X163731000Y-47700250D01*
X163729826Y-47724142D01*
X163726316Y-47747803D01*
X163720504Y-47771007D01*
X163712446Y-47793529D01*
X163702218Y-47815153D01*
X163689921Y-47835670D01*
X163675671Y-47854883D01*
X163659607Y-47872607D01*
X163641883Y-47888671D01*
X163622670Y-47902921D01*
X163602153Y-47915218D01*
X163580529Y-47925446D01*
X163558007Y-47933504D01*
X163534803Y-47939316D01*
X163511142Y-47942826D01*
X163487250Y-47944000D01*
X162999750Y-47944000D01*
X162975858Y-47942826D01*
X162952197Y-47939316D01*
X162928993Y-47933504D01*
X162906471Y-47925446D01*
X162884847Y-47915218D01*
X162864330Y-47902921D01*
X162845117Y-47888671D01*
X162827393Y-47872607D01*
X162811329Y-47854883D01*
X162797079Y-47835670D01*
X162784782Y-47815153D01*
X162774554Y-47793529D01*
X162766496Y-47771007D01*
X162760684Y-47747803D01*
X162757174Y-47724142D01*
X162756000Y-47700250D01*
X162756000Y-46787750D01*
X162757174Y-46763858D01*
X162760684Y-46740197D01*
X162766496Y-46716993D01*
X162774554Y-46694471D01*
X162784782Y-46672847D01*
X162797079Y-46652330D01*
X162811329Y-46633117D01*
X162827393Y-46615393D01*
X162845117Y-46599329D01*
X162864330Y-46585079D01*
X162884847Y-46572782D01*
X162906471Y-46562554D01*
X162928993Y-46554496D01*
X162952197Y-46548684D01*
X162975858Y-46545174D01*
X162999750Y-46544000D01*
X163487250Y-46544000D01*
X163511142Y-46545174D01*
G37*
G04 #@! TD.AperFunction*
G04 #@! TA.AperFunction,SMDPad,CuDef*
G36*
X161636142Y-46545174D02*
G01*
X161659803Y-46548684D01*
X161683007Y-46554496D01*
X161705529Y-46562554D01*
X161727153Y-46572782D01*
X161747670Y-46585079D01*
X161766883Y-46599329D01*
X161784607Y-46615393D01*
X161800671Y-46633117D01*
X161814921Y-46652330D01*
X161827218Y-46672847D01*
X161837446Y-46694471D01*
X161845504Y-46716993D01*
X161851316Y-46740197D01*
X161854826Y-46763858D01*
X161856000Y-46787750D01*
X161856000Y-47700250D01*
X161854826Y-47724142D01*
X161851316Y-47747803D01*
X161845504Y-47771007D01*
X161837446Y-47793529D01*
X161827218Y-47815153D01*
X161814921Y-47835670D01*
X161800671Y-47854883D01*
X161784607Y-47872607D01*
X161766883Y-47888671D01*
X161747670Y-47902921D01*
X161727153Y-47915218D01*
X161705529Y-47925446D01*
X161683007Y-47933504D01*
X161659803Y-47939316D01*
X161636142Y-47942826D01*
X161612250Y-47944000D01*
X161124750Y-47944000D01*
X161100858Y-47942826D01*
X161077197Y-47939316D01*
X161053993Y-47933504D01*
X161031471Y-47925446D01*
X161009847Y-47915218D01*
X160989330Y-47902921D01*
X160970117Y-47888671D01*
X160952393Y-47872607D01*
X160936329Y-47854883D01*
X160922079Y-47835670D01*
X160909782Y-47815153D01*
X160899554Y-47793529D01*
X160891496Y-47771007D01*
X160885684Y-47747803D01*
X160882174Y-47724142D01*
X160881000Y-47700250D01*
X160881000Y-46787750D01*
X160882174Y-46763858D01*
X160885684Y-46740197D01*
X160891496Y-46716993D01*
X160899554Y-46694471D01*
X160909782Y-46672847D01*
X160922079Y-46652330D01*
X160936329Y-46633117D01*
X160952393Y-46615393D01*
X160970117Y-46599329D01*
X160989330Y-46585079D01*
X161009847Y-46572782D01*
X161031471Y-46562554D01*
X161053993Y-46554496D01*
X161077197Y-46548684D01*
X161100858Y-46545174D01*
X161124750Y-46544000D01*
X161612250Y-46544000D01*
X161636142Y-46545174D01*
G37*
G04 #@! TD.AperFunction*
G04 #@! TA.AperFunction,SMDPad,CuDef*
G36*
X157161142Y-46545174D02*
G01*
X157184803Y-46548684D01*
X157208007Y-46554496D01*
X157230529Y-46562554D01*
X157252153Y-46572782D01*
X157272670Y-46585079D01*
X157291883Y-46599329D01*
X157309607Y-46615393D01*
X157325671Y-46633117D01*
X157339921Y-46652330D01*
X157352218Y-46672847D01*
X157362446Y-46694471D01*
X157370504Y-46716993D01*
X157376316Y-46740197D01*
X157379826Y-46763858D01*
X157381000Y-46787750D01*
X157381000Y-47700250D01*
X157379826Y-47724142D01*
X157376316Y-47747803D01*
X157370504Y-47771007D01*
X157362446Y-47793529D01*
X157352218Y-47815153D01*
X157339921Y-47835670D01*
X157325671Y-47854883D01*
X157309607Y-47872607D01*
X157291883Y-47888671D01*
X157272670Y-47902921D01*
X157252153Y-47915218D01*
X157230529Y-47925446D01*
X157208007Y-47933504D01*
X157184803Y-47939316D01*
X157161142Y-47942826D01*
X157137250Y-47944000D01*
X156649750Y-47944000D01*
X156625858Y-47942826D01*
X156602197Y-47939316D01*
X156578993Y-47933504D01*
X156556471Y-47925446D01*
X156534847Y-47915218D01*
X156514330Y-47902921D01*
X156495117Y-47888671D01*
X156477393Y-47872607D01*
X156461329Y-47854883D01*
X156447079Y-47835670D01*
X156434782Y-47815153D01*
X156424554Y-47793529D01*
X156416496Y-47771007D01*
X156410684Y-47747803D01*
X156407174Y-47724142D01*
X156406000Y-47700250D01*
X156406000Y-46787750D01*
X156407174Y-46763858D01*
X156410684Y-46740197D01*
X156416496Y-46716993D01*
X156424554Y-46694471D01*
X156434782Y-46672847D01*
X156447079Y-46652330D01*
X156461329Y-46633117D01*
X156477393Y-46615393D01*
X156495117Y-46599329D01*
X156514330Y-46585079D01*
X156534847Y-46572782D01*
X156556471Y-46562554D01*
X156578993Y-46554496D01*
X156602197Y-46548684D01*
X156625858Y-46545174D01*
X156649750Y-46544000D01*
X157137250Y-46544000D01*
X157161142Y-46545174D01*
G37*
G04 #@! TD.AperFunction*
G04 #@! TA.AperFunction,SMDPad,CuDef*
G36*
X155286142Y-46545174D02*
G01*
X155309803Y-46548684D01*
X155333007Y-46554496D01*
X155355529Y-46562554D01*
X155377153Y-46572782D01*
X155397670Y-46585079D01*
X155416883Y-46599329D01*
X155434607Y-46615393D01*
X155450671Y-46633117D01*
X155464921Y-46652330D01*
X155477218Y-46672847D01*
X155487446Y-46694471D01*
X155495504Y-46716993D01*
X155501316Y-46740197D01*
X155504826Y-46763858D01*
X155506000Y-46787750D01*
X155506000Y-47700250D01*
X155504826Y-47724142D01*
X155501316Y-47747803D01*
X155495504Y-47771007D01*
X155487446Y-47793529D01*
X155477218Y-47815153D01*
X155464921Y-47835670D01*
X155450671Y-47854883D01*
X155434607Y-47872607D01*
X155416883Y-47888671D01*
X155397670Y-47902921D01*
X155377153Y-47915218D01*
X155355529Y-47925446D01*
X155333007Y-47933504D01*
X155309803Y-47939316D01*
X155286142Y-47942826D01*
X155262250Y-47944000D01*
X154774750Y-47944000D01*
X154750858Y-47942826D01*
X154727197Y-47939316D01*
X154703993Y-47933504D01*
X154681471Y-47925446D01*
X154659847Y-47915218D01*
X154639330Y-47902921D01*
X154620117Y-47888671D01*
X154602393Y-47872607D01*
X154586329Y-47854883D01*
X154572079Y-47835670D01*
X154559782Y-47815153D01*
X154549554Y-47793529D01*
X154541496Y-47771007D01*
X154535684Y-47747803D01*
X154532174Y-47724142D01*
X154531000Y-47700250D01*
X154531000Y-46787750D01*
X154532174Y-46763858D01*
X154535684Y-46740197D01*
X154541496Y-46716993D01*
X154549554Y-46694471D01*
X154559782Y-46672847D01*
X154572079Y-46652330D01*
X154586329Y-46633117D01*
X154602393Y-46615393D01*
X154620117Y-46599329D01*
X154639330Y-46585079D01*
X154659847Y-46572782D01*
X154681471Y-46562554D01*
X154703993Y-46554496D01*
X154727197Y-46548684D01*
X154750858Y-46545174D01*
X154774750Y-46544000D01*
X155262250Y-46544000D01*
X155286142Y-46545174D01*
G37*
G04 #@! TD.AperFunction*
D14*
X189014292Y-42390686D02*
X189014292Y-42390686D01*
X189986308Y-40044032D02*
X189986308Y-40044032D01*
X186667638Y-41418670D02*
X186667638Y-41418670D01*
X187639654Y-39072016D02*
X187639654Y-39072016D01*
X184320984Y-40446654D02*
X184320984Y-40446654D01*
G04 #@! TA.AperFunction,ComponentPad*
D13*
G36*
X185753017Y-39210579D02*
G01*
X184182421Y-38560017D01*
X184832983Y-36989421D01*
X186403579Y-37639983D01*
X185753017Y-39210579D01*
G37*
G04 #@! TD.AperFunction*
D15*
X173355000Y-40640000D03*
X173355000Y-38100000D03*
X170815000Y-40640000D03*
X170815000Y-38100000D03*
X168275000Y-40640000D03*
D16*
X168275000Y-38100000D03*
D14*
X157921654Y-40048984D02*
X157921654Y-40048984D01*
X156949638Y-37702330D02*
X156949638Y-37702330D01*
X155575000Y-41021000D02*
X155575000Y-41021000D01*
X154602984Y-38674346D02*
X154602984Y-38674346D01*
X153228346Y-41993016D02*
X153228346Y-41993016D01*
G04 #@! TA.AperFunction,ComponentPad*
D13*
G36*
X153366909Y-40106379D02*
G01*
X151796313Y-40756941D01*
X151145751Y-39186345D01*
X152716347Y-38535783D01*
X153366909Y-40106379D01*
G37*
G04 #@! TD.AperFunction*
D15*
X173482000Y-88773000D03*
X173482000Y-86233000D03*
X170942000Y-88773000D03*
X170942000Y-86233000D03*
X168402000Y-88773000D03*
D16*
X168402000Y-86233000D03*
D17*
X190766000Y-75311000D03*
X190766000Y-76581000D03*
X190766000Y-77851000D03*
X190766000Y-79121000D03*
X190766000Y-62611000D03*
X190766000Y-63881000D03*
X190766000Y-65151000D03*
X190766000Y-66421000D03*
X190766000Y-49657000D03*
X190766000Y-50927000D03*
X190766000Y-52197000D03*
X190766000Y-53467000D03*
D18*
X141732000Y-61595000D03*
X141732000Y-62865000D03*
X141732000Y-64135000D03*
D19*
X141732000Y-65405000D03*
D20*
X182753000Y-46736000D03*
X185293000Y-44196000D03*
X181229000Y-45339000D03*
X183769000Y-42799000D03*
X184531000Y-74295000D03*
X183769000Y-61976000D03*
X183896000Y-49149000D03*
X188341000Y-81153000D03*
X181991000Y-46101000D03*
X186182000Y-76962000D03*
X179451000Y-76962000D03*
X186182000Y-64516000D03*
X179451000Y-64516000D03*
X186182000Y-51562000D03*
X179451000Y-51562000D03*
X184531000Y-43561000D03*
X180848000Y-57277000D03*
X180975000Y-70104000D03*
X180975000Y-82550000D03*
X189992000Y-70104000D03*
X189865000Y-57404000D03*
X185166000Y-49530000D03*
X158496000Y-43434000D03*
X185039000Y-62230000D03*
X162560000Y-44411010D03*
X185674000Y-75245000D03*
X171958000Y-45339000D03*
X182753000Y-53594000D03*
X182753000Y-66421000D03*
X182753000Y-78740000D03*
D21*
X182753000Y-46736000D02*
X185293000Y-44196000D01*
X181229000Y-45339000D02*
X183769000Y-42799000D01*
D22*
X147165000Y-60325000D02*
X147652500Y-60325000D01*
X142267000Y-60325000D02*
X147165000Y-60325000D01*
X141732000Y-60860000D02*
X142267000Y-60325000D01*
X141732000Y-61595000D02*
X141732000Y-60860000D01*
X147144500Y-62865000D02*
X147652500Y-63373000D01*
X141732000Y-62865000D02*
X147144500Y-62865000D01*
D21*
X183740000Y-76962000D02*
X182710000Y-76962000D01*
X183790001Y-76911999D02*
X183740000Y-76962000D01*
X184531000Y-74295000D02*
X183790001Y-75035999D01*
X183790001Y-75035999D02*
X183790001Y-76911999D01*
X183740000Y-64516000D02*
X183896000Y-64360000D01*
X183896000Y-64360000D02*
X183896000Y-62668685D01*
X183769000Y-62541685D02*
X183769000Y-61976000D01*
X183896000Y-62668685D02*
X183769000Y-62541685D01*
X182710000Y-64516000D02*
X183740000Y-64516000D01*
X183769000Y-61722000D02*
X183769000Y-61976000D01*
X184404000Y-61087000D02*
X183769000Y-61722000D01*
X185628000Y-61087000D02*
X184404000Y-61087000D01*
X187282000Y-62741000D02*
X185628000Y-61087000D01*
X187282000Y-63566000D02*
X187282000Y-62741000D01*
X183740000Y-51562000D02*
X183896000Y-51406000D01*
X183896000Y-51406000D02*
X183896000Y-49714685D01*
X182710000Y-51562000D02*
X183740000Y-51562000D01*
X183896000Y-49714685D02*
X183896000Y-49149000D01*
X184785000Y-48260000D02*
X183896000Y-49149000D01*
X185755000Y-48260000D02*
X184785000Y-48260000D01*
X187282000Y-49787000D02*
X185755000Y-48260000D01*
X187282000Y-50612000D02*
X187282000Y-49787000D01*
X187282000Y-74887000D02*
X187282000Y-76012000D01*
X184531000Y-74295000D02*
X186690000Y-74295000D01*
X186690000Y-74295000D02*
X187282000Y-74887000D01*
X160274000Y-86233000D02*
X167052000Y-86233000D01*
X155829000Y-81788000D02*
X160274000Y-86233000D01*
X167052000Y-86233000D02*
X168402000Y-86233000D01*
X157480000Y-78700000D02*
X155829000Y-80351000D01*
X155829000Y-80351000D02*
X155829000Y-81788000D01*
X186309000Y-84074000D02*
X188341000Y-82042000D01*
X188341000Y-82042000D02*
X188341000Y-81153000D01*
X169211000Y-84074000D02*
X186309000Y-84074000D01*
X168402000Y-86233000D02*
X168402000Y-84883000D01*
X168402000Y-84883000D02*
X169211000Y-84074000D01*
D22*
X146588000Y-65405000D02*
X147731000Y-66548000D01*
X141732000Y-65405000D02*
X146588000Y-65405000D01*
D21*
X185082000Y-76962000D02*
X186182000Y-76962000D01*
X180510000Y-76962000D02*
X179451000Y-76962000D01*
X185082000Y-64516000D02*
X186182000Y-64516000D01*
X180510000Y-64516000D02*
X179451000Y-64516000D01*
X185082000Y-51562000D02*
X186182000Y-51562000D01*
X180510000Y-51562000D02*
X179451000Y-51562000D01*
D23*
X181991000Y-46101000D02*
X184531000Y-43561000D01*
D21*
X179578000Y-57325500D02*
X180799500Y-57325500D01*
X180799500Y-57325500D02*
X180848000Y-57277000D01*
X179578000Y-70025500D02*
X180896500Y-70025500D01*
X180896500Y-70025500D02*
X180975000Y-70104000D01*
X179578000Y-82550000D02*
X180975000Y-82550000D01*
X180975000Y-70104000D02*
X189992000Y-70104000D01*
X179451000Y-64516000D02*
X179451000Y-60198000D01*
X180848000Y-58801000D02*
X180848000Y-57277000D01*
X179451000Y-60198000D02*
X180848000Y-58801000D01*
X179451000Y-52127685D02*
X179451000Y-51562000D01*
X179451000Y-53118002D02*
X179451000Y-52127685D01*
X181247999Y-54915001D02*
X179451000Y-53118002D01*
X181247999Y-56877001D02*
X181247999Y-54915001D01*
X180848000Y-57277000D02*
X181247999Y-56877001D01*
X180975000Y-69538315D02*
X180975000Y-70104000D01*
X180975000Y-67866374D02*
X180975000Y-69538315D01*
X179451000Y-66342374D02*
X180975000Y-67866374D01*
X179451000Y-64516000D02*
X179451000Y-66342374D01*
X180848000Y-57277000D02*
X189738000Y-57277000D01*
X189738000Y-57277000D02*
X189865000Y-57404000D01*
X179451000Y-77527685D02*
X179451000Y-76962000D01*
X179451000Y-78518002D02*
X179451000Y-77527685D01*
X180975000Y-80042002D02*
X179451000Y-78518002D01*
X180975000Y-82550000D02*
X180975000Y-80042002D01*
X179451000Y-71628000D02*
X180975000Y-70104000D01*
X179451000Y-76962000D02*
X179451000Y-71628000D01*
D22*
X189318989Y-47609989D02*
X190766000Y-49057000D01*
X184251009Y-47609989D02*
X189318989Y-47609989D01*
X190766000Y-49057000D02*
X190766000Y-49657000D01*
X182710000Y-50612000D02*
X182710000Y-49150998D01*
X182710000Y-49150998D02*
X184251009Y-47609989D01*
X182225001Y-54752001D02*
X180510000Y-53037000D01*
X190080999Y-54752001D02*
X182225001Y-54752001D01*
X180510000Y-53037000D02*
X180510000Y-52512000D01*
X190766000Y-54067000D02*
X190080999Y-54752001D01*
X190766000Y-53467000D02*
X190766000Y-54067000D01*
X190803998Y-52197000D02*
X188976000Y-52197000D01*
X188661000Y-52512000D02*
X187282000Y-52512000D01*
X188976000Y-52197000D02*
X188661000Y-52512000D01*
X181240000Y-50612000D02*
X180510000Y-50612000D01*
X181440001Y-50812001D02*
X181240000Y-50612000D01*
X181440001Y-53317003D02*
X181440001Y-50812001D01*
X182416999Y-54294001D02*
X181440001Y-53317003D01*
X186024999Y-54294001D02*
X182416999Y-54294001D01*
X187282000Y-53037000D02*
X186024999Y-54294001D01*
X187282000Y-52512000D02*
X187282000Y-53037000D01*
D24*
X184124402Y-60411989D02*
X189216989Y-60411989D01*
X189216989Y-60411989D02*
X190766000Y-61961000D01*
X182710000Y-61826391D02*
X184124402Y-60411989D01*
X182710000Y-63566000D02*
X182710000Y-61826391D01*
X190766000Y-61961000D02*
X190766000Y-62611000D01*
D22*
X180510000Y-65991000D02*
X180510000Y-65466000D01*
X182225001Y-67706001D02*
X180510000Y-65991000D01*
X190766000Y-67021000D02*
X190080999Y-67706001D01*
X190080999Y-67706001D02*
X182225001Y-67706001D01*
X190766000Y-66421000D02*
X190766000Y-67021000D01*
X190766000Y-65151000D02*
X188938002Y-65151000D01*
X188623002Y-65466000D02*
X187282000Y-65466000D01*
X188938002Y-65151000D02*
X188623002Y-65466000D01*
X181240000Y-63566000D02*
X180510000Y-63566000D01*
X181440001Y-63766001D02*
X181240000Y-63566000D01*
X181440001Y-66144003D02*
X181440001Y-63766001D01*
X182416999Y-67121001D02*
X181440001Y-66144003D01*
X186151999Y-67121001D02*
X182416999Y-67121001D01*
X187282000Y-65991000D02*
X186151999Y-67121001D01*
X187282000Y-65466000D02*
X187282000Y-65991000D01*
X189549999Y-73494999D02*
X190766000Y-74711000D01*
X184146999Y-73494999D02*
X189549999Y-73494999D01*
X190766000Y-74711000D02*
X190766000Y-75311000D01*
X182710000Y-74931998D02*
X184146999Y-73494999D01*
X182710000Y-76012000D02*
X182710000Y-74931998D01*
X180510000Y-78437000D02*
X180510000Y-77912000D01*
X190080999Y-80406001D02*
X182479001Y-80406001D01*
X182479001Y-80406001D02*
X180510000Y-78437000D01*
X190766000Y-79721000D02*
X190080999Y-80406001D01*
X190766000Y-79121000D02*
X190766000Y-79721000D01*
X190676998Y-77851000D02*
X188849000Y-77851000D01*
X188788000Y-77912000D02*
X187282000Y-77912000D01*
X188849000Y-77851000D02*
X188788000Y-77912000D01*
X181240000Y-76012000D02*
X180510000Y-76012000D01*
X181440001Y-76212001D02*
X181240000Y-76012000D01*
X181440001Y-78463003D02*
X181440001Y-76212001D01*
X182478998Y-79502000D02*
X181440001Y-78463003D01*
X184962000Y-79502000D02*
X182478998Y-79502000D01*
X186552000Y-77912000D02*
X184962000Y-79502000D01*
X187282000Y-77912000D02*
X186552000Y-77912000D01*
D21*
X185082000Y-50612000D02*
X185082000Y-49614000D01*
X185082000Y-49614000D02*
X185166000Y-49530000D01*
X150876000Y-58976500D02*
X149527500Y-60325000D01*
X158496000Y-43434000D02*
X157988000Y-43942000D01*
X150876000Y-45720000D02*
X150876000Y-58976500D01*
X157988000Y-43942000D02*
X152654000Y-43942000D01*
X152654000Y-43942000D02*
X150876000Y-45720000D01*
X150876000Y-41026692D02*
X150876000Y-45720000D01*
X152256330Y-39646362D02*
X150876000Y-41026692D01*
X185082000Y-63566000D02*
X185082000Y-62273000D01*
X185082000Y-62273000D02*
X185039000Y-62230000D01*
X149527500Y-63373000D02*
X151676011Y-61224489D01*
X161994315Y-44411010D02*
X162560000Y-44411010D01*
X153211991Y-44642011D02*
X161763314Y-44642011D01*
X161763314Y-44642011D02*
X161994315Y-44411010D01*
X151676011Y-61224489D02*
X151676011Y-46177991D01*
X151676011Y-46177991D02*
X153211991Y-44642011D01*
X167513000Y-38100000D02*
X168275000Y-38100000D01*
X162560000Y-44411010D02*
X162560000Y-43053000D01*
X162560000Y-43053000D02*
X167513000Y-38100000D01*
X185082000Y-76012000D02*
X185082000Y-75837000D01*
X185082000Y-75837000D02*
X185674000Y-75245000D01*
X171958000Y-45339000D02*
X176704000Y-45339000D01*
X183943000Y-38100000D02*
X185293000Y-38100000D01*
X176704000Y-45339000D02*
X183943000Y-38100000D01*
X149606000Y-66548000D02*
X152476022Y-63677978D01*
X152476022Y-63677978D02*
X152476022Y-46405978D01*
X171392315Y-45339000D02*
X171958000Y-45339000D01*
X152476022Y-46405978D02*
X153539978Y-45342022D01*
X153539978Y-45342022D02*
X171389293Y-45342022D01*
X171389293Y-45342022D02*
X171392315Y-45339000D01*
D22*
X157480000Y-47830500D02*
X156893500Y-47244000D01*
X157480000Y-50800000D02*
X157480000Y-47830500D01*
X155504027Y-47729527D02*
X155018500Y-47244000D01*
X155504027Y-53824027D02*
X155504027Y-47729527D01*
X157480000Y-55800000D02*
X155504027Y-53824027D01*
X163830000Y-47830500D02*
X163243500Y-47244000D01*
X163830000Y-50800000D02*
X163830000Y-47830500D01*
X161854027Y-47729527D02*
X161368500Y-47244000D01*
X161854027Y-53824027D02*
X161854027Y-47729527D01*
X163830000Y-55800000D02*
X161854027Y-53824027D01*
X169593500Y-50213500D02*
X170180000Y-50800000D01*
X169593500Y-47244000D02*
X169593500Y-50213500D01*
X168204027Y-47729527D02*
X167718500Y-47244000D01*
X168204027Y-54813976D02*
X168204027Y-47729527D01*
X169190051Y-55800000D02*
X168204027Y-54813976D01*
X170180000Y-55800000D02*
X169190051Y-55800000D01*
X175943500Y-50213500D02*
X176530000Y-50800000D01*
X175943500Y-47244000D02*
X175943500Y-50213500D01*
X182710000Y-52512000D02*
X182710000Y-53551000D01*
X182710000Y-53551000D02*
X182753000Y-53594000D01*
X179228500Y-55800000D02*
X179578000Y-55450500D01*
X176530000Y-55800000D02*
X179228500Y-55800000D01*
X174554027Y-47729527D02*
X174068500Y-47244000D01*
X174554027Y-54813976D02*
X174554027Y-47729527D01*
X175540051Y-55800000D02*
X174554027Y-54813976D01*
X176530000Y-55800000D02*
X175540051Y-55800000D01*
X156893500Y-62913500D02*
X157480000Y-63500000D01*
X156893500Y-59944000D02*
X156893500Y-62913500D01*
X155018500Y-60644000D02*
X155829000Y-61454500D01*
X155018500Y-59944000D02*
X155018500Y-60644000D01*
X155829000Y-66849000D02*
X157480000Y-68500000D01*
X155829000Y-61454500D02*
X155829000Y-66849000D01*
X163830000Y-60530500D02*
X163243500Y-59944000D01*
X163830000Y-63500000D02*
X163830000Y-60530500D01*
X161854027Y-60429527D02*
X161368500Y-59944000D01*
X161854027Y-67513976D02*
X161854027Y-60429527D01*
X162840051Y-68500000D02*
X161854027Y-67513976D01*
X163830000Y-68500000D02*
X162840051Y-68500000D01*
X170180000Y-60530500D02*
X169593500Y-59944000D01*
X170180000Y-63500000D02*
X170180000Y-60530500D01*
X169480001Y-67800001D02*
X170180000Y-68500000D01*
X168204027Y-60429527D02*
X168204027Y-66524027D01*
X168204027Y-66524027D02*
X169480001Y-67800001D01*
X167718500Y-59944000D02*
X168204027Y-60429527D01*
X176530000Y-60530500D02*
X175943500Y-59944000D01*
X176530000Y-63500000D02*
X176530000Y-60530500D01*
X179228500Y-68500000D02*
X179578000Y-68150500D01*
X176530000Y-68500000D02*
X179228500Y-68500000D01*
X174554027Y-60429527D02*
X174068500Y-59944000D01*
X174554027Y-67513976D02*
X174554027Y-60429527D01*
X175540051Y-68500000D02*
X174554027Y-67513976D01*
X176530000Y-68500000D02*
X175540051Y-68500000D01*
X182710000Y-65466000D02*
X182710000Y-66378000D01*
X182710000Y-66378000D02*
X182753000Y-66421000D01*
X157480000Y-73230500D02*
X156893500Y-72644000D01*
X157480000Y-76200000D02*
X157480000Y-73230500D01*
X158179999Y-80500001D02*
X157480000Y-81200000D01*
X158580001Y-80099999D02*
X158179999Y-80500001D01*
X155504027Y-73129527D02*
X155504027Y-76164029D01*
X155018500Y-72644000D02*
X155504027Y-73129527D01*
X156809998Y-77470000D02*
X157996501Y-77470000D01*
X155504027Y-76164029D02*
X156809998Y-77470000D01*
X157996501Y-77470000D02*
X158580001Y-78053500D01*
X158580001Y-78053500D02*
X158580001Y-80099999D01*
X163830000Y-73230500D02*
X163243500Y-72644000D01*
X163830000Y-76200000D02*
X163830000Y-73230500D01*
X161854027Y-73129527D02*
X161368500Y-72644000D01*
X161854027Y-80213976D02*
X161854027Y-73129527D01*
X162840051Y-81200000D02*
X161854027Y-80213976D01*
X163830000Y-81200000D02*
X162840051Y-81200000D01*
X170180000Y-73230500D02*
X169593500Y-72644000D01*
X170180000Y-76200000D02*
X170180000Y-73230500D01*
X168204027Y-80213976D02*
X168204027Y-73129527D01*
X168204027Y-73129527D02*
X167718500Y-72644000D01*
X169190051Y-81200000D02*
X168204027Y-80213976D01*
X170180000Y-81200000D02*
X169190051Y-81200000D01*
X175943500Y-75613500D02*
X176530000Y-76200000D01*
X175943500Y-72644000D02*
X175943500Y-75613500D01*
X174554027Y-73129527D02*
X174068500Y-72644000D01*
X174554027Y-80213976D02*
X174554027Y-73129527D01*
X175540051Y-81200000D02*
X174554027Y-80213976D01*
X176530000Y-81200000D02*
X175540051Y-81200000D01*
X182710000Y-77912000D02*
X182710000Y-78697000D01*
X182710000Y-78697000D02*
X182753000Y-78740000D01*
X177055000Y-80675000D02*
X179578000Y-80675000D01*
X176530000Y-81200000D02*
X177055000Y-80675000D01*
M02*
