M48
; DRILL file {KiCad 5.1.5-52549c5~84~ubuntu18.04.1} date Do 23 Jan 2020 15:23:25 CET
; FORMAT={-:-/ absolute / inch / decimal}
; #@! TF.CreationDate,2020-01-23T15:23:25+01:00
; #@! TF.GenerationSoftware,Kicad,Pcbnew,5.1.5-52549c5~84~ubuntu18.04.1
FMAT,2
INCH
T1C0.0157
T2C0.0354
T3C0.0394
T4C0.0276
%
G90
G05
T1
X6.24Y-1.71
X6.4Y-1.7485
X6.77Y-1.785
X7.065Y-2.03
X7.065Y-2.54
X7.065Y-3.03
X7.12Y-2.255
X7.125Y-2.76
X7.125Y-3.25
X7.135Y-1.785
X7.165Y-1.815
X7.195Y-1.84
X7.195Y-2.11
X7.195Y-2.615
X7.195Y-3.1
X7.235Y-1.685
X7.235Y-2.44
X7.24Y-1.935
X7.265Y-1.715
X7.265Y-2.925
X7.285Y-2.45
X7.29Y-1.95
X7.295Y-1.74
X7.31Y-2.9624
X7.33Y-2.03
X7.33Y-2.54
X7.33Y-3.03
X7.415Y-3.195
X7.475Y-2.26
X7.48Y-2.76
T2
X6.0701Y-3.0
X6.0701Y-3.0984
X6.0701Y-3.1969
X6.2Y-3.0
X6.2Y-3.0984
X6.2Y-3.1969
X6.3201Y-2.0
X6.3201Y-2.0984
X6.3201Y-2.1969
X6.45Y-2.0
X6.45Y-2.0984
X6.45Y-2.1969
X6.5701Y-2.0
X6.5701Y-2.0984
X6.5701Y-2.1969
X6.7Y-2.0
X6.7Y-2.0984
X6.7Y-2.1969
X6.3201Y-3.0
X6.3201Y-3.0984
X6.3201Y-3.1969
X6.45Y-3.0
X6.45Y-3.0984
X6.45Y-3.1969
X6.0701Y-2.0
X6.0701Y-2.0984
X6.0701Y-2.1969
X6.2Y-2.0
X6.2Y-2.0984
X6.2Y-2.1969
X5.58Y-2.425
X5.58Y-2.475
X5.58Y-2.525
X5.58Y-2.575
X6.5701Y-2.5
X6.5701Y-2.5984
X6.5701Y-2.6969
X6.7Y-2.5
X6.7Y-2.5984
X6.7Y-2.6969
X6.8201Y-3.0
X6.8201Y-3.0984
X6.8201Y-3.1969
X6.95Y-3.0
X6.95Y-3.0984
X6.95Y-3.1969
X6.0701Y-2.5
X6.0701Y-2.5984
X6.0701Y-2.6969
X6.2Y-2.5
X6.2Y-2.5984
X6.2Y-2.6969
X6.3201Y-2.5
X6.3201Y-2.5984
X6.3201Y-2.6969
X6.45Y-2.5
X6.45Y-2.5984
X6.45Y-2.6969
X6.5701Y-3.0
X6.5701Y-3.0984
X6.5701Y-3.1969
X6.7Y-3.0
X6.7Y-3.0984
X6.7Y-3.1969
X6.8201Y-2.5
X6.8201Y-2.5984
X6.8201Y-2.6969
X6.95Y-2.5
X6.95Y-2.5984
X6.95Y-2.6969
X6.8201Y-2.0
X6.8201Y-2.0984
X6.8201Y-2.1969
X6.95Y-2.0
X6.95Y-2.0984
X6.95Y-2.1969
T3
X6.63Y-3.395
X6.63Y-3.495
X6.73Y-3.395
X6.73Y-3.495
X6.83Y-3.395
X6.83Y-3.495
X6.625Y-1.5
X6.625Y-1.6
X6.725Y-1.5
X6.725Y-1.6
X6.825Y-1.5
X6.825Y-1.6
X5.9943Y-1.5609
X6.0326Y-1.6533
X6.0867Y-1.5226
X6.125Y-1.615
X6.1791Y-1.4843
X6.2174Y-1.5767
X7.2567Y-1.5924
X7.295Y-1.5
X7.3491Y-1.6307
X7.3874Y-1.5383
X7.4415Y-1.6689
X7.4798Y-1.5765
T4
X7.465Y-1.93
X7.465Y-1.98
X7.465Y-2.03
X7.465Y-2.08
X7.465Y-2.13
X7.465Y-2.94
X7.465Y-2.99
X7.465Y-3.04
X7.465Y-3.09
X7.465Y-3.14
X7.465Y-2.44
X7.465Y-2.49
X7.465Y-2.54
X7.465Y-2.59
X7.465Y-2.64
T0
M30
